<svg width="1440" height="1024" viewBox="0 0 1440 1024" fill="none" xmlns="http://www.w3.org/2000/svg">
<g clip-path="url(#clip0_18_181)">
<rect width="1440" height="1024" fill="#1339AF"/>
<path fill-rule="evenodd" clip-rule="evenodd" d="M185.033 1152.13C112.405 1031.62 260.524 872.045 307.316 729.891C340.795 628.18 375.788 531.98 421.523 433.668C472.27 324.582 472.383 152.727 591.208 119.633C728.667 81.348 806.58 315.89 945.707 287.674C1118.62 252.607 1188.51 -37.1648 1361.67 -36.6242C1500.94 -36.1896 1539.12 159.74 1558.31 289.586C1575.35 404.792 1481.03 515.62 1460.8 633.845C1444.44 729.471 1473.12 820.723 1451.15 915.837C1422.6 1039.45 1419.07 1186.95 1313.82 1270.13C1209.88 1352.28 1061.62 1330.71 934.096 1324.48C818.31 1318.83 723.081 1261.39 612.259 1235.89C468.892 1202.9 257.17 1271.83 185.033 1152.13Z" fill="#0D41E1"/>
<path fill-rule="evenodd" clip-rule="evenodd" d="M259.72 1314.75C187.091 1194.24 335.211 1034.67 382.003 892.515C415.482 790.804 450.475 694.604 496.21 596.292C546.957 487.206 547.069 315.352 665.894 282.257C803.353 243.972 881.266 478.514 1020.39 450.298C1193.3 415.231 1263.2 125.46 1436.36 126C1575.63 126.435 1613.8 322.364 1633 452.21C1650.03 567.416 1555.71 678.244 1535.48 796.469C1519.12 892.095 1547.81 983.347 1525.84 1078.46C1497.29 1202.08 1493.76 1349.58 1388.51 1432.76C1284.57 1514.9 1136.31 1493.33 1008.78 1487.11C892.997 1481.46 797.767 1424.01 686.946 1398.52C543.579 1365.53 331.856 1434.45 259.72 1314.75Z" fill="#0C63E7"/>
<path fill-rule="evenodd" clip-rule="evenodd" d="M347.033 1500.13C274.405 1379.62 422.524 1220.05 469.316 1077.89C502.795 976.18 537.788 879.98 583.523 781.668C634.27 672.582 634.383 500.727 753.208 467.633C890.667 429.348 968.58 663.89 1107.71 635.674C1280.62 600.607 1350.51 310.835 1523.67 311.376C1662.94 311.81 1701.12 507.74 1720.31 637.586C1737.35 752.792 1643.03 863.62 1622.8 981.845C1606.44 1077.47 1635.12 1168.72 1613.15 1263.84C1584.6 1387.45 1581.07 1534.95 1475.82 1618.13C1371.88 1700.28 1223.62 1678.71 1096.1 1672.48C980.31 1666.83 885.081 1609.39 774.259 1583.89C630.892 1550.9 419.17 1619.83 347.033 1500.13Z" fill="#0A85ED"/>
<path fill-rule="evenodd" clip-rule="evenodd" d="M434.033 1704.13C361.405 1583.62 509.524 1424.05 556.316 1281.89C589.795 1180.18 624.788 1083.98 670.523 985.668C721.27 876.582 721.383 704.727 840.208 671.633C977.667 633.348 1055.58 867.89 1194.71 839.674C1367.62 804.607 1437.51 514.835 1610.67 515.376C1749.94 515.81 1788.12 711.74 1807.31 841.586C1824.35 956.792 1730.03 1067.62 1709.8 1185.84C1693.44 1281.47 1722.12 1372.72 1700.15 1467.84C1671.6 1591.45 1668.07 1738.95 1562.82 1822.13C1458.88 1904.28 1310.62 1882.71 1183.1 1876.48C1067.31 1870.83 972.081 1813.39 861.259 1787.89C717.892 1754.9 506.17 1823.83 434.033 1704.13Z" fill="#09A6F3"/>
</g>
<defs>
<clipPath id="clip0_18_181">
<rect width="1440" height="1024" fill="white"/>
</clipPath>
</defs>
</svg>
