<svg xmlns="http://www.w3.org/2000/svg" xmlns:xlink="http://www.w3.org/1999/xlink" width="375" zoomAndPan="magnify" viewBox="0 0 281.25 281.249989" height="375" preserveAspectRatio="xMidYMid meet" version="1.0"><defs><clipPath id="ff67f54ef3"><path d="M 86.769531 220 L 200.464844 220 L 200.464844 253.667969 L 86.769531 253.667969 Z M 86.769531 220 " clip-rule="nonzero"/></clipPath></defs><path fill="#a6a6a6" d="M 122.019531 84.1875 L 137.714844 34.976562 C 138.484375 32.5625 141.910156 32.59375 142.632812 35.023438 L 157.28125 84.234375 C 157.769531 85.886719 156.535156 87.546875 154.8125 87.546875 L 124.472656 87.546875 C 122.730469 87.546875 121.492188 85.847656 122.019531 84.1875 Z M 122.019531 84.1875 " fill-opacity="1" fill-rule="nonzero"/><path fill="#a6a6a6" d="M 188.320312 98.6875 L 232.789062 72.464844 C 234.96875 71.175781 237.5 73.484375 236.421875 75.78125 L 214.574219 122.242188 C 213.84375 123.796875 211.8125 124.210938 210.53125 123.0625 L 187.910156 102.828125 C 186.613281 101.664062 186.816406 99.574219 188.320312 98.6875 Z M 188.320312 98.6875 " fill-opacity="1" fill-rule="nonzero"/><path fill="#a6a6a6" d="M 64.601562 124.722656 L 43.535156 77.566406 C 42.5 75.25 45.074219 72.988281 47.234375 74.320312 L 90.917969 101.242188 C 92.382812 102.148438 92.570312 104.207031 91.285156 105.355469 L 68.664062 125.59375 C 67.363281 126.753906 65.308594 126.3125 64.601562 124.722656 Z M 64.601562 124.722656 " fill-opacity="1" fill-rule="nonzero"/><path fill="#a6a6a6" d="M 57.125 194.644531 L 7.949219 178.941406 C 5.539062 178.167969 5.570312 174.742188 8 174.015625 L 57.167969 159.355469 C 58.820312 158.867188 60.476562 160.101562 60.476562 161.828125 L 60.476562 192.191406 C 60.476562 193.933594 58.78125 195.175781 57.125 194.644531 Z M 57.125 194.644531 " fill-opacity="1" fill-rule="nonzero"/><path fill="#a6a6a6" d="M 211.40625 171.703125 C 210.28125 208.265625 179.753906 236.996094 143.214844 235.871094 C 106.679688 234.742188 77.980469 204.1875 79.105469 167.625 C 80.230469 131.054688 110.757812 102.328125 147.292969 103.457031 C 183.824219 104.582031 212.53125 135.132812 211.40625 171.703125 Z M 211.40625 171.703125 " fill-opacity="1" fill-rule="nonzero"/><path fill="#a6a6a6" d="M 222.09375 156.867188 L 271.261719 172.574219 C 273.675781 173.34375 273.640625 176.773438 271.214844 177.496094 L 222.046875 192.15625 C 220.394531 192.644531 218.734375 191.410156 218.734375 189.6875 L 218.734375 159.320312 C 218.734375 157.578125 220.433594 156.339844 222.09375 156.867188 Z M 222.09375 156.867188 " fill-opacity="1" fill-rule="nonzero"/><g clip-path="url(#ff67f54ef3)"><path fill="#737373" d="M 199.878906 223.996094 C 201.007812 222.351562 199.789062 220.183594 197.792969 220.183594 L 89.441406 220.183594 C 87.449219 220.183594 86.226562 222.351562 87.355469 223.996094 C 99.644531 241.914062 120.261719 253.667969 143.617188 253.667969 C 166.976562 253.667969 187.589844 241.914062 199.878906 223.996094 Z M 199.878906 223.996094 " fill-opacity="1" fill-rule="evenodd"/></g><path fill="#737373" d="M 41.179688 217.609375 L 247.042969 217.609375 C 247.386719 217.609375 247.710938 217.675781 248.027344 217.804688 C 248.34375 217.933594 248.621094 218.121094 248.863281 218.363281 C 249.105469 218.605469 249.289062 218.882812 249.421875 219.199219 C 249.554688 219.511719 249.617188 219.84375 249.617188 220.183594 C 249.617188 220.527344 249.554688 220.855469 249.421875 221.171875 C 249.289062 221.484375 249.105469 221.761719 248.863281 222.003906 C 248.621094 222.25 248.34375 222.433594 248.027344 222.5625 C 247.710938 222.695312 247.386719 222.757812 247.042969 222.757812 L 41.179688 222.757812 C 40.835938 222.757812 40.507812 222.695312 40.195312 222.5625 C 39.878906 222.433594 39.601562 222.25 39.359375 222.003906 C 39.117188 221.761719 38.929688 221.484375 38.800781 221.171875 C 38.671875 220.855469 38.605469 220.527344 38.605469 220.183594 C 38.605469 219.84375 38.671875 219.511719 38.800781 219.199219 C 38.929688 218.882812 39.117188 218.605469 39.359375 218.363281 C 39.601562 218.121094 39.878906 217.933594 40.195312 217.804688 C 40.507812 217.675781 40.835938 217.609375 41.179688 217.609375 Z M 41.179688 217.609375 " fill-opacity="1" fill-rule="nonzero"/><path stroke-linecap="butt" transform="matrix(-0.043479, -0.559317, 0.559317, -0.043479, 52.129897, 185.266366)" fill="none" stroke-linejoin="miter" d="M 16.12843 39.426367 C 13.411795 39.424706 11.011229 38.860961 8.941155 37.729271 C 6.871081 36.59758 5.243112 34.899635 4.078613 32.630113 C 2.906633 30.366993 2.32038 27.57672 2.320936 24.245409 C 2.320952 20.921041 2.907974 18.131182 4.076141 15.861408 C 5.243768 13.598577 6.863265 11.901654 8.942115 10.764237 C 11.013483 9.633222 13.403744 9.071746 16.120379 9.073407 C 18.96305 9.070897 21.371098 9.62824 23.358947 10.739571 C 25.340393 11.84342 26.759023 13.53906 27.608972 15.812066 L 23.349008 18.414181 L 22.840621 18.395613 C 22.21223 16.866163 21.354924 15.765892 20.275647 15.09534 C 19.188888 14.43119 17.803869 14.100038 16.12807 14.095479 C 13.676851 14.093499 11.769686 14.909032 10.393773 16.527114 C 9.017859 18.145197 8.335413 20.725103 8.334172 24.244928 C 8.333469 27.75781 9.020834 30.325472 10.389324 31.947374 C 11.764755 33.569816 13.678081 34.382028 16.122898 34.376527 C 19.957272 34.374284 22.301584 32.517202 23.171339 28.785534 L 23.66692 28.789138 L 27.969432 31.030222 C 27.165588 33.824178 25.78661 35.9309 23.834115 37.329563 C 21.88216 38.721283 19.313419 39.422532 16.12843 39.426367 Z M 16.12843 39.426367 " stroke="#ffffff" stroke-width="3.1" stroke-opacity="1" stroke-miterlimit="4"/><path stroke-linecap="butt" transform="matrix(0.0767675, -0.555727, 0.555727, 0.0767675, 50.996824, 165.041678)" fill="none" stroke-linejoin="miter" d="M 28.313963 38.999987 L 22.177187 38.997195 L 19.959512 32.204167 L 8.655913 32.198148 L 6.432449 39.000168 L 0.443378 38.99806 L 10.636858 9.494695 L 18.12272 9.493882 Z M 14.024387 15.648142 L 10.227579 27.29264 L 18.339702 27.296694 L 14.531485 15.655412 Z M 14.024387 15.648142 " stroke="#ffffff" stroke-width="3.1" stroke-opacity="1" stroke-miterlimit="4"/><path stroke-linecap="butt" transform="matrix(0.184144, -0.529921, 0.529921, 0.184144, 54.218213, 145.415903)" fill="none" stroke-linejoin="miter" d="M 9.665473 9.498013 L 9.660741 34.112697 L 22.923818 34.118349 L 22.926371 39.004688 L 3.834514 39.00474 L 3.834407 9.49714 Z M 9.665473 9.498013 " stroke="#ffffff" stroke-width="3.1" stroke-opacity="1" stroke-miterlimit="4"/><path stroke-linecap="butt" transform="matrix(0.284377, -0.483586, 0.483586, 0.284377, 60.082534, 129.265623)" fill="none" stroke-linejoin="miter" d="M 28.315684 39.002876 L 22.182385 38.998891 L 19.95315 32.199825 L 8.657402 32.194454 L 6.439438 38.999643 L 0.443471 38.995676 L 10.63351 9.497306 L 18.121056 9.496527 Z M 14.02679 15.652234 L 10.234001 27.293106 L 18.342539 27.290643 L 14.531986 15.645946 Z M 14.02679 15.652234 " stroke="#ffffff" stroke-width="3.1" stroke-opacity="1" stroke-miterlimit="4"/><path stroke-linecap="butt" transform="matrix(0.384312, -0.408693, 0.408693, 0.384312, 70.691996, 111.980631)" fill="none" stroke-linejoin="miter" d="M 15.643749 39.424069 C 11.579949 39.422275 8.560486 38.45756 6.595203 36.530226 C 4.634992 34.598123 3.654084 31.735581 3.65755 27.93783 L 3.653166 9.49518 L 9.362172 9.498297 L 9.367766 27.901577 C 9.365623 30.054123 9.887464 31.666154 10.918374 32.742137 C 11.949284 33.81812 13.528633 34.359266 15.63704 34.355126 C 19.82372 34.365624 21.914584 32.208334 21.918871 27.903242 L 21.918349 9.495192 L 27.627354 9.498309 L 27.626969 27.935886 C 27.623502 31.733637 26.643944 34.595016 24.678149 36.529561 C 22.717426 38.459336 19.70278 39.42079 15.643749 39.424069 Z M 15.643749 39.424069 " stroke="#ffffff" stroke-width="3.1" stroke-opacity="1" stroke-miterlimit="4"/><path stroke-linecap="butt" transform="matrix(0.465203, -0.313547, 0.313547, 0.465203, 85.93529, 96.562737)" fill="none" stroke-linejoin="miter" d="M 28.31458 39.000928 L 22.179167 38.996917 L 19.961801 32.195585 L 8.656513 32.200176 L 6.434058 38.998353 L 0.445384 39.000878 L 10.635027 9.493442 L 18.124228 9.494646 Z M 14.025966 15.649897 L 10.234031 27.293246 L 18.345083 27.293735 L 14.531958 15.646663 Z M 14.025966 15.649897 " stroke="#ffffff" stroke-width="3.1" stroke-opacity="1" stroke-miterlimit="4"/><path stroke-linecap="butt" transform="matrix(0.522682, -0.203785, 0.203785, 0.522682, 102.945837, 85.571304)" fill="none" stroke-linejoin="miter" d="M 14.327736 39.424111 C 11.867124 39.428836 9.741576 38.86169 7.943504 37.742138 C 6.141475 36.613568 4.759947 34.924019 3.784515 32.652927 C 2.806554 30.388323 2.316497 27.581544 2.322258 24.250624 C 2.318675 20.886167 2.900476 18.071301 4.076678 15.802068 C 5.246393 13.530305 6.873831 11.848042 8.951075 10.737245 C 11.028319 9.626447 13.441456 9.072597 16.183997 9.073163 C 19.010546 9.069115 21.420224 9.597569 23.409073 10.649507 C 25.400452 11.694957 26.801559 13.257618 27.608436 15.32847 L 23.349801 17.913027 L 22.844001 17.887714 C 22.235121 16.574142 21.38619 15.607913 20.292148 15.002001 C 19.198106 14.396089 17.82619 14.100352 16.183986 14.095328 C 13.641895 14.098179 11.699032 14.902643 10.355396 16.50872 C 9.002744 18.118754 8.333538 20.697759 8.332275 24.247163 C 8.33244 27.812071 8.958964 30.403011 10.220863 32.016025 C 11.473746 33.632997 13.336266 34.433898 15.800837 34.43819 C 17.923992 34.436419 19.490898 33.963677 20.500125 33.004461 C 21.51584 32.047774 22.016758 30.628805 22.016956 28.730622 L 22.021303 27.454354 L 15.032451 27.45733 L 15.036189 22.713136 L 27.807556 22.715155 L 27.810433 39.00096 L 22.241343 39.004441 L 22.238997 35.042589 L 21.814347 34.981654 C 21.209959 36.397649 20.29111 37.489257 19.064287 38.259008 C 17.825918 39.039204 16.247911 39.425409 14.327736 39.424111 Z M 14.327736 39.424111 " stroke="#ffffff" stroke-width="3.1" stroke-opacity="1" stroke-miterlimit="4"/><path stroke-linecap="butt" transform="matrix(0.559139, -0.0457043, 0.0457043, 0.559139, 130.349798, 76.911763)" fill="none" stroke-linejoin="miter" d="M 13.079113 39.427369 C 11.0327 39.420776 9.208529 39.173861 7.615244 38.666371 C 6.021392 38.165821 4.699629 37.498884 3.628002 36.677739 C 2.570254 35.857729 1.756969 34.952908 1.193952 33.977724 L 4.399321 30.061993 L 4.902391 30.061197 C 5.793812 31.377604 6.923058 32.434002 8.28489 33.209007 C 9.653663 33.984579 11.242144 34.379897 13.079796 34.376412 C 14.637586 34.377995 15.81032 34.047698 16.611876 33.386654 C 17.406492 32.725043 17.794797 31.820634 17.798178 30.66819 C 17.799953 29.96273 17.672973 29.379484 17.410866 28.910943 C 17.163206 28.436597 16.735243 28.031347 16.140857 27.696328 C 15.553411 27.361876 14.752665 27.072865 13.745559 26.829861 L 9.946281 25.960411 C 7.298711 25.359757 5.320104 24.352696 4.023772 22.947303 C 2.72744 21.541909 2.080386 19.714527 2.07567 17.46459 C 2.07939 15.795196 2.492257 14.3339 3.329285 13.067957 C 4.166313 11.802015 5.37849 10.81824 6.972187 10.12414 C 8.566451 9.4231 10.474105 9.076027 12.688776 9.075415 C 14.966473 9.072968 16.912156 9.371733 18.533333 9.965337 C 20.153943 10.565881 21.524682 11.488324 22.639179 12.725158 L 19.758847 16.681429 L 19.248837 16.681658 C 18.419403 15.803462 17.460213 15.145204 16.385145 14.708018 C 15.30951 14.277772 14.083866 14.058822 12.693766 14.056973 C 11.09377 14.058926 9.875861 14.343614 9.040608 14.904097 C 8.204788 15.471519 7.791994 16.248175 7.787213 17.246809 C 7.788672 18.169104 8.084175 18.912836 8.667348 19.470497 C 9.251656 20.014277 10.264265 20.446358 11.706311 20.752859 L 15.580092 21.565523 C 18.443931 22.169883 20.526068 23.192392 21.812057 24.638857 C 23.104985 26.08589 23.753874 27.976297 23.75235 30.302573 C 23.755268 32.147164 23.358815 33.749526 22.562423 35.116596 C 21.772972 36.484234 20.569002 37.538542 18.9702 38.295101 C 17.371397 39.051659 15.405389 39.428893 13.079113 39.427369 Z M 13.079113 39.427369 " stroke="#ffffff" stroke-width="3.1" stroke-opacity="1" stroke-miterlimit="4"/><path stroke-linecap="butt" transform="matrix(0.557878, 0.0591375, -0.0591375, 0.557878, 148.147502, 75.815271)" fill="none" stroke-linejoin="miter" d="M 23.652694 9.496134 L 23.64791 14.405026 L 15.132702 14.397417 L 15.136157 39.001991 L 9.324505 39.001877 L 9.328708 14.403493 L 0.806576 14.396619 L 0.80517 9.495386 Z M 23.652694 9.496134 " stroke="#ffffff" stroke-width="3.1" stroke-opacity="1" stroke-miterlimit="4"/><path stroke-linecap="butt" transform="matrix(0.544404, 0.135463, -0.135463, 0.544404, 164.644831, 78.024524)" fill="none" stroke-linejoin="miter" d="M 5.689122 39.187319 C 4.978153 39.184845 4.345032 39.033846 3.806635 38.744473 C 3.26148 38.45678 2.846484 38.057773 2.548132 37.550813 C 2.261612 37.033734 2.117019 36.452638 2.116035 35.814283 C 2.120127 35.16749 2.262624 34.586711 2.551966 34.077022 C 2.841308 33.567334 3.257192 33.162489 3.806374 32.860806 C 4.350481 32.567561 4.980557 32.417956 5.691525 32.420429 C 6.417689 32.426297 7.054204 32.562101 7.60104 32.85655 C 8.139437 33.145924 8.561191 33.54325 8.846029 34.053572 C 9.139306 34.56897 9.282217 35.143309 9.284883 35.788421 C 9.27873 36.772966 8.956967 37.584908 8.304401 38.220853 C 7.653516 38.863555 6.778383 39.181766 5.689122 39.187319 Z M 5.689122 39.187319 " stroke="#ffffff" stroke-width="3.1" stroke-opacity="1" stroke-miterlimit="4"/><path stroke-linecap="butt" transform="matrix(0.498778, 0.256799, -0.256799, 0.498778, 181.071728, 82.837997)" fill="none" stroke-linejoin="miter" d="M 17.531797 39.00095 L 10.490696 39.000062 L 0.525635 9.499132 L 6.719659 9.497572 L 13.886756 31.49532 L 14.388138 31.495625 L 21.449551 9.494809 L 27.48789 9.495088 Z M 17.531797 39.00095 " stroke="#ffffff" stroke-width="3.1" stroke-opacity="1" stroke-miterlimit="4"/><path stroke-linecap="butt" transform="matrix(0.452106, 0.332153, -0.332153, 0.452106, 197.610356, 91.998641)" fill="none" stroke-linejoin="miter" d="M 3.828012 9.494178 L 9.666081 9.490564 L 9.669834 39.002474 L 3.837376 39.001965 Z M 3.828012 9.494178 " stroke="#ffffff" stroke-width="3.1" stroke-opacity="1" stroke-miterlimit="4"/><path stroke-linecap="butt" transform="matrix(0.388033, 0.405161, -0.405161, 0.388033, 206.605573, 98.409601)" fill="none" stroke-linejoin="miter" d="M 9.485592 39.001595 L 3.836929 39.00045 L 3.835137 9.496573 L 10.508086 9.4953 L 22.358548 28.499938 L 22.883864 28.424574 L 22.883952 9.498925 L 28.493235 9.500921 L 28.495028 39.004798 L 22.521273 39.000823 L 9.99278 18.700853 L 9.482337 18.780821 Z M 9.485592 39.001595 " stroke="#ffffff" stroke-width="3.1" stroke-opacity="1" stroke-miterlimit="4"/><path stroke-linecap="butt" transform="matrix(0.286669, 0.48223, -0.48223, 0.286669, 221.63186, 114.945712)" fill="none" stroke-linejoin="miter" d="M 16.124488 39.425268 C 13.411379 39.424396 11.011211 38.85622 8.935954 37.727858 C 6.864256 36.59351 5.245254 34.902036 4.074096 32.63435 C 2.902938 30.366664 2.319545 27.573542 2.321491 24.245443 C 2.319879 20.923328 2.910339 18.131389 4.074916 15.85895 C 5.247905 13.599612 6.86739 11.897314 8.941784 10.765157 C 11.012619 9.638985 13.408149 9.070351 16.121258 9.071223 C 18.962153 9.075157 21.372995 9.625376 23.362197 10.734984 C 25.341855 11.847018 26.757855 13.53932 27.610195 15.81189 L 23.345787 18.42059 L 22.841757 18.396375 C 22.207371 16.8609 21.353849 15.762183 20.275206 15.096667 C 19.18702 14.433577 17.806413 14.098878 16.120284 14.10098 C 13.675849 14.097817 11.768517 14.908067 10.392303 16.52817 C 9.022074 18.151831 8.335187 20.724441 8.337628 24.249557 C 8.331656 27.761572 9.019196 30.324992 10.393133 31.951788 C 11.764643 33.56904 13.672615 34.379247 16.120608 34.376425 C 19.957426 34.381072 22.307055 32.513391 23.168364 28.78891 L 23.671097 28.788053 L 27.969615 31.027457 C 27.163052 33.828637 25.780413 35.922843 23.836096 37.326735 C 21.879809 38.723511 19.315258 39.42658 16.124488 39.425268 Z M 16.124488 39.425268 " stroke="#ffffff" stroke-width="3.1" stroke-opacity="1" stroke-miterlimit="4"/><path stroke-linecap="butt" transform="matrix(0.18358, 0.530117, -0.530117, 0.18358, 231.462827, 132.450212)" fill="none" stroke-linejoin="miter" d="M 9.665259 26.046115 L 9.670529 34.11662 L 23.752535 34.115175 L 23.755185 39.001513 L 3.831237 38.998903 L 3.835101 9.496135 L 23.428789 9.494905 L 23.431439 14.381243 L 9.666534 14.381971 L 9.66563 21.278722 L 21.69091 21.279791 L 21.699397 26.042883 Z M 9.665259 26.046115 " stroke="#ffffff" stroke-width="3.1" stroke-opacity="1" stroke-miterlimit="4"/><path stroke-linecap="butt" transform="matrix(0.066289, 0.557074, -0.557074, 0.066289, 237.232327, 149.789221)" fill="none" stroke-linejoin="miter" d="M 9.481626 38.996874 L 3.835901 39.005233 L 3.834041 9.498148 L 10.517053 9.494015 L 22.362457 28.510911 L 22.88447 28.425774 L 22.886451 9.493373 L 28.49596 9.494729 L 28.497819 39.001814 L 22.523837 38.999161 L 9.990244 18.694295 L 9.482059 18.781077 Z M 9.481626 38.996874 " stroke="#ffffff" stroke-width="3.1" stroke-opacity="1" stroke-miterlimit="4"/><path stroke-linecap="butt" transform="matrix(-0.0522687, 0.558564, -0.558564, -0.0522687, 239.192787, 171.808042)" fill="none" stroke-linejoin="miter" d="M 23.653059 9.496013 L 23.650268 14.398636 L 15.132312 14.398475 L 15.133726 39.001065 L 9.322071 38.999419 L 9.320657 14.396829 L 0.80335 14.403601 L 0.80614 9.500978 Z M 23.653059 9.496013 " stroke="#ffffff" stroke-width="3.1" stroke-opacity="1" stroke-miterlimit="4"/><path fill="#a6a6a6" d="M 73.476562 174.523438 C 73.59375 176.054688 73.382812 177.421875 72.84375 178.628906 C 72.300781 179.835938 71.417969 180.820312 70.203125 181.574219 C 68.984375 182.320312 67.441406 182.769531 65.585938 182.917969 C 63.734375 183.058594 62.148438 182.851562 60.832031 182.296875 C 59.507812 181.746094 58.480469 180.914062 57.757812 179.808594 C 57.03125 178.695312 56.613281 177.375 56.496094 175.84375 C 56.371094 174.265625 56.578125 172.898438 57.113281 171.742188 C 57.652344 170.582031 58.535156 169.714844 59.765625 169.136719 L 61.414062 171.402344 L 61.425781 171.683594 C 60.59375 172.105469 60.019531 172.636719 59.695312 173.273438 C 59.378906 173.914062 59.253906 174.699219 59.324219 175.636719 C 59.433594 177.007812 59.972656 178.042969 60.9375 178.742188 C 61.894531 179.4375 63.359375 179.707031 65.332031 179.550781 C 67.292969 179.394531 68.703125 178.902344 69.550781 178.066406 C 70.398438 177.222656 70.769531 176.121094 70.660156 174.746094 C 70.496094 172.605469 69.351562 171.375 67.222656 171.054688 L 67.199219 170.773438 L 68.265625 168.273438 C 69.871094 168.597656 71.105469 169.277344 71.96875 170.304688 C 72.832031 171.335938 73.335938 172.742188 73.476562 174.523438 Z M 73.476562 174.523438 " fill-opacity="1" fill-rule="nonzero"/><path fill="#a6a6a6" d="M 74.84375 152.304688 L 74.375 155.707031 L 70.425781 156.417969 L 69.5625 162.695312 L 73.160156 164.460938 L 72.703125 167.789062 L 57.089844 159.855469 L 57.664062 155.695312 Z M 60.773438 158.453125 L 66.941406 161.457031 L 67.574219 156.933594 L 60.816406 158.171875 Z M 60.773438 158.453125 " fill-opacity="1" fill-rule="nonzero"/><path fill="#a6a6a6" d="M 61.023438 142.042969 L 74.078125 146.578125 L 76.519531 139.542969 L 79.105469 140.441406 L 75.585938 150.5625 L 59.949219 145.128906 Z M 61.023438 142.042969 " fill-opacity="1" fill-rule="nonzero"/><path fill="#a6a6a6" d="M 86.996094 126.667969 L 85.253906 129.625 L 81.335938 128.773438 L 78.125 134.230469 L 80.777344 137.246094 L 79.070312 140.144531 L 67.699219 126.820312 L 69.824219 123.199219 Z M 71.636719 126.9375 L 76.195312 132.082031 L 78.507812 128.152344 L 71.789062 126.679688 Z M 71.636719 126.9375 " fill-opacity="1" fill-rule="nonzero"/><path fill="#a6a6a6" d="M 92.8125 120.738281 C 91.25 122.398438 89.699219 123.261719 88.148438 123.320312 C 86.605469 123.386719 85.058594 122.6875 83.507812 121.230469 L 75.96875 114.148438 L 78.167969 111.796875 L 85.695312 118.867188 C 86.578125 119.695312 87.429688 120.105469 88.265625 120.09375 C 89.105469 120.089844 89.929688 119.652344 90.742188 118.785156 C 92.355469 117.082031 92.28125 115.402344 90.519531 113.75 L 82.996094 106.679688 L 85.179688 104.339844 L 92.71875 111.421875 C 94.265625 112.882812 95.0625 114.386719 95.101562 115.933594 C 95.140625 117.476562 94.378906 119.078125 92.8125 120.738281 Z M 92.8125 120.738281 " fill-opacity="1" fill-rule="nonzero"/><path fill="#a6a6a6" d="M 111.332031 105.824219 L 108.480469 107.75 L 105.3125 105.296875 L 100.066406 108.839844 L 101.152344 112.683594 L 98.359375 114.566406 L 93.871094 97.640625 L 97.34375 95.304688 Z M 97.355469 99.441406 L 99.25 106.054688 L 103.035156 103.507812 L 97.601562 99.277344 Z M 97.355469 99.441406 " fill-opacity="1" fill-rule="nonzero"/><path fill="#a6a6a6" d="M 118.464844 103.253906 C 117.179688 103.753906 115.953125 103.894531 114.785156 103.675781 C 113.621094 103.460938 112.550781 102.859375 111.570312 101.875 C 110.597656 100.886719 109.769531 99.519531 109.09375 97.773438 C 108.410156 96.019531 108.144531 94.429688 108.296875 93.003906 C 108.445312 91.574219 108.949219 90.359375 109.804688 89.359375 C 110.664062 88.351562 111.808594 87.570312 113.253906 87.007812 C 114.726562 86.433594 116.085938 86.21875 117.34375 86.367188 C 118.597656 86.507812 119.648438 87.042969 120.488281 87.96875 L 118.792969 90.175781 L 118.535156 90.269531 C 117.953125 89.710938 117.308594 89.382812 116.609375 89.289062 C 115.914062 89.195312 115.136719 89.316406 114.28125 89.652344 C 112.949219 90.164062 112.097656 90.980469 111.722656 92.09375 C 111.347656 93.210938 111.523438 94.695312 112.25 96.546875 C 112.972656 98.417969 113.824219 99.644531 114.808594 100.226562 C 115.789062 100.8125 116.925781 100.851562 118.21875 100.34375 C 119.332031 99.917969 120.054688 99.347656 120.382812 98.636719 C 120.714844 97.929688 120.691406 97.085938 120.3125 96.101562 L 120.054688 95.4375 L 116.410156 96.863281 L 115.4375 94.371094 L 122.113281 91.765625 L 125.433594 100.285156 L 122.523438 101.421875 L 121.714844 99.351562 L 121.46875 99.410156 C 121.445312 100.269531 121.1875 101.027344 120.699219 101.6875 C 120.214844 102.34375 119.472656 102.867188 118.464844 103.253906 Z M 118.464844 103.253906 " fill-opacity="1" fill-rule="nonzero"/><path fill="#a6a6a6" d="M 139.476562 98.359375 C 138.328125 98.453125 137.296875 98.398438 136.378906 98.195312 C 135.464844 97.984375 134.695312 97.675781 134.0625 97.257812 C 133.433594 96.847656 132.933594 96.378906 132.566406 95.855469 L 134.179688 93.519531 L 134.460938 93.496094 C 135.023438 94.195312 135.699219 94.734375 136.496094 95.109375 C 137.296875 95.484375 138.210938 95.628906 139.242188 95.542969 C 140.113281 95.472656 140.75 95.234375 141.15625 94.828125 C 141.570312 94.417969 141.75 93.886719 141.695312 93.238281 C 141.664062 92.851562 141.566406 92.53125 141.402344 92.28125 C 141.246094 92.03125 140.996094 91.824219 140.644531 91.660156 C 140.300781 91.496094 139.839844 91.375 139.265625 91.285156 L 137.101562 90.972656 C 135.589844 90.761719 134.441406 90.292969 133.65625 89.570312 C 132.867188 88.839844 132.421875 87.839844 132.320312 86.578125 C 132.242188 85.652344 132.40625 84.8125 132.8125 84.0625 C 133.214844 83.316406 133.851562 82.714844 134.71875 82.253906 C 135.582031 81.785156 136.628906 81.5 137.863281 81.398438 C 139.128906 81.300781 140.234375 81.382812 141.167969 81.644531 C 142.109375 81.902344 142.917969 82.351562 143.589844 82.988281 L 142.164062 85.351562 L 141.882812 85.371094 C 141.375 84.921875 140.808594 84.597656 140.1875 84.402344 C 139.5625 84.203125 138.863281 84.132812 138.085938 84.191406 C 137.1875 84.269531 136.519531 84.492188 136.085938 84.847656 C 135.648438 85.199219 135.453125 85.652344 135.5 86.203125 C 135.539062 86.726562 135.734375 87.125 136.085938 87.40625 C 136.4375 87.6875 137.023438 87.878906 137.851562 87.980469 L 140.058594 88.261719 C 141.679688 88.46875 142.882812 88.949219 143.671875 89.699219 C 144.457031 90.445312 144.902344 91.46875 145.015625 92.757812 C 145.097656 93.796875 144.949219 94.71875 144.570312 95.519531 C 144.195312 96.3125 143.578125 96.960938 142.710938 97.457031 C 141.847656 97.949219 140.765625 98.25 139.476562 98.359375 Z M 139.476562 98.359375 " fill-opacity="1" fill-rule="nonzero"/><path fill="#a6a6a6" d="M 160.789062 82.523438 L 160.511719 85.261719 L 155.765625 84.757812 L 154.304688 98.480469 L 151.054688 98.128906 L 152.515625 84.40625 L 147.769531 83.90625 L 148.050781 81.167969 Z M 160.789062 82.523438 " fill-opacity="1" fill-rule="nonzero"/><path fill="#a6a6a6" d="M 162.441406 100.136719 C 162.050781 100.042969 161.726562 99.878906 161.472656 99.644531 C 161.214844 99.410156 161.042969 99.136719 160.957031 98.816406 C 160.867188 98.496094 160.867188 98.167969 160.957031 97.820312 C 161.042969 97.464844 161.195312 97.167969 161.425781 96.933594 C 161.648438 96.695312 161.929688 96.53125 162.265625 96.441406 C 162.597656 96.347656 162.960938 96.347656 163.351562 96.441406 C 163.75 96.546875 164.078125 96.710938 164.335938 96.945312 C 164.589844 97.179688 164.765625 97.457031 164.859375 97.773438 C 164.953125 98.085938 164.953125 98.425781 164.859375 98.78125 C 164.726562 99.308594 164.4375 99.703125 163.996094 99.960938 C 163.558594 100.222656 163.039062 100.28125 162.441406 100.136719 Z M 162.441406 100.136719 " fill-opacity="1" fill-rule="nonzero"/><path fill="#a6a6a6" d="M 179.808594 106.789062 L 176.292969 104.988281 L 178.886719 87.703125 L 181.984375 89.304688 L 179.914062 102.113281 L 180.160156 102.242188 L 189.335938 93.078125 L 192.339844 94.632812 Z M 179.808594 106.789062 " fill-opacity="1" fill-rule="nonzero"/><path fill="#a6a6a6" d="M 189.027344 112.84375 L 186.382812 110.902344 L 196.179688 97.566406 L 198.820312 99.507812 Z M 189.027344 112.84375 " fill-opacity="1" fill-rule="nonzero"/><path fill="#a6a6a6" d="M 194.488281 117.390625 L 192.289062 115.097656 L 204.246094 103.65625 L 206.839844 106.367188 L 203.730469 118.523438 L 203.976562 118.722656 L 211.644531 111.382812 L 213.820312 113.648438 L 201.863281 125.089844 L 199.546875 122.671875 L 202.914062 109.722656 L 202.679688 109.535156 Z M 194.488281 117.390625 " fill-opacity="1" fill-rule="nonzero"/><path fill="#a6a6a6" d="M 207.253906 134.015625 C 206.464844 132.703125 206.042969 131.386719 205.992188 130.0625 C 205.945312 128.746094 206.296875 127.476562 207.054688 126.253906 C 207.816406 125.039062 209 123.957031 210.609375 123.003906 C 212.203125 122.054688 213.71875 121.539062 215.144531 121.460938 C 216.574219 121.375 217.859375 121.671875 219 122.351562 C 220.136719 123.023438 221.097656 124.007812 221.886719 125.320312 C 222.695312 126.6875 223.117188 128.007812 223.148438 129.28125 C 223.1875 130.558594 222.777344 131.726562 221.921875 132.785156 L 219.445312 131.488281 L 219.316406 131.242188 C 219.875 130.488281 220.15625 129.75 220.15625 129.035156 C 220.164062 128.324219 219.929688 127.566406 219.457031 126.757812 C 218.753906 125.582031 217.8125 124.894531 216.640625 124.699219 C 215.460938 124.496094 214.023438 124.902344 212.328125 125.914062 C 210.625 126.925781 209.585938 127.996094 209.207031 129.117188 C 208.824219 130.246094 208.984375 131.398438 209.683594 132.578125 C 210.785156 134.429688 212.351562 135.03125 214.382812 134.375 L 214.523438 134.609375 L 214.6875 137.320312 C 213.113281 137.75 211.707031 137.691406 210.46875 137.144531 C 209.234375 136.601562 208.164062 135.558594 207.253906 134.015625 Z M 207.253906 134.015625 " fill-opacity="1" fill-rule="nonzero"/><path fill="#a6a6a6" d="M 219.4375 142.34375 L 215.148438 143.828125 L 217.730469 151.296875 L 215.148438 152.199219 L 211.488281 141.644531 L 227.128906 136.230469 L 230.726562 146.621094 L 228.144531 147.511719 L 225.621094 140.207031 L 221.960938 141.480469 L 224.171875 147.863281 L 221.644531 148.726562 Z M 219.4375 142.34375 " fill-opacity="1" fill-rule="nonzero"/><path fill="#a6a6a6" d="M 216.136719 157.65625 L 215.761719 154.511719 L 232.195312 152.5625 L 232.640625 156.277344 L 222.832031 164.121094 L 222.914062 164.421875 L 233.457031 163.171875 L 233.832031 166.292969 L 217.398438 168.246094 L 217 164.914062 L 227.484375 156.605469 L 227.402344 156.3125 Z M 216.136719 157.65625 " fill-opacity="1" fill-rule="nonzero"/><path fill="#a6a6a6" d="M 232.648438 184.515625 L 229.914062 184.261719 L 230.359375 179.515625 L 216.613281 178.230469 L 216.917969 174.980469 L 230.664062 176.265625 L 231.105469 171.507812 L 233.839844 171.765625 Z M 232.648438 184.515625 " fill-opacity="1" fill-rule="nonzero"/><path fill="#737373" d="M 109.140625 218.824219 C 108.9375 219.136719 108.921875 219.40625 109.027344 219.65625 C 109.136719 219.902344 109.363281 220.117188 109.640625 220.320312 C 109.835938 220.460938 109.972656 220.523438 110.082031 220.523438 C 110.199219 220.523438 110.277344 220.464844 110.34375 220.371094 C 110.398438 220.296875 110.449219 220.210938 110.484375 220.113281 C 110.519531 220.023438 110.574219 219.929688 110.628906 219.847656 L 113.949219 215.320312 C 114.097656 215.125 114.15625 214.886719 114.125 214.65625 C 114.089844 214.425781 113.980469 214.207031 113.761719 214.046875 C 113.550781 213.894531 113.308594 213.84375 113.082031 213.882812 C 112.851562 213.921875 112.640625 214.054688 112.492188 214.253906 Z M 109.140625 218.824219 " fill-opacity="1" fill-rule="nonzero"/><path fill="#737373" d="M 97.777344 207.566406 C 97.5 207.820312 97.417969 208.078125 97.453125 208.34375 C 97.496094 208.609375 97.65625 208.875 97.871094 209.148438 C 98.019531 209.332031 98.140625 209.429688 98.246094 209.457031 C 98.355469 209.488281 98.449219 209.453125 98.539062 209.378906 C 98.609375 209.320312 98.679688 209.25 98.738281 209.167969 C 98.800781 209.085938 98.875 209.015625 98.945312 208.949219 L 103.335938 205.445312 C 103.527344 205.292969 103.648438 205.078125 103.679688 204.847656 C 103.707031 204.617188 103.65625 204.378906 103.488281 204.164062 C 103.324219 203.960938 103.101562 203.851562 102.871094 203.828125 C 102.640625 203.808594 102.402344 203.878906 102.207031 204.03125 Z M 97.777344 207.566406 " fill-opacity="1" fill-rule="nonzero"/><path fill="#737373" d="M 89.75 193.742188 C 89.414062 193.910156 89.265625 194.136719 89.230469 194.40625 C 89.203125 194.671875 89.289062 194.972656 89.425781 195.289062 C 89.519531 195.507812 89.609375 195.632812 89.703125 195.6875 C 89.808594 195.742188 89.902344 195.734375 90.007812 195.6875 C 90.09375 195.648438 90.179688 195.597656 90.257812 195.535156 C 90.339844 195.472656 90.429688 195.421875 90.515625 195.378906 L 95.664062 193.140625 C 95.894531 193.042969 96.0625 192.867188 96.152344 192.652344 C 96.242188 192.4375 96.253906 192.191406 96.148438 191.945312 C 96.042969 191.707031 95.859375 191.539062 95.640625 191.460938 C 95.421875 191.378906 95.175781 191.386719 94.945312 191.484375 Z M 89.75 193.742188 " fill-opacity="1" fill-rule="nonzero"/><path fill="#737373" d="M 85.605469 178.292969 C 85.238281 178.375 85.035156 178.554688 84.933594 178.804688 C 84.835938 179.050781 84.839844 179.363281 84.890625 179.707031 C 84.925781 179.941406 84.980469 180.085938 85.058594 180.160156 C 85.140625 180.242188 85.234375 180.257812 85.347656 180.242188 C 85.441406 180.230469 85.535156 180.203125 85.625 180.160156 C 85.722656 180.125 85.824219 180.097656 85.917969 180.078125 L 91.472656 179.261719 C 91.71875 179.226562 91.929688 179.105469 92.074219 178.917969 C 92.210938 178.734375 92.292969 178.503906 92.25 178.234375 C 92.210938 177.976562 92.078125 177.769531 91.886719 177.632812 C 91.699219 177.496094 91.457031 177.4375 91.210938 177.472656 Z M 85.605469 178.292969 " fill-opacity="1" fill-rule="nonzero"/><path fill="#737373" d="M 85.636719 162.304688 C 85.261719 162.285156 85.019531 162.402344 84.855469 162.617188 C 84.695312 162.832031 84.621094 163.136719 84.578125 163.480469 C 84.550781 163.714844 84.566406 163.871094 84.621094 163.964844 C 84.679688 164.0625 84.765625 164.101562 84.878906 164.117188 C 84.972656 164.128906 85.070312 164.128906 85.171875 164.109375 C 85.273438 164.097656 85.378906 164.097656 85.476562 164.105469 L 91.046875 164.769531 C 91.296875 164.796875 91.53125 164.734375 91.71875 164.59375 C 91.902344 164.453125 92.035156 164.246094 92.066406 163.976562 C 92.101562 163.71875 92.019531 163.480469 91.875 163.304688 C 91.730469 163.121094 91.511719 163.003906 91.265625 162.972656 Z M 85.636719 162.304688 " fill-opacity="1" fill-rule="nonzero"/><path fill="#737373" d="M 89.839844 146.878906 C 89.484375 146.757812 89.21875 146.8125 89.007812 146.976562 C 88.796875 147.140625 88.640625 147.414062 88.511719 147.738281 C 88.425781 147.957031 88.402344 148.109375 88.425781 148.214844 C 88.457031 148.324219 88.53125 148.386719 88.636719 148.429688 C 88.726562 148.464844 88.820312 148.488281 88.921875 148.5 C 89.019531 148.515625 89.121094 148.542969 89.214844 148.574219 L 94.421875 150.671875 C 94.652344 150.761719 94.898438 150.761719 95.113281 150.671875 C 95.328125 150.585938 95.511719 150.421875 95.613281 150.171875 C 95.710938 149.929688 95.695312 149.683594 95.605469 149.46875 C 95.507812 149.257812 95.328125 149.082031 95.097656 148.992188 Z M 89.839844 146.878906 " fill-opacity="1" fill-rule="nonzero"/><path fill="#737373" d="M 97.925781 133.078125 C 97.613281 132.871094 97.339844 132.859375 97.09375 132.957031 C 96.847656 133.0625 96.628906 133.289062 96.417969 133.566406 C 96.273438 133.753906 96.214844 133.890625 96.210938 134 C 96.210938 134.117188 96.265625 134.195312 96.359375 134.261719 C 96.433594 134.320312 96.519531 134.371094 96.613281 134.40625 C 96.707031 134.449219 96.796875 134.5 96.878906 134.554688 L 101.359375 137.9375 C 101.558594 138.089844 101.792969 138.148438 102.023438 138.121094 C 102.257812 138.09375 102.476562 137.984375 102.640625 137.765625 C 102.792969 137.558594 102.847656 137.316406 102.8125 137.085938 C 102.777344 136.859375 102.648438 136.644531 102.449219 136.496094 Z M 97.925781 133.078125 " fill-opacity="1" fill-rule="nonzero"/><path fill="#737373" d="M 109.332031 121.875 C 109.082031 121.589844 108.828125 121.503906 108.5625 121.535156 C 108.292969 121.574219 108.023438 121.734375 107.75 121.945312 C 107.5625 122.09375 107.464844 122.210938 107.4375 122.3125 C 107.40625 122.425781 107.4375 122.515625 107.511719 122.605469 C 107.566406 122.679688 107.636719 122.75 107.71875 122.8125 C 107.796875 122.871094 107.871094 122.949219 107.933594 123.019531 L 111.378906 127.457031 C 111.53125 127.652344 111.742188 127.773438 111.972656 127.808594 C 112.203125 127.839844 112.445312 127.792969 112.65625 127.625 C 112.863281 127.46875 112.980469 127.246094 113.003906 127.015625 C 113.027344 126.785156 112.957031 126.546875 112.804688 126.347656 Z M 109.332031 121.875 " fill-opacity="1" fill-rule="nonzero"/><path fill="#737373" d="M 123.269531 114.03125 C 123.101562 113.691406 122.875 113.542969 122.609375 113.503906 C 122.34375 113.472656 122.039062 113.554688 121.722656 113.6875 C 121.503906 113.777344 121.378906 113.867188 121.320312 113.960938 C 121.261719 114.0625 121.273438 114.15625 121.316406 114.261719 C 121.355469 114.347656 121.402344 114.433594 121.464844 114.515625 C 121.527344 114.597656 121.574219 114.6875 121.621094 114.773438 L 123.785156 119.953125 C 123.882812 120.183594 124.054688 120.355469 124.265625 120.449219 C 124.480469 120.539062 124.726562 120.558594 124.976562 120.453125 C 125.214844 120.351562 125.382812 120.167969 125.46875 119.953125 C 125.554688 119.734375 125.550781 119.488281 125.453125 119.257812 Z M 123.269531 114.03125 " fill-opacity="1" fill-rule="nonzero"/><path fill="#737373" d="M 138.765625 110.097656 C 138.695312 109.726562 138.515625 109.527344 138.269531 109.417969 C 138.023438 109.316406 137.710938 109.320312 137.363281 109.363281 C 137.128906 109.394531 136.984375 109.445312 136.910156 109.523438 C 136.828125 109.605469 136.808594 109.699219 136.824219 109.8125 C 136.835938 109.90625 136.863281 110.003906 136.902344 110.09375 C 136.9375 110.1875 136.964844 110.292969 136.980469 110.386719 L 137.722656 115.949219 C 137.753906 116.195312 137.875 116.410156 138.058594 116.554688 C 138.238281 116.699219 138.472656 116.777344 138.742188 116.742188 C 138.996094 116.707031 139.207031 116.578125 139.34375 116.390625 C 139.484375 116.203125 139.542969 115.960938 139.511719 115.714844 Z M 138.765625 110.097656 " fill-opacity="1" fill-rule="nonzero"/><path fill="#737373" d="M 154.753906 110.347656 C 154.785156 109.96875 154.664062 109.726562 154.453125 109.558594 C 154.238281 109.398438 153.9375 109.316406 153.59375 109.269531 C 153.355469 109.238281 153.207031 109.253906 153.113281 109.304688 C 153.007812 109.363281 152.96875 109.449219 152.953125 109.5625 C 152.941406 109.65625 152.941406 109.757812 152.957031 109.855469 C 152.964844 109.957031 152.960938 110.058594 152.957031 110.160156 L 152.21875 115.722656 C 152.1875 115.972656 152.246094 116.203125 152.382812 116.390625 C 152.523438 116.582031 152.726562 116.71875 152.996094 116.753906 C 153.253906 116.789062 153.488281 116.714844 153.671875 116.570312 C 153.855469 116.421875 153.976562 116.207031 154.007812 115.960938 Z M 154.753906 110.347656 " fill-opacity="1" fill-rule="nonzero"/><path fill="#737373" d="M 170.125 114.757812 C 170.25 114.402344 170.195312 114.136719 170.039062 113.921875 C 169.875 113.707031 169.601562 113.550781 169.285156 113.417969 C 169.066406 113.324219 168.914062 113.300781 168.808594 113.324219 C 168.695312 113.355469 168.632812 113.425781 168.589844 113.535156 C 168.554688 113.621094 168.527344 113.714844 168.515625 113.816406 C 168.5 113.914062 168.46875 114.015625 168.4375 114.109375 L 166.273438 119.289062 C 166.175781 119.515625 166.171875 119.761719 166.257812 119.976562 C 166.34375 120.195312 166.503906 120.378906 166.753906 120.484375 C 166.992188 120.585938 167.242188 120.578125 167.457031 120.484375 C 167.667969 120.390625 167.84375 120.214844 167.9375 119.984375 Z M 170.125 114.757812 " fill-opacity="1" fill-rule="nonzero"/><path fill="#737373" d="M 183.808594 123.03125 C 184.023438 122.71875 184.039062 122.449219 183.945312 122.195312 C 183.84375 121.949219 183.621094 121.726562 183.347656 121.515625 C 183.160156 121.371094 183.019531 121.304688 182.914062 121.300781 C 182.800781 121.300781 182.71875 121.355469 182.648438 121.445312 C 182.589844 121.519531 182.542969 121.601562 182.503906 121.699219 C 182.460938 121.789062 182.40625 121.882812 182.351562 121.960938 L 178.90625 126.394531 C 178.753906 126.589844 178.691406 126.828125 178.71875 127.058594 C 178.742188 127.289062 178.84375 127.511719 179.0625 127.679688 C 179.265625 127.835938 179.507812 127.890625 179.738281 127.859375 C 179.96875 127.828125 180.183594 127.703125 180.335938 127.503906 Z M 183.808594 123.03125 " fill-opacity="1" fill-rule="nonzero"/><path fill="#737373" d="M 194.863281 134.585938 C 195.148438 134.339844 195.238281 134.085938 195.207031 133.816406 C 195.175781 133.550781 195.023438 133.277344 194.8125 133.003906 C 194.667969 132.8125 194.550781 132.714844 194.449219 132.683594 C 194.339844 132.652344 194.246094 132.683594 194.152344 132.753906 C 194.082031 132.8125 194.007812 132.878906 193.945312 132.960938 C 193.882812 133.039062 193.804688 133.109375 193.734375 133.171875 L 189.25 136.554688 C 189.050781 136.707031 188.929688 136.914062 188.894531 137.144531 C 188.855469 137.375 188.898438 137.617188 189.0625 137.832031 C 189.222656 138.039062 189.441406 138.15625 189.671875 138.183594 C 189.902344 138.214844 190.140625 138.148438 190.339844 137.996094 Z M 194.863281 134.585938 " fill-opacity="1" fill-rule="nonzero"/><path fill="#737373" d="M 202.515625 148.625 C 202.855469 148.464844 203.011719 148.238281 203.050781 147.972656 C 203.089844 147.710938 203.011719 147.40625 202.878906 147.085938 C 202.789062 146.867188 202.703125 146.738281 202.613281 146.683594 C 202.511719 146.621094 202.417969 146.628906 202.308594 146.671875 C 202.222656 146.707031 202.136719 146.753906 202.058594 146.820312 C 201.976562 146.875 201.882812 146.925781 201.792969 146.96875 L 196.585938 149.0625 C 196.355469 149.15625 196.179688 149.328125 196.085938 149.539062 C 195.992188 149.75 195.972656 149.996094 196.070312 150.246094 C 196.167969 150.488281 196.347656 150.660156 196.5625 150.746094 C 196.78125 150.835938 197.027344 150.835938 197.257812 150.742188 Z M 202.515625 148.625 " fill-opacity="1" fill-rule="nonzero"/><path fill="#737373" d="M 206.238281 164.175781 C 206.609375 164.109375 206.8125 163.933594 206.925781 163.6875 C 207.03125 163.441406 207.035156 163.128906 206.992188 162.785156 C 206.964844 162.546875 206.914062 162.40625 206.839844 162.324219 C 206.757812 162.242188 206.664062 162.222656 206.546875 162.238281 C 206.457031 162.25 206.363281 162.269531 206.269531 162.3125 C 206.171875 162.347656 206.070312 162.371094 205.972656 162.386719 L 200.402344 163.050781 C 200.152344 163.078125 199.9375 163.199219 199.792969 163.378906 C 199.648438 163.558594 199.5625 163.789062 199.59375 164.0625 C 199.625 164.316406 199.753906 164.527344 199.941406 164.667969 C 200.125 164.8125 200.367188 164.875 200.613281 164.847656 Z M 206.238281 164.175781 " fill-opacity="1" fill-rule="nonzero"/><path fill="#737373" d="M 205.773438 180.160156 C 206.148438 180.191406 206.394531 180.078125 206.566406 179.867188 C 206.730469 179.660156 206.816406 179.355469 206.863281 179.011719 C 206.898438 178.777344 206.886719 178.625 206.839844 178.53125 C 206.78125 178.429688 206.695312 178.382812 206.582031 178.371094 C 206.492188 178.355469 206.390625 178.351562 206.289062 178.367188 C 206.191406 178.375 206.085938 178.371094 205.984375 178.363281 L 200.429688 177.546875 C 200.183594 177.515625 199.949219 177.570312 199.761719 177.707031 C 199.570312 177.84375 199.429688 178.046875 199.390625 178.3125 C 199.351562 178.570312 199.421875 178.808594 199.566406 178.992188 C 199.707031 179.175781 199.925781 179.300781 200.171875 179.335938 Z M 205.773438 180.160156 " fill-opacity="1" fill-rule="nonzero"/><path fill="#737373" d="M 201.15625 195.46875 C 201.511719 195.597656 201.777344 195.550781 201.996094 195.390625 C 202.207031 195.234375 202.367188 194.964844 202.507812 194.648438 C 202.601562 194.425781 202.628906 194.277344 202.605469 194.171875 C 202.578125 194.058594 202.507812 193.996094 202.402344 193.953125 C 202.316406 193.914062 202.21875 193.882812 202.117188 193.871094 C 202.019531 193.855469 201.917969 193.824219 201.828125 193.789062 L 196.675781 191.554688 C 196.449219 191.457031 196.207031 191.449219 195.988281 191.53125 C 195.769531 191.613281 195.582031 191.769531 195.472656 192.019531 C 195.371094 192.257812 195.378906 192.507812 195.464844 192.722656 C 195.554688 192.9375 195.730469 193.113281 195.957031 193.210938 Z M 201.15625 195.46875 " fill-opacity="1" fill-rule="nonzero"/><path fill="#737373" d="M 192.699219 209.039062 C 193.007812 209.253906 193.277344 209.277344 193.53125 209.1875 C 193.777344 209.089844 194.003906 208.871094 194.21875 208.597656 C 194.367188 208.414062 194.433594 208.273438 194.4375 208.167969 C 194.441406 208.050781 194.386719 207.972656 194.296875 207.898438 C 194.226562 207.839844 194.140625 207.789062 194.046875 207.75 C 193.957031 207.707031 193.867188 207.652344 193.785156 207.597656 L 189.402344 204.09375 C 189.207031 203.9375 188.972656 203.871094 188.742188 203.890625 C 188.507812 203.914062 188.285156 204.015625 188.117188 204.230469 C 187.953125 204.433594 187.894531 204.675781 187.925781 204.90625 C 187.953125 205.136719 188.078125 205.351562 188.273438 205.507812 Z M 192.699219 209.039062 " fill-opacity="1" fill-rule="nonzero"/><path fill="#737373" d="M 180.992188 219.9375 C 181.234375 220.226562 181.488281 220.320312 181.757812 220.292969 C 182.023438 220.261719 182.300781 220.109375 182.578125 219.90625 C 182.769531 219.765625 182.871094 219.648438 182.902344 219.546875 C 182.933594 219.4375 182.902344 219.34375 182.835938 219.253906 C 182.78125 219.175781 182.714844 219.105469 182.632812 219.042969 C 182.554688 218.976562 182.484375 218.902344 182.421875 218.824219 L 179.101562 214.300781 C 178.953125 214.097656 178.746094 213.972656 178.515625 213.929688 C 178.289062 213.894531 178.046875 213.933594 177.824219 214.09375 C 177.617188 214.25 177.496094 214.464844 177.464844 214.695312 C 177.433594 214.925781 177.496094 215.167969 177.640625 215.367188 Z M 180.992188 219.9375 " fill-opacity="1" fill-rule="nonzero"/><path stroke-linecap="butt" transform="matrix(0.561004, 0, 0, 0.561004, 40.719169, 199.616424)" fill="none" stroke-linejoin="miter" d="M 5.451253 26.001066 L 2.004586 26.001066 L 2.004586 6.964324 L 6.920439 6.964324 L 11.738809 20.959881 L 12.017328 20.959881 L 16.800884 6.964324 L 21.612292 6.964324 L 21.612292 26.001066 L 18.040291 26.001066 L 18.040291 13.425954 L 17.713032 13.370251 L 13.319402 26.001066 L 10.179106 26.001066 L 5.778513 13.370251 L 5.451253 13.425954 Z M 5.451253 26.001066 " stroke="#ffffff" stroke-width="3.733" stroke-opacity="1" stroke-miterlimit="4"/><path stroke-linecap="butt" transform="matrix(0.561004, 0, 0, 0.561004, 53.480139, 199.616424)" fill="none" stroke-linejoin="miter" d="M 9.616441 26.272622 C 6.998366 26.272622 5.0557 25.645955 3.78844 24.406548 C 2.521181 23.160177 1.887551 21.314992 1.887551 18.870992 L 1.887551 6.964324 L 5.570959 6.964324 L 5.570959 18.84314 C 5.570959 20.22877 5.905181 21.266251 6.573626 21.969511 C 7.24207 22.658844 8.258663 23.006992 9.616441 23.006992 C 12.318071 23.006992 13.668886 21.614399 13.668886 18.84314 L 13.668886 6.964324 L 17.352293 6.964324 L 17.352293 18.870992 C 17.352293 21.314992 16.718664 23.160177 15.451404 24.406548 C 14.184145 25.645955 12.241478 26.272622 9.616441 26.272622 Z M 9.616441 26.272622 " stroke="#ffffff" stroke-width="3.733" stroke-opacity="1" stroke-miterlimit="4"/><path stroke-linecap="butt" transform="matrix(0.561004, 0, 0, 0.561004, 63.780916, 199.616424)" fill="none" stroke-linejoin="miter" d="M 5.76593 6.964324 L 5.76593 22.853807 L 14.316449 22.853807 L 14.316449 26.001066 L 1.998967 26.001066 L 1.998967 6.964324 Z M 5.76593 6.964324 " stroke="#ffffff" stroke-width="3.733" stroke-opacity="1" stroke-miterlimit="4"/><path stroke-linecap="butt" transform="matrix(0.561004, 0, 0, 0.561004, 71.40908, 199.616424)" fill="none" stroke-linejoin="miter" d="M 14.791252 6.964324 L 14.791252 10.132473 L 9.297474 10.132473 L 9.297474 26.001066 L 5.544437 26.001066 L 5.544437 10.132473 L 0.0506584 10.132473 L 0.0506584 6.964324 Z M 14.791252 6.964324 " stroke="#ffffff" stroke-width="3.733" stroke-opacity="1" stroke-miterlimit="4"/><path stroke-linecap="butt" transform="matrix(0.561004, 0, 0, 0.561004, 79.241433, 199.616424)" fill="none" stroke-linejoin="miter" d="M 2.006679 6.964324 L 5.766679 6.964324 L 5.766679 26.001066 L 2.006679 26.001066 Z M 2.006679 6.964324 " stroke="#ffffff" stroke-width="3.733" stroke-opacity="1" stroke-miterlimit="4"/><path stroke-linecap="butt" transform="matrix(0.561004, 0, 0, 0.561004, 83.1161, 199.616424)" fill="none" stroke-linejoin="miter" d="M 0.66342 15.166695 L 8.642976 15.166695 L 8.642976 18.348769 L 0.66342 18.348769 Z M 0.66342 15.166695 " stroke="#ffffff" stroke-width="3.733" stroke-opacity="1" stroke-miterlimit="4"/><path stroke-linecap="butt" transform="matrix(0.561004, 0, 0, 0.561004, 87.860703, 199.616424)" fill="none" stroke-linejoin="miter" d="M 9.362818 6.964324 C 10.720596 6.964324 11.890374 7.214991 12.858226 7.716324 C 13.826078 8.217658 14.557189 8.913954 15.051559 9.812176 C 15.54593 10.710398 15.789634 11.754843 15.789634 12.938547 C 15.789634 14.136177 15.54593 15.173658 15.051559 16.064917 C 14.557189 16.96314 13.826078 17.659436 12.858226 18.153807 C 11.890374 18.65514 10.720596 18.905807 9.362818 18.905807 L 5.769929 18.905807 L 5.769929 26.001066 L 2.009929 26.001066 L 2.009929 6.964324 Z M 8.868448 15.925658 C 10.957337 15.925658 12.001781 14.929954 12.001781 12.938547 C 12.001781 10.947139 10.957337 9.951435 8.868448 9.951435 L 5.769929 9.951435 L 5.769929 15.925658 Z M 8.868448 15.925658 " stroke="#ffffff" stroke-width="3.733" stroke-opacity="1" stroke-miterlimit="4"/><path stroke-linecap="butt" transform="matrix(0.561004, 0, 0, 0.561004, 96.598156, 199.616424)" fill="none" stroke-linejoin="miter" d="M 9.621924 26.272622 C 6.996887 26.272622 5.05422 25.645955 3.786961 24.406548 C 2.519701 23.160177 1.893035 21.314992 1.893035 18.870992 L 1.893035 6.964324 L 5.56948 6.964324 L 5.56948 18.84314 C 5.56948 20.22877 5.903702 21.266251 6.572146 21.969511 C 7.240591 22.658844 8.257183 23.006992 9.621924 23.006992 C 12.316591 23.006992 13.667406 21.614399 13.667406 18.84314 L 13.667406 6.964324 L 17.350814 6.964324 L 17.350814 18.870992 C 17.350814 21.314992 16.717184 23.160177 15.449925 24.406548 C 14.189628 25.645955 12.239999 26.272622 9.621924 26.272622 Z M 9.621924 26.272622 " stroke="#ffffff" stroke-width="3.733" stroke-opacity="1" stroke-miterlimit="4"/><path stroke-linecap="butt" transform="matrix(0.561004, 0, 0, 0.561004, 106.898935, 199.616424)" fill="none" stroke-linejoin="miter" d="M 2.004446 26.001066 L 2.004446 6.964324 L 9.642817 6.964324 C 11.620298 6.964324 13.10341 7.416917 14.106076 8.329065 C 15.108743 9.23425 15.610077 10.487584 15.610077 12.089065 C 15.610077 13.237954 15.317632 14.184917 14.72578 14.922991 C 14.140891 15.661066 13.270521 16.225066 12.107706 16.614992 L 12.107706 16.886547 C 12.706521 17.15114 13.186965 17.534103 13.562965 18.042399 C 13.925039 18.557658 14.273188 19.316621 14.60741 20.326251 L 16.508299 26.001066 L 12.636891 26.001066 L 10.77778 20.312325 C 10.582817 19.734399 10.373928 19.295733 10.130224 18.975436 C 9.893484 18.662103 9.594076 18.432325 9.218076 18.286103 C 8.849039 18.146844 8.375557 18.070251 7.783706 18.070251 L 5.771409 18.070251 L 5.771409 26.001066 Z M 9.190224 15.090103 C 11.014521 15.090103 11.926669 14.240621 11.926669 12.541658 C 11.926669 10.80788 11.014521 9.951435 9.190224 9.951435 L 5.771409 9.951435 L 5.771409 15.090103 Z M 9.190224 15.090103 " stroke="#ffffff" stroke-width="3.733" stroke-opacity="1" stroke-miterlimit="4"/><path stroke-linecap="butt" transform="matrix(0.561004, 0, 0, 0.561004, 115.863026, 199.616424)" fill="none" stroke-linejoin="miter" d="M 9.358679 6.964324 C 10.723419 6.964324 11.886234 7.214991 12.854086 7.716324 C 13.821938 8.217658 14.553049 8.913954 15.04742 9.812176 C 15.54179 10.710398 15.792457 11.754843 15.792457 12.938547 C 15.792457 14.136177 15.54179 15.173658 15.04742 16.064917 C 14.553049 16.96314 13.821938 17.659436 12.854086 18.153807 C 11.886234 18.65514 10.723419 18.905807 9.358679 18.905807 L 5.765789 18.905807 L 5.765789 26.001066 L 2.005789 26.001066 L 2.005789 6.964324 Z M 8.864308 15.925658 C 10.953197 15.925658 12.004605 14.929954 12.004605 12.938547 C 12.004605 10.947139 10.953197 9.951435 8.864308 9.951435 L 5.765789 9.951435 L 5.765789 15.925658 Z M 8.864308 15.925658 " stroke="#ffffff" stroke-width="3.733" stroke-opacity="1" stroke-miterlimit="4"/><path stroke-linecap="butt" transform="matrix(0.561004, 0, 0, 0.561004, 124.60123, 199.616424)" fill="none" stroke-linejoin="miter" d="M 9.908889 26.272622 C 8.161185 26.272622 6.62237 25.917511 5.292444 25.207289 C 3.955555 24.490103 2.918074 23.410844 2.159111 21.948622 C 1.407111 20.479436 1.024148 18.662103 1.024148 16.482695 C 1.024148 14.303288 1.407111 12.485954 2.159111 11.023732 C 2.918074 9.56151 3.955555 8.475287 5.292444 7.765065 C 6.62237 7.04788 8.161185 6.692769 9.908889 6.692769 C 11.64963 6.692769 13.188445 7.04788 14.518371 7.751139 C 15.841334 8.461361 16.878816 9.547584 17.630816 11.016769 C 18.382816 12.478991 18.758816 14.303288 18.758816 16.482695 C 18.758816 18.662103 18.382816 20.479436 17.630816 21.948622 C 16.878816 23.417807 15.841334 24.504029 14.518371 25.214252 C 13.188445 25.917511 11.64963 26.272622 9.908889 26.272622 Z M 9.908889 23.006992 C 11.517334 23.006992 12.756741 22.48477 13.606223 21.454251 C 14.455704 20.41677 14.880445 18.759584 14.880445 16.482695 C 14.880445 14.212769 14.455704 12.555584 13.606223 11.511139 C 12.756741 10.473658 11.517334 9.951435 9.908889 9.951435 C 8.279556 9.951435 7.047111 10.473658 6.190667 11.511139 C 5.334222 12.555584 4.909481 14.212769 4.909481 16.482695 C 4.909481 18.759584 5.334222 20.41677 6.190667 21.454251 C 7.047111 22.48477 8.279556 23.006992 9.908889 23.006992 Z M 9.908889 23.006992 " stroke="#ffffff" stroke-width="3.733" stroke-opacity="1" stroke-miterlimit="4"/><path stroke-linecap="butt" transform="matrix(0.561004, 0, 0, 0.561004, 135.216172, 199.616424)" fill="none" stroke-linejoin="miter" d="M 7.963263 26.272622 C 6.647263 26.272622 5.477485 26.112474 4.446967 25.785215 C 3.416448 25.464918 2.560003 25.033214 1.877633 24.504029 C 1.1883 23.974844 0.666077 23.396918 0.29704 22.756325 L 2.372003 20.235733 L 2.6923 20.235733 C 3.270226 21.078251 3.994374 21.760622 4.87867 22.261955 C 5.756004 22.770251 6.786522 23.020918 7.963263 23.020918 C 8.972893 23.020918 9.731856 22.805066 10.247115 22.380325 C 10.755412 21.955585 11.013041 21.370696 11.013041 20.625659 C 11.013041 20.173066 10.929486 19.797066 10.769337 19.490696 C 10.602226 19.184325 10.330671 18.926695 9.940745 18.710844 C 9.564745 18.494992 9.049485 18.306992 8.394967 18.146844 L 5.950967 17.589806 C 4.238078 17.199881 2.963855 16.552325 2.1283 15.64714 C 1.292744 14.734991 0.868003 13.558251 0.868003 12.109954 C 0.868003 11.037658 1.139559 10.083732 1.675707 9.276028 C 2.211855 8.454398 2.99867 7.820769 4.029189 7.375139 C 5.059707 6.922546 6.285189 6.692769 7.719559 6.692769 C 9.181782 6.692769 10.442078 6.887732 11.486523 7.270695 C 12.530967 7.66062 13.415264 8.252472 14.139412 9.053213 L 12.280301 11.601658 L 11.946078 11.601658 C 11.40993 11.037658 10.797189 10.61988 10.100893 10.334398 C 9.404597 10.048917 8.617782 9.909658 7.719559 9.909658 C 6.689041 9.909658 5.902226 10.090695 5.359115 10.459732 C 4.822967 10.821806 4.558374 11.323139 4.558374 11.963732 C 4.558374 12.562547 4.746374 13.042991 5.122374 13.398102 C 5.498374 13.753214 6.152893 14.031732 7.078967 14.233658 L 9.578671 14.75588 C 11.430819 15.145806 12.774671 15.807288 13.603264 16.740325 C 14.438819 17.673362 14.856597 18.891881 14.856597 20.388918 C 14.856597 21.579585 14.592004 22.610103 14.083708 23.4944 C 13.575412 24.371733 12.79556 25.061066 11.765041 25.541511 C 10.734523 26.028918 9.467263 26.272622 7.963263 26.272622 Z M 7.963263 26.272622 " stroke="#ffffff" stroke-width="3.733" stroke-opacity="1" stroke-miterlimit="4"/><path stroke-linecap="butt" transform="matrix(0.561004, 0, 0, 0.561004, 143.370173, 199.616424)" fill="none" stroke-linejoin="miter" d="M 5.766974 17.64551 L 5.766974 22.853807 L 14.853642 22.853807 L 14.853642 26.001066 L 2.000011 26.001066 L 2.000011 6.964324 L 14.644753 6.964324 L 14.644753 10.118547 L 5.766974 10.118547 L 5.766974 14.56788 L 13.523716 14.56788 L 13.523716 17.64551 Z M 5.766974 17.64551 " stroke="#ffffff" stroke-width="3.733" stroke-opacity="1" stroke-miterlimit="4"/><path stroke-linecap="butt" transform="matrix(0.561004, 0, 0, 0.561004, 154.04047, 199.616424)" fill="none" stroke-linejoin="miter" d="M 9.933641 26.272622 C 8.178974 26.272622 6.633196 25.910548 5.30327 25.179437 C 3.959418 24.448326 2.914973 23.35514 2.162973 21.892918 C 1.40401 20.430696 1.02801 18.627288 1.02801 16.482695 C 1.02801 14.345065 1.40401 12.541658 2.162973 11.079436 C 2.914973 9.61025 3.959418 8.517065 5.30327 7.792917 C 6.633196 7.061806 8.178974 6.692769 9.933641 6.692769 C 11.7649 6.692769 13.317641 7.054843 14.598826 7.772028 C 15.880012 8.48225 16.79216 9.575435 17.335271 11.044621 L 14.591863 12.722695 L 14.271567 12.708769 C 13.860752 11.720028 13.303715 11.009806 12.607419 10.578102 C 11.911122 10.146398 11.019863 9.93751 9.933641 9.93751 C 8.353048 9.93751 7.120603 10.459732 6.236307 11.504176 C 5.352011 12.548621 4.906381 14.212769 4.906381 16.482695 C 4.906381 18.745658 5.352011 20.402844 6.236307 21.454251 C 7.120603 22.498696 8.353048 23.020918 9.933641 23.020918 C 12.405493 23.020918 13.923419 21.816325 14.480456 19.414103 L 14.800752 19.414103 L 17.572012 20.855436 C 17.056752 22.665807 16.165493 24.016622 14.905197 24.921807 C 13.651863 25.820029 11.987715 26.272622 9.933641 26.272622 Z M 9.933641 26.272622 " stroke="#ffffff" stroke-width="3.733" stroke-opacity="1" stroke-miterlimit="4"/><path stroke-linecap="butt" transform="matrix(0.561004, 0, 0, 0.561004, 163.493765, 199.616424)" fill="none" stroke-linejoin="miter" d="M 9.905485 26.272622 C 8.164745 26.272622 6.62593 25.917511 5.296004 25.207289 C 3.959115 24.490103 2.91467 23.410844 2.16267 21.948622 C 1.41067 20.479436 1.027707 18.662103 1.027707 16.482695 C 1.027707 14.303288 1.41067 12.485954 2.16267 11.023732 C 2.91467 9.56151 3.959115 8.475287 5.296004 7.765065 C 6.62593 7.04788 8.164745 6.692769 9.905485 6.692769 C 11.653189 6.692769 13.192004 7.04788 14.514967 7.751139 C 15.83793 8.461361 16.882375 9.547584 17.634375 11.016769 C 18.379412 12.478991 18.755412 14.303288 18.755412 16.482695 C 18.755412 18.662103 18.379412 20.479436 17.634375 21.948622 C 16.882375 23.417807 15.83793 24.504029 14.514967 25.214252 C 13.192004 25.917511 11.653189 26.272622 9.905485 26.272622 Z M 9.905485 23.006992 C 11.520893 23.006992 12.753338 22.48477 13.602819 21.454251 C 14.452301 20.41677 14.884004 18.759584 14.884004 16.482695 C 14.884004 14.212769 14.452301 12.555584 13.602819 11.511139 C 12.753338 10.473658 11.520893 9.951435 9.905485 9.951435 C 8.283115 9.951435 7.043707 10.473658 6.187263 11.511139 C 5.337781 12.555584 4.906078 14.212769 4.906078 16.482695 C 4.906078 18.759584 5.337781 20.41677 6.187263 21.454251 C 7.043707 22.48477 8.283115 23.006992 9.905485 23.006992 Z M 9.905485 23.006992 " stroke="#ffffff" stroke-width="3.733" stroke-opacity="1" stroke-miterlimit="4"/><path stroke-linecap="butt" transform="matrix(0.561004, 0, 0, 0.561004, 174.108704, 199.616424)" fill="none" stroke-linejoin="miter" d="M 9.909493 26.272622 C 8.16179 26.272622 6.622975 25.917511 5.293049 25.207289 C 3.963123 24.490103 2.911715 23.410844 2.159715 21.948622 C 1.400752 20.479436 1.031715 18.662103 1.031715 16.482695 C 1.031715 14.303288 1.400752 12.485954 2.159715 11.023732 C 2.911715 9.56151 3.963123 8.475287 5.293049 7.765065 C 6.622975 7.04788 8.16179 6.692769 9.909493 6.692769 C 11.650234 6.692769 13.182086 7.04788 14.512012 7.751139 C 15.841938 8.461361 16.87942 9.547584 17.63142 11.016769 C 18.38342 12.478991 18.75942 14.303288 18.75942 16.482695 C 18.75942 18.662103 18.38342 20.479436 17.63142 21.948622 C 16.87942 23.417807 15.841938 24.504029 14.512012 25.214252 C 13.182086 25.917511 11.650234 26.272622 9.909493 26.272622 Z M 9.909493 23.006992 C 11.517938 23.006992 12.750383 22.48477 13.599864 21.454251 C 14.456309 20.41677 14.874086 18.759584 14.874086 16.482695 C 14.874086 14.212769 14.456309 12.555584 13.599864 11.511139 C 12.750383 10.473658 11.517938 9.951435 9.909493 9.951435 C 8.28016 9.951435 7.040752 10.473658 6.191271 11.511139 C 5.334826 12.555584 4.910086 14.212769 4.910086 16.482695 C 4.910086 18.759584 5.334826 20.41677 6.191271 21.454251 C 7.040752 22.48477 8.28016 23.006992 9.909493 23.006992 Z M 9.909493 23.006992 " stroke="#ffffff" stroke-width="3.733" stroke-opacity="1" stroke-miterlimit="4"/><path stroke-linecap="butt" transform="matrix(0.561004, 0, 0, 0.561004, 184.722898, 199.616424)" fill="none" stroke-linejoin="miter" d="M 9.357791 6.964324 C 10.722532 6.964324 11.89231 7.214991 12.853199 7.716324 C 13.821051 8.217658 14.552162 8.913954 15.053495 9.812176 C 15.547866 10.710398 15.79157 11.754843 15.79157 12.938547 C 15.79157 14.136177 15.547866 15.173658 15.053495 16.064917 C 14.552162 16.96314 13.821051 17.659436 12.853199 18.153807 C 11.89231 18.65514 10.722532 18.905807 9.357791 18.905807 L 5.771865 18.905807 L 5.771865 26.001066 L 2.004902 26.001066 L 2.004902 6.964324 Z M 8.863421 15.925658 C 10.959273 15.925658 12.003717 14.929954 12.003717 12.938547 C 12.003717 10.947139 10.959273 9.951435 8.863421 9.951435 L 5.771865 9.951435 L 5.771865 15.925658 Z M 8.863421 15.925658 " stroke="#ffffff" stroke-width="3.733" stroke-opacity="1" stroke-miterlimit="4"/><path stroke-linecap="butt" transform="matrix(0.561004, 0, 0, 0.561004, 193.461077, 199.616424)" fill="none" stroke-linejoin="miter" d="M 5.765086 17.64551 L 5.765086 22.853807 L 14.851753 22.853807 L 14.851753 26.001066 L 2.005085 26.001066 L 2.005085 6.964324 L 14.649827 6.964324 L 14.649827 10.118547 L 5.765086 10.118547 L 5.765086 14.56788 L 13.52879 14.56788 L 13.52879 17.64551 Z M 5.765086 17.64551 " stroke="#ffffff" stroke-width="3.733" stroke-opacity="1" stroke-miterlimit="4"/><path stroke-linecap="butt" transform="matrix(0.561004, 0, 0, 0.561004, 201.622573, 199.616424)" fill="none" stroke-linejoin="miter" d="M 2.002697 26.001066 L 2.002697 6.964324 L 9.648031 6.964324 C 11.611587 6.964324 13.101661 7.416917 14.104328 8.329065 C 15.106994 9.23425 15.608328 10.487584 15.608328 12.089065 C 15.608328 13.237954 15.315883 14.184917 14.730994 14.922991 C 14.146105 15.661066 13.268772 16.225066 12.105957 16.614992 L 12.105957 16.886547 C 12.704772 17.15114 13.185216 17.534103 13.554253 18.042399 C 13.930253 18.557658 14.278402 19.316621 14.605661 20.326251 L 16.50655 26.001066 L 12.642105 26.001066 L 10.776031 20.312325 C 10.588031 19.734399 10.372179 19.295733 10.135438 18.975436 C 9.898698 18.662103 9.592327 18.432325 9.22329 18.286103 C 8.854253 18.146844 8.373809 18.070251 7.78892 18.070251 L 5.762697 18.070251 L 5.762697 26.001066 Z M 9.195438 15.090103 C 11.012772 15.090103 11.92492 14.240621 11.92492 12.541658 C 11.92492 10.80788 11.012772 9.951435 9.195438 9.951435 L 5.762697 9.951435 L 5.762697 15.090103 Z M 9.195438 15.090103 " stroke="#ffffff" stroke-width="3.733" stroke-opacity="1" stroke-miterlimit="4"/><path stroke-linecap="butt" transform="matrix(0.561004, 0, 0, 0.561004, 210.586685, 199.616424)" fill="none" stroke-linejoin="miter" d="M 17.796003 26.001066 L 13.84104 26.001066 L 12.406669 21.614399 L 5.116446 21.614399 L 3.682076 26.001066 L -0.182369 26.001066 L 6.390669 6.964324 L 11.216002 6.964324 Z M 8.577039 10.940176 L 6.133039 18.453214 L 11.362225 18.453214 L 8.904299 10.940176 Z M 8.577039 10.940176 " stroke="#ffffff" stroke-width="3.733" stroke-opacity="1" stroke-miterlimit="4"/><path stroke-linecap="butt" transform="matrix(0.561004, 0, 0, 0.561004, 219.974883, 199.616424)" fill="none" stroke-linejoin="miter" d="M 14.785365 6.964324 L 14.785365 10.132473 L 9.291587 10.132473 L 9.291587 26.001066 L 5.545513 26.001066 L 5.545513 10.132473 L 0.0517344 10.132473 L 0.0517344 6.964324 Z M 14.785365 6.964324 " stroke="#ffffff" stroke-width="3.733" stroke-opacity="1" stroke-miterlimit="4"/><path stroke-linecap="butt" transform="matrix(0.561004, 0, 0, 0.561004, 227.807257, 199.616424)" fill="none" stroke-linejoin="miter" d="M 2.000754 6.964324 L 5.767717 6.964324 L 5.767717 26.001066 L 2.000754 26.001066 Z M 2.000754 6.964324 " stroke="#ffffff" stroke-width="3.733" stroke-opacity="1" stroke-miterlimit="4"/><path stroke-linecap="butt" transform="matrix(0.561004, 0, 0, 0.561004, 231.681924, 199.616424)" fill="none" stroke-linejoin="miter" d="M 10.84431 26.001066 L 6.297495 26.001066 L -0.12932 6.964324 L 3.867421 6.964324 L 8.483866 21.161807 L 8.811125 21.161807 L 13.371866 6.964324 L 17.264163 6.964324 Z M 10.84431 26.001066 " stroke="#ffffff" stroke-width="3.733" stroke-opacity="1" stroke-miterlimit="4"/><path stroke-linecap="butt" transform="matrix(0.561004, 0, 0, 0.561004, 240.800108, 199.616424)" fill="none" stroke-linejoin="miter" d="M 5.766534 17.64551 L 5.766534 22.853807 L 14.853201 22.853807 L 14.853201 26.001066 L 2.006533 26.001066 L 2.006533 6.964324 L 14.644312 6.964324 L 14.644312 10.118547 L 5.766534 10.118547 L 5.766534 14.56788 L 13.523275 14.56788 L 13.523275 17.64551 Z M 5.766534 17.64551 " stroke="#ffffff" stroke-width="3.733" stroke-opacity="1" stroke-miterlimit="4"/><path fill="#a6a6a6" d="M 43.773438 214.203125 L 41.847656 214.203125 L 41.847656 203.519531 L 44.605469 203.519531 L 47.304688 211.375 L 47.457031 211.375 L 50.144531 203.519531 L 52.84375 203.519531 L 52.84375 214.203125 L 50.847656 214.203125 L 50.847656 207.144531 L 50.660156 207.121094 L 48.191406 214.203125 L 46.429688 214.203125 L 43.960938 207.121094 L 43.773438 207.144531 Z M 43.773438 214.203125 " fill-opacity="1" fill-rule="nonzero"/><path fill="#a6a6a6" d="M 58.875 214.355469 C 57.40625 214.355469 56.316406 214.007812 55.601562 213.3125 C 54.890625 212.613281 54.539062 211.574219 54.539062 210.195312 L 54.539062 203.519531 L 56.605469 203.519531 L 56.605469 210.183594 C 56.605469 210.960938 56.792969 211.546875 57.167969 211.933594 C 57.542969 212.328125 58.109375 212.519531 58.875 212.519531 C 60.394531 212.519531 61.152344 211.742188 61.152344 210.183594 L 61.152344 203.519531 L 63.222656 203.519531 L 63.222656 210.195312 C 63.222656 211.574219 62.863281 212.613281 62.148438 213.3125 C 61.4375 214.007812 60.347656 214.355469 58.875 214.355469 Z M 58.875 214.355469 " fill-opacity="1" fill-rule="nonzero"/><path fill="#a6a6a6" d="M 67.011719 203.519531 L 67.011719 212.4375 L 71.816406 212.4375 L 71.816406 214.203125 L 64.910156 214.203125 L 64.910156 203.519531 Z M 67.011719 203.519531 " fill-opacity="1" fill-rule="nonzero"/><path fill="#a6a6a6" d="M 79.710938 203.519531 L 79.710938 205.296875 L 76.628906 205.296875 L 76.628906 214.203125 L 74.523438 214.203125 L 74.523438 205.296875 L 71.4375 205.296875 L 71.4375 203.519531 Z M 79.710938 203.519531 " fill-opacity="1" fill-rule="nonzero"/><path fill="#a6a6a6" d="M 80.371094 203.519531 L 82.472656 203.519531 L 82.472656 214.203125 L 80.371094 214.203125 Z M 80.371094 203.519531 " fill-opacity="1" fill-rule="nonzero"/><path fill="#a6a6a6" d="M 83.484375 208.125 L 87.972656 208.125 L 87.972656 209.902344 L 83.484375 209.902344 Z M 83.484375 208.125 " fill-opacity="1" fill-rule="nonzero"/><path fill="#a6a6a6" d="M 93.113281 203.519531 C 93.875 203.519531 94.527344 203.660156 95.066406 203.941406 C 95.609375 204.222656 96.023438 204.617188 96.304688 205.121094 C 96.585938 205.621094 96.726562 206.207031 96.726562 206.875 C 96.726562 207.546875 96.585938 208.128906 96.304688 208.628906 C 96.023438 209.128906 95.609375 209.515625 95.066406 209.796875 C 94.527344 210.078125 93.875 210.21875 93.113281 210.21875 L 91.09375 210.21875 L 91.09375 214.203125 L 88.988281 214.203125 L 88.988281 203.519531 Z M 92.832031 208.546875 C 94.007812 208.546875 94.597656 207.992188 94.597656 206.875 C 94.597656 205.753906 94.007812 205.191406 92.832031 205.191406 L 91.09375 205.191406 L 91.09375 208.546875 Z M 92.832031 208.546875 " fill-opacity="1" fill-rule="nonzero"/><path fill="#a6a6a6" d="M 101.992188 214.355469 C 100.527344 214.355469 99.4375 214.007812 98.71875 213.3125 C 98.011719 212.613281 97.65625 211.574219 97.65625 210.195312 L 97.65625 203.519531 L 99.726562 203.519531 L 99.726562 210.183594 C 99.726562 210.960938 99.910156 211.546875 100.285156 211.933594 C 100.660156 212.328125 101.226562 212.519531 101.992188 212.519531 C 103.511719 212.519531 104.269531 211.742188 104.269531 210.183594 L 104.269531 203.519531 L 106.339844 203.519531 L 106.339844 210.195312 C 106.339844 211.574219 105.980469 212.613281 105.265625 213.3125 C 104.554688 214.007812 103.464844 214.355469 101.992188 214.355469 Z M 101.992188 214.355469 " fill-opacity="1" fill-rule="nonzero"/><path fill="#a6a6a6" d="M 108.027344 214.203125 L 108.027344 203.519531 L 112.316406 203.519531 C 113.421875 203.519531 114.257812 203.777344 114.816406 204.292969 C 115.378906 204.800781 115.660156 205.5 115.660156 206.394531 C 115.660156 207.042969 115.496094 207.574219 115.167969 207.984375 C 114.839844 208.398438 114.347656 208.714844 113.695312 208.929688 L 113.695312 209.082031 C 114.027344 209.230469 114.296875 209.453125 114.5 209.738281 C 114.710938 210.027344 114.910156 210.449219 115.097656 211.011719 L 116.160156 214.203125 L 113.988281 214.203125 L 112.945312 211.011719 C 112.835938 210.691406 112.714844 210.445312 112.585938 210.265625 C 112.449219 210.085938 112.28125 209.957031 112.070312 209.878906 C 111.867188 209.792969 111.597656 209.75 111.265625 209.75 L 110.128906 209.75 L 110.128906 214.203125 Z M 112.058594 208.078125 C 113.078125 208.078125 113.589844 207.605469 113.589844 206.652344 C 113.589844 205.679688 113.078125 205.191406 112.058594 205.191406 L 110.128906 205.191406 L 110.128906 208.078125 Z M 112.058594 208.078125 " fill-opacity="1" fill-rule="nonzero"/><path fill="#a6a6a6" d="M 121.117188 203.519531 C 121.878906 203.519531 122.53125 203.660156 123.070312 203.941406 C 123.613281 204.222656 124.027344 204.617188 124.308594 205.121094 C 124.589844 205.621094 124.726562 206.207031 124.726562 206.875 C 124.726562 207.546875 124.589844 208.128906 124.308594 208.628906 C 124.027344 209.128906 123.613281 209.515625 123.070312 209.796875 C 122.53125 210.078125 121.878906 210.21875 121.117188 210.21875 L 119.09375 210.21875 L 119.09375 214.203125 L 116.992188 214.203125 L 116.992188 203.519531 Z M 120.835938 208.546875 C 122.011719 208.546875 122.601562 207.992188 122.601562 206.875 C 122.601562 205.753906 122.011719 205.191406 120.835938 205.191406 L 119.09375 205.191406 L 119.09375 208.546875 Z M 120.835938 208.546875 " fill-opacity="1" fill-rule="nonzero"/><path fill="#a6a6a6" d="M 130.160156 214.355469 C 129.183594 214.355469 128.324219 214.15625 127.574219 213.757812 C 126.828125 213.359375 126.238281 212.753906 125.8125 211.933594 C 125.390625 211.109375 125.179688 210.085938 125.179688 208.859375 C 125.179688 207.640625 125.390625 206.617188 125.8125 205.800781 C 126.238281 204.980469 126.828125 204.375 127.574219 203.976562 C 128.324219 203.574219 129.183594 203.367188 130.160156 203.367188 C 131.140625 203.367188 132 203.566406 132.742188 203.964844 C 133.488281 204.363281 134.074219 204.976562 134.496094 205.800781 C 134.914062 206.617188 135.125 207.640625 135.125 208.859375 C 135.125 210.085938 134.914062 211.109375 134.496094 211.933594 C 134.074219 212.753906 133.488281 213.359375 132.742188 213.757812 C 132 214.15625 131.140625 214.355469 130.160156 214.355469 Z M 130.160156 212.519531 C 131.0625 212.519531 131.75 212.234375 132.226562 211.65625 C 132.710938 211.070312 132.953125 210.140625 132.953125 208.859375 C 132.953125 207.585938 132.710938 206.652344 132.226562 206.066406 C 131.75 205.484375 131.0625 205.191406 130.160156 205.191406 C 129.246094 205.191406 128.550781 205.484375 128.066406 206.066406 C 127.589844 206.652344 127.355469 207.585938 127.355469 208.859375 C 127.355469 210.140625 127.589844 211.070312 128.066406 211.65625 C 128.550781 212.234375 129.246094 212.519531 130.160156 212.519531 Z M 130.160156 212.519531 " fill-opacity="1" fill-rule="nonzero"/><path fill="#a6a6a6" d="M 139.6875 214.355469 C 138.945312 214.355469 138.285156 214.265625 137.710938 214.085938 C 137.132812 213.898438 136.652344 213.660156 136.261719 213.359375 C 135.878906 213.066406 135.585938 212.738281 135.386719 212.378906 L 136.542969 210.964844 L 136.730469 210.964844 C 137.046875 211.441406 137.453125 211.824219 137.945312 212.109375 C 138.441406 212.390625 139.023438 212.53125 139.6875 212.53125 C 140.253906 212.53125 140.679688 212.414062 140.960938 212.179688 C 141.246094 211.941406 141.394531 211.609375 141.394531 211.1875 C 141.394531 210.929688 141.347656 210.71875 141.253906 210.554688 C 141.164062 210.386719 141.011719 210.238281 140.796875 210.113281 C 140.585938 209.988281 140.296875 209.882812 139.933594 209.796875 L 138.550781 209.480469 C 137.59375 209.265625 136.875 208.902344 136.402344 208.394531 C 135.933594 207.878906 135.699219 207.21875 135.699219 206.40625 C 135.699219 205.808594 135.851562 205.277344 136.15625 204.816406 C 136.460938 204.359375 136.898438 204.003906 137.476562 203.753906 C 138.054688 203.496094 138.742188 203.367188 139.546875 203.367188 C 140.371094 203.367188 141.078125 203.480469 141.660156 203.695312 C 142.246094 203.914062 142.738281 204.246094 143.144531 204.6875 L 142.105469 206.125 L 141.917969 206.125 C 141.621094 205.808594 141.277344 205.570312 140.890625 205.414062 C 140.5 205.25 140.050781 205.167969 139.546875 205.167969 C 138.96875 205.167969 138.527344 205.273438 138.226562 205.484375 C 137.921875 205.6875 137.769531 205.96875 137.769531 206.324219 C 137.769531 206.660156 137.875 206.929688 138.085938 207.132812 C 138.300781 207.335938 138.671875 207.492188 139.195312 207.597656 L 140.597656 207.890625 C 141.632812 208.109375 142.386719 208.480469 142.855469 209 C 143.320312 209.523438 143.554688 210.210938 143.554688 211.058594 C 143.554688 211.722656 143.410156 212.304688 143.121094 212.800781 C 142.832031 213.289062 142.398438 213.671875 141.8125 213.945312 C 141.234375 214.21875 140.527344 214.355469 139.6875 214.355469 Z M 139.6875 214.355469 " fill-opacity="1" fill-rule="nonzero"/><path fill="#a6a6a6" d="M 146.601562 209.515625 L 146.601562 212.4375 L 151.707031 212.4375 L 151.707031 214.203125 L 144.496094 214.203125 L 144.496094 203.519531 L 151.59375 203.519531 L 151.59375 205.285156 L 146.601562 205.285156 L 146.601562 207.785156 L 150.960938 207.785156 L 150.960938 209.515625 Z M 146.601562 209.515625 " fill-opacity="1" fill-rule="nonzero"/><path fill="#a6a6a6" d="M 159.609375 214.355469 C 158.628906 214.355469 157.761719 214.152344 157.015625 213.746094 C 156.265625 213.335938 155.675781 212.71875 155.25 211.898438 C 154.828125 211.074219 154.617188 210.0625 154.617188 208.859375 C 154.617188 207.664062 154.828125 206.652344 155.25 205.835938 C 155.675781 205.011719 156.265625 204.394531 157.015625 203.988281 C 157.761719 203.574219 158.628906 203.367188 159.609375 203.367188 C 160.636719 203.367188 161.507812 203.574219 162.226562 203.976562 C 162.953125 204.375 163.464844 204.988281 163.769531 205.8125 L 162.226562 206.746094 L 162.050781 206.746094 C 161.816406 206.195312 161.503906 205.796875 161.117188 205.554688 C 160.726562 205.3125 160.222656 205.191406 159.609375 205.191406 C 158.726562 205.191406 158.039062 205.484375 157.539062 206.066406 C 157.039062 206.652344 156.792969 207.585938 156.792969 208.859375 C 156.792969 210.132812 157.039062 211.0625 157.539062 211.65625 C 158.039062 212.238281 158.726562 212.53125 159.609375 212.53125 C 161.003906 212.53125 161.855469 211.859375 162.167969 210.507812 L 162.34375 210.507812 L 163.898438 211.316406 C 163.609375 212.328125 163.109375 213.089844 162.402344 213.59375 C 161.703125 214.101562 160.769531 214.355469 159.609375 214.355469 Z M 159.609375 214.355469 " fill-opacity="1" fill-rule="nonzero"/><path fill="#a6a6a6" d="M 169.050781 214.355469 C 168.074219 214.355469 167.214844 214.15625 166.46875 213.757812 C 165.71875 213.359375 165.128906 212.753906 164.703125 211.933594 C 164.28125 211.109375 164.074219 210.085938 164.074219 208.859375 C 164.074219 207.640625 164.28125 206.617188 164.703125 205.800781 C 165.128906 204.980469 165.71875 204.375 166.46875 203.976562 C 167.214844 203.574219 168.074219 203.367188 169.050781 203.367188 C 170.035156 203.367188 170.890625 203.566406 171.632812 203.964844 C 172.382812 204.363281 172.96875 204.976562 173.386719 205.800781 C 173.808594 206.617188 174.019531 207.640625 174.019531 208.859375 C 174.019531 210.085938 173.808594 211.109375 173.386719 211.933594 C 172.96875 212.753906 172.382812 213.359375 171.632812 213.757812 C 170.890625 214.15625 170.035156 214.355469 169.050781 214.355469 Z M 169.050781 212.519531 C 169.953125 212.519531 170.644531 212.234375 171.121094 211.65625 C 171.601562 211.070312 171.84375 210.140625 171.84375 208.859375 C 171.84375 207.585938 171.601562 206.652344 171.121094 206.066406 C 170.644531 205.484375 169.953125 205.191406 169.050781 205.191406 C 168.140625 205.191406 167.441406 205.484375 166.960938 206.066406 C 166.484375 206.652344 166.246094 207.585938 166.246094 208.859375 C 166.246094 210.140625 166.484375 211.070312 166.960938 211.65625 C 167.441406 212.234375 168.140625 212.519531 169.050781 212.519531 Z M 169.050781 212.519531 " fill-opacity="1" fill-rule="nonzero"/><path fill="#a6a6a6" d="M 179.664062 214.355469 C 178.691406 214.355469 177.832031 214.15625 177.082031 213.757812 C 176.335938 213.359375 175.746094 212.753906 175.316406 211.933594 C 174.898438 211.109375 174.6875 210.085938 174.6875 208.859375 C 174.6875 207.640625 174.898438 206.617188 175.316406 205.800781 C 175.746094 204.980469 176.335938 204.375 177.082031 203.976562 C 177.832031 203.574219 178.691406 203.367188 179.664062 203.367188 C 180.648438 203.367188 181.507812 203.566406 182.25 203.964844 C 182.996094 204.363281 183.582031 204.976562 184 205.800781 C 184.421875 206.617188 184.632812 207.640625 184.632812 208.859375 C 184.632812 210.085938 184.421875 211.109375 184 211.933594 C 183.582031 212.753906 182.996094 213.359375 182.25 213.757812 C 181.507812 214.15625 180.648438 214.355469 179.664062 214.355469 Z M 179.664062 212.519531 C 180.570312 212.519531 181.257812 212.234375 181.734375 211.65625 C 182.214844 211.070312 182.460938 210.140625 182.460938 208.859375 C 182.460938 207.585938 182.214844 206.652344 181.734375 206.066406 C 181.257812 205.484375 180.570312 205.191406 179.664062 205.191406 C 178.753906 205.191406 178.054688 205.484375 177.574219 206.066406 C 177.097656 206.652344 176.859375 207.585938 176.859375 208.859375 C 176.859375 210.140625 177.097656 211.070312 177.574219 211.65625 C 178.054688 212.234375 178.753906 212.519531 179.664062 212.519531 Z M 179.664062 212.519531 " fill-opacity="1" fill-rule="nonzero"/><path fill="#a6a6a6" d="M 189.976562 203.519531 C 190.738281 203.519531 191.390625 203.660156 191.929688 203.941406 C 192.472656 204.222656 192.886719 204.617188 193.167969 205.121094 C 193.449219 205.621094 193.589844 206.207031 193.589844 206.875 C 193.589844 207.546875 193.449219 208.128906 193.167969 208.628906 C 192.886719 209.128906 192.472656 209.515625 191.929688 209.796875 C 191.390625 210.078125 190.738281 210.21875 189.976562 210.21875 L 187.953125 210.21875 L 187.953125 214.203125 L 185.851562 214.203125 L 185.851562 203.519531 Z M 189.695312 208.546875 C 190.871094 208.546875 191.460938 207.992188 191.460938 206.875 C 191.460938 205.753906 190.871094 205.191406 189.695312 205.191406 L 187.953125 205.191406 L 187.953125 208.546875 Z M 189.695312 208.546875 " fill-opacity="1" fill-rule="nonzero"/><path fill="#a6a6a6" d="M 196.691406 209.515625 L 196.691406 212.4375 L 201.800781 212.4375 L 201.800781 214.203125 L 194.589844 214.203125 L 194.589844 203.519531 L 201.683594 203.519531 L 201.683594 205.285156 L 196.691406 205.285156 L 196.691406 207.785156 L 201.050781 207.785156 L 201.050781 209.515625 Z M 196.691406 209.515625 " fill-opacity="1" fill-rule="nonzero"/><path fill="#a6a6a6" d="M 202.75 214.203125 L 202.75 203.519531 L 207.039062 203.519531 C 208.144531 203.519531 208.980469 203.777344 209.539062 204.292969 C 210.101562 204.800781 210.382812 205.5 210.382812 206.394531 C 210.382812 207.042969 210.21875 207.574219 209.890625 207.984375 C 209.5625 208.398438 209.074219 208.714844 208.417969 208.929688 L 208.417969 209.082031 C 208.75 209.230469 209.019531 209.453125 209.226562 209.738281 C 209.433594 210.027344 209.632812 210.449219 209.820312 211.011719 L 210.882812 214.203125 L 208.710938 214.203125 L 207.671875 211.011719 C 207.558594 210.691406 207.441406 210.445312 207.308594 210.265625 C 207.175781 210.085938 207.003906 209.957031 206.792969 209.878906 C 206.589844 209.792969 206.320312 209.75 205.988281 209.75 L 204.855469 209.75 L 204.855469 214.203125 Z M 206.78125 208.078125 C 207.800781 208.078125 208.3125 207.605469 208.3125 206.652344 C 208.3125 205.679688 207.800781 205.191406 206.78125 205.191406 L 204.855469 205.191406 L 204.855469 208.078125 Z M 206.78125 208.078125 " fill-opacity="1" fill-rule="nonzero"/><path fill="#a6a6a6" d="M 220.574219 214.203125 L 218.351562 214.203125 L 217.546875 211.738281 L 213.457031 211.738281 L 212.648438 214.203125 L 210.488281 214.203125 L 214.167969 203.519531 L 216.878906 203.519531 Z M 215.398438 205.753906 L 214.027344 209.960938 L 216.960938 209.960938 L 215.582031 205.753906 Z M 215.398438 205.753906 " fill-opacity="1" fill-rule="nonzero"/><path fill="#a6a6a6" d="M 228.277344 203.519531 L 228.277344 205.296875 L 225.191406 205.296875 L 225.191406 214.203125 L 223.089844 214.203125 L 223.089844 205.296875 L 220.003906 205.296875 L 220.003906 203.519531 Z M 228.277344 203.519531 " fill-opacity="1" fill-rule="nonzero"/><path fill="#a6a6a6" d="M 228.933594 203.519531 L 231.039062 203.519531 L 231.039062 214.203125 L 228.933594 214.203125 Z M 228.933594 203.519531 " fill-opacity="1" fill-rule="nonzero"/><path fill="#a6a6a6" d="M 237.765625 214.203125 L 235.21875 214.203125 L 231.605469 203.519531 L 233.851562 203.519531 L 236.445312 211.480469 L 236.632812 211.480469 L 239.179688 203.519531 L 241.367188 203.519531 Z M 237.765625 214.203125 " fill-opacity="1" fill-rule="nonzero"/><path fill="#a6a6a6" d="M 244.03125 209.515625 L 244.03125 212.4375 L 249.140625 212.4375 L 249.140625 214.203125 L 241.925781 214.203125 L 241.925781 203.519531 L 249.023438 203.519531 L 249.023438 205.285156 L 244.03125 205.285156 L 244.03125 207.785156 L 248.390625 207.785156 L 248.390625 209.515625 Z M 244.03125 209.515625 " fill-opacity="1" fill-rule="nonzero"/></svg>