<svg xmlns="http://www.w3.org/2000/svg" xmlns:xlink="http://www.w3.org/1999/xlink" width="600" zoomAndPan="magnify" viewBox="0 0 450 149.999998" height="200" preserveAspectRatio="xMidYMid meet" version="1.0"><defs><g/><clipPath id="7d83faa232"><path d="M 94.101562 113.167969 L 148.824219 113.167969 L 148.824219 129.410156 L 94.101562 129.410156 Z M 94.101562 113.167969 " clip-rule="nonzero"/></clipPath></defs><g fill="#000000" fill-opacity="1"><g transform="translate(216.647977, 77.207733)"><g><path d="M 15.1875 -6.546875 C 15.1875 -7.523438 14.84375 -8.273438 14.15625 -8.796875 C 13.46875 -9.316406 12.226562 -9.863281 10.4375 -10.4375 C 8.65625 -11.019531 7.25 -11.585938 6.21875 -12.140625 C 3.375 -13.679688 1.953125 -15.75 1.953125 -18.34375 C 1.953125 -19.6875 2.332031 -20.890625 3.09375 -21.953125 C 3.851562 -23.015625 4.945312 -23.84375 6.375 -24.4375 C 7.800781 -25.03125 9.398438 -25.328125 11.171875 -25.328125 C 12.953125 -25.328125 14.539062 -25.003906 15.9375 -24.359375 C 17.332031 -23.710938 18.414062 -22.800781 19.1875 -21.625 C 19.957031 -20.445312 20.34375 -19.109375 20.34375 -17.609375 L 15.203125 -17.609375 C 15.203125 -18.753906 14.84375 -19.640625 14.125 -20.265625 C 13.40625 -20.898438 12.390625 -21.21875 11.078125 -21.21875 C 9.828125 -21.21875 8.851562 -20.953125 8.15625 -20.421875 C 7.457031 -19.890625 7.109375 -19.191406 7.109375 -18.328125 C 7.109375 -17.515625 7.515625 -16.832031 8.328125 -16.28125 C 9.148438 -15.726562 10.351562 -15.210938 11.9375 -14.734375 C 14.863281 -13.859375 16.992188 -12.765625 18.328125 -11.453125 C 19.671875 -10.148438 20.34375 -8.53125 20.34375 -6.59375 C 20.34375 -4.425781 19.523438 -2.726562 17.890625 -1.5 C 16.253906 -0.269531 14.054688 0.34375 11.296875 0.34375 C 9.367188 0.34375 7.613281 -0.00390625 6.03125 -0.703125 C 4.457031 -1.410156 3.253906 -2.375 2.421875 -3.59375 C 1.597656 -4.820312 1.1875 -6.242188 1.1875 -7.859375 L 6.34375 -7.859375 C 6.34375 -5.097656 7.992188 -3.71875 11.296875 -3.71875 C 12.515625 -3.71875 13.46875 -3.96875 14.15625 -4.46875 C 14.84375 -4.96875 15.1875 -5.660156 15.1875 -6.546875 Z M 15.1875 -6.546875 "/></g></g></g><g fill="#000000" fill-opacity="1"><g transform="translate(238.250004, 77.207733)"><g><path d="M 7.84375 -23.125 L 7.84375 -18.5625 L 11.015625 -18.5625 L 11.015625 -14.921875 L 7.84375 -14.921875 L 7.84375 -5.65625 C 7.84375 -4.96875 7.972656 -4.472656 8.234375 -4.171875 C 8.492188 -3.878906 9 -3.734375 9.75 -3.734375 C 10.289062 -3.734375 10.773438 -3.773438 11.203125 -3.859375 L 11.203125 -0.109375 C 10.234375 0.191406 9.234375 0.34375 8.203125 0.34375 C 4.722656 0.34375 2.945312 -1.410156 2.875 -4.921875 L 2.875 -14.921875 L 0.171875 -14.921875 L 0.171875 -18.5625 L 2.875 -18.5625 L 2.875 -23.125 Z M 7.84375 -23.125 "/></g></g></g><g fill="#000000" fill-opacity="1"><g transform="translate(250.123398, 77.207733)"><g><path d="M 2.15625 -2.4375 C 2.15625 -3.226562 2.421875 -3.867188 2.953125 -4.359375 C 3.484375 -4.847656 4.148438 -5.09375 4.953125 -5.09375 C 5.765625 -5.09375 6.4375 -4.847656 6.96875 -4.359375 C 7.5 -3.867188 7.765625 -3.226562 7.765625 -2.4375 C 7.765625 -1.65625 7.5 -1.019531 6.96875 -0.53125 C 6.445312 -0.0507812 5.773438 0.1875 4.953125 0.1875 C 4.140625 0.1875 3.46875 -0.0507812 2.9375 -0.53125 C 2.414062 -1.019531 2.15625 -1.65625 2.15625 -2.4375 Z M 2.15625 -2.4375 "/></g></g></g><g fill="#000000" fill-opacity="1"><g transform="translate(260.332458, 77.207733)"><g/></g></g><g fill="#000000" fill-opacity="1"><g transform="translate(269.08308, 77.207733)"><g><path d="M 11.46875 -6.1875 L 17.125 -24.984375 L 22.859375 -24.984375 L 14.15625 0 L 8.78125 0 L 0.125 -24.984375 L 5.828125 -24.984375 Z M 11.46875 -6.1875 "/></g></g></g><g fill="#000000" fill-opacity="1"><g transform="translate(292.057753, 77.207733)"><g><path d="M 7.140625 0 L 2.15625 0 L 2.15625 -18.5625 L 7.140625 -18.5625 Z M 1.875 -23.375 C 1.875 -24.113281 2.117188 -24.722656 2.609375 -25.203125 C 3.109375 -25.679688 3.789062 -25.921875 4.65625 -25.921875 C 5.5 -25.921875 6.171875 -25.679688 6.671875 -25.203125 C 7.171875 -24.722656 7.421875 -24.113281 7.421875 -23.375 C 7.421875 -22.613281 7.164062 -21.992188 6.65625 -21.515625 C 6.15625 -21.035156 5.484375 -20.796875 4.640625 -20.796875 C 3.804688 -20.796875 3.132812 -21.035156 2.625 -21.515625 C 2.125 -21.992188 1.875 -22.613281 1.875 -23.375 Z M 1.875 -23.375 "/></g></g></g><g fill="#000000" fill-opacity="1"><g transform="translate(301.374593, 77.207733)"><g><path d="M 6.46875 -18.5625 L 6.625 -16.421875 C 7.945312 -18.078125 9.722656 -18.90625 11.953125 -18.90625 C 13.921875 -18.90625 15.382812 -18.328125 16.34375 -17.171875 C 17.3125 -16.015625 17.804688 -14.289062 17.828125 -12 L 17.828125 0 L 12.875 0 L 12.875 -11.875 C 12.875 -12.925781 12.644531 -13.6875 12.1875 -14.15625 C 11.726562 -14.632812 10.96875 -14.875 9.90625 -14.875 C 8.507812 -14.875 7.460938 -14.28125 6.765625 -13.09375 L 6.765625 0 L 1.796875 0 L 1.796875 -18.5625 Z M 6.46875 -18.5625 "/></g></g></g><g fill="#000000" fill-opacity="1"><g transform="translate(321.054914, 77.207733)"><g><path d="M 9.625 -3.65625 C 10.539062 -3.65625 11.285156 -3.90625 11.859375 -4.40625 C 12.429688 -4.914062 12.726562 -5.585938 12.75 -6.421875 L 17.40625 -6.421875 C 17.382812 -5.160156 17.035156 -4.003906 16.359375 -2.953125 C 15.691406 -1.910156 14.769531 -1.097656 13.59375 -0.515625 C 12.425781 0.0546875 11.132812 0.34375 9.71875 0.34375 C 7.0625 0.34375 4.960938 -0.5 3.421875 -2.1875 C 1.890625 -3.875 1.125 -6.207031 1.125 -9.1875 L 1.125 -9.5 C 1.125 -12.363281 1.882812 -14.644531 3.40625 -16.34375 C 4.9375 -18.050781 7.023438 -18.90625 9.671875 -18.90625 C 11.992188 -18.90625 13.851562 -18.242188 15.25 -16.921875 C 16.65625 -15.597656 17.375 -13.84375 17.40625 -11.65625 L 12.75 -11.65625 C 12.726562 -12.613281 12.429688 -13.390625 11.859375 -13.984375 C 11.285156 -14.585938 10.53125 -14.890625 9.59375 -14.890625 C 8.4375 -14.890625 7.5625 -14.46875 6.96875 -13.625 C 6.382812 -12.789062 6.09375 -11.429688 6.09375 -9.546875 L 6.09375 -9.03125 C 6.09375 -7.113281 6.382812 -5.738281 6.96875 -4.90625 C 7.550781 -4.070312 8.4375 -3.65625 9.625 -3.65625 Z M 9.625 -3.65625 "/></g></g></g><g fill="#000000" fill-opacity="1"><g transform="translate(339.379747, 77.207733)"><g><path d="M 10.453125 0.34375 C 7.722656 0.34375 5.503906 -0.488281 3.796875 -2.15625 C 2.085938 -3.832031 1.234375 -6.0625 1.234375 -8.84375 L 1.234375 -9.3125 C 1.234375 -11.175781 1.59375 -12.84375 2.3125 -14.3125 C 3.03125 -15.789062 4.050781 -16.925781 5.375 -17.71875 C 6.695312 -18.507812 8.207031 -18.90625 9.90625 -18.90625 C 12.4375 -18.90625 14.429688 -18.101562 15.890625 -16.5 C 17.347656 -14.90625 18.078125 -12.632812 18.078125 -9.6875 L 18.078125 -7.671875 L 6.265625 -7.671875 C 6.421875 -6.453125 6.898438 -5.476562 7.703125 -4.75 C 8.515625 -4.019531 9.539062 -3.65625 10.78125 -3.65625 C 12.6875 -3.65625 14.175781 -4.347656 15.25 -5.734375 L 17.6875 -3 C 16.945312 -1.945312 15.941406 -1.125 14.671875 -0.53125 C 13.398438 0.0507812 11.992188 0.34375 10.453125 0.34375 Z M 9.890625 -14.890625 C 8.898438 -14.890625 8.097656 -14.554688 7.484375 -13.890625 C 6.878906 -13.234375 6.488281 -12.285156 6.3125 -11.046875 L 13.21875 -11.046875 L 13.21875 -11.4375 C 13.1875 -12.539062 12.882812 -13.390625 12.3125 -13.984375 C 11.75 -14.585938 10.941406 -14.890625 9.890625 -14.890625 Z M 9.890625 -14.890625 "/></g></g></g><g fill="#000000" fill-opacity="1"><g transform="translate(358.373745, 77.207733)"><g><path d="M 6.46875 -18.5625 L 6.625 -16.421875 C 7.945312 -18.078125 9.722656 -18.90625 11.953125 -18.90625 C 13.921875 -18.90625 15.382812 -18.328125 16.34375 -17.171875 C 17.3125 -16.015625 17.804688 -14.289062 17.828125 -12 L 17.828125 0 L 12.875 0 L 12.875 -11.875 C 12.875 -12.925781 12.644531 -13.6875 12.1875 -14.15625 C 11.726562 -14.632812 10.96875 -14.875 9.90625 -14.875 C 8.507812 -14.875 7.460938 -14.28125 6.765625 -13.09375 L 6.765625 0 L 1.796875 0 L 1.796875 -18.5625 Z M 6.46875 -18.5625 "/></g></g></g><g fill="#000000" fill-opacity="1"><g transform="translate(378.054067, 77.207733)"><g><path d="M 7.84375 -23.125 L 7.84375 -18.5625 L 11.015625 -18.5625 L 11.015625 -14.921875 L 7.84375 -14.921875 L 7.84375 -5.65625 C 7.84375 -4.96875 7.972656 -4.472656 8.234375 -4.171875 C 8.492188 -3.878906 9 -3.734375 9.75 -3.734375 C 10.289062 -3.734375 10.773438 -3.773438 11.203125 -3.859375 L 11.203125 -0.109375 C 10.234375 0.191406 9.234375 0.34375 8.203125 0.34375 C 4.722656 0.34375 2.945312 -1.410156 2.875 -4.921875 L 2.875 -14.921875 L 0.171875 -14.921875 L 0.171875 -18.5625 L 2.875 -18.5625 L 2.875 -23.125 Z M 7.84375 -23.125 "/></g></g></g><g fill="#000000" fill-opacity="1"><g transform="translate(229.032182, 95.766982)"><g><path d="M 3.765625 -13.125 L 8.046875 -2.421875 L 12.34375 -13.125 L 14.59375 -13.125 L 14.59375 0 L 12.859375 0 L 12.859375 -5.109375 L 13.015625 -10.625 L 8.71875 0 L 7.390625 0 L 3.078125 -10.609375 L 3.25 -5.109375 L 3.25 0 L 1.53125 0 L 1.53125 -13.125 Z M 3.765625 -13.125 "/></g></g></g><g fill="#000000" fill-opacity="1"><g transform="translate(247.757938, 95.766982)"><g><path d="M 7.28125 -0.96875 C 6.632812 -0.195312 5.679688 0.1875 4.421875 0.1875 C 3.390625 0.1875 2.597656 -0.113281 2.046875 -0.71875 C 1.503906 -1.320312 1.226562 -2.21875 1.21875 -3.40625 L 1.21875 -9.75 L 2.890625 -9.75 L 2.890625 -3.453125 C 2.890625 -1.972656 3.492188 -1.234375 4.703125 -1.234375 C 5.972656 -1.234375 6.816406 -1.707031 7.234375 -2.65625 L 7.234375 -9.75 L 8.90625 -9.75 L 8.90625 0 L 7.328125 0 Z M 7.28125 -0.96875 "/></g></g></g><g fill="#000000" fill-opacity="1"><g transform="translate(260.54194, 95.766982)"><g><path d="M 3.078125 0 L 1.40625 0 L 1.40625 -13.859375 L 3.078125 -13.859375 Z M 3.078125 0 "/></g></g></g><g fill="#000000" fill-opacity="1"><g transform="translate(267.627625, 95.766982)"><g><path d="M 3.53125 -12.125 L 3.53125 -9.75 L 5.34375 -9.75 L 5.34375 -8.46875 L 3.53125 -8.46875 L 3.53125 -2.421875 C 3.53125 -2.023438 3.609375 -1.726562 3.765625 -1.53125 C 3.929688 -1.34375 4.207031 -1.25 4.59375 -1.25 C 4.789062 -1.25 5.054688 -1.285156 5.390625 -1.359375 L 5.390625 0 C 4.953125 0.125 4.523438 0.1875 4.109375 0.1875 C 3.367188 0.1875 2.804688 -0.0351562 2.421875 -0.484375 C 2.046875 -0.941406 1.859375 -1.585938 1.859375 -2.421875 L 1.859375 -8.46875 L 0.078125 -8.46875 L 0.078125 -9.75 L 1.859375 -9.75 L 1.859375 -12.125 Z M 3.53125 -12.125 "/></g></g></g><g fill="#000000" fill-opacity="1"><g transform="translate(276.264121, 95.766982)"><g><path d="M 3.078125 0 L 1.40625 0 L 1.40625 -9.75 L 3.078125 -9.75 Z M 1.265625 -12.34375 C 1.265625 -12.613281 1.347656 -12.84375 1.515625 -13.03125 C 1.679688 -13.21875 1.925781 -13.3125 2.25 -13.3125 C 2.570312 -13.3125 2.816406 -13.21875 2.984375 -13.03125 C 3.160156 -12.84375 3.25 -12.613281 3.25 -12.34375 C 3.25 -12.070312 3.160156 -11.847656 2.984375 -11.671875 C 2.816406 -11.492188 2.570312 -11.40625 2.25 -11.40625 C 1.925781 -11.40625 1.679688 -11.492188 1.515625 -11.671875 C 1.347656 -11.847656 1.265625 -12.070312 1.265625 -12.34375 Z M 1.265625 -12.34375 "/></g></g></g><g fill="#000000" fill-opacity="1"><g transform="translate(283.34981, 95.766982)"><g><path d="M 4.734375 -4.890625 L 0.328125 -4.890625 L 0.328125 -6.265625 L 4.734375 -6.265625 Z M 4.734375 -4.890625 "/></g></g></g><g fill="#000000" fill-opacity="1"><g transform="translate(291.048608, 95.766982)"><g><path d="M 3.25 -5.140625 L 3.25 0 L 1.53125 0 L 1.53125 -13.125 L 6.359375 -13.125 C 7.796875 -13.125 8.921875 -12.757812 9.734375 -12.03125 C 10.554688 -11.300781 10.96875 -10.328125 10.96875 -9.109375 C 10.96875 -7.835938 10.566406 -6.859375 9.765625 -6.171875 C 8.972656 -5.484375 7.832031 -5.140625 6.34375 -5.140625 Z M 3.25 -6.5625 L 6.359375 -6.5625 C 7.285156 -6.5625 7.992188 -6.773438 8.484375 -7.203125 C 8.984375 -7.640625 9.234375 -8.269531 9.234375 -9.09375 C 9.234375 -9.875 8.984375 -10.5 8.484375 -10.96875 C 7.992188 -11.4375 7.320312 -11.679688 6.46875 -11.703125 L 3.25 -11.703125 Z M 3.25 -6.5625 "/></g></g></g><g fill="#000000" fill-opacity="1"><g transform="translate(305.302269, 95.766982)"><g><path d="M 7.28125 -0.96875 C 6.632812 -0.195312 5.679688 0.1875 4.421875 0.1875 C 3.390625 0.1875 2.597656 -0.113281 2.046875 -0.71875 C 1.503906 -1.320312 1.226562 -2.21875 1.21875 -3.40625 L 1.21875 -9.75 L 2.890625 -9.75 L 2.890625 -3.453125 C 2.890625 -1.972656 3.492188 -1.234375 4.703125 -1.234375 C 5.972656 -1.234375 6.816406 -1.707031 7.234375 -2.65625 L 7.234375 -9.75 L 8.90625 -9.75 L 8.90625 0 L 7.328125 0 Z M 7.28125 -0.96875 "/></g></g></g><g fill="#000000" fill-opacity="1"><g transform="translate(318.086274, 95.766982)"><g><path d="M 5.984375 -8.265625 C 5.722656 -8.304688 5.445312 -8.328125 5.15625 -8.328125 C 4.0625 -8.328125 3.320312 -7.859375 2.9375 -6.921875 L 2.9375 0 L 1.265625 0 L 1.265625 -9.75 L 2.890625 -9.75 L 2.90625 -8.625 C 3.457031 -9.5 4.234375 -9.9375 5.234375 -9.9375 C 5.554688 -9.9375 5.804688 -9.894531 5.984375 -9.8125 Z M 5.984375 -8.265625 "/></g></g></g><g fill="#000000" fill-opacity="1"><g transform="translate(326.939162, 95.766982)"><g><path d="M 9.5 -4.765625 C 9.5 -3.285156 9.160156 -2.085938 8.484375 -1.171875 C 7.804688 -0.265625 6.882812 0.1875 5.71875 0.1875 C 4.539062 0.1875 3.613281 -0.191406 2.9375 -0.953125 L 2.9375 3.75 L 1.265625 3.75 L 1.265625 -9.75 L 2.78125 -9.75 L 2.875 -8.671875 C 3.550781 -9.515625 4.492188 -9.9375 5.703125 -9.9375 C 6.867188 -9.9375 7.789062 -9.492188 8.46875 -8.609375 C 9.15625 -7.722656 9.5 -6.492188 9.5 -4.921875 Z M 7.84375 -4.953125 C 7.84375 -6.054688 7.609375 -6.925781 7.140625 -7.5625 C 6.671875 -8.195312 6.023438 -8.515625 5.203125 -8.515625 C 4.191406 -8.515625 3.4375 -8.066406 2.9375 -7.171875 L 2.9375 -2.515625 C 3.425781 -1.628906 4.1875 -1.1875 5.21875 -1.1875 C 6.019531 -1.1875 6.65625 -1.5 7.125 -2.125 C 7.601562 -2.757812 7.84375 -3.703125 7.84375 -4.953125 Z M 7.84375 -4.953125 "/></g></g></g><g fill="#000000" fill-opacity="1"><g transform="translate(339.903493, 95.766982)"><g><path d="M 0.828125 -4.96875 C 0.828125 -5.925781 1.015625 -6.785156 1.390625 -7.546875 C 1.765625 -8.304688 2.285156 -8.894531 2.953125 -9.3125 C 3.617188 -9.726562 4.382812 -9.9375 5.25 -9.9375 C 6.570312 -9.9375 7.644531 -9.472656 8.46875 -8.546875 C 9.289062 -7.628906 9.703125 -6.410156 9.703125 -4.890625 L 9.703125 -4.765625 C 9.703125 -3.816406 9.519531 -2.960938 9.15625 -2.203125 C 8.789062 -1.453125 8.269531 -0.863281 7.59375 -0.4375 C 6.914062 -0.0195312 6.140625 0.1875 5.265625 0.1875 C 3.941406 0.1875 2.867188 -0.269531 2.046875 -1.1875 C 1.234375 -2.113281 0.828125 -3.335938 0.828125 -4.859375 Z M 2.5 -4.765625 C 2.5 -3.679688 2.75 -2.8125 3.25 -2.15625 C 3.75 -1.507812 4.421875 -1.1875 5.265625 -1.1875 C 6.109375 -1.1875 6.78125 -1.515625 7.28125 -2.171875 C 7.78125 -2.835938 8.03125 -3.769531 8.03125 -4.96875 C 8.03125 -6.039062 7.773438 -6.90625 7.265625 -7.5625 C 6.765625 -8.226562 6.09375 -8.5625 5.25 -8.5625 C 4.425781 -8.5625 3.757812 -8.234375 3.25 -7.578125 C 2.75 -6.921875 2.5 -5.984375 2.5 -4.765625 Z M 2.5 -4.765625 "/></g></g></g><g fill="#000000" fill-opacity="1"><g transform="translate(353.039131, 95.766982)"><g><path d="M 6.9375 -2.59375 C 6.9375 -3.039062 6.765625 -3.390625 6.421875 -3.640625 C 6.085938 -3.890625 5.5 -4.101562 4.65625 -4.28125 C 3.8125 -4.457031 3.140625 -4.671875 2.640625 -4.921875 C 2.148438 -5.179688 1.785156 -5.484375 1.546875 -5.828125 C 1.304688 -6.179688 1.1875 -6.597656 1.1875 -7.078125 C 1.1875 -7.878906 1.523438 -8.554688 2.203125 -9.109375 C 2.878906 -9.660156 3.742188 -9.9375 4.796875 -9.9375 C 5.898438 -9.9375 6.796875 -9.648438 7.484375 -9.078125 C 8.171875 -8.503906 8.515625 -7.773438 8.515625 -6.890625 L 6.84375 -6.890625 C 6.84375 -7.347656 6.648438 -7.738281 6.265625 -8.0625 C 5.878906 -8.394531 5.390625 -8.5625 4.796875 -8.5625 C 4.191406 -8.5625 3.71875 -8.429688 3.375 -8.171875 C 3.03125 -7.910156 2.859375 -7.566406 2.859375 -7.140625 C 2.859375 -6.734375 3.015625 -6.425781 3.328125 -6.21875 C 3.648438 -6.019531 4.226562 -5.828125 5.0625 -5.640625 C 5.894531 -5.453125 6.566406 -5.226562 7.078125 -4.96875 C 7.597656 -4.707031 7.984375 -4.394531 8.234375 -4.03125 C 8.484375 -3.664062 8.609375 -3.222656 8.609375 -2.703125 C 8.609375 -1.828125 8.257812 -1.125 7.5625 -0.59375 C 6.863281 -0.0703125 5.960938 0.1875 4.859375 0.1875 C 4.066406 0.1875 3.367188 0.046875 2.765625 -0.234375 C 2.171875 -0.515625 1.703125 -0.898438 1.359375 -1.390625 C 1.023438 -1.890625 0.859375 -2.425781 0.859375 -3 L 2.53125 -3 C 2.550781 -2.445312 2.769531 -2.003906 3.1875 -1.671875 C 3.613281 -1.347656 4.171875 -1.1875 4.859375 -1.1875 C 5.484375 -1.1875 5.984375 -1.3125 6.359375 -1.5625 C 6.742188 -1.820312 6.9375 -2.164062 6.9375 -2.59375 Z M 6.9375 -2.59375 "/></g></g></g><g fill="#000000" fill-opacity="1"><g transform="translate(365.16494, 95.766982)"><g><path d="M 5.3125 0.1875 C 3.988281 0.1875 2.910156 -0.242188 2.078125 -1.109375 C 1.253906 -1.984375 0.84375 -3.148438 0.84375 -4.609375 L 0.84375 -4.921875 C 0.84375 -5.878906 1.023438 -6.738281 1.390625 -7.5 C 1.765625 -8.257812 2.28125 -8.851562 2.9375 -9.28125 C 3.601562 -9.71875 4.328125 -9.9375 5.109375 -9.9375 C 6.367188 -9.9375 7.347656 -9.519531 8.046875 -8.6875 C 8.753906 -7.851562 9.109375 -6.65625 9.109375 -5.09375 L 9.109375 -4.40625 L 2.5 -4.40625 C 2.53125 -3.4375 2.8125 -2.65625 3.34375 -2.0625 C 3.882812 -1.476562 4.570312 -1.1875 5.40625 -1.1875 C 5.988281 -1.1875 6.484375 -1.304688 6.890625 -1.546875 C 7.304688 -1.785156 7.664062 -2.101562 7.96875 -2.5 L 8.984375 -1.703125 C 8.171875 -0.441406 6.945312 0.1875 5.3125 0.1875 Z M 5.109375 -8.5625 C 4.429688 -8.5625 3.863281 -8.316406 3.40625 -7.828125 C 2.945312 -7.335938 2.664062 -6.648438 2.5625 -5.765625 L 7.453125 -5.765625 L 7.453125 -5.890625 C 7.398438 -6.742188 7.171875 -7.398438 6.765625 -7.859375 C 6.359375 -8.328125 5.804688 -8.5625 5.109375 -8.5625 Z M 5.109375 -8.5625 "/></g></g></g><g fill="#000000" fill-opacity="1"><g transform="translate(239.591167, 111.051069)"><g><path d="M 11.1875 -4.171875 C 11.019531 -2.773438 10.503906 -1.695312 9.640625 -0.9375 C 8.773438 -0.1875 7.628906 0.1875 6.203125 0.1875 C 4.648438 0.1875 3.40625 -0.367188 2.46875 -1.484375 C 1.539062 -2.597656 1.078125 -4.085938 1.078125 -5.953125 L 1.078125 -7.21875 C 1.078125 -8.4375 1.289062 -9.507812 1.71875 -10.4375 C 2.15625 -11.363281 2.773438 -12.070312 3.578125 -12.5625 C 4.378906 -13.0625 5.304688 -13.3125 6.359375 -13.3125 C 7.753906 -13.3125 8.867188 -12.921875 9.703125 -12.140625 C 10.546875 -11.359375 11.039062 -10.28125 11.1875 -8.90625 L 9.4375 -8.90625 C 9.289062 -9.957031 8.960938 -10.71875 8.453125 -11.1875 C 7.953125 -11.65625 7.253906 -11.890625 6.359375 -11.890625 C 5.253906 -11.890625 4.382812 -11.476562 3.75 -10.65625 C 3.125 -9.84375 2.8125 -8.679688 2.8125 -7.171875 L 2.8125 -5.890625 C 2.8125 -4.472656 3.109375 -3.34375 3.703125 -2.5 C 4.296875 -1.65625 5.128906 -1.234375 6.203125 -1.234375 C 7.160156 -1.234375 7.894531 -1.453125 8.40625 -1.890625 C 8.925781 -2.328125 9.269531 -3.085938 9.4375 -4.171875 Z M 11.1875 -4.171875 "/></g></g></g><g fill="#000000" fill-opacity="1"><g transform="translate(254.214499, 111.051069)"><g><path d="M 0.828125 -4.96875 C 0.828125 -5.925781 1.015625 -6.785156 1.390625 -7.546875 C 1.765625 -8.304688 2.285156 -8.894531 2.953125 -9.3125 C 3.617188 -9.726562 4.382812 -9.9375 5.25 -9.9375 C 6.570312 -9.9375 7.644531 -9.472656 8.46875 -8.546875 C 9.289062 -7.628906 9.703125 -6.410156 9.703125 -4.890625 L 9.703125 -4.765625 C 9.703125 -3.816406 9.519531 -2.960938 9.15625 -2.203125 C 8.789062 -1.453125 8.269531 -0.863281 7.59375 -0.4375 C 6.914062 -0.0195312 6.140625 0.1875 5.265625 0.1875 C 3.941406 0.1875 2.867188 -0.269531 2.046875 -1.1875 C 1.234375 -2.113281 0.828125 -3.335938 0.828125 -4.859375 Z M 2.5 -4.765625 C 2.5 -3.679688 2.75 -2.8125 3.25 -2.15625 C 3.75 -1.507812 4.421875 -1.1875 5.265625 -1.1875 C 6.109375 -1.1875 6.78125 -1.515625 7.28125 -2.171875 C 7.78125 -2.835938 8.03125 -3.769531 8.03125 -4.96875 C 8.03125 -6.039062 7.773438 -6.90625 7.265625 -7.5625 C 6.765625 -8.226562 6.09375 -8.5625 5.25 -8.5625 C 4.425781 -8.5625 3.757812 -8.234375 3.25 -7.578125 C 2.75 -6.921875 2.5 -5.984375 2.5 -4.765625 Z M 2.5 -4.765625 "/></g></g></g><g fill="#000000" fill-opacity="1"><g transform="translate(267.350134, 111.051069)"><g><path d="M 0.828125 -4.96875 C 0.828125 -5.925781 1.015625 -6.785156 1.390625 -7.546875 C 1.765625 -8.304688 2.285156 -8.894531 2.953125 -9.3125 C 3.617188 -9.726562 4.382812 -9.9375 5.25 -9.9375 C 6.570312 -9.9375 7.644531 -9.472656 8.46875 -8.546875 C 9.289062 -7.628906 9.703125 -6.410156 9.703125 -4.890625 L 9.703125 -4.765625 C 9.703125 -3.816406 9.519531 -2.960938 9.15625 -2.203125 C 8.789062 -1.453125 8.269531 -0.863281 7.59375 -0.4375 C 6.914062 -0.0195312 6.140625 0.1875 5.265625 0.1875 C 3.941406 0.1875 2.867188 -0.269531 2.046875 -1.1875 C 1.234375 -2.113281 0.828125 -3.335938 0.828125 -4.859375 Z M 2.5 -4.765625 C 2.5 -3.679688 2.75 -2.8125 3.25 -2.15625 C 3.75 -1.507812 4.421875 -1.1875 5.265625 -1.1875 C 6.109375 -1.1875 6.78125 -1.515625 7.28125 -2.171875 C 7.78125 -2.835938 8.03125 -3.769531 8.03125 -4.96875 C 8.03125 -6.039062 7.773438 -6.90625 7.265625 -7.5625 C 6.765625 -8.226562 6.09375 -8.5625 5.25 -8.5625 C 4.425781 -8.5625 3.757812 -8.234375 3.25 -7.578125 C 2.75 -6.921875 2.5 -5.984375 2.5 -4.765625 Z M 2.5 -4.765625 "/></g></g></g><g fill="#000000" fill-opacity="1"><g transform="translate(280.485767, 111.051069)"><g><path d="M 9.5 -4.765625 C 9.5 -3.285156 9.160156 -2.085938 8.484375 -1.171875 C 7.804688 -0.265625 6.882812 0.1875 5.71875 0.1875 C 4.539062 0.1875 3.613281 -0.191406 2.9375 -0.953125 L 2.9375 3.75 L 1.265625 3.75 L 1.265625 -9.75 L 2.78125 -9.75 L 2.875 -8.671875 C 3.550781 -9.515625 4.492188 -9.9375 5.703125 -9.9375 C 6.867188 -9.9375 7.789062 -9.492188 8.46875 -8.609375 C 9.15625 -7.722656 9.5 -6.492188 9.5 -4.921875 Z M 7.84375 -4.953125 C 7.84375 -6.054688 7.609375 -6.925781 7.140625 -7.5625 C 6.671875 -8.195312 6.023438 -8.515625 5.203125 -8.515625 C 4.191406 -8.515625 3.4375 -8.066406 2.9375 -7.171875 L 2.9375 -2.515625 C 3.425781 -1.628906 4.1875 -1.1875 5.21875 -1.1875 C 6.019531 -1.1875 6.65625 -1.5 7.125 -2.125 C 7.601562 -2.757812 7.84375 -3.703125 7.84375 -4.953125 Z M 7.84375 -4.953125 "/></g></g></g><g fill="#000000" fill-opacity="1"><g transform="translate(293.450098, 111.051069)"><g><path d="M 5.3125 0.1875 C 3.988281 0.1875 2.910156 -0.242188 2.078125 -1.109375 C 1.253906 -1.984375 0.84375 -3.148438 0.84375 -4.609375 L 0.84375 -4.921875 C 0.84375 -5.878906 1.023438 -6.738281 1.390625 -7.5 C 1.765625 -8.257812 2.28125 -8.851562 2.9375 -9.28125 C 3.601562 -9.71875 4.328125 -9.9375 5.109375 -9.9375 C 6.367188 -9.9375 7.347656 -9.519531 8.046875 -8.6875 C 8.753906 -7.851562 9.109375 -6.65625 9.109375 -5.09375 L 9.109375 -4.40625 L 2.5 -4.40625 C 2.53125 -3.4375 2.8125 -2.65625 3.34375 -2.0625 C 3.882812 -1.476562 4.570312 -1.1875 5.40625 -1.1875 C 5.988281 -1.1875 6.484375 -1.304688 6.890625 -1.546875 C 7.304688 -1.785156 7.664062 -2.101562 7.96875 -2.5 L 8.984375 -1.703125 C 8.171875 -0.441406 6.945312 0.1875 5.3125 0.1875 Z M 5.109375 -8.5625 C 4.429688 -8.5625 3.863281 -8.316406 3.40625 -7.828125 C 2.945312 -7.335938 2.664062 -6.648438 2.5625 -5.765625 L 7.453125 -5.765625 L 7.453125 -5.890625 C 7.398438 -6.742188 7.171875 -7.398438 6.765625 -7.859375 C 6.359375 -8.328125 5.804688 -8.5625 5.109375 -8.5625 Z M 5.109375 -8.5625 "/></g></g></g><g fill="#000000" fill-opacity="1"><g transform="translate(305.837385, 111.051069)"><g><path d="M 5.984375 -8.265625 C 5.722656 -8.304688 5.445312 -8.328125 5.15625 -8.328125 C 4.0625 -8.328125 3.320312 -7.859375 2.9375 -6.921875 L 2.9375 0 L 1.265625 0 L 1.265625 -9.75 L 2.890625 -9.75 L 2.90625 -8.625 C 3.457031 -9.5 4.234375 -9.9375 5.234375 -9.9375 C 5.554688 -9.9375 5.804688 -9.894531 5.984375 -9.8125 Z M 5.984375 -8.265625 "/></g></g></g><g fill="#000000" fill-opacity="1"><g transform="translate(314.690273, 111.051069)"><g><path d="M 7.28125 0 C 7.1875 -0.1875 7.109375 -0.53125 7.046875 -1.03125 C 6.273438 -0.21875 5.351562 0.1875 4.28125 0.1875 C 3.3125 0.1875 2.519531 -0.0820312 1.90625 -0.625 C 1.289062 -1.175781 0.984375 -1.867188 0.984375 -2.703125 C 0.984375 -3.722656 1.367188 -4.515625 2.140625 -5.078125 C 2.910156 -5.640625 4 -5.921875 5.40625 -5.921875 L 7.03125 -5.921875 L 7.03125 -6.6875 C 7.03125 -7.269531 6.851562 -7.734375 6.5 -8.078125 C 6.15625 -8.421875 5.640625 -8.59375 4.953125 -8.59375 C 4.359375 -8.59375 3.859375 -8.441406 3.453125 -8.140625 C 3.054688 -7.835938 2.859375 -7.472656 2.859375 -7.046875 L 1.1875 -7.046875 C 1.1875 -7.535156 1.359375 -8.003906 1.703125 -8.453125 C 2.046875 -8.910156 2.515625 -9.269531 3.109375 -9.53125 C 3.703125 -9.800781 4.351562 -9.9375 5.0625 -9.9375 C 6.1875 -9.9375 7.066406 -9.65625 7.703125 -9.09375 C 8.335938 -8.53125 8.664062 -7.753906 8.6875 -6.765625 L 8.6875 -2.28125 C 8.6875 -1.382812 8.800781 -0.671875 9.03125 -0.140625 L 9.03125 0 Z M 4.515625 -1.265625 C 5.035156 -1.265625 5.53125 -1.398438 6 -1.671875 C 6.46875 -1.941406 6.8125 -2.296875 7.03125 -2.734375 L 7.03125 -4.734375 L 5.71875 -4.734375 C 3.675781 -4.734375 2.65625 -4.132812 2.65625 -2.9375 C 2.65625 -2.414062 2.828125 -2.003906 3.171875 -1.703125 C 3.523438 -1.410156 3.972656 -1.265625 4.515625 -1.265625 Z M 4.515625 -1.265625 "/></g></g></g><g fill="#000000" fill-opacity="1"><g transform="translate(327.339029, 111.051069)"><g><path d="M 3.53125 -12.125 L 3.53125 -9.75 L 5.34375 -9.75 L 5.34375 -8.46875 L 3.53125 -8.46875 L 3.53125 -2.421875 C 3.53125 -2.023438 3.609375 -1.726562 3.765625 -1.53125 C 3.929688 -1.34375 4.207031 -1.25 4.59375 -1.25 C 4.789062 -1.25 5.054688 -1.285156 5.390625 -1.359375 L 5.390625 0 C 4.953125 0.125 4.523438 0.1875 4.109375 0.1875 C 3.367188 0.1875 2.804688 -0.0351562 2.421875 -0.484375 C 2.046875 -0.941406 1.859375 -1.585938 1.859375 -2.421875 L 1.859375 -8.46875 L 0.078125 -8.46875 L 0.078125 -9.75 L 1.859375 -9.75 L 1.859375 -12.125 Z M 3.53125 -12.125 "/></g></g></g><g fill="#000000" fill-opacity="1"><g transform="translate(335.975525, 111.051069)"><g><path d="M 3.078125 0 L 1.40625 0 L 1.40625 -9.75 L 3.078125 -9.75 Z M 1.265625 -12.34375 C 1.265625 -12.613281 1.347656 -12.84375 1.515625 -13.03125 C 1.679688 -13.21875 1.925781 -13.3125 2.25 -13.3125 C 2.570312 -13.3125 2.816406 -13.21875 2.984375 -13.03125 C 3.160156 -12.84375 3.25 -12.613281 3.25 -12.34375 C 3.25 -12.070312 3.160156 -11.847656 2.984375 -11.671875 C 2.816406 -11.492188 2.570312 -11.40625 2.25 -11.40625 C 1.925781 -11.40625 1.679688 -11.492188 1.515625 -11.671875 C 1.347656 -11.847656 1.265625 -12.070312 1.265625 -12.34375 Z M 1.265625 -12.34375 "/></g></g></g><g fill="#000000" fill-opacity="1"><g transform="translate(343.061214, 111.051069)"><g><path d="M 4.484375 -2.265625 L 6.90625 -9.75 L 8.609375 -9.75 L 5.109375 0 L 3.828125 0 L 0.296875 -9.75 L 2 -9.75 Z M 4.484375 -2.265625 "/></g></g></g><g fill="#000000" fill-opacity="1"><g transform="translate(354.609978, 111.051069)"><g><path d="M 5.3125 0.1875 C 3.988281 0.1875 2.910156 -0.242188 2.078125 -1.109375 C 1.253906 -1.984375 0.84375 -3.148438 0.84375 -4.609375 L 0.84375 -4.921875 C 0.84375 -5.878906 1.023438 -6.738281 1.390625 -7.5 C 1.765625 -8.257812 2.28125 -8.851562 2.9375 -9.28125 C 3.601562 -9.71875 4.328125 -9.9375 5.109375 -9.9375 C 6.367188 -9.9375 7.347656 -9.519531 8.046875 -8.6875 C 8.753906 -7.851562 9.109375 -6.65625 9.109375 -5.09375 L 9.109375 -4.40625 L 2.5 -4.40625 C 2.53125 -3.4375 2.8125 -2.65625 3.34375 -2.0625 C 3.882812 -1.476562 4.570312 -1.1875 5.40625 -1.1875 C 5.988281 -1.1875 6.484375 -1.304688 6.890625 -1.546875 C 7.304688 -1.785156 7.664062 -2.101562 7.96875 -2.5 L 8.984375 -1.703125 C 8.171875 -0.441406 6.945312 0.1875 5.3125 0.1875 Z M 5.109375 -8.5625 C 4.429688 -8.5625 3.863281 -8.316406 3.40625 -7.828125 C 2.945312 -7.335938 2.664062 -6.648438 2.5625 -5.765625 L 7.453125 -5.765625 L 7.453125 -5.890625 C 7.398438 -6.742188 7.171875 -7.398438 6.765625 -7.859375 C 6.359375 -8.328125 5.804688 -8.5625 5.109375 -8.5625 Z M 5.109375 -8.5625 "/></g></g></g><path fill="#fdff00" d="M 111.070312 47.84375 L 118.621094 24.160156 C 118.992188 22.996094 120.640625 23.011719 120.988281 24.179688 L 128.039062 47.867188 C 128.273438 48.660156 127.679688 49.460938 126.851562 49.460938 L 112.25 49.460938 C 111.410156 49.460938 110.816406 48.644531 111.070312 47.84375 Z M 111.070312 47.84375 " fill-opacity="1" fill-rule="nonzero"/><path fill="#fdff00" d="M 142.976562 54.820312 L 164.378906 42.199219 C 165.429688 41.582031 166.648438 42.691406 166.128906 43.796875 L 155.613281 66.15625 C 155.261719 66.90625 154.285156 67.105469 153.667969 66.554688 L 142.78125 56.816406 C 142.15625 56.253906 142.253906 55.25 142.976562 54.820312 Z M 142.976562 54.820312 " fill-opacity="1" fill-rule="nonzero"/><path fill="#fdff00" d="M 83.433594 67.351562 L 73.292969 44.65625 C 72.796875 43.542969 74.035156 42.453125 75.074219 43.09375 L 96.097656 56.050781 C 96.804688 56.488281 96.894531 57.480469 96.277344 58.03125 L 85.390625 67.769531 C 84.765625 68.332031 83.773438 68.117188 83.433594 67.351562 Z M 83.433594 67.351562 " fill-opacity="1" fill-rule="nonzero"/><path fill="#fdff00" d="M 79.835938 101.003906 L 56.167969 93.445312 C 55.007812 93.074219 55.023438 91.425781 56.191406 91.078125 L 79.859375 84.023438 C 80.652344 83.785156 81.449219 84.378906 81.449219 85.210938 L 81.449219 99.824219 C 81.449219 100.664062 80.632812 101.261719 79.835938 101.003906 Z M 79.835938 101.003906 " fill-opacity="1" fill-rule="nonzero"/><path fill="#fdff00" d="M 154.085938 89.964844 C 153.546875 107.5625 138.855469 121.386719 121.269531 120.84375 C 103.6875 120.304688 89.871094 105.597656 90.414062 88 C 90.957031 70.402344 105.648438 56.574219 123.230469 57.117188 C 140.8125 57.660156 154.628906 72.363281 154.085938 89.964844 Z M 154.085938 89.964844 " fill-opacity="1" fill-rule="nonzero"/><path fill="#fdff00" d="M 159.230469 82.824219 L 182.894531 90.382812 C 184.058594 90.753906 184.039062 92.402344 182.875 92.75 L 159.210938 99.808594 C 158.414062 100.042969 157.617188 99.449219 157.617188 98.617188 L 157.617188 84.003906 C 157.617188 83.164062 158.433594 82.570312 159.230469 82.824219 Z M 159.230469 82.824219 " fill-opacity="1" fill-rule="nonzero"/><g clip-path="url(#7d83faa232)"><path fill="#09a6f3" d="M 148.539062 115.128906 C 149.085938 114.339844 148.496094 113.296875 147.535156 113.296875 L 95.390625 113.296875 C 94.429688 113.296875 93.84375 114.339844 94.386719 115.128906 C 100.300781 123.753906 110.222656 129.410156 121.460938 129.410156 C 132.703125 129.410156 142.625 123.753906 148.539062 115.128906 Z M 148.539062 115.128906 " fill-opacity="1" fill-rule="evenodd"/></g><path fill="#09a6f3" d="M 72.160156 112.054688 L 171.238281 112.054688 C 171.402344 112.054688 171.5625 112.089844 171.714844 112.152344 C 171.867188 112.214844 172 112.304688 172.117188 112.421875 C 172.234375 112.535156 172.320312 112.667969 172.382812 112.820312 C 172.449219 112.972656 172.480469 113.132812 172.480469 113.296875 C 172.480469 113.460938 172.449219 113.617188 172.382812 113.769531 C 172.320312 113.921875 172.234375 114.054688 172.117188 114.171875 C 172 114.289062 171.867188 114.378906 171.714844 114.441406 C 171.5625 114.503906 171.402344 114.535156 171.238281 114.535156 L 72.160156 114.535156 C 71.996094 114.535156 71.839844 114.503906 71.6875 114.441406 C 71.535156 114.378906 71.402344 114.289062 71.285156 114.171875 C 71.167969 114.054688 71.078125 113.921875 71.015625 113.769531 C 70.953125 113.617188 70.921875 113.460938 70.921875 113.296875 C 70.921875 113.132812 70.953125 112.972656 71.015625 112.820312 C 71.078125 112.667969 71.167969 112.535156 71.285156 112.421875 C 71.402344 112.304688 71.535156 112.214844 71.6875 112.152344 C 71.839844 112.089844 71.996094 112.054688 72.160156 112.054688 Z M 72.160156 112.054688 " fill-opacity="1" fill-rule="nonzero"/><path stroke-linecap="butt" transform="matrix(0.173841, -0.206589, 0.206589, 0.173841, 85.344755, 62.623731)" fill="none" stroke-linejoin="miter" d="M 13.08111 39.415987 C 11.026829 39.423974 9.210279 39.175191 7.611074 38.667881 C 6.021185 38.171642 4.702777 37.503681 3.63371 36.682628 C 2.564644 35.861575 1.760039 34.95034 1.186688 33.976868 L 4.398543 30.06402 L 4.90236 30.05605 C 5.794178 31.385511 6.916167 32.426747 8.286956 33.201897 C 9.646675 33.986361 11.245338 34.380676 13.073631 34.373772 C 14.64448 34.37551 15.811813 34.055009 16.608841 33.384325 C 17.404113 32.734026 17.799921 31.833713 17.798018 30.663001 C 17.796526 29.964651 17.67151 29.389151 17.415412 28.905047 C 17.157558 28.441328 16.740677 28.035795 16.153697 27.697764 C 15.555648 27.369048 14.759555 27.074623 13.743279 26.833121 L 9.947231 25.962148 C 7.299082 25.354276 5.32147 24.352334 4.025464 22.947008 C 2.729458 21.541681 2.076042 19.709076 2.074533 17.460261 C 2.073975 15.796803 2.487461 14.333273 3.335377 13.071428 C 4.162907 11.807828 5.377078 10.823941 6.97789 10.119769 C 8.567631 9.424911 10.466525 9.074973 12.694954 9.071709 C 14.964154 9.071954 16.919889 9.373791 18.532459 9.964395 C 20.154345 10.566068 21.533235 11.485667 22.648746 12.721436 L 19.761293 16.682745 L 19.248162 16.679646 C 18.419663 15.807426 17.469938 15.150666 16.3786 14.707611 C 15.316963 14.27738 14.072944 14.057345 12.696628 14.062085 C 11.085009 14.056837 9.869346 14.342373 9.040323 14.907624 C 8.201984 15.461804 7.785251 16.247368 7.791876 17.243931 C 7.794451 18.16827 8.079577 18.911572 8.658324 19.464521 C 9.257456 20.019226 10.257939 20.444192 11.709858 20.754 L 15.583395 21.559767 C 18.437147 22.164802 20.525999 23.186588 21.807426 24.641999 C 23.099922 26.088095 23.748073 27.981855 23.753633 30.302894 C 23.749468 32.140502 23.353399 33.75955 22.559619 35.108199 C 21.773399 36.488303 20.563279 37.544414 18.968273 38.300426 C 17.363952 39.045368 15.411464 39.421497 13.08111 39.415987 Z M 13.08111 39.415987 " stroke="#ffffff" stroke-width="3.1" stroke-opacity="1" stroke-miterlimit="4"/><path stroke-linecap="butt" transform="matrix(0.20925, -0.17063, 0.17063, 0.20925, 91.005042, 56.166774)" fill="none" stroke-linejoin="miter" d="M 23.653224 9.49274 L 23.648074 14.39819 L 15.134045 14.400003 L 15.136926 39.006607 L 9.325493 38.990734 L 9.324682 14.404486 L 0.810654 14.406299 L 0.804592 9.491706 Z M 23.653224 9.49274 " stroke="#ffffff" stroke-width="3.1" stroke-opacity="1" stroke-miterlimit="4"/><path stroke-linecap="butt" transform="matrix(0.230768, -0.140165, 0.140165, 0.230768, 97.347771, 51.278473)" fill="none" stroke-linejoin="miter" d="M 5.687451 39.182935 C 4.980341 39.176625 4.355847 39.034296 3.801605 38.748437 C 3.267238 38.457723 2.845073 38.065888 2.550131 37.548199 C 2.267555 37.038022 2.126766 36.461619 2.115399 35.811481 C 2.116398 35.168853 2.268436 34.584112 2.544129 34.074476 C 2.839697 33.559985 3.248753 33.165206 3.806193 32.860555 C 4.356123 32.568269 4.972278 32.417771 5.686898 32.411715 C 6.42625 32.420681 7.050743 32.56301 7.597476 32.861235 C 8.139353 33.139583 8.554007 33.543784 8.848949 34.061472 C 9.139036 34.559285 9.272314 35.148053 9.283681 35.798191 C 9.280856 36.778252 8.961385 37.582915 8.305394 38.217034 C 7.649402 38.851152 6.784113 39.188873 5.687451 39.182935 Z M 5.687451 39.182935 " stroke="#ffffff" stroke-width="3.1" stroke-opacity="1" stroke-miterlimit="4"/><path stroke-linecap="butt" transform="matrix(0.256778, -0.083457, 0.083457, 0.256778, 104.554274, 47.295342)" fill="none" stroke-linejoin="miter" d="M 17.540701 38.992059 L 10.494972 38.99918 L 0.519314 9.500053 L 6.714039 9.490168 L 13.879151 31.488784 L 14.396152 31.48948 L 21.450802 9.503111 L 27.494519 9.489784 Z M 17.540701 38.992059 " stroke="#ffffff" stroke-width="3.1" stroke-opacity="1" stroke-miterlimit="4"/><path stroke-linecap="butt" transform="matrix(0.266718, -0.041972, 0.041972, 0.266718, 113.286033, 44.745383)" fill="none" stroke-linejoin="miter" d="M 3.833417 9.495807 L 9.663208 9.490537 L 9.661921 39.001284 L 3.834378 38.992263 Z M 3.833417 9.495807 " stroke="#ffffff" stroke-width="3.1" stroke-opacity="1" stroke-miterlimit="4"/><path stroke-linecap="butt" transform="matrix(0.26996, 0.00466503, -0.00466503, 0.26996, 118.512059, 43.835167)" fill="none" stroke-linejoin="miter" d="M 9.484905 39.008571 L 3.827171 39.005051 L 3.838238 9.501035 L 10.523268 9.501273 L 22.355247 28.512642 L 22.889218 28.431065 L 22.880247 9.490315 L 28.494585 9.494585 L 28.497983 38.998351 L 22.522009 39.00033 L 9.987658 18.698821 L 9.482618 18.779897 Z M 9.484905 39.008571 " stroke="#ffffff" stroke-width="3.1" stroke-opacity="1" stroke-miterlimit="4"/><path stroke-linecap="butt" transform="matrix(0.261954, 0.0654241, -0.0654241, 0.261954, 129.273834, 44.314175)" fill="none" stroke-linejoin="miter" d="M 16.121913 39.420632 C 13.409527 39.427023 11.016583 38.861536 8.943082 37.724171 C 6.873086 36.600842 5.255873 34.902157 4.077405 32.631622 C 2.902443 30.375123 2.320613 27.567863 2.324891 24.24142 C 2.318638 20.93252 2.901764 18.132547 4.081279 15.869574 C 5.243253 13.596071 6.875289 11.89112 8.935278 10.765237 C 11.009303 9.635848 13.402508 9.067958 16.118401 9.075604 C 18.964126 9.065735 21.371107 9.627717 23.363909 10.740501 C 25.339169 11.842754 26.763391 13.544903 27.612024 15.808344 L 23.358624 18.421497 L 22.846329 18.400325 C 22.208064 16.859767 21.352144 15.761282 20.275065 15.090831 C 19.187455 14.437923 17.805024 14.09724 16.120748 14.100359 C 13.67504 14.099794 11.75899 14.9064 10.390141 16.530707 C 9.021292 18.155015 8.336461 20.726885 8.335647 24.246319 C 8.334834 27.765752 9.018479 30.323903 10.393595 31.948845 C 11.765205 33.559751 13.670352 34.381275 16.130097 34.378335 C 19.961824 34.375712 22.302693 32.52355 23.173765 28.786765 L 23.665013 28.78337 L 27.969922 31.033574 C 27.162227 33.829986 25.793267 35.931505 23.831465 37.331106 C 21.883699 38.7272 19.315017 39.428388 16.121913 39.420632 Z M 16.121913 39.420632 " stroke="#ffffff" stroke-width="3.1" stroke-opacity="1" stroke-miterlimit="4"/><path stroke-linecap="butt" transform="matrix(0.243389, 0.116884, -0.116884, 0.243389, 138.58728, 46.883927)" fill="none" stroke-linejoin="miter" d="M 9.660363 26.042665 L 9.66765 34.112026 L 23.761254 34.116625 L 23.748106 39.001965 L 3.8306 39.001614 L 3.834852 9.500729 L 23.428893 9.495925 L 23.428786 14.375002 L 9.658646 14.375558 L 9.67145 21.286711 L 21.694368 21.290664 L 21.696323 26.040355 Z M 9.660363 26.042665 " stroke="#ffffff" stroke-width="3.1" stroke-opacity="1" stroke-miterlimit="4"/><path stroke-linecap="butt" transform="matrix(0.212861, 0.166102, -0.166102, 0.212861, 146.466178, 50.786644)" fill="none" stroke-linejoin="miter" d="M 9.487624 38.99955 L 3.838516 39.003448 L 3.841125 9.492788 L 10.520579 9.492328 L 22.367991 28.50818 L 22.893187 28.428674 L 22.878348 9.501882 L 28.486843 9.492973 L 28.49564 38.994733 L 22.516621 38.999155 L 9.981973 18.702813 L 9.488489 18.775924 Z M 9.487624 38.99955 " stroke="#ffffff" stroke-width="3.1" stroke-opacity="1" stroke-miterlimit="4"/><path stroke-linecap="butt" transform="matrix(0.173195, 0.207132, -0.207132, 0.173195, 154.657905, 57.5786)" fill="none" stroke-linejoin="miter" d="M 23.643159 9.499401 L 23.659083 14.397142 L 15.134392 14.397763 L 15.141586 38.995635 L 9.328784 39.000773 L 9.32159 14.402901 L 0.80618 14.392423 L 0.810635 9.492864 Z M 23.643159 9.499401 " stroke="#ffffff" stroke-width="3.1" stroke-opacity="1" stroke-miterlimit="4"/><path fill="#dd0808" d="M 95.757812 66.769531 C 95.40625 67.195312 95.039062 67.527344 94.65625 67.773438 C 94.277344 68.015625 93.910156 68.175781 93.554688 68.25 C 93.199219 68.328125 92.871094 68.335938 92.574219 68.285156 L 92.320312 66.945312 L 92.40625 66.839844 C 92.835938 66.882812 93.246094 66.832031 93.644531 66.6875 C 94.039062 66.539062 94.398438 66.273438 94.71875 65.894531 C 94.988281 65.574219 95.125 65.277344 95.125 65 C 95.125 64.722656 95.011719 64.480469 94.773438 64.28125 C 94.632812 64.160156 94.488281 64.085938 94.347656 64.054688 C 94.207031 64.019531 94.050781 64.039062 93.875 64.105469 C 93.699219 64.167969 93.5 64.285156 93.277344 64.449219 L 92.441406 65.078125 C 91.855469 65.519531 91.304688 65.757812 90.785156 65.78125 C 90.269531 65.804688 89.777344 65.617188 89.3125 65.222656 C 88.96875 64.9375 88.738281 64.597656 88.625 64.207031 C 88.511719 63.816406 88.519531 63.394531 88.648438 62.945312 C 88.78125 62.492188 89.039062 62.039062 89.417969 61.578125 C 89.816406 61.109375 90.222656 60.761719 90.628906 60.53125 C 91.035156 60.300781 91.460938 60.175781 91.910156 60.15625 L 92.226562 61.445312 L 92.140625 61.546875 C 91.8125 61.566406 91.507812 61.652344 91.230469 61.796875 C 90.953125 61.945312 90.695312 62.160156 90.453125 62.445312 C 90.175781 62.777344 90.027344 63.074219 90 63.34375 C 89.96875 63.617188 90.058594 63.839844 90.261719 64.015625 C 90.453125 64.175781 90.660156 64.246094 90.875 64.222656 C 91.089844 64.199219 91.355469 64.058594 91.667969 63.8125 L 92.511719 63.15625 C 93.132812 62.667969 93.703125 62.417969 94.222656 62.402344 C 94.746094 62.386719 95.25 62.582031 95.730469 62.984375 C 96.113281 63.308594 96.378906 63.671875 96.523438 64.070312 C 96.671875 64.46875 96.679688 64.902344 96.550781 65.363281 C 96.429688 65.828125 96.164062 66.296875 95.757812 66.769531 Z M 95.757812 66.769531 " fill-opacity="1" fill-rule="nonzero"/><path fill="#dd0808" d="M 97.574219 54.125 L 98.414062 55.148438 L 96.632812 56.597656 L 100.828125 61.746094 L 99.613281 62.734375 L 95.414062 57.589844 L 93.632812 59.039062 L 92.792969 58.015625 Z M 97.574219 54.125 " fill-opacity="1" fill-rule="nonzero"/><path fill="#dd0808" d="M 104.152344 59.523438 C 103.992188 59.625 103.824219 59.683594 103.65625 59.691406 C 103.488281 59.703125 103.332031 59.664062 103.195312 59.585938 C 103.054688 59.507812 102.945312 59.394531 102.859375 59.242188 C 102.765625 59.09375 102.714844 58.941406 102.710938 58.789062 C 102.703125 58.628906 102.746094 58.476562 102.832031 58.332031 C 102.914062 58.1875 103.039062 58.0625 103.203125 57.960938 C 103.371094 57.859375 103.542969 57.804688 103.707031 57.796875 C 103.871094 57.785156 104.023438 57.820312 104.164062 57.894531 C 104.300781 57.96875 104.417969 58.082031 104.507812 58.230469 C 104.644531 58.460938 104.683594 58.695312 104.625 58.933594 C 104.5625 59.175781 104.40625 59.371094 104.152344 59.523438 Z M 104.152344 59.523438 " fill-opacity="1" fill-rule="nonzero"/><path fill="#dd0808" d="M 112.316406 55.847656 L 110.503906 56.433594 L 105.480469 49.6875 L 107.074219 49.171875 L 110.75 54.226562 L 110.882812 54.183594 L 110.859375 47.945312 L 112.398438 47.4375 Z M 112.316406 55.847656 " fill-opacity="1" fill-rule="nonzero"/><path fill="#dd0808" d="M 117.503906 54.746094 L 115.949219 54.984375 L 114.710938 47.117188 L 116.265625 46.875 Z M 117.503906 54.746094 " fill-opacity="1" fill-rule="nonzero"/><path fill="#dd0808" d="M 120.90625 54.417969 L 119.382812 54.390625 L 119.519531 46.425781 L 121.324219 46.460938 L 124.433594 51.644531 L 124.582031 51.625 L 124.664062 46.515625 L 126.179688 46.542969 L 126.042969 54.507812 L 124.429688 54.480469 L 121.144531 48.933594 L 121.003906 48.957031 Z M 120.90625 54.417969 " fill-opacity="1" fill-rule="nonzero"/><path fill="#dd0808" d="M 130.917969 55.695312 C 130.203125 55.511719 129.613281 55.207031 129.144531 54.777344 C 128.675781 54.347656 128.363281 53.800781 128.207031 53.128906 C 128.046875 52.457031 128.078125 51.6875 128.296875 50.816406 C 128.511719 49.949219 128.84375 49.253906 129.304688 48.734375 C 129.761719 48.21875 130.296875 47.878906 130.910156 47.71875 C 131.527344 47.558594 132.191406 47.566406 132.902344 47.746094 C 133.644531 47.929688 134.238281 48.230469 134.6875 48.652344 C 135.132812 49.070312 135.390625 49.605469 135.46875 50.261719 L 134.1875 50.664062 L 134.054688 50.625 C 133.992188 50.183594 133.839844 49.839844 133.59375 49.597656 C 133.355469 49.351562 133.015625 49.175781 132.578125 49.066406 C 131.9375 48.90625 131.378906 48.992188 130.910156 49.324219 C 130.445312 49.660156 130.097656 50.289062 129.871094 51.210938 C 129.636719 52.132812 129.648438 52.851562 129.90625 53.363281 C 130.160156 53.878906 130.609375 54.21875 131.25 54.378906 C 132.253906 54.625 132.992188 54.289062 133.460938 53.371094 L 133.589844 53.402344 L 134.574219 54.265625 C 134.179688 54.945312 133.679688 55.40625 133.078125 55.644531 C 132.472656 55.882812 131.753906 55.898438 130.917969 55.695312 Z M 130.917969 55.695312 " fill-opacity="1" fill-rule="nonzero"/><path fill="#dd0808" d="M 137.894531 54.351562 L 136.949219 56.320312 L 140.378906 57.960938 L 139.8125 59.148438 L 134.960938 56.824219 L 138.410156 49.648438 L 143.179688 51.9375 L 142.613281 53.125 L 139.261719 51.515625 L 138.449219 53.191406 L 141.375 54.597656 L 140.816406 55.757812 Z M 137.894531 54.351562 " fill-opacity="1" fill-rule="nonzero"/><path fill="#dd0808" d="M 142.007812 60.664062 L 140.804688 59.726562 L 145.703125 53.449219 L 147.128906 54.5625 L 146.492188 60.570312 L 146.621094 60.640625 L 149.761719 56.613281 L 150.953125 57.546875 L 146.054688 63.824219 L 144.78125 62.828125 L 145.492188 56.421875 L 145.367188 56.359375 Z M 142.007812 60.664062 " fill-opacity="1" fill-rule="nonzero"/><path fill="#dd0808" d="M 156.78125 64.125 L 155.769531 64.96875 L 154.296875 63.207031 L 149.199219 67.472656 L 148.195312 66.269531 L 153.289062 62.003906 L 151.816406 60.238281 L 152.828125 59.394531 Z M 156.78125 64.125 " fill-opacity="1" fill-rule="nonzero"/><path fill="#09a6f3" d="M 104.867188 112.640625 C 104.773438 112.792969 104.765625 112.921875 104.816406 113.042969 C 104.867188 113.160156 104.976562 113.265625 105.109375 113.363281 C 105.203125 113.429688 105.269531 113.460938 105.324219 113.460938 C 105.378906 113.460938 105.417969 113.429688 105.449219 113.386719 C 105.476562 113.351562 105.5 113.308594 105.515625 113.261719 C 105.535156 113.21875 105.558594 113.175781 105.585938 113.132812 L 107.183594 110.957031 C 107.253906 110.859375 107.285156 110.746094 107.269531 110.636719 C 107.253906 110.523438 107.199219 110.417969 107.09375 110.339844 C 106.992188 110.269531 106.875 110.246094 106.765625 110.261719 C 106.65625 110.28125 106.554688 110.347656 106.480469 110.441406 Z M 104.867188 112.640625 " fill-opacity="1" fill-rule="nonzero"/><path fill="#09a6f3" d="M 99.402344 107.222656 C 99.269531 107.34375 99.226562 107.46875 99.246094 107.597656 C 99.265625 107.726562 99.34375 107.855469 99.445312 107.984375 C 99.519531 108.074219 99.574219 108.121094 99.625 108.132812 C 99.679688 108.148438 99.722656 108.132812 99.765625 108.097656 C 99.800781 108.066406 99.835938 108.035156 99.863281 107.992188 C 99.894531 107.957031 99.929688 107.921875 99.964844 107.890625 L 102.078125 106.203125 C 102.167969 106.128906 102.226562 106.027344 102.242188 105.914062 C 102.253906 105.804688 102.230469 105.6875 102.148438 105.585938 C 102.070312 105.488281 101.964844 105.433594 101.851562 105.425781 C 101.742188 105.414062 101.625 105.449219 101.535156 105.523438 Z M 99.402344 107.222656 " fill-opacity="1" fill-rule="nonzero"/><path fill="#09a6f3" d="M 95.535156 100.570312 C 95.375 100.652344 95.304688 100.761719 95.289062 100.890625 C 95.273438 101.015625 95.316406 101.160156 95.382812 101.316406 C 95.425781 101.421875 95.46875 101.480469 95.515625 101.507812 C 95.566406 101.53125 95.609375 101.527344 95.660156 101.507812 C 95.703125 101.488281 95.742188 101.464844 95.78125 101.433594 C 95.820312 101.402344 95.863281 101.378906 95.90625 101.355469 L 98.382812 100.28125 C 98.492188 100.234375 98.574219 100.148438 98.621094 100.046875 C 98.660156 99.941406 98.667969 99.824219 98.617188 99.703125 C 98.566406 99.589844 98.476562 99.511719 98.371094 99.472656 C 98.269531 99.433594 98.148438 99.4375 98.039062 99.484375 Z M 95.535156 100.570312 " fill-opacity="1" fill-rule="nonzero"/><path fill="#09a6f3" d="M 93.542969 93.136719 C 93.367188 93.171875 93.269531 93.261719 93.21875 93.378906 C 93.171875 93.5 93.175781 93.652344 93.199219 93.816406 C 93.214844 93.929688 93.242188 93.996094 93.277344 94.035156 C 93.320312 94.074219 93.363281 94.082031 93.417969 94.074219 C 93.464844 94.066406 93.507812 94.054688 93.554688 94.035156 C 93.601562 94.015625 93.648438 94.003906 93.695312 93.992188 L 96.367188 93.601562 C 96.484375 93.585938 96.585938 93.523438 96.65625 93.433594 C 96.722656 93.347656 96.761719 93.234375 96.742188 93.105469 C 96.722656 92.984375 96.660156 92.882812 96.566406 92.816406 C 96.476562 92.75 96.359375 92.722656 96.242188 92.742188 Z M 93.542969 93.136719 " fill-opacity="1" fill-rule="nonzero"/><path fill="#09a6f3" d="M 93.558594 85.441406 C 93.378906 85.429688 93.261719 85.488281 93.179688 85.589844 C 93.105469 85.691406 93.070312 85.839844 93.050781 86.007812 C 93.035156 86.121094 93.042969 86.195312 93.070312 86.238281 C 93.097656 86.285156 93.140625 86.304688 93.195312 86.3125 C 93.238281 86.316406 93.285156 86.316406 93.335938 86.308594 C 93.382812 86.304688 93.433594 86.304688 93.480469 86.304688 L 96.164062 86.625 C 96.28125 86.640625 96.394531 86.609375 96.484375 86.542969 C 96.574219 86.472656 96.636719 86.375 96.652344 86.246094 C 96.667969 86.121094 96.628906 86.007812 96.558594 85.921875 C 96.488281 85.832031 96.382812 85.777344 96.265625 85.761719 Z M 93.558594 85.441406 " fill-opacity="1" fill-rule="nonzero"/><path fill="#09a6f3" d="M 95.582031 78.015625 C 95.410156 77.957031 95.28125 77.984375 95.179688 78.0625 C 95.078125 78.140625 95.003906 78.273438 94.941406 78.429688 C 94.898438 78.535156 94.886719 78.605469 94.902344 78.65625 C 94.914062 78.710938 94.953125 78.742188 95.003906 78.761719 C 95.042969 78.777344 95.089844 78.789062 95.140625 78.796875 C 95.1875 78.804688 95.234375 78.816406 95.28125 78.832031 L 97.785156 79.839844 C 97.898438 79.882812 98.015625 79.882812 98.117188 79.84375 C 98.222656 79.800781 98.3125 79.722656 98.359375 79.601562 C 98.40625 79.484375 98.398438 79.367188 98.355469 79.261719 C 98.308594 79.160156 98.222656 79.078125 98.113281 79.035156 Z M 95.582031 78.015625 " fill-opacity="1" fill-rule="nonzero"/><path fill="#09a6f3" d="M 99.472656 71.375 C 99.320312 71.273438 99.191406 71.269531 99.070312 71.316406 C 98.953125 71.367188 98.847656 71.476562 98.746094 71.609375 C 98.679688 71.699219 98.648438 71.765625 98.648438 71.816406 C 98.648438 71.875 98.671875 71.910156 98.71875 71.945312 C 98.753906 71.972656 98.792969 71.996094 98.839844 72.011719 C 98.886719 72.03125 98.929688 72.058594 98.96875 72.085938 L 101.125 73.710938 C 101.21875 73.785156 101.332031 73.816406 101.445312 73.800781 C 101.554688 73.789062 101.660156 73.734375 101.742188 73.628906 C 101.816406 73.53125 101.839844 73.414062 101.824219 73.304688 C 101.808594 73.191406 101.746094 73.089844 101.648438 73.019531 Z M 99.472656 71.375 " fill-opacity="1" fill-rule="nonzero"/><path fill="#09a6f3" d="M 104.960938 65.980469 C 104.84375 65.84375 104.71875 65.804688 104.589844 65.820312 C 104.464844 65.835938 104.332031 65.914062 104.203125 66.015625 C 104.113281 66.085938 104.0625 66.144531 104.050781 66.195312 C 104.035156 66.246094 104.050781 66.289062 104.085938 66.335938 C 104.113281 66.371094 104.148438 66.402344 104.1875 66.433594 C 104.222656 66.460938 104.257812 66.5 104.289062 66.535156 L 105.945312 68.667969 C 106.019531 68.761719 106.121094 68.820312 106.234375 68.835938 C 106.34375 68.851562 106.460938 68.832031 106.5625 68.75 C 106.660156 68.675781 106.71875 68.566406 106.726562 68.457031 C 106.742188 68.34375 106.707031 68.230469 106.632812 68.136719 Z M 104.960938 65.980469 " fill-opacity="1" fill-rule="nonzero"/><path fill="#09a6f3" d="M 111.667969 62.207031 C 111.589844 62.042969 111.480469 61.972656 111.351562 61.953125 C 111.226562 61.9375 111.078125 61.976562 110.925781 62.042969 C 110.820312 62.085938 110.757812 62.128906 110.734375 62.171875 C 110.703125 62.222656 110.707031 62.269531 110.730469 62.320312 C 110.746094 62.359375 110.769531 62.402344 110.800781 62.441406 C 110.832031 62.480469 110.855469 62.523438 110.875 62.566406 L 111.917969 65.058594 C 111.964844 65.167969 112.046875 65.25 112.148438 65.296875 C 112.253906 65.339844 112.371094 65.347656 112.492188 65.296875 C 112.605469 65.25 112.6875 65.160156 112.726562 65.054688 C 112.769531 64.953125 112.765625 64.832031 112.722656 64.722656 Z M 111.667969 62.207031 " fill-opacity="1" fill-rule="nonzero"/><path fill="#09a6f3" d="M 119.128906 60.3125 C 119.09375 60.136719 119.007812 60.039062 118.890625 59.988281 C 118.769531 59.9375 118.621094 59.9375 118.453125 59.960938 C 118.339844 59.976562 118.269531 60 118.234375 60.039062 C 118.195312 60.078125 118.1875 60.121094 118.191406 60.175781 C 118.199219 60.222656 118.210938 60.269531 118.230469 60.3125 C 118.25 60.359375 118.261719 60.40625 118.269531 60.453125 L 118.625 63.132812 C 118.640625 63.25 118.699219 63.351562 118.785156 63.421875 C 118.875 63.492188 118.988281 63.527344 119.117188 63.511719 C 119.238281 63.496094 119.339844 63.433594 119.40625 63.34375 C 119.472656 63.25 119.503906 63.136719 119.488281 63.015625 Z M 119.128906 60.3125 " fill-opacity="1" fill-rule="nonzero"/><path fill="#09a6f3" d="M 126.824219 60.433594 C 126.835938 60.253906 126.777344 60.136719 126.679688 60.054688 C 126.574219 59.976562 126.429688 59.9375 126.265625 59.914062 C 126.152344 59.902344 126.078125 59.90625 126.03125 59.933594 C 125.984375 59.960938 125.964844 60 125.957031 60.054688 C 125.949219 60.101562 125.949219 60.148438 125.957031 60.195312 C 125.960938 60.246094 125.960938 60.296875 125.957031 60.34375 L 125.601562 63.019531 C 125.585938 63.140625 125.617188 63.253906 125.683594 63.34375 C 125.75 63.433594 125.847656 63.5 125.976562 63.515625 C 126.101562 63.535156 126.214844 63.496094 126.300781 63.429688 C 126.390625 63.359375 126.449219 63.253906 126.464844 63.136719 Z M 126.824219 60.433594 " fill-opacity="1" fill-rule="nonzero"/><path fill="#09a6f3" d="M 134.222656 62.558594 C 134.28125 62.386719 134.253906 62.257812 134.179688 62.152344 C 134.101562 62.050781 133.96875 61.976562 133.816406 61.910156 C 133.710938 61.867188 133.636719 61.855469 133.585938 61.867188 C 133.535156 61.882812 133.503906 61.917969 133.480469 61.96875 C 133.464844 62.007812 133.453125 62.054688 133.445312 62.101562 C 133.4375 62.152344 133.421875 62.199219 133.40625 62.242188 L 132.367188 64.738281 C 132.320312 64.847656 132.316406 64.964844 132.359375 65.070312 C 132.398438 65.171875 132.476562 65.261719 132.597656 65.3125 C 132.714844 65.363281 132.832031 65.355469 132.9375 65.3125 C 133.039062 65.269531 133.121094 65.183594 133.167969 65.074219 Z M 134.222656 62.558594 " fill-opacity="1" fill-rule="nonzero"/><path fill="#09a6f3" d="M 140.808594 66.539062 C 140.910156 66.386719 140.917969 66.257812 140.871094 66.136719 C 140.824219 66.019531 140.714844 65.910156 140.585938 65.808594 C 140.496094 65.738281 140.425781 65.707031 140.375 65.707031 C 140.320312 65.707031 140.28125 65.730469 140.246094 65.777344 C 140.21875 65.8125 140.195312 65.851562 140.179688 65.898438 C 140.15625 65.941406 140.132812 65.984375 140.105469 66.023438 L 138.445312 68.15625 C 138.375 68.25 138.34375 68.367188 138.355469 68.476562 C 138.367188 68.589844 138.417969 68.695312 138.523438 68.773438 C 138.621094 68.851562 138.738281 68.878906 138.847656 68.863281 C 138.957031 68.847656 139.0625 68.785156 139.132812 68.691406 Z M 140.808594 66.539062 " fill-opacity="1" fill-rule="nonzero"/><path fill="#09a6f3" d="M 146.125 72.097656 C 146.265625 71.980469 146.308594 71.859375 146.292969 71.730469 C 146.277344 71.601562 146.203125 71.46875 146.101562 71.339844 C 146.03125 71.246094 145.976562 71.199219 145.925781 71.183594 C 145.875 71.167969 145.832031 71.183594 145.785156 71.21875 C 145.75 71.246094 145.714844 71.277344 145.683594 71.316406 C 145.65625 71.355469 145.617188 71.386719 145.582031 71.417969 L 143.425781 73.046875 C 143.328125 73.121094 143.269531 73.222656 143.253906 73.332031 C 143.234375 73.441406 143.257812 73.558594 143.335938 73.664062 C 143.410156 73.761719 143.515625 73.820312 143.628906 73.832031 C 143.738281 73.84375 143.855469 73.8125 143.949219 73.742188 Z M 146.125 72.097656 " fill-opacity="1" fill-rule="nonzero"/><path fill="#09a6f3" d="M 149.808594 78.855469 C 149.972656 78.777344 150.046875 78.671875 150.066406 78.542969 C 150.085938 78.417969 150.046875 78.269531 149.984375 78.117188 C 149.941406 78.011719 149.898438 77.949219 149.855469 77.921875 C 149.808594 77.890625 149.761719 77.894531 149.710938 77.917969 C 149.667969 77.933594 149.625 77.957031 149.589844 77.988281 C 149.550781 78.015625 149.503906 78.039062 149.460938 78.058594 L 146.953125 79.066406 C 146.84375 79.113281 146.761719 79.195312 146.714844 79.296875 C 146.667969 79.398438 146.660156 79.515625 146.707031 79.636719 C 146.753906 79.753906 146.839844 79.835938 146.945312 79.878906 C 147.050781 79.917969 147.167969 79.917969 147.28125 79.875 Z M 149.808594 78.855469 " fill-opacity="1" fill-rule="nonzero"/><path fill="#09a6f3" d="M 151.601562 86.339844 C 151.78125 86.308594 151.878906 86.222656 151.933594 86.105469 C 151.980469 85.988281 151.984375 85.835938 151.964844 85.671875 C 151.949219 85.558594 151.925781 85.488281 151.890625 85.449219 C 151.851562 85.410156 151.804688 85.402344 151.75 85.40625 C 151.707031 85.414062 151.660156 85.421875 151.617188 85.441406 C 151.570312 85.460938 151.519531 85.472656 151.472656 85.480469 L 148.792969 85.796875 C 148.671875 85.8125 148.570312 85.871094 148.5 85.957031 C 148.429688 86.042969 148.386719 86.15625 148.402344 86.285156 C 148.417969 86.410156 148.480469 86.511719 148.570312 86.578125 C 148.660156 86.648438 148.773438 86.675781 148.894531 86.664062 Z M 151.601562 86.339844 " fill-opacity="1" fill-rule="nonzero"/><path fill="#09a6f3" d="M 151.378906 94.035156 C 151.558594 94.046875 151.675781 93.992188 151.757812 93.890625 C 151.835938 93.792969 151.878906 93.644531 151.902344 93.480469 C 151.917969 93.367188 151.914062 93.292969 151.890625 93.25 C 151.863281 93.199219 151.820312 93.179688 151.765625 93.171875 C 151.722656 93.164062 151.675781 93.164062 151.625 93.171875 C 151.578125 93.175781 151.527344 93.171875 151.480469 93.167969 L 148.804688 92.777344 C 148.6875 92.761719 148.574219 92.789062 148.484375 92.851562 C 148.390625 92.917969 148.324219 93.015625 148.304688 93.144531 C 148.285156 93.269531 148.320312 93.382812 148.390625 93.472656 C 148.457031 93.558594 148.5625 93.621094 148.679688 93.636719 Z M 151.378906 94.035156 " fill-opacity="1" fill-rule="nonzero"/><path fill="#09a6f3" d="M 149.15625 101.402344 C 149.324219 101.460938 149.453125 101.441406 149.558594 101.363281 C 149.660156 101.289062 149.738281 101.160156 149.804688 101.003906 C 149.851562 100.898438 149.863281 100.828125 149.851562 100.777344 C 149.839844 100.722656 149.804688 100.691406 149.753906 100.671875 C 149.714844 100.652344 149.667969 100.636719 149.617188 100.632812 C 149.570312 100.625 149.523438 100.609375 149.480469 100.59375 L 147 99.519531 C 146.890625 99.46875 146.773438 99.46875 146.667969 99.507812 C 146.5625 99.546875 146.472656 99.621094 146.421875 99.742188 C 146.371094 99.855469 146.375 99.976562 146.414062 100.078125 C 146.460938 100.183594 146.542969 100.265625 146.652344 100.316406 Z M 149.15625 101.402344 " fill-opacity="1" fill-rule="nonzero"/><path fill="#09a6f3" d="M 145.085938 107.933594 C 145.234375 108.035156 145.363281 108.046875 145.484375 108.003906 C 145.605469 107.957031 145.710938 107.851562 145.816406 107.71875 C 145.886719 107.632812 145.921875 107.5625 145.921875 107.511719 C 145.921875 107.457031 145.898438 107.417969 145.855469 107.382812 C 145.820312 107.355469 145.777344 107.332031 145.734375 107.3125 C 145.691406 107.292969 145.648438 107.265625 145.609375 107.238281 L 143.496094 105.550781 C 143.402344 105.476562 143.289062 105.445312 143.179688 105.453125 C 143.066406 105.464844 142.960938 105.515625 142.878906 105.617188 C 142.800781 105.714844 142.773438 105.832031 142.789062 105.941406 C 142.800781 106.054688 142.859375 106.15625 142.953125 106.234375 Z M 145.085938 107.933594 " fill-opacity="1" fill-rule="nonzero"/><path fill="#09a6f3" d="M 139.453125 113.175781 C 139.566406 113.316406 139.691406 113.359375 139.820312 113.347656 C 139.945312 113.335938 140.078125 113.261719 140.214844 113.164062 C 140.304688 113.09375 140.355469 113.039062 140.371094 112.988281 C 140.386719 112.9375 140.371094 112.894531 140.335938 112.847656 C 140.3125 112.8125 140.28125 112.777344 140.238281 112.746094 C 140.203125 112.714844 140.167969 112.679688 140.140625 112.640625 L 138.539062 110.464844 C 138.46875 110.367188 138.371094 110.304688 138.257812 110.285156 C 138.148438 110.269531 138.03125 110.289062 137.925781 110.367188 C 137.824219 110.441406 137.769531 110.542969 137.753906 110.65625 C 137.738281 110.765625 137.769531 110.882812 137.839844 110.980469 Z M 139.453125 113.175781 " fill-opacity="1" fill-rule="nonzero"/><path stroke-linecap="butt" transform="matrix(0.27, 0, 0, 0.27, 71.940057, 103.39742)" fill="none" stroke-linejoin="miter" d="M 5.459279 26.002034 L 2.001525 26.002034 L 2.001525 6.962681 L 6.920506 6.962681 L 11.738215 20.967312 L 12.013099 20.967312 L 16.801873 6.962681 L 21.605114 6.962681 L 21.605114 26.002034 L 18.046086 26.002034 L 18.046086 13.429695 L 17.713331 13.371825 L 13.315183 26.002034 L 10.175715 26.002034 L 5.777566 13.371825 L 5.459279 13.429695 Z M 5.459279 26.002034 " stroke="#ffffff" stroke-width="3.733" stroke-opacity="1" stroke-miterlimit="4"/><path stroke-linecap="butt" transform="matrix(0.27, 0, 0, 0.27, 78.081657, 103.39742)" fill="none" stroke-linejoin="miter" d="M 9.622337 26.276918 C 7.003702 26.276918 5.050577 25.654812 3.791896 24.410599 C 2.518748 23.166386 1.882174 21.314534 1.882174 18.86951 L 1.882174 6.962681 L 5.57141 6.962681 L 5.57141 18.840575 C 5.57141 20.229464 5.904165 21.271131 6.569674 21.965575 C 7.249651 22.66002 8.262383 23.007242 9.622337 23.007242 C 12.313309 23.007242 13.673263 21.618353 13.673263 18.840575 L 13.673263 6.962681 L 17.348031 6.962681 L 17.348031 18.86951 C 17.348031 21.314534 16.711457 23.166386 15.452777 24.410599 C 14.179628 25.654812 12.240971 26.276918 9.622337 26.276918 Z M 9.622337 26.276918 " stroke="#ffffff" stroke-width="3.733" stroke-opacity="1" stroke-miterlimit="4"/><path stroke-linecap="butt" transform="matrix(0.27, 0, 0, 0.27, 83.039207, 103.39742)" fill="none" stroke-linejoin="miter" d="M 5.772035 6.962681 L 5.772035 22.848099 L 14.322383 22.848099 L 14.322383 26.002034 L 1.995993 26.002034 L 1.995993 6.962681 Z M 5.772035 6.962681 " stroke="#ffffff" stroke-width="3.733" stroke-opacity="1" stroke-miterlimit="4"/><path stroke-linecap="butt" transform="matrix(0.27, 0, 0, 0.27, 86.710494, 103.39742)" fill="none" stroke-linejoin="miter" d="M 14.787523 6.962681 L 14.787523 10.131084 L 9.289838 10.131084 L 9.289838 26.002034 L 5.542731 26.002034 L 5.542731 10.131084 L 0.0450458 10.131084 L 0.0450458 6.962681 Z M 14.787523 6.962681 " stroke="#ffffff" stroke-width="3.733" stroke-opacity="1" stroke-miterlimit="4"/><path stroke-linecap="butt" transform="matrix(0.27, 0, 0, 0.27, 90.480049, 103.39742)" fill="none" stroke-linejoin="miter" d="M 2.012551 6.962681 L 5.759657 6.962681 L 5.759657 26.002034 L 2.012551 26.002034 Z M 2.012551 6.962681 " stroke="#ffffff" stroke-width="3.733" stroke-opacity="1" stroke-miterlimit="4"/><path stroke-linecap="butt" transform="matrix(0.27, 0, 0, 0.27, 92.344846, 103.39742)" fill="none" stroke-linejoin="miter" d="M 0.661449 15.165807 L 8.64756 15.165807 L 8.64756 18.348677 L 0.661449 18.348677 Z M 0.661449 15.165807 " stroke="#ffffff" stroke-width="3.733" stroke-opacity="1" stroke-miterlimit="4"/><path stroke-linecap="butt" transform="matrix(0.27, 0, 0, 0.27, 94.628333, 103.39742)" fill="none" stroke-linejoin="miter" d="M 9.362655 6.962681 C 10.722608 6.962681 11.894483 7.223098 12.849345 7.714996 C 13.818673 8.221362 14.556521 8.915806 15.048419 9.812797 C 15.540317 10.709788 15.786266 11.751455 15.786266 12.937797 C 15.786266 14.138607 15.540317 15.180274 15.048419 16.062797 C 14.556521 16.959788 13.818673 17.654233 12.849345 18.160598 C 11.894483 18.652497 10.722608 18.898446 9.362655 18.898446 L 5.774691 18.898446 L 5.774691 26.002034 L 2.013117 26.002034 L 2.013117 6.962681 Z M 8.870756 15.918121 C 10.95409 15.918121 11.995757 14.934325 11.995757 12.937797 C 11.995757 10.941269 10.95409 9.957473 8.870756 9.957473 L 5.774691 9.957473 L 5.774691 15.918121 Z M 8.870756 15.918121 " stroke="#ffffff" stroke-width="3.733" stroke-opacity="1" stroke-miterlimit="4"/><path stroke-linecap="butt" transform="matrix(0.27, 0, 0, 0.27, 98.833488, 103.39742)" fill="none" stroke-linejoin="miter" d="M 9.615553 26.276918 C 6.996918 26.276918 5.058261 25.654812 3.785113 24.410599 C 2.526432 23.166386 1.889858 21.314534 1.889858 18.86951 L 1.889858 6.962681 L 5.579094 6.962681 L 5.579094 18.840575 C 5.579094 20.229464 5.911849 21.271131 6.577358 21.965575 C 7.242868 22.66002 8.255599 23.007242 9.615553 23.007242 C 12.320993 23.007242 13.666479 21.618353 13.666479 18.840575 L 13.666479 6.962681 L 17.355715 6.962681 L 17.355715 18.86951 C 17.355715 21.314534 16.719141 23.166386 15.445993 24.410599 C 14.187312 25.654812 12.234187 26.276918 9.615553 26.276918 Z M 9.615553 26.276918 " stroke="#ffffff" stroke-width="3.733" stroke-opacity="1" stroke-miterlimit="4"/><path stroke-linecap="butt" transform="matrix(0.27, 0, 0, 0.27, 103.791055, 103.39742)" fill="none" stroke-linejoin="miter" d="M 2.003615 26.002034 L 2.003615 6.962681 L 9.642504 6.962681 C 11.610097 6.962681 13.100259 7.425644 14.11299 8.322635 C 15.111254 9.234093 15.603153 10.492774 15.603153 12.084209 C 15.603153 13.241617 15.313801 14.18201 14.720629 14.919857 C 14.141926 15.657705 13.27387 16.221941 12.101995 16.612566 L 12.101995 16.88745 C 12.709634 17.147867 13.187064 17.538492 13.563222 18.044858 C 13.924912 18.565691 14.272134 19.318006 14.604889 20.330737 L 16.514611 26.002034 L 12.637296 26.002034 L 10.785444 20.31627 C 10.582898 19.737566 10.365884 19.289071 10.134402 18.970784 C 9.888453 18.652497 9.584634 18.435483 9.222944 18.290807 C 8.846786 18.146131 8.369356 18.073793 7.790652 18.073793 L 5.765189 18.073793 L 5.765189 26.002034 Z M 9.194009 15.093469 C 11.016925 15.093469 11.928384 14.239881 11.928384 12.532705 C 11.928384 10.811061 11.016925 9.957473 9.194009 9.957473 L 5.765189 9.957473 L 5.765189 15.093469 Z M 9.194009 15.093469 " stroke="#ffffff" stroke-width="3.733" stroke-opacity="1" stroke-miterlimit="4"/><path stroke-linecap="butt" transform="matrix(0.27, 0, 0, 0.27, 108.10529, 103.39742)" fill="none" stroke-linejoin="miter" d="M 9.361194 6.962681 C 10.721148 6.962681 11.893023 7.223098 12.862352 7.714996 C 13.817213 8.221362 14.55506 8.915806 15.046958 9.812797 C 15.538856 10.709788 15.784806 11.751455 15.784806 12.937797 C 15.784806 14.138607 15.538856 15.180274 15.046958 16.062797 C 14.55506 16.959788 13.817213 17.654233 12.862352 18.160598 C 11.893023 18.652497 10.721148 18.898446 9.361194 18.898446 L 5.773231 18.898446 L 5.773231 26.002034 L 1.997189 26.002034 L 1.997189 6.962681 Z M 8.869296 15.918121 C 10.952629 15.918121 12.008764 14.934325 12.008764 12.937797 C 12.008764 10.941269 10.952629 9.957473 8.869296 9.957473 L 5.773231 9.957473 L 5.773231 15.918121 Z M 8.869296 15.918121 " stroke="#ffffff" stroke-width="3.733" stroke-opacity="1" stroke-miterlimit="4"/><path stroke-linecap="butt" transform="matrix(0.27, 0, 0, 0.27, 112.310812, 103.39742)" fill="none" stroke-linejoin="miter" d="M 9.902084 26.276918 C 8.165973 26.276918 6.617941 25.915228 5.286922 25.206316 C 3.955903 24.497404 2.914237 23.412335 2.161922 21.951108 C 1.409607 20.475413 1.018982 18.666964 1.018982 16.482358 C 1.018982 14.312219 1.409607 12.489302 2.161922 11.028075 C 2.914237 9.566848 3.955903 8.467311 5.286922 7.758399 C 6.617941 7.049487 8.165973 6.702264 9.902084 6.702264 C 11.652663 6.702264 13.186228 7.049487 14.517247 7.758399 C 15.848265 8.467311 16.875464 9.55238 17.627779 11.013607 C 18.380094 12.489302 18.756251 14.312219 18.756251 16.482358 C 18.756251 18.666964 18.380094 20.475413 17.627779 21.951108 C 16.875464 23.426802 15.848265 24.497404 14.517247 25.206316 C 13.186228 25.915228 11.652663 26.276918 9.902084 26.276918 Z M 9.902084 23.007242 C 11.522455 23.007242 12.7522 22.486409 13.605788 21.444742 C 14.459376 20.417543 14.878936 18.75377 14.878936 16.482358 C 14.878936 14.210945 14.459376 12.56164 13.605788 11.519973 C 12.7522 10.478306 11.522455 9.957473 9.902084 9.957473 C 8.281714 9.957473 7.051968 10.478306 6.183913 11.519973 C 5.330325 12.56164 4.910765 14.210945 4.910765 16.482358 C 4.910765 18.75377 5.330325 20.417543 6.183913 21.444742 C 7.051968 22.486409 8.281714 23.007242 9.902084 23.007242 Z M 9.902084 23.007242 " stroke="#ffffff" stroke-width="3.733" stroke-opacity="1" stroke-miterlimit="4"/><path stroke-linecap="butt" transform="matrix(0.27, 0, 0, 0.27, 117.419572, 103.39742)" fill="none" stroke-linejoin="miter" d="M 7.965706 26.276918 C 6.649155 26.276918 5.47728 26.117775 4.45008 25.78502 C 3.422881 25.466733 2.554826 25.032705 1.874849 24.497404 C 1.194872 23.976571 0.659571 23.397867 0.297881 22.761293 L 2.366747 20.229464 L 2.699502 20.229464 C 3.263738 21.083052 4.001585 21.763029 4.869641 22.269395 C 5.752164 22.775761 6.793831 23.02171 7.965706 23.02171 C 8.978437 23.02171 9.730752 22.804696 10.251585 22.385136 C 10.757951 21.951108 11.018368 21.372404 11.018368 20.620089 C 11.018368 20.171594 10.931562 19.795436 10.772419 19.491617 C 10.598808 19.187798 10.323923 18.927381 9.947766 18.710367 C 9.557141 18.493353 9.050775 18.305274 8.399733 18.146131 L 5.95471 17.596362 C 4.247534 17.205737 2.959918 16.554696 2.120798 15.643237 C 1.296145 14.731779 0.876585 13.559904 0.876585 12.113144 C 0.876585 11.028075 1.137002 10.087681 1.672303 9.277496 C 2.207603 8.452843 3.003321 7.816269 4.03052 7.367774 C 5.057719 6.919278 6.287465 6.702264 7.719757 6.702264 C 9.180983 6.702264 10.439664 6.890343 11.481331 7.280968 C 12.537465 7.657126 13.419988 8.250297 14.143368 9.046015 L 12.277048 11.606779 L 11.944294 11.606779 C 11.408993 11.042542 10.801354 10.622982 10.106909 10.33363 C 9.412465 10.044278 8.616747 9.91407 7.719757 9.91407 C 6.692557 9.91407 5.89684 10.087681 5.361539 10.449371 C 4.826238 10.825529 4.551354 11.331894 4.551354 11.968468 C 4.551354 12.56164 4.739432 13.03907 5.11559 13.40076 C 5.506215 13.747982 6.157256 14.037334 7.083182 14.225413 L 9.586076 14.746246 C 11.42346 15.136871 12.768947 15.802381 13.608067 16.742774 C 14.43272 17.6687 14.85228 18.883978 14.85228 20.388608 C 14.85228 21.57495 14.591863 22.616617 14.085498 23.49914 C 13.579132 24.367196 12.797882 25.06164 11.770683 25.539071 C 10.729016 26.030969 9.470335 26.276918 7.965706 26.276918 Z M 7.965706 26.276918 " stroke="#ffffff" stroke-width="3.733" stroke-opacity="1" stroke-miterlimit="4"/><path stroke-linecap="butt" transform="matrix(0.27, 0, 0, 0.27, 121.343932, 103.39742)" fill="none" stroke-linejoin="miter" d="M 5.771896 17.639765 L 5.771896 22.848099 L 14.857545 22.848099 L 14.857545 26.002034 L 2.010322 26.002034 L 2.010322 6.962681 L 14.640531 6.962681 L 14.640531 10.116616 L 5.771896 10.116616 L 5.771896 14.572635 L 13.526526 14.572635 L 13.526526 17.639765 Z M 5.771896 17.639765 " stroke="#ffffff" stroke-width="3.733" stroke-opacity="1" stroke-miterlimit="4"/><path stroke-linecap="butt" transform="matrix(0.27, 0, 0, 0.27, 126.479322, 103.39742)" fill="none" stroke-linejoin="miter" d="M 9.929016 26.276918 C 8.178438 26.276918 6.630405 25.915228 5.299387 25.177381 C 3.968368 24.454002 2.912234 23.354464 2.159919 21.893238 C 1.407604 20.432011 1.031446 18.623561 1.031446 16.482358 C 1.031446 14.341154 1.407604 12.532705 2.159919 11.071478 C 2.912234 9.610251 3.968368 8.525181 5.299387 7.787334 C 6.630405 7.063954 8.178438 6.702264 9.929016 6.702264 C 11.766401 6.702264 13.314433 7.049487 14.602049 7.772866 C 15.875197 8.481778 16.801123 9.581315 17.336424 11.042542 L 14.587582 12.720783 L 14.269294 12.706316 C 13.864202 11.722519 13.299966 11.013607 12.605521 10.579579 C 11.911077 10.145552 11.014086 9.928538 9.929016 9.928538 C 8.352049 9.928538 7.122303 10.463839 6.23978 11.505505 C 5.357257 12.547172 4.908762 14.210945 4.908762 16.482358 C 4.908762 18.75377 5.357257 20.403075 6.23978 21.444742 C 7.122303 22.500876 8.352049 23.02171 9.929016 23.02171 C 12.402975 23.02171 13.922072 21.8209 14.471841 19.419279 L 14.804595 19.419279 L 17.567906 20.851571 C 17.06154 22.66002 16.164549 24.019974 14.905869 24.916965 C 13.647188 25.813955 11.983415 26.276918 9.929016 26.276918 Z M 9.929016 26.276918 " stroke="#ffffff" stroke-width="3.733" stroke-opacity="1" stroke-miterlimit="4"/><path stroke-linecap="butt" transform="matrix(0.27, 0, 0, 0.27, 131.029009, 103.39742)" fill="none" stroke-linejoin="miter" d="M 9.904134 26.276918 C 8.168023 26.276918 6.619991 25.915228 5.288972 25.206316 C 3.957953 24.497404 2.916287 23.412335 2.163972 21.951108 C 1.411657 20.475413 1.021032 18.666964 1.021032 16.482358 C 1.021032 14.312219 1.411657 12.489302 2.163972 11.028075 C 2.916287 9.566848 3.957953 8.467311 5.288972 7.758399 C 6.619991 7.049487 8.168023 6.702264 9.904134 6.702264 C 11.654713 6.702264 13.188278 7.049487 14.519297 7.758399 C 15.835848 8.467311 16.877514 9.55238 17.629829 11.013607 C 18.382144 12.489302 18.758301 14.312219 18.758301 16.482358 C 18.758301 18.666964 18.382144 20.475413 17.629829 21.951108 C 16.877514 23.426802 15.835848 24.497404 14.519297 25.206316 C 13.188278 25.915228 11.654713 26.276918 9.904134 26.276918 Z M 9.904134 23.007242 C 11.524505 23.007242 12.75425 22.486409 13.607838 21.444742 C 14.461426 20.417543 14.880986 18.75377 14.880986 16.482358 C 14.880986 14.210945 14.461426 12.56164 13.607838 11.519973 C 12.75425 10.478306 11.524505 9.957473 9.904134 9.957473 C 8.283764 9.957473 7.039551 10.478306 6.185963 11.519973 C 5.332375 12.56164 4.912815 14.210945 4.912815 16.482358 C 4.912815 18.75377 5.332375 20.417543 6.185963 21.444742 C 7.039551 22.486409 8.283764 23.007242 9.904134 23.007242 Z M 9.904134 23.007242 " stroke="#ffffff" stroke-width="3.733" stroke-opacity="1" stroke-miterlimit="4"/><path stroke-linecap="butt" transform="matrix(0.27, 0, 0, 0.27, 136.137769, 103.39742)" fill="none" stroke-linejoin="miter" d="M 9.906413 26.276918 C 8.170302 26.276918 6.622269 25.915228 5.291251 25.206316 C 3.960232 24.497404 2.918566 23.412335 2.151783 21.951108 C 1.399468 20.475413 1.023311 18.666964 1.023311 16.482358 C 1.023311 14.312219 1.399468 12.489302 2.151783 11.028075 C 2.918566 9.566848 3.960232 8.467311 5.291251 7.758399 C 6.622269 7.049487 8.170302 6.702264 9.906413 6.702264 C 11.642524 6.702264 13.190557 7.049487 14.507108 7.758399 C 15.838126 8.467311 16.879793 9.55238 17.632108 11.013607 C 18.384423 12.489302 18.76058 14.312219 18.76058 16.482358 C 18.76058 18.666964 18.384423 20.475413 17.632108 21.951108 C 16.879793 23.426802 15.838126 24.497404 14.507108 25.206316 C 13.190557 25.915228 11.642524 26.276918 9.906413 26.276918 Z M 9.906413 23.007242 C 11.512316 23.007242 12.756529 22.486409 13.595649 21.444742 C 14.449237 20.417543 14.883265 18.75377 14.883265 16.482358 C 14.883265 14.210945 14.449237 12.56164 13.595649 11.519973 C 12.756529 10.478306 11.512316 9.957473 9.906413 9.957473 C 8.286043 9.957473 7.04183 10.478306 6.188242 11.519973 C 5.334654 12.56164 4.915093 14.210945 4.915093 16.482358 C 4.915093 18.75377 5.334654 20.417543 6.188242 21.444742 C 7.04183 22.486409 8.286043 23.007242 9.906413 23.007242 Z M 9.906413 23.007242 " stroke="#ffffff" stroke-width="3.733" stroke-opacity="1" stroke-miterlimit="4"/><path stroke-linecap="butt" transform="matrix(0.27, 0, 0, 0.27, 141.246178, 103.39742)" fill="none" stroke-linejoin="miter" d="M 9.360221 6.962681 C 10.720175 6.962681 11.89205 7.223098 12.846911 7.714996 C 13.81624 8.221362 14.554087 8.915806 15.045985 9.812797 C 15.552351 10.709788 15.783833 11.751455 15.783833 12.937797 C 15.783833 14.138607 15.552351 15.180274 15.045985 16.062797 C 14.554087 16.959788 13.81624 17.654233 12.846911 18.160598 C 11.89205 18.652497 10.720175 18.898446 9.360221 18.898446 L 5.772258 18.898446 L 5.772258 26.002034 L 2.010684 26.002034 L 2.010684 6.962681 Z M 8.868323 15.918121 C 10.951657 15.918121 12.007791 14.934325 12.007791 12.937797 C 12.007791 10.941269 10.951657 9.957473 8.868323 9.957473 L 5.772258 9.957473 L 5.772258 15.918121 Z M 8.868323 15.918121 " stroke="#ffffff" stroke-width="3.733" stroke-opacity="1" stroke-miterlimit="4"/><path stroke-linecap="butt" transform="matrix(0.27, 0, 0, 0.27, 145.451686, 103.39742)" fill="none" stroke-linejoin="miter" d="M 5.763433 17.639765 L 5.763433 22.848099 L 14.849082 22.848099 L 14.849082 26.002034 L 2.001859 26.002034 L 2.001859 6.962681 L 14.646535 6.962681 L 14.646535 10.116616 L 5.763433 10.116616 L 5.763433 14.572635 L 13.532531 14.572635 L 13.532531 17.639765 Z M 5.763433 17.639765 " stroke="#ffffff" stroke-width="3.733" stroke-opacity="1" stroke-miterlimit="4"/><path stroke-linecap="butt" transform="matrix(0.27, 0, 0, 0.27, 149.379633, 103.39742)" fill="none" stroke-linejoin="miter" d="M 2.008302 26.002034 L 2.008302 6.962681 L 9.647192 6.962681 C 11.614784 6.962681 13.104946 7.425644 14.10321 8.322635 C 15.101474 9.234093 15.60784 10.492774 15.60784 12.084209 C 15.60784 13.241617 15.318488 14.18201 14.725317 14.919857 C 14.146613 15.657705 13.26409 16.221941 12.106682 16.612566 L 12.106682 16.88745 C 12.699854 17.147867 13.191752 17.538492 13.553442 18.044858 C 13.929599 18.565691 14.276821 19.318006 14.609576 20.330737 L 16.504831 26.002034 L 12.641983 26.002034 L 10.775664 20.31627 C 10.587585 19.737566 10.370571 19.289071 10.13909 18.970784 C 9.893141 18.652497 9.589321 18.435483 9.227631 18.290807 C 8.851474 18.146131 8.374043 18.073793 7.780872 18.073793 L 5.769876 18.073793 L 5.769876 26.002034 Z M 9.198696 15.093469 C 11.007145 15.093469 11.918604 14.239881 11.918604 12.532705 C 11.918604 10.811061 11.007145 9.957473 9.198696 9.957473 L 5.769876 9.957473 L 5.769876 15.093469 Z M 9.198696 15.093469 " stroke="#ffffff" stroke-width="3.733" stroke-opacity="1" stroke-miterlimit="4"/><path stroke-linecap="butt" transform="matrix(0.27, 0, 0, 0.27, 153.693892, 103.39742)" fill="none" stroke-linejoin="miter" d="M 17.8004 26.002034 L 13.836279 26.002034 L 12.403987 21.618353 L 5.11232 21.618353 L 3.680028 26.002034 L -0.182819 26.002034 L 6.385468 6.962681 L 11.217645 6.962681 Z M 8.584543 10.941269 L 6.125052 18.44995 L 11.362321 18.44995 L 8.90283 10.941269 Z M 8.584543 10.941269 " stroke="#ffffff" stroke-width="3.733" stroke-opacity="1" stroke-miterlimit="4"/><path stroke-linecap="butt" transform="matrix(0.27, 0, 0, 0.27, 158.212259, 103.39742)" fill="none" stroke-linejoin="miter" d="M 14.780985 6.962681 L 14.780985 10.131084 L 9.297767 10.131084 L 9.297767 26.002034 L 5.55066 26.002034 L 5.55066 10.131084 L 0.0529747 10.131084 L 0.0529747 6.962681 Z M 14.780985 6.962681 " stroke="#ffffff" stroke-width="3.733" stroke-opacity="1" stroke-miterlimit="4"/><path stroke-linecap="butt" transform="matrix(0.27, 0, 0, 0.27, 161.9818, 103.39742)" fill="none" stroke-linejoin="miter" d="M 2.006065 6.962681 L 5.76764 6.962681 L 5.76764 26.002034 L 2.006065 26.002034 Z M 2.006065 6.962681 " stroke="#ffffff" stroke-width="3.733" stroke-opacity="1" stroke-miterlimit="4"/><path stroke-linecap="butt" transform="matrix(0.27, 0, 0, 0.27, 163.846605, 103.39742)" fill="none" stroke-linejoin="miter" d="M 10.840123 26.002034 L 6.297298 26.002034 L -0.126313 6.962681 L 3.866742 6.962681 L 8.481905 21.15539 L 8.814659 21.15539 L 13.371951 6.962681 L 17.263734 6.962681 Z M 10.840123 26.002034 " stroke="#ffffff" stroke-width="3.733" stroke-opacity="1" stroke-miterlimit="4"/><path stroke-linecap="butt" transform="matrix(0.27, 0, 0, 0.27, 168.235014, 103.39742)" fill="none" stroke-linejoin="miter" d="M 5.770203 17.639765 L 5.770203 22.848099 L 14.855852 22.848099 L 14.855852 26.002034 L 2.008629 26.002034 L 2.008629 6.962681 L 14.638838 6.962681 L 14.638838 10.116616 L 5.770203 10.116616 L 5.770203 14.572635 L 13.524833 14.572635 L 13.524833 17.639765 Z M 5.770203 17.639765 " stroke="#ffffff" stroke-width="3.733" stroke-opacity="1" stroke-miterlimit="4"/><path fill="#dd0808" d="M 73.410156 110.417969 L 72.484375 110.417969 L 72.484375 105.277344 L 73.808594 105.277344 L 75.109375 109.054688 L 75.183594 109.054688 L 76.476562 105.277344 L 77.777344 105.277344 L 77.777344 110.417969 L 76.8125 110.417969 L 76.8125 107.019531 L 76.722656 107.007812 L 75.535156 110.417969 L 74.6875 110.417969 L 73.5 107.007812 L 73.410156 107.019531 Z M 73.410156 110.417969 " fill-opacity="1" fill-rule="nonzero"/><path fill="#dd0808" d="M 80.679688 110.492188 C 79.972656 110.492188 79.449219 110.324219 79.101562 109.988281 C 78.761719 109.652344 78.589844 109.152344 78.589844 108.488281 L 78.589844 105.277344 L 79.585938 105.277344 L 79.585938 108.480469 C 79.585938 108.859375 79.675781 109.140625 79.855469 109.324219 C 80.035156 109.515625 80.308594 109.605469 80.679688 109.605469 C 81.410156 109.605469 81.773438 109.234375 81.773438 108.480469 L 81.773438 105.277344 L 82.769531 105.277344 L 82.769531 108.488281 C 82.769531 109.152344 82.597656 109.652344 82.253906 109.988281 C 81.910156 110.324219 81.386719 110.492188 80.679688 110.492188 Z M 80.679688 110.492188 " fill-opacity="1" fill-rule="nonzero"/><path fill="#dd0808" d="M 84.59375 105.277344 L 84.59375 109.566406 L 86.90625 109.566406 L 86.90625 110.417969 L 83.582031 110.417969 L 83.582031 105.277344 Z M 84.59375 105.277344 " fill-opacity="1" fill-rule="nonzero"/><path fill="#dd0808" d="M 90.707031 105.277344 L 90.707031 106.132812 L 89.222656 106.132812 L 89.222656 110.417969 L 88.210938 110.417969 L 88.210938 106.132812 L 86.722656 106.132812 L 86.722656 105.277344 Z M 90.707031 105.277344 " fill-opacity="1" fill-rule="nonzero"/><path fill="#dd0808" d="M 91.023438 105.277344 L 92.035156 105.277344 L 92.035156 110.417969 L 91.023438 110.417969 Z M 91.023438 105.277344 " fill-opacity="1" fill-rule="nonzero"/><path fill="#dd0808" d="M 92.523438 107.492188 L 94.683594 107.492188 L 94.683594 108.347656 L 92.523438 108.347656 Z M 92.523438 107.492188 " fill-opacity="1" fill-rule="nonzero"/><path fill="#dd0808" d="M 97.15625 105.277344 C 97.523438 105.277344 97.835938 105.34375 98.097656 105.480469 C 98.359375 105.613281 98.558594 105.804688 98.691406 106.046875 C 98.828125 106.289062 98.894531 106.570312 98.894531 106.890625 C 98.894531 107.214844 98.828125 107.496094 98.691406 107.734375 C 98.558594 107.976562 98.359375 108.160156 98.097656 108.296875 C 97.835938 108.433594 97.523438 108.5 97.15625 108.5 L 96.183594 108.5 L 96.183594 110.417969 L 95.171875 110.417969 L 95.171875 105.277344 Z M 97.023438 107.695312 C 97.585938 107.695312 97.871094 107.425781 97.871094 106.890625 C 97.871094 106.351562 97.585938 106.082031 97.023438 106.082031 L 96.183594 106.082031 L 96.183594 107.695312 Z M 97.023438 107.695312 " fill-opacity="1" fill-rule="nonzero"/><path fill="#dd0808" d="M 101.429688 110.492188 C 100.722656 110.492188 100.199219 110.324219 99.855469 109.988281 C 99.511719 109.652344 99.34375 109.152344 99.34375 108.488281 L 99.34375 105.277344 L 100.339844 105.277344 L 100.339844 108.480469 C 100.339844 108.859375 100.429688 109.140625 100.609375 109.324219 C 100.789062 109.515625 101.0625 109.605469 101.429688 109.605469 C 102.160156 109.605469 102.527344 109.234375 102.527344 108.480469 L 102.527344 105.277344 L 103.523438 105.277344 L 103.523438 108.488281 C 103.523438 109.152344 103.347656 109.652344 103.003906 109.988281 C 102.664062 110.324219 102.136719 110.492188 101.429688 110.492188 Z M 101.429688 110.492188 " fill-opacity="1" fill-rule="nonzero"/><path fill="#dd0808" d="M 104.332031 110.417969 L 104.332031 105.277344 L 106.398438 105.277344 C 106.929688 105.277344 107.332031 105.398438 107.601562 105.648438 C 107.871094 105.890625 108.007812 106.230469 108.007812 106.660156 C 108.007812 106.972656 107.929688 107.226562 107.769531 107.425781 C 107.613281 107.625 107.375 107.777344 107.0625 107.878906 L 107.0625 107.953125 C 107.222656 108.023438 107.351562 108.128906 107.449219 108.269531 C 107.550781 108.40625 107.648438 108.613281 107.738281 108.882812 L 108.25 110.417969 L 107.203125 110.417969 L 106.703125 108.882812 C 106.648438 108.726562 106.589844 108.609375 106.527344 108.523438 C 106.460938 108.4375 106.382812 108.375 106.28125 108.335938 C 106.179688 108.296875 106.050781 108.273438 105.890625 108.273438 L 105.347656 108.273438 L 105.347656 110.417969 Z M 106.273438 107.46875 C 106.765625 107.46875 107.011719 107.242188 107.011719 106.785156 C 107.011719 106.316406 106.765625 106.082031 106.273438 106.082031 L 105.347656 106.082031 L 105.347656 107.46875 Z M 106.273438 107.46875 " fill-opacity="1" fill-rule="nonzero"/><path fill="#dd0808" d="M 110.632812 105.277344 C 111 105.277344 111.316406 105.34375 111.574219 105.480469 C 111.835938 105.613281 112.035156 105.804688 112.167969 106.046875 C 112.304688 106.289062 112.371094 106.570312 112.371094 106.890625 C 112.371094 107.214844 112.304688 107.496094 112.167969 107.734375 C 112.035156 107.976562 111.835938 108.160156 111.574219 108.296875 C 111.316406 108.433594 111 108.5 110.632812 108.5 L 109.660156 108.5 L 109.660156 110.417969 L 108.648438 110.417969 L 108.648438 105.277344 Z M 110.5 107.695312 C 111.0625 107.695312 111.347656 107.425781 111.347656 106.890625 C 111.347656 106.351562 111.0625 106.082031 110.5 106.082031 L 109.660156 106.082031 L 109.660156 107.695312 Z M 110.5 107.695312 " fill-opacity="1" fill-rule="nonzero"/><path fill="#dd0808" d="M 114.984375 110.492188 C 114.515625 110.492188 114.101562 110.394531 113.742188 110.203125 C 113.382812 110.011719 113.097656 109.71875 112.894531 109.324219 C 112.691406 108.929688 112.589844 108.4375 112.589844 107.847656 C 112.589844 107.257812 112.691406 106.765625 112.894531 106.371094 C 113.097656 105.980469 113.382812 105.6875 113.742188 105.496094 C 114.101562 105.300781 114.515625 105.203125 114.984375 105.203125 C 115.457031 105.203125 115.871094 105.296875 116.230469 105.488281 C 116.589844 105.679688 116.871094 105.976562 117.074219 106.371094 C 117.273438 106.765625 117.375 107.257812 117.375 107.847656 C 117.375 108.4375 117.273438 108.929688 117.074219 109.324219 C 116.871094 109.71875 116.589844 110.011719 116.230469 110.203125 C 115.871094 110.394531 115.457031 110.492188 114.984375 110.492188 Z M 114.984375 109.605469 C 115.421875 109.605469 115.753906 109.46875 115.980469 109.191406 C 116.214844 108.910156 116.332031 108.460938 116.332031 107.847656 C 116.332031 107.230469 116.214844 106.785156 115.980469 106.503906 C 115.753906 106.222656 115.421875 106.082031 114.984375 106.082031 C 114.546875 106.082031 114.210938 106.222656 113.980469 106.503906 C 113.75 106.785156 113.636719 107.230469 113.636719 107.847656 C 113.636719 108.460938 113.75 108.910156 113.980469 109.191406 C 114.210938 109.46875 114.546875 109.605469 114.984375 109.605469 Z M 114.984375 109.605469 " fill-opacity="1" fill-rule="nonzero"/><path fill="#dd0808" d="M 119.570312 110.492188 C 119.214844 110.492188 118.898438 110.445312 118.621094 110.359375 C 118.34375 110.269531 118.109375 110.15625 117.921875 110.011719 C 117.738281 109.871094 117.597656 109.710938 117.5 109.539062 L 118.058594 108.859375 L 118.148438 108.859375 C 118.300781 109.089844 118.496094 109.273438 118.734375 109.410156 C 118.972656 109.546875 119.25 109.613281 119.570312 109.613281 C 119.84375 109.613281 120.050781 109.558594 120.183594 109.445312 C 120.320312 109.328125 120.390625 109.167969 120.390625 108.964844 C 120.390625 108.84375 120.371094 108.742188 120.324219 108.664062 C 120.28125 108.582031 120.210938 108.507812 120.105469 108.449219 C 120.003906 108.390625 119.863281 108.339844 119.6875 108.296875 L 119.023438 108.144531 C 118.5625 108.039062 118.21875 107.867188 117.992188 107.621094 C 117.765625 107.375 117.652344 107.054688 117.652344 106.664062 C 117.652344 106.378906 117.726562 106.121094 117.871094 105.902344 C 118.019531 105.679688 118.230469 105.507812 118.507812 105.386719 C 118.785156 105.265625 119.117188 105.203125 119.503906 105.203125 C 119.898438 105.203125 120.242188 105.257812 120.523438 105.359375 C 120.804688 105.464844 121.039062 105.625 121.234375 105.839844 L 120.734375 106.53125 L 120.644531 106.53125 C 120.5 106.378906 120.335938 106.261719 120.148438 106.1875 C 119.960938 106.109375 119.746094 106.070312 119.503906 106.070312 C 119.226562 106.070312 119.015625 106.121094 118.867188 106.222656 C 118.722656 106.320312 118.648438 106.453125 118.648438 106.625 C 118.648438 106.789062 118.699219 106.917969 118.800781 107.015625 C 118.90625 107.113281 119.082031 107.1875 119.335938 107.238281 L 120.007812 107.378906 C 120.507812 107.484375 120.871094 107.664062 121.09375 107.914062 C 121.320312 108.164062 121.433594 108.496094 121.433594 108.902344 C 121.433594 109.222656 121.363281 109.503906 121.226562 109.742188 C 121.085938 109.980469 120.875 110.164062 120.59375 110.292969 C 120.316406 110.425781 119.976562 110.492188 119.570312 110.492188 Z M 119.570312 110.492188 " fill-opacity="1" fill-rule="nonzero"/><path fill="#dd0808" d="M 122.898438 108.160156 L 122.898438 109.566406 L 125.355469 109.566406 L 125.355469 110.417969 L 121.886719 110.417969 L 121.886719 105.277344 L 125.300781 105.277344 L 125.300781 106.125 L 122.898438 106.125 L 122.898438 107.328125 L 124.996094 107.328125 L 124.996094 108.160156 Z M 122.898438 108.160156 " fill-opacity="1" fill-rule="nonzero"/><path fill="#dd0808" d="M 129.160156 110.492188 C 128.6875 110.492188 128.269531 110.394531 127.910156 110.199219 C 127.550781 110 127.265625 109.703125 127.0625 109.308594 C 126.859375 108.914062 126.757812 108.425781 126.757812 107.847656 C 126.757812 107.269531 126.859375 106.785156 127.0625 106.390625 C 127.265625 105.992188 127.550781 105.695312 127.910156 105.5 C 128.269531 105.304688 128.6875 105.203125 129.160156 105.203125 C 129.65625 105.203125 130.074219 105.300781 130.417969 105.496094 C 130.769531 105.6875 131.015625 105.980469 131.160156 106.378906 L 130.417969 106.828125 L 130.335938 106.828125 C 130.222656 106.5625 130.070312 106.371094 129.886719 106.253906 C 129.695312 106.140625 129.453125 106.082031 129.160156 106.082031 C 128.734375 106.082031 128.402344 106.222656 128.164062 106.503906 C 127.921875 106.785156 127.804688 107.230469 127.804688 107.847656 C 127.804688 108.457031 127.921875 108.90625 128.164062 109.191406 C 128.402344 109.472656 128.734375 109.613281 129.160156 109.613281 C 129.832031 109.613281 130.242188 109.289062 130.390625 108.640625 L 130.476562 108.640625 L 131.222656 109.027344 C 131.085938 109.515625 130.84375 109.882812 130.503906 110.125 C 130.167969 110.371094 129.71875 110.492188 129.160156 110.492188 Z M 129.160156 110.492188 " fill-opacity="1" fill-rule="nonzero"/><path fill="#dd0808" d="M 133.703125 110.492188 C 133.234375 110.492188 132.820312 110.394531 132.460938 110.203125 C 132.101562 110.011719 131.816406 109.71875 131.613281 109.324219 C 131.410156 108.929688 131.308594 108.4375 131.308594 107.847656 C 131.308594 107.257812 131.410156 106.765625 131.613281 106.371094 C 131.816406 105.980469 132.101562 105.6875 132.460938 105.496094 C 132.820312 105.300781 133.234375 105.203125 133.703125 105.203125 C 134.175781 105.203125 134.589844 105.296875 134.945312 105.488281 C 135.308594 105.679688 135.589844 105.976562 135.789062 106.371094 C 135.992188 106.765625 136.09375 107.257812 136.09375 107.847656 C 136.09375 108.4375 135.992188 108.929688 135.789062 109.324219 C 135.589844 109.71875 135.308594 110.011719 134.945312 110.203125 C 134.589844 110.394531 134.175781 110.492188 133.703125 110.492188 Z M 133.703125 109.605469 C 134.136719 109.605469 134.46875 109.46875 134.699219 109.191406 C 134.929688 108.910156 135.046875 108.460938 135.046875 107.847656 C 135.046875 107.230469 134.929688 106.785156 134.699219 106.503906 C 134.46875 106.222656 134.136719 106.082031 133.703125 106.082031 C 133.265625 106.082031 132.929688 106.222656 132.695312 106.503906 C 132.46875 106.785156 132.355469 107.230469 132.355469 107.847656 C 132.355469 108.460938 132.46875 108.910156 132.695312 109.191406 C 132.929688 109.46875 133.265625 109.605469 133.703125 109.605469 Z M 133.703125 109.605469 " fill-opacity="1" fill-rule="nonzero"/><path fill="#dd0808" d="M 138.8125 110.492188 C 138.34375 110.492188 137.929688 110.394531 137.570312 110.203125 C 137.210938 110.011719 136.925781 109.71875 136.71875 109.324219 C 136.515625 108.929688 136.417969 108.4375 136.417969 107.847656 C 136.417969 107.257812 136.515625 106.765625 136.71875 106.371094 C 136.925781 105.980469 137.210938 105.6875 137.570312 105.496094 C 137.929688 105.300781 138.34375 105.203125 138.8125 105.203125 C 139.285156 105.203125 139.699219 105.296875 140.054688 105.488281 C 140.414062 105.679688 140.695312 105.976562 140.898438 106.371094 C 141.101562 106.765625 141.203125 107.257812 141.203125 107.847656 C 141.203125 108.4375 141.101562 108.929688 140.898438 109.324219 C 140.695312 109.71875 140.414062 110.011719 140.054688 110.203125 C 139.699219 110.394531 139.285156 110.492188 138.8125 110.492188 Z M 138.8125 109.605469 C 139.246094 109.605469 139.578125 109.46875 139.808594 109.191406 C 140.039062 108.910156 140.15625 108.460938 140.15625 107.847656 C 140.15625 107.230469 140.039062 106.785156 139.808594 106.503906 C 139.578125 106.222656 139.246094 106.082031 138.8125 106.082031 C 138.375 106.082031 138.039062 106.222656 137.804688 106.503906 C 137.578125 106.785156 137.460938 107.230469 137.460938 107.847656 C 137.460938 108.460938 137.578125 108.910156 137.804688 109.191406 C 138.039062 109.46875 138.375 109.605469 138.8125 109.605469 Z M 138.8125 109.605469 " fill-opacity="1" fill-rule="nonzero"/><path fill="#dd0808" d="M 143.773438 105.277344 C 144.140625 105.277344 144.457031 105.34375 144.714844 105.480469 C 144.976562 105.613281 145.175781 105.804688 145.308594 106.046875 C 145.445312 106.289062 145.511719 106.570312 145.511719 106.890625 C 145.511719 107.214844 145.445312 107.496094 145.308594 107.734375 C 145.175781 107.976562 144.976562 108.160156 144.714844 108.296875 C 144.457031 108.433594 144.140625 108.5 143.773438 108.5 L 142.800781 108.5 L 142.800781 110.417969 L 141.789062 110.417969 L 141.789062 105.277344 Z M 143.640625 107.695312 C 144.207031 107.695312 144.488281 107.425781 144.488281 106.890625 C 144.488281 106.351562 144.207031 106.082031 143.640625 106.082031 L 142.800781 106.082031 L 142.800781 107.695312 Z M 143.640625 107.695312 " fill-opacity="1" fill-rule="nonzero"/><path fill="#dd0808" d="M 147.007812 108.160156 L 147.007812 109.566406 L 149.464844 109.566406 L 149.464844 110.417969 L 145.996094 110.417969 L 145.996094 105.277344 L 149.410156 105.277344 L 149.410156 106.125 L 147.007812 106.125 L 147.007812 107.328125 L 149.105469 107.328125 L 149.105469 108.160156 Z M 147.007812 108.160156 " fill-opacity="1" fill-rule="nonzero"/><path fill="#dd0808" d="M 149.921875 110.417969 L 149.921875 105.277344 L 151.988281 105.277344 C 152.519531 105.277344 152.921875 105.398438 153.191406 105.648438 C 153.460938 105.890625 153.59375 106.230469 153.59375 106.660156 C 153.59375 106.972656 153.515625 107.226562 153.359375 107.425781 C 153.203125 107.625 152.964844 107.777344 152.652344 107.878906 L 152.652344 107.953125 C 152.8125 108.023438 152.941406 108.128906 153.039062 108.269531 C 153.140625 108.40625 153.234375 108.613281 153.324219 108.882812 L 153.835938 110.417969 L 152.792969 110.417969 L 152.289062 108.882812 C 152.238281 108.726562 152.179688 108.609375 152.117188 108.523438 C 152.050781 108.4375 151.96875 108.375 151.867188 108.335938 C 151.769531 108.296875 151.640625 108.273438 151.480469 108.273438 L 150.933594 108.273438 L 150.933594 110.417969 Z M 151.863281 107.46875 C 152.355469 107.46875 152.601562 107.242188 152.601562 106.785156 C 152.601562 106.316406 152.355469 106.082031 151.863281 106.082031 L 150.933594 106.082031 L 150.933594 107.46875 Z M 151.863281 107.46875 " fill-opacity="1" fill-rule="nonzero"/><path fill="#dd0808" d="M 158.5 110.417969 L 157.433594 110.417969 L 157.042969 109.230469 L 155.074219 109.230469 L 154.6875 110.417969 L 153.644531 110.417969 L 155.417969 105.277344 L 156.722656 105.277344 Z M 156.007812 106.351562 L 155.351562 108.375 L 156.761719 108.375 L 156.097656 106.351562 Z M 156.007812 106.351562 " fill-opacity="1" fill-rule="nonzero"/><path fill="#dd0808" d="M 162.207031 105.277344 L 162.207031 106.132812 L 160.722656 106.132812 L 160.722656 110.417969 L 159.710938 110.417969 L 159.710938 106.132812 L 158.226562 106.132812 L 158.226562 105.277344 Z M 162.207031 105.277344 " fill-opacity="1" fill-rule="nonzero"/><path fill="#dd0808" d="M 162.523438 105.277344 L 163.535156 105.277344 L 163.535156 110.417969 L 162.523438 110.417969 Z M 162.523438 105.277344 " fill-opacity="1" fill-rule="nonzero"/><path fill="#dd0808" d="M 166.773438 110.417969 L 165.546875 110.417969 L 163.808594 105.277344 L 164.890625 105.277344 L 166.140625 109.105469 L 166.230469 109.105469 L 167.457031 105.277344 L 168.507812 105.277344 Z M 166.773438 110.417969 " fill-opacity="1" fill-rule="nonzero"/><path fill="#dd0808" d="M 169.789062 108.160156 L 169.789062 109.566406 L 172.25 109.566406 L 172.25 110.417969 L 168.777344 110.417969 L 168.777344 105.277344 L 172.191406 105.277344 L 172.191406 106.125 L 169.789062 106.125 L 169.789062 107.328125 L 171.886719 107.328125 L 171.886719 108.160156 Z M 169.789062 108.160156 " fill-opacity="1" fill-rule="nonzero"/></svg>