<svg xmlns="http://www.w3.org/2000/svg" xmlns:xlink="http://www.w3.org/1999/xlink" width="500" zoomAndPan="magnify" viewBox="0 0 375 374.999991" height="500" preserveAspectRatio="xMidYMid meet" version="1.0"><defs><g/><clipPath id="d706fa817b"><path d="M 116 294 L 268 294 L 268 339.125 L 116 339.125 Z M 116 294 " clip-rule="nonzero"/></clipPath></defs><path fill="#fdff00" d="M 163.128906 112.546875 L 184.109375 46.757812 C 185.136719 43.53125 189.71875 43.574219 190.683594 46.820312 L 210.265625 112.613281 C 210.921875 114.820312 209.269531 117.039062 206.96875 117.039062 L 166.40625 117.039062 C 164.078125 117.039062 162.421875 114.769531 163.128906 112.546875 Z M 163.128906 112.546875 " fill-opacity="1" fill-rule="nonzero"/><path fill="#fdff00" d="M 251.761719 131.933594 L 311.210938 96.875 C 314.128906 95.15625 317.511719 98.242188 316.070312 101.308594 L 286.863281 163.421875 C 285.882812 165.503906 283.171875 166.054688 281.457031 164.519531 L 251.214844 137.46875 C 249.480469 135.914062 249.753906 133.117188 251.761719 131.933594 Z M 251.761719 131.933594 " fill-opacity="1" fill-rule="nonzero"/><path fill="#fdff00" d="M 86.363281 166.738281 L 58.199219 103.695312 C 56.816406 100.601562 60.261719 97.578125 63.144531 99.355469 L 121.546875 135.351562 C 123.507812 136.558594 123.753906 139.3125 122.039062 140.847656 L 91.796875 167.902344 C 90.058594 169.457031 87.3125 168.867188 86.363281 166.738281 Z M 86.363281 166.738281 " fill-opacity="1" fill-rule="nonzero"/><path fill="#fdff00" d="M 76.367188 260.21875 L 10.628906 239.222656 C 7.40625 238.191406 7.449219 233.609375 10.695312 232.640625 L 76.429688 213.042969 C 78.636719 212.386719 80.851562 214.039062 80.851562 216.34375 L 80.851562 256.9375 C 80.851562 259.269531 78.585938 260.929688 76.367188 260.21875 Z M 76.367188 260.21875 " fill-opacity="1" fill-rule="nonzero"/><path fill="#fdff00" d="M 282.625 229.546875 C 281.121094 278.429688 240.308594 316.835938 191.464844 315.332031 C 142.621094 313.824219 104.25 272.976562 105.753906 224.09375 C 107.257812 175.207031 148.070312 136.800781 196.914062 138.308594 C 245.753906 139.8125 284.128906 180.660156 282.625 229.546875 Z M 282.625 229.546875 " fill-opacity="1" fill-rule="nonzero"/><path fill="#fdff00" d="M 296.914062 209.714844 L 362.648438 230.714844 C 365.875 231.742188 365.828125 236.324219 362.585938 237.292969 L 296.851562 256.890625 C 294.644531 257.546875 292.425781 255.894531 292.425781 253.589844 L 292.425781 212.996094 C 292.425781 210.664062 294.695312 209.007812 296.914062 209.714844 Z M 296.914062 209.714844 " fill-opacity="1" fill-rule="nonzero"/><g clip-path="url(#d706fa817b)"><path fill="#09a6f3" d="M 267.214844 299.457031 C 268.726562 297.257812 267.09375 294.363281 264.425781 294.363281 L 119.574219 294.363281 C 116.910156 294.363281 115.277344 297.257812 116.785156 299.457031 C 133.214844 323.410156 160.777344 339.125 192 339.125 C 223.226562 339.125 250.785156 323.410156 267.214844 299.457031 Z M 267.214844 299.457031 " fill-opacity="1" fill-rule="evenodd"/></g><path fill="#09a6f3" d="M 55.050781 290.917969 L 330.269531 290.917969 C 330.726562 290.917969 331.164062 291.007812 331.585938 291.179688 C 332.007812 291.355469 332.378906 291.605469 332.703125 291.929688 C 333.027344 292.25 333.273438 292.621094 333.449219 293.042969 C 333.625 293.464844 333.710938 293.90625 333.710938 294.363281 C 333.710938 294.820312 333.625 295.257812 333.449219 295.679688 C 333.273438 296.101562 333.027344 296.472656 332.703125 296.796875 C 332.378906 297.121094 332.007812 297.367188 331.585938 297.542969 C 331.164062 297.71875 330.726562 297.804688 330.269531 297.804688 L 55.050781 297.804688 C 54.59375 297.804688 54.15625 297.71875 53.734375 297.542969 C 53.3125 297.367188 52.941406 297.121094 52.617188 296.796875 C 52.296875 296.472656 52.046875 296.101562 51.871094 295.679688 C 51.699219 295.257812 51.609375 294.820312 51.609375 294.363281 C 51.609375 293.90625 51.699219 293.464844 51.871094 293.042969 C 52.046875 292.621094 52.296875 292.25 52.617188 291.929688 C 52.941406 291.605469 53.3125 291.355469 53.734375 291.179688 C 54.15625 291.007812 54.59375 290.917969 55.050781 290.917969 Z M 55.050781 290.917969 " fill-opacity="1" fill-rule="nonzero"/><path stroke-linecap="butt" transform="matrix(0.482891, -0.573861, 0.573861, 0.482891, 91.672981, 153.60478)" fill="none" stroke-linejoin="miter" d="M 13.079614 39.424672 C 11.031672 39.425807 9.212584 39.173104 7.618365 38.669916 C 6.020793 38.162743 4.695231 37.501555 3.634974 36.678382 C 2.570732 35.858563 1.757506 34.956852 1.191312 33.976601 L 4.396865 30.060753 L 4.907016 30.060312 C 5.79159 31.378473 6.917604 32.425398 8.284428 33.208425 C 9.647898 33.987466 11.248239 34.376591 13.074129 34.37852 C 14.637921 34.376369 15.812038 34.048651 16.607803 33.392647 C 17.404201 32.729303 17.799989 31.824471 17.799785 30.667459 C 17.801091 29.965242 17.670256 29.381027 17.41525 28.908105 C 17.163597 28.439169 16.736208 28.036427 16.144407 27.697158 C 15.551974 27.365227 14.752993 27.070962 13.742215 26.832395 L 9.946914 25.962297 C 7.30056 25.357448 5.324489 24.351937 4.02604 22.946396 C 2.727591 21.540856 2.07532 19.714097 2.076565 17.466751 C 2.07592 15.799588 2.494351 14.331145 3.331227 13.068762 C 4.164749 11.802393 5.380413 10.820281 6.97088 10.121794 C 8.565333 9.419953 10.472916 9.074053 12.690907 9.072771 C 14.968239 9.069205 16.916262 9.369972 18.535608 9.967735 C 20.158308 10.569483 21.528437 11.485867 22.645365 12.724226 L 19.758091 16.678562 L 19.255279 16.679635 C 18.41751 15.805383 17.464757 15.150413 16.386327 14.710109 C 15.31125 14.273789 14.08051 14.056948 12.694107 14.059584 C 11.093623 14.058576 9.87528 14.341825 9.039711 14.901992 C 8.207494 15.466144 7.789106 16.247047 7.791885 17.245332 C 7.789657 18.172954 8.080629 18.915117 8.665433 19.464483 C 9.253591 20.017834 10.266606 20.445114 11.7072 20.757647 L 15.578219 21.56403 C 18.44264 22.169169 20.524173 23.194848 21.815478 24.640435 C 23.106783 26.086021 23.750015 27.974842 23.753144 30.300191 C 23.753305 32.144743 23.356211 33.751791 22.562492 35.113998 C 21.768142 36.483543 20.568176 37.540936 18.969301 38.294147 C 17.370427 39.047358 15.404962 39.421543 13.079614 39.424672 Z M 13.079614 39.424672 " stroke="#ffffff" stroke-width="3.10002" stroke-opacity="1" stroke-miterlimit="4"/><path stroke-linecap="butt" transform="matrix(0.581246, -0.473976, 0.473976, 0.581246, 107.397252, 135.669658)" fill="none" stroke-linejoin="miter" d="M 23.649232 9.49682 L 23.651402 14.39782 L 15.133834 14.401153 L 15.135675 38.999614 L 9.323655 38.998147 L 9.321815 14.399686 L 0.807539 14.398983 L 0.80866 9.493947 Z M 23.649232 9.49682 " stroke="#ffffff" stroke-width="3.10002" stroke-opacity="1" stroke-miterlimit="4"/><path stroke-linecap="butt" transform="matrix(0.641024, -0.389343, 0.389343, 0.641024, 125.011784, 122.08869)" fill="none" stroke-linejoin="miter" d="M 5.690691 39.179848 C 4.977891 39.179567 4.351612 39.036837 3.802951 38.746249 C 3.25874 38.458364 2.842863 38.059519 2.550866 37.54701 C 2.263321 37.037205 2.121751 36.457623 2.119 35.810013 C 2.1207 35.165107 2.264058 34.587959 2.551778 34.074118 C 2.84395 33.562981 3.257897 33.16237 3.803479 32.866086 C 4.349061 32.569802 4.976026 32.420449 5.688826 32.42073 C 6.420389 32.420219 7.051119 32.565653 7.599781 32.856241 C 8.143991 33.144126 8.559869 33.54297 8.851865 34.055479 C 9.13941 34.565285 9.280981 35.144866 9.283732 35.792477 C 9.284677 36.774147 8.956043 37.586107 8.307688 38.222158 C 7.652178 38.859956 6.779527 39.183056 5.690691 39.179848 Z M 5.690691 39.179848 " stroke="#ffffff" stroke-width="3.10002" stroke-opacity="1" stroke-miterlimit="4"/><path stroke-linecap="butt" transform="matrix(0.713271, -0.231827, 0.231827, 0.713271, 145.033764, 111.026544)" fill="none" stroke-linejoin="miter" d="M 17.535451 38.99776 L 10.492598 38.997886 L 0.523968 9.497946 L 6.718569 9.495948 L 13.885245 31.491462 L 14.389244 31.490975 L 21.44994 9.497442 L 27.486406 9.493337 Z M 17.535451 38.99776 " stroke="#ffffff" stroke-width="3.10002" stroke-opacity="1" stroke-miterlimit="4"/><path stroke-linecap="butt" transform="matrix(0.740882, -0.116595, 0.116595, 0.740882, 169.295998, 103.948016)" fill="none" stroke-linejoin="miter" d="M 3.832237 9.49404 L 9.66865 9.49513 L 9.665258 38.99914 L 3.833989 38.99886 Z M 3.832237 9.49404 " stroke="#ffffff" stroke-width="3.10002" stroke-opacity="1" stroke-miterlimit="4"/><path stroke-linecap="butt" transform="matrix(0.749888, 0.012962, -0.012962, 0.749888, 183.854289, 101.442452)" fill="none" stroke-linejoin="miter" d="M 9.484341 39.001978 L 3.832433 39.0007 L 3.832934 9.496282 L 10.516208 9.49536 L 22.362176 28.507012 L 22.886879 28.425015 L 22.882636 9.495176 L 28.492884 9.497175 L 28.497591 39.001502 L 22.522724 39.000597 L 9.987686 18.698578 L 9.483813 18.780215 Z M 9.484341 39.001978 " stroke="#ffffff" stroke-width="3.10002" stroke-opacity="1" stroke-miterlimit="4"/><path stroke-linecap="butt" transform="matrix(0.72765, 0.181731, -0.181731, 0.72765, 213.694766, 102.74245)" fill="none" stroke-linejoin="miter" d="M 16.122509 39.424156 C 13.406615 39.426045 11.010445 38.859565 8.940315 37.728509 C 6.870185 36.597453 5.248627 34.89806 4.076903 32.635382 C 2.903917 30.367651 2.318446 27.572037 2.320489 24.248541 C 2.322533 20.925045 2.906792 18.12718 4.075789 15.865052 C 5.248577 13.596608 6.86967 11.897976 8.939068 10.769156 C 11.013518 9.639073 13.406164 9.073719 16.122059 9.07183 C 18.961747 9.071234 21.376867 9.627612 23.361104 10.737173 C 25.345341 11.846735 26.760998 13.538501 27.608076 15.812471 L 23.351721 18.416203 L 22.842653 18.398399 C 22.211411 16.859665 21.352688 15.764263 20.272804 15.09451 C 19.189129 14.431072 17.805996 14.094735 16.125932 14.095603 C 13.677837 14.095028 11.765152 14.905558 10.394192 16.530982 C 9.021969 18.151354 8.332917 20.723081 8.333352 24.249953 C 8.335054 27.760405 9.019109 30.327401 10.395623 31.948418 C 11.765823 33.565644 13.6756 34.377072 16.123694 34.377647 C 19.957525 34.381073 22.305001 32.517132 23.167383 28.790875 L 23.671403 28.788467 L 27.972095 31.026616 C 27.162985 33.826955 25.78686 35.926081 23.833614 37.326518 C 21.885421 38.725693 19.310843 39.422379 16.122509 39.424156 Z M 16.122509 39.424156 " stroke="#ffffff" stroke-width="3.10002" stroke-opacity="1" stroke-miterlimit="4"/><path stroke-linecap="butt" transform="matrix(0.67608, 0.324677, -0.324677, 0.67608, 239.567494, 109.882946)" fill="none" stroke-linejoin="miter" d="M 9.668094 26.042689 L 9.667566 34.114514 L 23.754241 34.115397 L 23.753293 38.998084 L 3.833389 39.002069 L 3.835466 9.493901 L 23.429133 9.496365 L 23.428185 14.379052 L 9.665307 14.37867 L 9.664745 21.283398 L 21.694444 21.284111 L 21.693098 26.045656 Z M 9.668094 26.042689 " stroke="#ffffff" stroke-width="3.10002" stroke-opacity="1" stroke-miterlimit="4"/><path stroke-linecap="butt" transform="matrix(0.591278, 0.461401, -0.461401, 0.591278, 261.457166, 120.726885)" fill="none" stroke-linejoin="miter" d="M 9.485271 39.001417 L 3.834172 38.998113 L 3.834082 9.493749 L 10.513437 9.494041 L 22.361726 28.504098 L 22.883271 28.427435 L 22.884547 9.498942 L 28.495891 9.493631 L 28.49598 38.997995 L 22.521022 39.002973 L 9.986376 18.698523 L 9.486762 18.777891 Z M 9.485271 39.001417 " stroke="#ffffff" stroke-width="3.10002" stroke-opacity="1" stroke-miterlimit="4"/><path stroke-linecap="butt" transform="matrix(0.481101, 0.575362, -0.575362, 0.481101, 284.206743, 139.588688)" fill="none" stroke-linejoin="miter" d="M 23.651068 9.496982 L 23.652205 14.399737 L 15.137069 14.401501 L 15.135282 38.997287 L 9.322931 38.998236 L 9.320723 14.39911 L 0.805587 14.400874 L 0.807791 9.494124 Z M 23.651068 9.496982 " stroke="#ffffff" stroke-width="3.10002" stroke-opacity="1" stroke-miterlimit="4"/><g fill="#dd0808" fill-opacity="1"><g transform="translate(114.053552, 172.437526)"><g><path d="M 6.546875 -7.3125 C 5.566406 -6.132812 4.546875 -5.207031 3.484375 -4.53125 C 2.429688 -3.851562 1.410156 -3.410156 0.421875 -3.203125 C -0.566406 -2.992188 -1.472656 -2.960938 -2.296875 -3.109375 L -3 -6.828125 L -2.765625 -7.125 C -1.578125 -7 -0.429688 -7.140625 0.671875 -7.546875 C 1.773438 -7.960938 2.769531 -8.695312 3.65625 -9.75 C 4.40625 -10.632812 4.78125 -11.460938 4.78125 -12.234375 C 4.789062 -13.003906 4.46875 -13.671875 3.8125 -14.234375 C 3.414062 -14.566406 3.019531 -14.773438 2.625 -14.859375 C 2.238281 -14.953125 1.800781 -14.90625 1.3125 -14.71875 C 0.820312 -14.539062 0.269531 -14.222656 -0.34375 -13.765625 L -2.671875 -12.015625 C -4.296875 -10.785156 -5.828125 -10.132812 -7.265625 -10.0625 C -8.703125 -10 -10.066406 -10.515625 -11.359375 -11.609375 C -12.316406 -12.410156 -12.953125 -13.351562 -13.265625 -14.4375 C -13.585938 -15.519531 -13.566406 -16.6875 -13.203125 -17.9375 C -12.835938 -19.195312 -12.125 -20.460938 -11.0625 -21.734375 C -9.957031 -23.035156 -8.835938 -24.003906 -7.703125 -24.640625 C -6.578125 -25.285156 -5.390625 -25.632812 -4.140625 -25.6875 L -3.265625 -22.109375 L -3.5 -21.828125 C -4.414062 -21.765625 -5.257812 -21.53125 -6.03125 -21.125 C -6.800781 -20.71875 -7.519531 -20.117188 -8.1875 -19.328125 C -8.957031 -18.410156 -9.378906 -17.578125 -9.453125 -16.828125 C -9.535156 -16.078125 -9.289062 -15.457031 -8.71875 -14.96875 C -8.1875 -14.519531 -7.617188 -14.328125 -7.015625 -14.390625 C -6.421875 -14.460938 -5.6875 -14.84375 -4.8125 -15.53125 L -2.46875 -17.359375 C -0.75 -18.710938 0.832031 -19.410156 2.28125 -19.453125 C 3.738281 -19.492188 5.132812 -18.953125 6.46875 -17.828125 C 7.53125 -16.929688 8.265625 -15.925781 8.671875 -14.8125 C 9.078125 -13.707031 9.101562 -12.507812 8.75 -11.21875 C 8.40625 -9.9375 7.671875 -8.632812 6.546875 -7.3125 Z M 6.546875 -7.3125 "/></g></g></g><g fill="#dd0808" fill-opacity="1"><g transform="translate(125.882326, 158.338237)"><g><path d="M -0.234375 -28.34375 L 2.09375 -25.5 L -2.859375 -21.46875 L 8.796875 -7.171875 L 5.421875 -4.421875 L -6.234375 -18.71875 L -11.1875 -14.6875 L -13.515625 -17.53125 Z M -0.234375 -28.34375 "/></g></g></g><g fill="#dd0808" fill-opacity="1"><g transform="translate(140.19617, 147.088626)"><g><path d="M 3.71875 -2.09375 C 3.269531 -1.8125 2.8125 -1.65625 2.34375 -1.625 C 1.875 -1.601562 1.445312 -1.703125 1.0625 -1.921875 C 0.675781 -2.140625 0.363281 -2.457031 0.125 -2.875 C -0.132812 -3.289062 -0.269531 -3.710938 -0.28125 -4.140625 C -0.300781 -4.578125 -0.191406 -5 0.046875 -5.40625 C 0.285156 -5.8125 0.628906 -6.15625 1.078125 -6.4375 C 1.554688 -6.71875 2.023438 -6.867188 2.484375 -6.890625 C 2.941406 -6.921875 3.363281 -6.832031 3.75 -6.625 C 4.132812 -6.414062 4.453125 -6.101562 4.703125 -5.6875 C 5.085938 -5.050781 5.195312 -4.398438 5.03125 -3.734375 C 4.863281 -3.066406 4.425781 -2.519531 3.71875 -2.09375 Z M 3.71875 -2.09375 "/></g></g></g><g fill="#dd0808" fill-opacity="1"><g transform="translate(147.881121, 142.472929)"><g/></g></g><g fill="#dd0808" fill-opacity="1"><g transform="translate(154.075013, 138.844131)"><g><path d="M 12.515625 -4.0625 L 7.484375 -2.4375 L -6.46875 -21.171875 L -2.046875 -22.609375 L 8.171875 -8.5625 L 8.53125 -8.6875 L 8.46875 -26.015625 L 12.75 -27.421875 Z M 12.515625 -4.0625 "/></g></g></g><g fill="#dd0808" fill-opacity="1"><g transform="translate(173.843195, 132.842399)"><g><path d="M 7.15625 -1.125 L 2.84375 -0.453125 L -0.59375 -22.3125 L 3.71875 -22.984375 Z M 7.15625 -1.125 "/></g></g></g><g fill="#dd0808" fill-opacity="1"><g transform="translate(183.34877, 130.688081)"><g><path d="M 7.109375 0.125 L 2.875 0.046875 L 3.25 -22.078125 L 8.265625 -21.984375 L 16.90625 -7.578125 L 17.3125 -7.640625 L 17.546875 -21.828125 L 21.75 -21.75 L 21.375 0.375 L 16.890625 0.296875 L 7.765625 -15.109375 L 7.375 -15.046875 Z M 7.109375 0.125 "/></g></g></g><g fill="#dd0808" fill-opacity="1"><g transform="translate(206.607265, 131.120781)"><g><path d="M 11.65625 3.234375 C 9.675781 2.734375 8.035156 1.882812 6.734375 0.6875 C 5.429688 -0.5 4.5625 -2.023438 4.125 -3.890625 C 3.6875 -5.753906 3.769531 -7.894531 4.375 -10.3125 C 4.96875 -12.726562 5.898438 -14.65625 7.171875 -16.09375 C 8.441406 -17.53125 9.929688 -18.472656 11.640625 -18.921875 C 13.347656 -19.367188 15.191406 -19.34375 17.171875 -18.84375 C 19.234375 -18.332031 20.882812 -17.492188 22.125 -16.328125 C 23.363281 -15.160156 24.085938 -13.671875 24.296875 -11.859375 L 20.734375 -10.734375 L 20.375 -10.84375 C 20.195312 -12.070312 19.769531 -13.023438 19.09375 -13.703125 C 18.425781 -14.378906 17.484375 -14.867188 16.265625 -15.171875 C 14.484375 -15.617188 12.941406 -15.378906 11.640625 -14.453125 C 10.347656 -13.523438 9.382812 -11.78125 8.75 -9.21875 C 8.101562 -6.65625 8.132812 -4.660156 8.84375 -3.234375 C 9.550781 -1.804688 10.796875 -0.867188 12.578125 -0.421875 C 15.367188 0.265625 17.414062 -0.664062 18.71875 -3.21875 L 19.078125 -3.125 L 21.8125 -0.734375 C 20.71875 1.160156 19.332031 2.4375 17.65625 3.09375 C 15.976562 3.757812 13.976562 3.804688 11.65625 3.234375 Z M 11.65625 3.234375 "/></g></g></g><g fill="#dd0808" fill-opacity="1"><g transform="translate(226.905086, 136.250082)"><g><path d="M 10.734375 -5.625 L 8.109375 -0.15625 L 17.640625 4.40625 L 16.0625 7.703125 L 2.59375 1.25 L 12.171875 -18.6875 L 25.421875 -12.328125 L 23.84375 -9.03125 L 14.53125 -13.5 L 12.28125 -8.84375 L 20.40625 -4.9375 L 18.859375 -1.71875 Z M 10.734375 -5.625 "/></g></g></g><g fill="#dd0808" fill-opacity="1"><g transform="translate(243.462538, 143.786714)"><g><path d="M 5.609375 4.375 L 2.265625 1.765625 L 15.875 -15.671875 L 19.828125 -12.578125 L 18.0625 4.109375 L 18.421875 4.3125 L 27.140625 -6.875 L 30.453125 -4.28125 L 16.84375 13.15625 L 13.3125 10.390625 L 15.28125 -7.40625 L 14.9375 -7.578125 Z M 5.609375 4.375 "/></g></g></g><g fill="#dd0808" fill-opacity="1"><g transform="translate(261.767619, 158.351631)"><g><path d="M 28.34375 -0.578125 L 25.53125 1.765625 L 21.4375 -3.125 L 7.28125 8.71875 L 4.484375 5.375 L 18.640625 -6.46875 L 14.546875 -11.375 L 17.359375 -13.71875 Z M 28.34375 -0.578125 "/></g></g></g><g fill="#09a6f3" fill-opacity="1"><g transform="translate(153.847953, 287.591967)"><g><path d="M -7.941406 4.949219 C -8.210938 5.371094 -8.230469 5.730469 -8.089844 6.0625 C -7.945312 6.390625 -7.640625 6.679688 -7.269531 6.953125 C -7.011719 7.140625 -6.824219 7.222656 -6.679688 7.222656 C -6.523438 7.222656 -6.421875 7.144531 -6.328125 7.019531 C -6.257812 6.921875 -6.191406 6.804688 -6.144531 6.675781 C -6.09375 6.554688 -6.023438 6.429688 -5.949219 6.320312 L -1.511719 0.269531 C -1.3125 0.00390625 -1.234375 -0.3125 -1.277344 -0.621094 C -1.320312 -0.929688 -1.46875 -1.222656 -1.761719 -1.4375 C -2.042969 -1.640625 -2.367188 -1.707031 -2.671875 -1.65625 C -2.980469 -1.601562 -3.261719 -1.425781 -3.460938 -1.160156 Z M -7.941406 4.949219 "/></g></g></g><g fill="#09a6f3" fill-opacity="1"><g transform="translate(146.030704, 281.364189)"><g/></g></g><g fill="#09a6f3" fill-opacity="1"><g transform="translate(139.67562, 274.792017)"><g><path d="M -8.957031 2.703125 C -9.328125 3.039062 -9.441406 3.386719 -9.390625 3.742188 C -9.335938 4.09375 -9.121094 4.453125 -8.832031 4.816406 C -8.632812 5.0625 -8.472656 5.191406 -8.332031 5.230469 C -8.183594 5.269531 -8.0625 5.222656 -7.941406 5.125 C -7.847656 5.046875 -7.753906 4.953125 -7.675781 4.839844 C -7.589844 4.734375 -7.492188 4.636719 -7.394531 4.550781 L -1.527344 -0.132812 C -1.269531 -0.339844 -1.109375 -0.625 -1.070312 -0.933594 C -1.03125 -1.242188 -1.097656 -1.5625 -1.324219 -1.847656 C -1.542969 -2.117188 -1.839844 -2.265625 -2.148438 -2.296875 C -2.457031 -2.324219 -2.777344 -2.230469 -3.035156 -2.023438 Z M -8.957031 2.703125 "/></g></g></g><g fill="#09a6f3" fill-opacity="1"><g transform="translate(133.754743, 266.739699)"><g/></g></g><g fill="#09a6f3" fill-opacity="1"><g transform="translate(129.335239, 258.736792)"><g><path d="M -9.351562 0.273438 C -9.800781 0.5 -9.996094 0.804688 -10.042969 1.160156 C -10.082031 1.515625 -9.964844 1.917969 -9.78125 2.34375 C -9.65625 2.636719 -9.535156 2.800781 -9.410156 2.875 C -9.273438 2.949219 -9.144531 2.9375 -9.003906 2.875 C -8.890625 2.824219 -8.777344 2.757812 -8.671875 2.671875 C -8.5625 2.589844 -8.441406 2.519531 -8.324219 2.460938 L -1.441406 -0.527344 C -1.136719 -0.660156 -0.910156 -0.894531 -0.789062 -1.179688 C -0.671875 -1.46875 -0.652344 -1.796875 -0.796875 -2.128906 C -0.9375 -2.445312 -1.183594 -2.667969 -1.476562 -2.777344 C -1.765625 -2.886719 -2.097656 -2.875 -2.402344 -2.746094 Z M -9.351562 0.273438 "/></g></g></g><g fill="#09a6f3" fill-opacity="1"><g transform="translate(125.72124, 249.418085)"><g/></g></g><g fill="#09a6f3" fill-opacity="1"><g transform="translate(123.543627, 240.539262)"><g><path d="M -9.097656 -2.179688 C -9.589844 -2.074219 -9.859375 -1.832031 -9.996094 -1.5 C -10.128906 -1.167969 -10.121094 -0.75 -10.054688 -0.289062 C -10.007812 0.0234375 -9.933594 0.214844 -9.832031 0.316406 C -9.722656 0.425781 -9.59375 0.445312 -9.441406 0.425781 C -9.320312 0.40625 -9.191406 0.371094 -9.070312 0.316406 C -8.941406 0.265625 -8.808594 0.230469 -8.679688 0.203125 L -1.253906 -0.886719 C -0.925781 -0.933594 -0.644531 -1.097656 -0.453125 -1.347656 C -0.265625 -1.59375 -0.160156 -1.902344 -0.214844 -2.261719 C -0.265625 -2.605469 -0.445312 -2.882812 -0.699219 -3.066406 C -0.953125 -3.246094 -1.277344 -3.324219 -1.605469 -3.277344 Z M -9.097656 -2.179688 "/></g></g></g><g fill="#09a6f3" fill-opacity="1"><g transform="translate(122.487059, 230.600172)"><g/></g></g><g fill="#09a6f3" fill-opacity="1"><g transform="translate(122.702261, 221.460844)"><g><path d="M -8.214844 -4.476562 C -8.714844 -4.503906 -9.039062 -4.34375 -9.261719 -4.058594 C -9.472656 -3.773438 -9.574219 -3.363281 -9.628906 -2.902344 C -9.667969 -2.589844 -9.644531 -2.382812 -9.574219 -2.257812 C -9.496094 -2.125 -9.378906 -2.074219 -9.226562 -2.054688 C -9.105469 -2.039062 -8.972656 -2.039062 -8.835938 -2.0625 C -8.703125 -2.078125 -8.5625 -2.078125 -8.429688 -2.070312 L -0.980469 -1.183594 C -0.648438 -1.144531 -0.335938 -1.230469 -0.0859375 -1.417969 C 0.160156 -1.605469 0.339844 -1.878906 0.382812 -2.242188 C 0.425781 -2.585938 0.320312 -2.902344 0.125 -3.140625 C -0.0703125 -3.382812 -0.363281 -3.542969 -0.691406 -3.582031 Z M -8.214844 -4.476562 "/></g></g></g><g fill="#09a6f3" fill-opacity="1"><g transform="translate(124.276394, 211.590358)"><g/></g></g><g fill="#09a6f3" fill-opacity="1"><g transform="translate(126.869443, 202.824117)"><g><path d="M -6.761719 -6.464844 C -7.238281 -6.625 -7.59375 -6.550781 -7.878906 -6.332031 C -8.160156 -6.113281 -8.367188 -5.746094 -8.539062 -5.316406 C -8.65625 -5.023438 -8.6875 -4.820312 -8.652344 -4.679688 C -8.613281 -4.53125 -8.511719 -4.449219 -8.371094 -4.390625 C -8.253906 -4.34375 -8.128906 -4.3125 -7.992188 -4.296875 C -7.859375 -4.277344 -7.722656 -4.238281 -7.597656 -4.199219 L -0.636719 -1.394531 C -0.328125 -1.273438 -0.00390625 -1.273438 0.285156 -1.390625 C 0.574219 -1.507812 0.820312 -1.726562 0.953125 -2.0625 C 1.085938 -2.386719 1.066406 -2.714844 0.941406 -3 C 0.8125 -3.285156 0.574219 -3.515625 0.265625 -3.636719 Z M -6.761719 -6.464844 "/></g></g></g><g fill="#09a6f3" fill-opacity="1"><g transform="translate(130.965211, 193.706433)"><g/></g></g><g fill="#09a6f3" fill-opacity="1"><g transform="translate(135.756327, 185.920955)"><g><path d="M -4.839844 -8.007812 C -5.257812 -8.285156 -5.621094 -8.304688 -5.953125 -8.171875 C -6.28125 -8.03125 -6.574219 -7.730469 -6.855469 -7.359375 C -7.046875 -7.109375 -7.128906 -6.921875 -7.132812 -6.777344 C -7.132812 -6.621094 -7.058594 -6.515625 -6.933594 -6.425781 C -6.835938 -6.347656 -6.722656 -6.28125 -6.59375 -6.234375 C -6.46875 -6.179688 -6.347656 -6.109375 -6.238281 -6.035156 L -0.25 -1.515625 C 0.015625 -1.3125 0.328125 -1.230469 0.636719 -1.269531 C 0.949219 -1.304688 1.242188 -1.453125 1.460938 -1.742188 C 1.667969 -2.019531 1.738281 -2.34375 1.691406 -2.652344 C 1.644531 -2.957031 1.472656 -3.242188 1.207031 -3.441406 Z M -4.839844 -8.007812 "/></g></g></g><g fill="#09a6f3" fill-opacity="1"><g transform="translate(142.089836, 178.18813)"><g/></g></g><g fill="#09a6f3" fill-opacity="1"><g transform="translate(148.746847, 171.923118)"><g><path d="M -2.582031 -8.992188 C -2.914062 -9.371094 -3.257812 -9.484375 -3.613281 -9.441406 C -3.96875 -9.390625 -4.332031 -9.179688 -4.695312 -8.894531 C -4.945312 -8.699219 -5.078125 -8.542969 -5.117188 -8.402344 C -5.15625 -8.253906 -5.113281 -8.132812 -5.015625 -8.011719 C -4.941406 -7.914062 -4.847656 -7.820312 -4.738281 -7.738281 C -4.632812 -7.65625 -4.535156 -7.554688 -4.449219 -7.457031 L 0.152344 -1.527344 C 0.355469 -1.265625 0.640625 -1.101562 0.949219 -1.058594 C 1.253906 -1.015625 1.578125 -1.078125 1.863281 -1.300781 C 2.136719 -1.511719 2.292969 -1.808594 2.324219 -2.117188 C 2.359375 -2.425781 2.265625 -2.746094 2.0625 -3.007812 Z M -2.582031 -8.992188 "/></g></g></g><g fill="#09a6f3" fill-opacity="1"><g transform="translate(156.879104, 166.111209)"><g/></g></g><g fill="#09a6f3" fill-opacity="1"><g transform="translate(164.940532, 161.800936)"><g><path d="M -0.144531 -9.355469 C -0.367188 -9.804688 -0.667969 -10.007812 -1.027344 -10.058594 C -1.378906 -10.101562 -1.785156 -9.992188 -2.210938 -9.8125 C -2.503906 -9.691406 -2.671875 -9.570312 -2.746094 -9.449219 C -2.824219 -9.3125 -2.8125 -9.183594 -2.753906 -9.042969 C -2.703125 -8.929688 -2.640625 -8.8125 -2.554688 -8.707031 C -2.472656 -8.597656 -2.40625 -8.476562 -2.347656 -8.359375 L 0.546875 -1.433594 C 0.675781 -1.128906 0.90625 -0.898438 1.191406 -0.773438 C 1.476562 -0.652344 1.804688 -0.628906 2.140625 -0.769531 C 2.460938 -0.902344 2.683594 -1.148438 2.796875 -1.4375 C 2.910156 -1.726562 2.90625 -2.058594 2.777344 -2.367188 Z M -0.144531 -9.355469 "/></g></g></g><g fill="#09a6f3" fill-opacity="1"><g transform="translate(174.30781, 158.31282)"><g/></g></g><g fill="#09a6f3" fill-opacity="1"><g transform="translate(183.214779, 156.256083)"><g><path d="M 2.300781 -9.066406 C 2.203125 -9.5625 1.964844 -9.832031 1.636719 -9.976562 C 1.304688 -10.113281 0.886719 -10.109375 0.425781 -10.050781 C 0.113281 -10.007812 -0.0820312 -9.9375 -0.183594 -9.835938 C -0.292969 -9.726562 -0.316406 -9.601562 -0.296875 -9.449219 C -0.28125 -9.324219 -0.246094 -9.195312 -0.191406 -9.070312 C -0.144531 -8.945312 -0.109375 -8.808594 -0.0859375 -8.679688 L 0.902344 -1.242188 C 0.945312 -0.914062 1.109375 -0.628906 1.351562 -0.4375 C 1.59375 -0.242188 1.90625 -0.136719 2.265625 -0.183594 C 2.609375 -0.230469 2.890625 -0.40625 3.074219 -0.65625 C 3.261719 -0.90625 3.339844 -1.230469 3.296875 -1.558594 Z M 2.300781 -9.066406 "/></g></g></g><g fill="#09a6f3" fill-opacity="1"><g transform="translate(193.167793, 155.33356)"><g/></g></g><g fill="#09a6f3" fill-opacity="1"><g transform="translate(202.302825, 155.672928)"><g><path d="M 4.585938 -8.152344 C 4.625 -8.65625 4.464844 -8.980469 4.183594 -9.203125 C 3.898438 -9.421875 3.492188 -9.53125 3.035156 -9.589844 C 2.71875 -9.632812 2.515625 -9.613281 2.390625 -9.542969 C 2.253906 -9.46875 2.199219 -9.351562 2.179688 -9.199219 C 2.164062 -9.074219 2.160156 -8.941406 2.183594 -8.808594 C 2.195312 -8.671875 2.191406 -8.535156 2.183594 -8.402344 L 1.195312 -0.964844 C 1.152344 -0.632812 1.234375 -0.320312 1.417969 -0.0703125 C 1.605469 0.183594 1.875 0.367188 2.234375 0.414062 C 2.578125 0.460938 2.894531 0.359375 3.140625 0.167969 C 3.382812 -0.0273438 3.546875 -0.316406 3.589844 -0.644531 Z M 4.585938 -8.152344 "/></g></g></g><g fill="#09a6f3" fill-opacity="1"><g transform="translate(212.151648, 157.379949)"><g/></g></g><g fill="#09a6f3" fill-opacity="1"><g transform="translate(220.881467, 160.091932)"><g><path d="M 6.558594 -6.671875 C 6.722656 -7.148438 6.652344 -7.503906 6.441406 -7.792969 C 6.222656 -8.078125 5.859375 -8.289062 5.433594 -8.464844 C 5.140625 -8.589844 4.9375 -8.621094 4.796875 -8.589844 C 4.648438 -8.550781 4.5625 -8.453125 4.503906 -8.308594 C 4.457031 -8.195312 4.421875 -8.070312 4.40625 -7.933594 C 4.382812 -7.800781 4.34375 -7.664062 4.300781 -7.542969 L 1.40625 -0.617188 C 1.277344 -0.3125 1.273438 0.015625 1.386719 0.304688 C 1.5 0.59375 1.714844 0.84375 2.050781 0.984375 C 2.371094 1.117188 2.703125 1.105469 2.988281 0.980469 C 3.273438 0.859375 3.507812 0.621094 3.632812 0.316406 Z M 6.558594 -6.671875 "/></g></g></g><g fill="#09a6f3" fill-opacity="1"><g transform="translate(229.943445, 164.310153)"><g/></g></g><g fill="#09a6f3" fill-opacity="1"><g transform="translate(237.662818, 169.206726)"><g><path d="M 8.070312 -4.730469 C 8.355469 -5.144531 8.378906 -5.507812 8.25 -5.84375 C 8.117188 -6.171875 7.820312 -6.472656 7.453125 -6.753906 C 7.203125 -6.949219 7.015625 -7.035156 6.871094 -7.039062 C 6.71875 -7.042969 6.613281 -6.96875 6.515625 -6.847656 C 6.441406 -6.75 6.375 -6.636719 6.324219 -6.507812 C 6.265625 -6.386719 6.195312 -6.265625 6.121094 -6.15625 L 1.515625 -0.230469 C 1.3125 0.03125 1.226562 0.347656 1.261719 0.65625 C 1.292969 0.964844 1.433594 1.261719 1.722656 1.484375 C 1.996094 1.695312 2.320312 1.769531 2.628906 1.726562 C 2.9375 1.683594 3.222656 1.515625 3.425781 1.253906 Z M 8.070312 -4.730469 "/></g></g></g><g fill="#09a6f3" fill-opacity="1"><g transform="translate(245.309788, 175.643739)"><g/></g></g><g fill="#09a6f3" fill-opacity="1"><g transform="translate(251.483613, 182.385468)"><g><path d="M 9.027344 -2.460938 C 9.410156 -2.789062 9.527344 -3.128906 9.488281 -3.488281 C 9.445312 -3.839844 9.238281 -4.207031 8.957031 -4.574219 C 8.765625 -4.828125 8.609375 -4.960938 8.472656 -5 C 8.324219 -5.042969 8.203125 -5 8.078125 -4.90625 C 7.980469 -4.832031 7.882812 -4.742188 7.800781 -4.632812 C 7.714844 -4.527344 7.613281 -4.433594 7.515625 -4.347656 L 1.523438 0.175781 C 1.257812 0.375 1.09375 0.65625 1.046875 0.960938 C 0.996094 1.269531 1.054688 1.59375 1.273438 1.882812 C 1.484375 2.160156 1.777344 2.316406 2.085938 2.351562 C 2.394531 2.390625 2.714844 2.304688 2.980469 2.101562 Z M 9.027344 -2.460938 "/></g></g></g><g fill="#09a6f3" fill-opacity="1"><g transform="translate(257.185474, 190.595076)"><g/></g></g><g fill="#09a6f3" fill-opacity="1"><g transform="translate(261.385729, 198.714628)"><g><path d="M 9.355469 -0.0195312 C 9.808594 -0.234375 10.015625 -0.535156 10.070312 -0.890625 C 10.121094 -1.242188 10.015625 -1.648438 9.839844 -2.078125 C 9.722656 -2.371094 9.605469 -2.542969 9.484375 -2.617188 C 9.351562 -2.699219 9.222656 -2.6875 9.078125 -2.628906 C 8.964844 -2.582031 8.847656 -2.519531 8.742188 -2.433594 C 8.632812 -2.359375 8.507812 -2.292969 8.390625 -2.234375 L 1.425781 0.566406 C 1.117188 0.691406 0.886719 0.917969 0.757812 1.203125 C 0.632812 1.484375 0.605469 1.8125 0.738281 2.148438 C 0.871094 2.472656 1.109375 2.699219 1.398438 2.816406 C 1.6875 2.933594 2.019531 2.933594 2.328125 2.808594 Z M 9.355469 -0.0195312 "/></g></g></g><g fill="#09a6f3" fill-opacity="1"><g transform="translate(264.747337, 208.127715)"><g/></g></g><g fill="#09a6f3" fill-opacity="1"><g transform="translate(266.682826, 217.062241)"><g><path d="M 9.035156 2.421875 C 9.53125 2.332031 9.804688 2.097656 9.953125 1.769531 C 10.09375 1.441406 10.097656 1.023438 10.042969 0.5625 C 10.003906 0.246094 9.9375 0.0546875 9.839844 -0.0507812 C 9.730469 -0.164062 9.605469 -0.1875 9.449219 -0.167969 C 9.328125 -0.152344 9.199219 -0.125 9.074219 -0.0703125 C 8.945312 -0.0234375 8.8125 0.0078125 8.679688 0.03125 L 1.230469 0.917969 C 0.898438 0.957031 0.613281 1.117188 0.417969 1.359375 C 0.222656 1.597656 0.109375 1.90625 0.152344 2.269531 C 0.195312 2.613281 0.367188 2.894531 0.617188 3.082031 C 0.863281 3.273438 1.183594 3.359375 1.515625 3.320312 Z M 9.035156 2.421875 "/></g></g></g><g fill="#09a6f3" fill-opacity="1"><g transform="translate(267.471126, 227.026292)"><g/></g></g><g fill="#09a6f3" fill-opacity="1"><g transform="translate(267.007619, 236.15642)"><g><path d="M 8.089844 4.699219 C 8.589844 4.738281 8.917969 4.585938 9.148438 4.304688 C 9.367188 4.027344 9.480469 3.621094 9.546875 3.164062 C 9.59375 2.851562 9.578125 2.644531 9.511719 2.519531 C 9.4375 2.382812 9.320312 2.324219 9.167969 2.304688 C 9.046875 2.285156 8.914062 2.28125 8.777344 2.300781 C 8.644531 2.3125 8.503906 2.308594 8.371094 2.296875 L 0.945312 1.207031 C 0.617188 1.160156 0.300781 1.238281 0.0507812 1.417969 C -0.203125 1.601562 -0.390625 1.871094 -0.445312 2.230469 C -0.496094 2.574219 -0.402344 2.890625 -0.210938 3.136719 C -0.0195312 3.382812 0.269531 3.550781 0.597656 3.597656 Z M 8.089844 4.699219 "/></g></g></g><g fill="#09a6f3" fill-opacity="1"><g transform="translate(265.168042, 245.980711)"><g/></g></g><g fill="#09a6f3" fill-opacity="1"><g transform="translate(262.337633, 254.673578)"><g><path d="M 6.585938 6.648438 C 7.058594 6.816406 7.414062 6.753906 7.707031 6.542969 C 7.992188 6.332031 8.207031 5.972656 8.390625 5.546875 C 8.519531 5.253906 8.554688 5.054688 8.523438 4.914062 C 8.488281 4.761719 8.390625 4.679688 8.25 4.617188 C 8.136719 4.566406 8.007812 4.527344 7.871094 4.511719 C 7.738281 4.488281 7.605469 4.445312 7.484375 4.402344 L 0.597656 1.414062 C 0.292969 1.28125 -0.03125 1.273438 -0.324219 1.382812 C -0.613281 1.492188 -0.867188 1.703125 -1.011719 2.035156 C -1.148438 2.355469 -1.140625 2.6875 -1.023438 2.972656 C -0.902344 3.261719 -0.667969 3.496094 -0.363281 3.628906 Z M 6.585938 6.648438 "/></g></g></g><g fill="#09a6f3" fill-opacity="1"><g transform="translate(257.99772, 263.677091)"><g/></g></g><g fill="#09a6f3" fill-opacity="1"><g transform="translate(252.996605, 271.330062)"><g><path d="M 4.621094 8.132812 C 5.03125 8.421875 5.394531 8.453125 5.730469 8.328125 C 6.0625 8.199219 6.363281 7.90625 6.652344 7.542969 C 6.851562 7.296875 6.941406 7.109375 6.945312 6.96875 C 6.949219 6.8125 6.878906 6.707031 6.757812 6.609375 C 6.660156 6.53125 6.546875 6.460938 6.421875 6.410156 C 6.300781 6.351562 6.183594 6.277344 6.074219 6.203125 L 0.210938 1.519531 C -0.0507812 1.3125 -0.363281 1.222656 -0.671875 1.25 C -0.984375 1.28125 -1.28125 1.417969 -1.507812 1.703125 C -1.722656 1.972656 -1.800781 2.296875 -1.761719 2.605469 C -1.722656 2.914062 -1.558594 3.203125 -1.296875 3.410156 Z M 4.621094 8.132812 "/></g></g></g><g fill="#09a6f3" fill-opacity="1"><g transform="translate(246.457258, 278.888664)"><g/></g></g><g fill="#09a6f3" fill-opacity="1"><g transform="translate(239.63203, 284.971244)"><g><path d="M 2.335938 9.058594 C 2.660156 9.445312 3 9.570312 3.359375 9.535156 C 3.710938 9.496094 4.082031 9.292969 4.453125 9.019531 C 4.710938 8.832031 4.84375 8.675781 4.886719 8.539062 C 4.929688 8.390625 4.890625 8.269531 4.796875 8.144531 C 4.726562 8.042969 4.636719 7.949219 4.527344 7.863281 C 4.421875 7.777344 4.328125 7.675781 4.246094 7.574219 L -0.195312 1.523438 C -0.390625 1.253906 -0.667969 1.085938 -0.976562 1.03125 C -1.28125 0.980469 -1.605469 1.035156 -1.898438 1.25 C -2.179688 1.457031 -2.339844 1.746094 -2.382812 2.054688 C -2.421875 2.363281 -2.339844 2.683594 -2.144531 2.953125 Z M 2.335938 9.058594 "/></g></g></g><path stroke-linecap="butt" transform="matrix(0.75, 0, 0, 0.75, 54.436595, 266.864718)" fill="none" stroke-linejoin="miter" d="M 5.454333 25.998085 L 2.006416 25.998085 L 2.006416 6.966834 L 6.923083 6.966834 L 11.740791 20.961627 L 12.016833 20.961627 L 16.803292 6.966834 L 21.610584 6.966834 L 21.610584 25.998085 L 18.042875 25.998085 L 18.042875 13.425168 L 17.71475 13.373085 L 13.318917 25.998085 L 10.178291 25.998085 L 5.777249 13.373085 L 5.454333 13.425168 Z M 5.454333 25.998085 " stroke="#ffffff" stroke-width="3.733422" stroke-opacity="1" stroke-miterlimit="4"/><path stroke-linecap="butt" transform="matrix(0.75, 0, 0, 0.75, 71.497104, 266.864718)" fill="none" stroke-linejoin="miter" d="M 9.618446 26.274127 C 6.998654 26.274127 5.055945 25.649127 3.79032 24.404335 C 2.519487 23.159544 1.889278 21.315793 1.889278 18.867877 L 1.889278 6.966834 L 5.57157 6.966834 L 5.57157 18.841835 C 5.57157 20.227252 5.904904 21.268918 6.57157 21.966835 C 7.243445 22.659544 8.25907 23.008502 9.618446 23.008502 C 12.316362 23.008502 13.670529 21.617877 13.670529 18.841835 L 13.670529 6.966834 L 17.352821 6.966834 L 17.352821 18.867877 C 17.352821 21.315793 16.717404 23.159544 15.451779 24.404335 C 14.186154 25.649127 12.238237 26.274127 9.618446 26.274127 Z M 9.618446 26.274127 " stroke="#ffffff" stroke-width="3.733422" stroke-opacity="1" stroke-miterlimit="4"/><path stroke-linecap="butt" transform="matrix(0.75, 0, 0, 0.75, 85.267866, 266.864718)" fill="none" stroke-linejoin="miter" d="M 5.767846 6.966834 L 5.767846 22.852252 L 14.319929 22.852252 L 14.319929 25.998085 L 2.00222 25.998085 L 2.00222 6.966834 Z M 5.767846 6.966834 " stroke="#ffffff" stroke-width="3.733422" stroke-opacity="1" stroke-miterlimit="4"/><path stroke-linecap="butt" transform="matrix(0.75, 0, 0, 0.75, 95.465821, 266.864718)" fill="none" stroke-linejoin="miter" d="M 14.790365 6.966834 L 14.790365 10.133501 L 9.295573 10.133501 L 9.295573 25.998085 L 5.545573 25.998085 L 5.545573 10.133501 L 0.0507808 10.133501 L 0.0507808 6.966834 Z M 14.790365 6.966834 " stroke="#ffffff" stroke-width="3.733422" stroke-opacity="1" stroke-miterlimit="4"/><path stroke-linecap="butt" transform="matrix(0.75, 0, 0, 0.75, 105.937109, 266.864718)" fill="none" stroke-linejoin="miter" d="M 2.00573 6.966834 L 5.766147 6.966834 L 5.766147 25.998085 L 2.00573 25.998085 Z M 2.00573 6.966834 " stroke="#ffffff" stroke-width="3.733422" stroke-opacity="1" stroke-miterlimit="4"/><path stroke-linecap="butt" transform="matrix(0.75, 0, 0, 0.75, 111.117484, 266.864718)" fill="none" stroke-linejoin="miter" d="M 0.666271 15.16996 L 8.645438 15.16996 L 8.645438 18.347043 L 0.666271 18.347043 Z M 0.666271 15.16996 " stroke="#ffffff" stroke-width="3.733422" stroke-opacity="1" stroke-miterlimit="4"/><path stroke-linecap="butt" transform="matrix(0.75, 0, 0, 0.75, 117.459525, 266.864718)" fill="none" stroke-linejoin="miter" d="M 9.361259 6.966834 C 10.720634 6.966834 11.887301 7.216834 12.856051 7.716834 C 13.824801 8.216834 14.553968 8.914751 15.04876 9.810584 C 15.543551 10.711626 15.788343 11.753293 15.788343 12.940793 C 15.788343 14.133501 15.543551 15.175168 15.04876 16.065793 C 14.553968 16.961626 13.824801 17.659543 12.856051 18.154335 C 11.887301 18.654335 10.720634 18.904335 9.361259 18.904335 L 5.767509 18.904335 L 5.767509 25.998085 L 2.007092 25.998085 L 2.007092 6.966834 Z M 8.866468 15.925168 C 10.955009 15.925168 12.001884 14.930376 12.001884 12.940793 C 12.001884 10.946001 10.955009 9.951209 8.866468 9.951209 L 5.767509 9.951209 L 5.767509 15.925168 Z M 8.866468 15.925168 " stroke="#ffffff" stroke-width="3.733422" stroke-opacity="1" stroke-miterlimit="4"/><path stroke-linecap="butt" transform="matrix(0.75, 0, 0, 0.75, 129.141265, 266.864718)" fill="none" stroke-linejoin="miter" d="M 9.618939 26.274127 C 6.999147 26.274127 5.056439 25.649127 3.785605 24.404335 C 2.51998 23.159544 1.889772 21.315793 1.889772 18.867877 L 1.889772 6.966834 L 5.572064 6.966834 L 5.572064 18.841835 C 5.572064 20.227252 5.905397 21.268918 6.572064 21.966835 C 7.243939 22.659544 8.259564 23.008502 9.618939 23.008502 C 12.316856 23.008502 13.665814 21.617877 13.665814 18.841835 L 13.665814 6.966834 L 17.353315 6.966834 L 17.353315 18.867877 C 17.353315 21.315793 16.717898 23.159544 15.452273 24.404335 C 14.186648 25.649127 12.238731 26.274127 9.618939 26.274127 Z M 9.618939 26.274127 " stroke="#ffffff" stroke-width="3.733422" stroke-opacity="1" stroke-miterlimit="4"/><path stroke-linecap="butt" transform="matrix(0.75, 0, 0, 0.75, 142.912027, 266.864718)" fill="none" stroke-linejoin="miter" d="M 2.002714 25.998085 L 2.002714 6.966834 L 9.643339 6.966834 C 11.617298 6.966834 13.101673 7.419959 14.106881 8.326209 C 15.106882 9.237668 15.606882 10.487668 15.606882 12.086626 C 15.606882 13.237668 15.315215 14.185585 14.726673 14.91996 C 14.14334 15.659543 13.26834 16.222043 12.106881 16.612668 L 12.106881 16.88871 C 12.70584 17.149126 13.190215 17.534543 13.560006 18.04496 C 13.92459 18.560585 14.273548 19.315793 14.606881 20.32621 L 16.507923 25.998085 L 12.638131 25.998085 L 10.778756 20.310585 C 10.586048 19.737668 10.372506 19.29496 10.132923 18.977252 C 9.893339 18.659543 9.591256 18.430377 9.221464 18.284543 C 8.851673 18.143918 8.372506 18.071002 7.783964 18.071002 L 5.768339 18.071002 L 5.768339 25.998085 Z M 9.190214 15.091835 C 11.013131 15.091835 11.92459 14.242876 11.92459 12.539751 C 11.92459 10.810584 11.013131 9.951209 9.190214 9.951209 L 5.768339 9.951209 L 5.768339 15.091835 Z M 9.190214 15.091835 " stroke="#ffffff" stroke-width="3.733422" stroke-opacity="1" stroke-miterlimit="4"/><path stroke-linecap="butt" transform="matrix(0.75, 0, 0, 0.75, 154.896395, 266.864718)" fill="none" stroke-linejoin="miter" d="M 9.362099 6.966834 C 10.721474 6.966834 11.888141 7.216834 12.856891 7.716834 C 13.820432 8.216834 14.554807 8.914751 15.049599 9.810584 C 15.544391 10.711626 15.789183 11.753293 15.789183 12.940793 C 15.789183 14.133501 15.544391 15.175168 15.049599 16.065793 C 14.554807 16.961626 13.820432 17.659543 12.856891 18.154335 C 11.888141 18.654335 10.721474 18.904335 9.362099 18.904335 L 5.768349 18.904335 L 5.768349 25.998085 L 2.002723 25.998085 L 2.002723 6.966834 Z M 8.867307 15.925168 C 10.955849 15.925168 12.002724 14.930376 12.002724 12.940793 C 12.002724 10.946001 10.955849 9.951209 8.867307 9.951209 L 5.768349 9.951209 L 5.768349 15.925168 Z M 8.867307 15.925168 " stroke="#ffffff" stroke-width="3.733422" stroke-opacity="1" stroke-miterlimit="4"/><path stroke-linecap="butt" transform="matrix(0.75, 0, 0, 0.75, 166.578142, 266.864718)" fill="none" stroke-linejoin="miter" d="M 9.906228 26.274127 C 8.161436 26.274127 6.624977 25.91996 5.291644 25.206419 C 3.95831 24.492877 2.916644 23.409544 2.161435 21.946002 C 1.406227 20.48246 1.026019 18.664752 1.026019 16.48246 C 1.026019 14.305376 1.406227 12.487668 2.161435 11.024126 C 2.916644 9.560584 3.95831 8.472043 5.291644 7.763709 C 6.624977 7.050167 8.161436 6.696001 9.906228 6.696001 C 11.651019 6.696001 13.187478 7.050167 14.515603 7.753293 C 15.843728 8.461626 16.880186 9.550168 17.630186 11.018918 C 18.385395 12.48246 18.760395 14.305376 18.760395 16.48246 C 18.760395 18.664752 18.385395 20.48246 17.630186 21.95121 C 16.880186 23.41996 15.843728 24.503294 14.515603 25.211627 C 13.187478 25.91996 11.651019 26.274127 9.906228 26.274127 Z M 9.906228 23.008502 C 11.520811 23.008502 12.755186 22.487669 13.604144 21.45121 C 14.453103 20.414752 14.880186 18.758502 14.880186 16.48246 C 14.880186 14.211626 14.453103 12.555376 13.604144 11.513709 C 12.755186 10.472043 11.520811 9.951209 9.906228 9.951209 C 8.281227 9.951209 7.046852 10.472043 6.187477 11.513709 C 5.333311 12.555376 4.906227 14.211626 4.906227 16.48246 C 4.906227 18.758502 5.333311 20.414752 6.187477 21.45121 C 7.046852 22.487669 8.281227 23.008502 9.906228 23.008502 Z M 9.906228 23.008502 " stroke="#ffffff" stroke-width="3.733422" stroke-opacity="1" stroke-miterlimit="4"/><path stroke-linecap="butt" transform="matrix(0.75, 0, 0, 0.75, 180.768669, 266.864718)" fill="none" stroke-linejoin="miter" d="M 7.964691 26.274127 C 6.646983 26.274127 5.475108 26.112669 4.443858 25.784544 C 3.417816 25.461627 2.558441 25.034544 1.876149 24.503294 C 1.188649 23.972044 0.662607 23.393919 0.298024 22.758502 L 2.370941 20.23246 L 2.693858 20.23246 C 3.266774 21.081418 3.995941 21.758502 4.876149 22.26371 C 5.756358 22.768919 6.787608 23.018919 7.964691 23.018919 C 8.975108 23.018919 9.730316 22.805377 10.245941 22.383502 C 10.756358 21.956418 11.011566 21.367877 11.011566 20.623085 C 11.011566 20.16996 10.928233 19.79496 10.766775 19.492877 C 10.600108 19.185585 10.329275 18.925168 9.943858 18.711627 C 9.56365 18.492877 9.048025 18.305377 8.396983 18.149127 L 5.949066 17.591835 C 4.240733 17.20121 2.964691 16.550168 2.126149 15.643918 C 1.292816 14.737668 0.870941 13.560585 0.870941 12.112668 C 0.870941 11.034543 1.141774 10.086626 1.678233 9.274126 C 2.214691 8.456418 3.001149 7.821001 4.027191 7.373084 C 5.058441 6.919959 6.287608 6.696001 7.7199 6.696001 C 9.183441 6.696001 10.443858 6.888709 11.485525 7.274126 C 12.5324 7.659543 13.417817 8.253293 14.136567 9.050168 L 12.277192 11.602251 L 11.949067 11.602251 C 11.412608 11.039751 10.798025 10.617876 10.100108 10.331418 C 9.4074 10.050168 8.615733 9.909543 7.7199 9.909543 C 6.68865 9.909543 5.902191 10.091834 5.360524 10.456418 C 4.824066 10.821001 4.558441 11.326209 4.558441 11.966834 C 4.558441 12.565793 4.745941 13.04496 5.120941 13.399126 C 5.501149 13.753293 6.152191 14.034543 7.079275 14.23246 L 9.579275 14.753293 C 11.428233 15.143918 12.771983 15.805376 13.605317 16.737668 C 14.43865 17.66996 14.855317 18.88871 14.855317 20.38871 C 14.855317 21.57621 14.5949 22.612669 14.084483 23.492877 C 13.574067 24.373085 12.798025 25.060585 11.766775 25.54496 C 10.735525 26.029335 9.4699 26.274127 7.964691 26.274127 Z M 7.964691 26.274127 " stroke="#ffffff" stroke-width="3.733422" stroke-opacity="1" stroke-miterlimit="4"/><path stroke-linecap="butt" transform="matrix(0.75, 0, 0, 0.75, 191.669478, 266.864718)" fill="none" stroke-linejoin="miter" d="M 5.768821 17.643918 L 5.768821 22.852252 L 14.852155 22.852252 L 14.852155 25.998085 L 2.003196 25.998085 L 2.003196 6.966834 L 14.643822 6.966834 L 14.643822 10.117876 L 5.768821 10.117876 L 5.768821 14.571001 L 13.52403 14.571001 L 13.52403 17.643918 Z M 5.768821 17.643918 " stroke="#ffffff" stroke-width="3.733422" stroke-opacity="1" stroke-miterlimit="4"/><path stroke-linecap="butt" transform="matrix(0.75, 0, 0, 0.75, 205.934962, 266.864718)" fill="none" stroke-linejoin="miter" d="M 9.930468 26.274127 C 8.180468 26.274127 6.633593 25.909544 5.300259 25.180377 C 3.961717 24.45121 2.914842 23.35746 2.159634 21.893918 C 1.404426 20.430377 1.029425 18.628293 1.029425 16.48246 C 1.029425 14.341835 1.404426 12.539751 2.159634 11.076209 C 2.914842 9.612668 3.961717 8.518918 5.300259 7.789751 C 6.633593 7.060584 8.180468 6.696001 9.930468 6.696001 C 11.763801 6.696001 13.321093 7.055376 14.597135 7.768918 C 15.878385 8.482459 16.795052 9.576209 17.336718 11.044959 L 14.591926 12.722043 L 14.26901 12.711626 C 13.857551 11.722043 13.305468 11.008501 12.607551 10.581418 C 11.909635 10.149126 11.019009 9.935584 9.930468 9.935584 C 8.352343 9.935584 7.117968 10.461626 6.237759 11.503293 C 5.352342 12.550168 4.909634 14.211626 4.909634 16.48246 C 4.909634 18.748085 5.352342 20.404335 6.237759 21.45121 C 7.117968 22.498085 8.352343 23.018919 9.930468 23.018919 C 12.404426 23.018919 13.920051 21.815793 14.477343 19.414752 L 14.80026 19.414752 L 17.571093 20.85746 C 17.055468 22.664752 16.164843 24.018919 14.904426 24.91996 C 13.649218 25.821002 11.98776 26.274127 9.930468 26.274127 Z M 9.930468 26.274127 " stroke="#ffffff" stroke-width="3.733422" stroke-opacity="1" stroke-miterlimit="4"/><path stroke-linecap="butt" transform="matrix(0.75, 0, 0, 0.75, 218.573354, 266.864718)" fill="none" stroke-linejoin="miter" d="M 9.907403 26.274127 C 8.162612 26.274127 6.626153 25.91996 5.29282 25.206419 C 3.959486 24.492877 2.91782 23.409544 2.162611 21.946002 C 1.407403 20.48246 1.027195 18.664752 1.027195 16.48246 C 1.027195 14.305376 1.407403 12.487668 2.162611 11.024126 C 2.91782 9.560584 3.959486 8.472043 5.29282 7.763709 C 6.626153 7.050167 8.162612 6.696001 9.907403 6.696001 C 11.652195 6.696001 13.188654 7.050167 14.516779 7.753293 C 15.839696 8.461626 16.881362 9.550168 17.631362 11.018918 C 18.381362 12.48246 18.756362 14.305376 18.756362 16.48246 C 18.756362 18.664752 18.381362 20.48246 17.631362 21.95121 C 16.881362 23.41996 15.839696 24.503294 14.516779 25.211627 C 13.188654 25.91996 11.652195 26.274127 9.907403 26.274127 Z M 9.907403 23.008502 C 11.521987 23.008502 12.751154 22.487669 13.60532 21.45121 C 14.454279 20.414752 14.881362 18.758502 14.881362 16.48246 C 14.881362 14.211626 14.454279 12.555376 13.60532 11.513709 C 12.751154 10.472043 11.521987 9.951209 9.907403 9.951209 C 8.282403 9.951209 7.04282 10.472043 6.188653 11.513709 C 5.334486 12.555376 4.907403 14.211626 4.907403 16.48246 C 4.907403 18.758502 5.334486 20.414752 6.188653 21.45121 C 7.04282 22.487669 8.282403 23.008502 9.907403 23.008502 Z M 9.907403 23.008502 " stroke="#ffffff" stroke-width="3.733422" stroke-opacity="1" stroke-miterlimit="4"/><path stroke-linecap="butt" transform="matrix(0.75, 0, 0, 0.75, 232.763896, 266.864718)" fill="none" stroke-linejoin="miter" d="M 9.908556 26.274127 C 8.163765 26.274127 6.622098 25.91996 5.293973 25.206419 C 3.960639 24.492877 2.913764 23.409544 2.158556 21.946002 C 1.403348 20.48246 1.028348 18.664752 1.028348 16.48246 C 1.028348 14.305376 1.403348 12.487668 2.158556 11.024126 C 2.913764 9.560584 3.960639 8.472043 5.293973 7.763709 C 6.622098 7.050167 8.163765 6.696001 9.908556 6.696001 C 11.64814 6.696001 13.184598 7.050167 14.512723 7.753293 C 15.840849 8.461626 16.882515 9.550168 17.632515 11.018918 C 18.382515 12.48246 18.757515 14.305376 18.757515 16.48246 C 18.757515 18.664752 18.382515 20.48246 17.632515 21.95121 C 16.882515 23.41996 15.840849 24.503294 14.512723 25.211627 C 13.184598 25.91996 11.64814 26.274127 9.908556 26.274127 Z M 9.908556 23.008502 C 11.517932 23.008502 12.752307 22.487669 13.601265 21.45121 C 14.455432 20.414752 14.877307 18.758502 14.877307 16.48246 C 14.877307 14.211626 14.455432 12.555376 13.601265 11.513709 C 12.752307 10.472043 11.517932 9.951209 9.908556 9.951209 C 8.283556 9.951209 7.043973 10.472043 6.189806 11.513709 C 5.33564 12.555376 4.908556 14.211626 4.908556 16.48246 C 4.908556 18.758502 5.33564 20.414752 6.189806 21.45121 C 7.043973 22.487669 8.283556 23.008502 9.908556 23.008502 Z M 9.908556 23.008502 " stroke="#ffffff" stroke-width="3.733422" stroke-opacity="1" stroke-miterlimit="4"/><path stroke-linecap="butt" transform="matrix(0.75, 0, 0, 0.75, 246.954423, 266.864718)" fill="none" stroke-linejoin="miter" d="M 9.357645 6.966834 C 10.722229 6.966834 11.888896 7.216834 12.852437 7.716834 C 13.821187 8.216834 14.555562 8.914751 15.050354 9.810584 C 15.545146 10.711626 15.789937 11.753293 15.789937 12.940793 C 15.789937 14.133501 15.545146 15.175168 15.050354 16.065793 C 14.555562 16.961626 13.821187 17.659543 12.852437 18.154335 C 11.888896 18.654335 10.722229 18.904335 9.357645 18.904335 L 5.769103 18.904335 L 5.769103 25.998085 L 2.003478 25.998085 L 2.003478 6.966834 Z M 8.862854 15.925168 C 10.956604 15.925168 12.003479 14.930376 12.003479 12.940793 C 12.003479 10.946001 10.956604 9.951209 8.862854 9.951209 L 5.769103 9.951209 L 5.769103 15.925168 Z M 8.862854 15.925168 " stroke="#ffffff" stroke-width="3.733422" stroke-opacity="1" stroke-miterlimit="4"/><path stroke-linecap="butt" transform="matrix(0.75, 0, 0, 0.75, 258.63617, 266.864718)" fill="none" stroke-linejoin="miter" d="M 5.766357 17.643918 L 5.766357 22.852252 L 14.854899 22.852252 L 14.854899 25.998085 L 2.00594 25.998085 L 2.00594 6.966834 L 14.646566 6.966834 L 14.646566 10.117876 L 5.766357 10.117876 L 5.766357 14.571001 L 13.526774 14.571001 L 13.526774 17.643918 Z M 5.766357 17.643918 " stroke="#ffffff" stroke-width="3.733422" stroke-opacity="1" stroke-miterlimit="4"/><path stroke-linecap="butt" transform="matrix(0.75, 0, 0, 0.75, 269.546735, 266.864718)" fill="none" stroke-linejoin="miter" d="M 2.005395 25.998085 L 2.005395 6.966834 L 9.646021 6.966834 C 11.614771 6.966834 13.104354 7.419959 14.104355 8.326209 C 15.104355 9.237668 15.609563 10.487668 15.609563 12.086626 C 15.609563 13.237668 15.312688 14.185585 14.729355 14.91996 C 14.146021 15.659543 13.271021 16.222043 12.104354 16.612668 L 12.104354 16.88871 C 12.703313 17.149126 13.187688 17.534543 13.557479 18.04496 C 13.927271 18.560585 14.27623 19.315793 14.604355 20.32621 L 16.505396 25.998085 L 12.640813 25.998085 L 10.776229 20.310585 C 10.588729 19.737668 10.375188 19.29496 10.135604 18.977252 C 9.896021 18.659543 9.593938 18.430377 9.224146 18.284543 C 8.854354 18.143918 8.375187 18.071002 7.786646 18.071002 L 5.765812 18.071002 L 5.765812 25.998085 Z M 9.192896 15.091835 C 11.010604 15.091835 11.922063 14.242876 11.922063 12.539751 C 11.922063 10.810584 11.010604 9.951209 9.192896 9.951209 L 5.765812 9.951209 L 5.765812 15.091835 Z M 9.192896 15.091835 " stroke="#ffffff" stroke-width="3.733422" stroke-opacity="1" stroke-miterlimit="4"/><path stroke-linecap="butt" transform="matrix(0.75, 0, 0, 0.75, 281.531088, 266.864718)" fill="none" stroke-linejoin="miter" d="M 17.797092 25.998085 L 13.838758 25.998085 L 12.406466 21.612668 L 5.114799 21.612668 L 3.682507 25.998085 L -0.182076 25.998085 L 6.390841 6.966834 L 11.218966 6.966834 Z M 8.578341 10.940793 L 6.130424 18.45121 L 11.3648 18.45121 L 8.906466 10.940793 Z M 8.578341 10.940793 " stroke="#ffffff" stroke-width="3.733422" stroke-opacity="1" stroke-miterlimit="4"/><path stroke-linecap="butt" transform="matrix(0.75, 0, 0, 0.75, 294.081664, 266.864718)" fill="none" stroke-linejoin="miter" d="M 14.786948 6.966834 L 14.786948 10.133501 L 9.292156 10.133501 L 9.292156 25.998085 L 5.547365 25.998085 L 5.547365 10.133501 L 0.0525725 10.133501 L 0.0525725 6.966834 Z M 14.786948 6.966834 " stroke="#ffffff" stroke-width="3.733422" stroke-opacity="1" stroke-miterlimit="4"/><path stroke-linecap="butt" transform="matrix(0.75, 0, 0, 0.75, 304.552924, 266.864718)" fill="none" stroke-linejoin="miter" d="M 2.002352 6.966834 L 5.767977 6.966834 L 5.767977 25.998085 L 2.002352 25.998085 Z M 2.002352 6.966834 " stroke="#ffffff" stroke-width="3.733422" stroke-opacity="1" stroke-miterlimit="4"/><path stroke-linecap="butt" transform="matrix(0.75, 0, 0, 0.75, 309.733285, 266.864718)" fill="none" stroke-linejoin="miter" d="M 10.845204 25.998085 L 6.298329 25.998085 L -0.128755 6.966834 L 3.866037 6.966834 L 8.485829 21.159543 L 8.813954 21.159543 L 13.371246 6.966834 L 17.261871 6.966834 Z M 10.845204 25.998085 " stroke="#ffffff" stroke-width="3.733422" stroke-opacity="1" stroke-miterlimit="4"/><path stroke-linecap="butt" transform="matrix(0.75, 0, 0, 0.75, 321.922659, 266.864718)" fill="none" stroke-linejoin="miter" d="M 5.764581 17.643918 L 5.764581 22.852252 L 14.853123 22.852252 L 14.853123 25.998085 L 2.004164 25.998085 L 2.004164 6.966834 L 14.64479 6.966834 L 14.64479 10.117876 L 5.764581 10.117876 L 5.764581 14.571001 L 13.524998 14.571001 L 13.524998 17.643918 Z M 5.764581 17.643918 " stroke="#ffffff" stroke-width="3.733422" stroke-opacity="1" stroke-miterlimit="4"/><g fill="#dd0808" fill-opacity="1"><g transform="translate(54.085032, 286.364717)"><g><path d="M 4.4375 0 L 1.859375 0 L 1.859375 -14.28125 L 5.546875 -14.28125 L 9.15625 -3.78125 L 9.359375 -3.78125 L 12.953125 -14.28125 L 16.5625 -14.28125 L 16.5625 0 L 13.890625 0 L 13.890625 -9.4375 L 13.640625 -9.46875 L 10.34375 0 L 7.984375 0 L 4.6875 -9.46875 L 4.4375 -9.4375 Z M 4.4375 0 "/></g></g></g><g fill="#dd0808" fill-opacity="1"><g transform="translate(71.145541, 286.364717)"><g><path d="M 7.5625 0.203125 C 5.601562 0.203125 4.144531 -0.257812 3.1875 -1.1875 C 2.238281 -2.125 1.765625 -3.515625 1.765625 -5.359375 L 1.765625 -14.28125 L 4.53125 -14.28125 L 4.53125 -5.375 C 4.53125 -4.332031 4.78125 -3.550781 5.28125 -3.03125 C 5.78125 -2.507812 6.539062 -2.25 7.5625 -2.25 C 9.59375 -2.25 10.609375 -3.289062 10.609375 -5.375 L 10.609375 -14.28125 L 13.375 -14.28125 L 13.375 -5.359375 C 13.375 -3.515625 12.894531 -2.125 11.9375 -1.1875 C 10.988281 -0.257812 9.53125 0.203125 7.5625 0.203125 Z M 7.5625 0.203125 "/></g></g></g><g fill="#dd0808" fill-opacity="1"><g transform="translate(84.916304, 286.364717)"><g><path d="M 4.671875 -14.28125 L 4.671875 -2.359375 L 11.09375 -2.359375 L 11.09375 0 L 1.859375 0 L 1.859375 -14.28125 Z M 4.671875 -14.28125 "/></g></g></g><g fill="#dd0808" fill-opacity="1"><g transform="translate(95.114258, 286.364717)"><g><path d="M 11.453125 -14.28125 L 11.453125 -11.90625 L 7.328125 -11.90625 L 7.328125 0 L 4.515625 0 L 4.515625 -11.90625 L 0.390625 -11.90625 L 0.390625 -14.28125 Z M 11.453125 -14.28125 "/></g></g></g><g fill="#dd0808" fill-opacity="1"><g transform="translate(105.585546, 286.364717)"><g><path d="M 4.671875 0 L 1.859375 0 L 1.859375 -14.28125 L 4.671875 -14.28125 Z M 4.671875 0 "/></g></g></g><g fill="#dd0808" fill-opacity="1"><g transform="translate(110.765922, 286.364717)"><g><path d="M 6.84375 -5.75 L 0.84375 -5.75 L 0.84375 -8.125 L 6.84375 -8.125 Z M 6.84375 -5.75 "/></g></g></g><g fill="#dd0808" fill-opacity="1"><g transform="translate(117.107962, 286.364717)"><g><path d="M 7.375 -14.28125 C 8.394531 -14.28125 9.265625 -14.09375 9.984375 -13.71875 C 10.710938 -13.34375 11.265625 -12.816406 11.640625 -12.140625 C 12.015625 -11.472656 12.203125 -10.691406 12.203125 -9.796875 C 12.203125 -8.898438 12.015625 -8.117188 11.640625 -7.453125 C 11.265625 -6.785156 10.710938 -6.265625 9.984375 -5.890625 C 9.265625 -5.515625 8.394531 -5.328125 7.375 -5.328125 L 4.671875 -5.328125 L 4.671875 0 L 1.859375 0 L 1.859375 -14.28125 Z M 7 -7.5625 C 8.570312 -7.5625 9.359375 -8.304688 9.359375 -9.796875 C 9.359375 -11.296875 8.570312 -12.046875 7 -12.046875 L 4.671875 -12.046875 L 4.671875 -7.5625 Z M 7 -7.5625 "/></g></g></g><g fill="#dd0808" fill-opacity="1"><g transform="translate(128.789702, 286.364717)"><g><path d="M 7.5625 0.203125 C 5.601562 0.203125 4.144531 -0.257812 3.1875 -1.1875 C 2.238281 -2.125 1.765625 -3.515625 1.765625 -5.359375 L 1.765625 -14.28125 L 4.53125 -14.28125 L 4.53125 -5.375 C 4.53125 -4.332031 4.78125 -3.550781 5.28125 -3.03125 C 5.78125 -2.507812 6.539062 -2.25 7.5625 -2.25 C 9.59375 -2.25 10.609375 -3.289062 10.609375 -5.375 L 10.609375 -14.28125 L 13.375 -14.28125 L 13.375 -5.359375 C 13.375 -3.515625 12.894531 -2.125 11.9375 -1.1875 C 10.988281 -0.257812 9.53125 0.203125 7.5625 0.203125 Z M 7.5625 0.203125 "/></g></g></g><g fill="#dd0808" fill-opacity="1"><g transform="translate(142.560465, 286.364717)"><g><path d="M 1.859375 0 L 1.859375 -14.28125 L 7.59375 -14.28125 C 9.070312 -14.28125 10.1875 -13.9375 10.9375 -13.25 C 11.6875 -12.570312 12.0625 -11.632812 12.0625 -10.4375 C 12.0625 -9.570312 11.84375 -8.863281 11.40625 -8.3125 C 10.96875 -7.757812 10.3125 -7.335938 9.4375 -7.046875 L 9.4375 -6.84375 C 9.882812 -6.644531 10.242188 -6.351562 10.515625 -5.96875 C 10.796875 -5.582031 11.0625 -5.015625 11.3125 -4.265625 L 12.734375 0 L 9.828125 0 L 8.4375 -4.265625 C 8.289062 -4.691406 8.128906 -5.023438 7.953125 -5.265625 C 7.773438 -5.503906 7.546875 -5.675781 7.265625 -5.78125 C 6.992188 -5.894531 6.632812 -5.953125 6.1875 -5.953125 L 4.671875 -5.953125 L 4.671875 0 Z M 7.25 -8.1875 C 8.613281 -8.1875 9.296875 -8.820312 9.296875 -10.09375 C 9.296875 -11.394531 8.613281 -12.046875 7.25 -12.046875 L 4.671875 -12.046875 L 4.671875 -8.1875 Z M 7.25 -8.1875 "/></g></g></g><g fill="#dd0808" fill-opacity="1"><g transform="translate(154.544833, 286.364717)"><g><path d="M 7.375 -14.28125 C 8.394531 -14.28125 9.265625 -14.09375 9.984375 -13.71875 C 10.710938 -13.34375 11.265625 -12.816406 11.640625 -12.140625 C 12.015625 -11.472656 12.203125 -10.691406 12.203125 -9.796875 C 12.203125 -8.898438 12.015625 -8.117188 11.640625 -7.453125 C 11.265625 -6.785156 10.710938 -6.265625 9.984375 -5.890625 C 9.265625 -5.515625 8.394531 -5.328125 7.375 -5.328125 L 4.671875 -5.328125 L 4.671875 0 L 1.859375 0 L 1.859375 -14.28125 Z M 7 -7.5625 C 8.570312 -7.5625 9.359375 -8.304688 9.359375 -9.796875 C 9.359375 -11.296875 8.570312 -12.046875 7 -12.046875 L 4.671875 -12.046875 L 4.671875 -7.5625 Z M 7 -7.5625 "/></g></g></g><g fill="#dd0808" fill-opacity="1"><g transform="translate(166.22658, 286.364717)"><g><path d="M 7.78125 0.203125 C 6.476562 0.203125 5.328125 -0.0625 4.328125 -0.59375 C 3.328125 -1.125 2.539062 -1.9375 1.96875 -3.03125 C 1.40625 -4.132812 1.125 -5.503906 1.125 -7.140625 C 1.125 -8.773438 1.40625 -10.140625 1.96875 -11.234375 C 2.539062 -12.328125 3.328125 -13.140625 4.328125 -13.671875 C 5.328125 -14.210938 6.476562 -14.484375 7.78125 -14.484375 C 9.09375 -14.484375 10.242188 -14.21875 11.234375 -13.6875 C 12.234375 -13.15625 13.015625 -12.335938 13.578125 -11.234375 C 14.140625 -10.140625 14.421875 -8.773438 14.421875 -7.140625 C 14.421875 -5.503906 14.140625 -4.132812 13.578125 -3.03125 C 13.015625 -1.9375 12.234375 -1.125 11.234375 -0.59375 C 10.242188 -0.0625 9.09375 0.203125 7.78125 0.203125 Z M 7.78125 -2.25 C 8.988281 -2.25 9.910156 -2.632812 10.546875 -3.40625 C 11.191406 -4.1875 11.515625 -5.429688 11.515625 -7.140625 C 11.515625 -8.847656 11.191406 -10.09375 10.546875 -10.875 C 9.910156 -11.65625 8.988281 -12.046875 7.78125 -12.046875 C 6.5625 -12.046875 5.628906 -11.65625 4.984375 -10.875 C 4.347656 -10.09375 4.03125 -8.847656 4.03125 -7.140625 C 4.03125 -5.429688 4.347656 -4.1875 4.984375 -3.40625 C 5.628906 -2.632812 6.5625 -2.25 7.78125 -2.25 Z M 7.78125 -2.25 "/></g></g></g><g fill="#dd0808" fill-opacity="1"><g transform="translate(180.417107, 286.364717)"><g><path d="M 6.328125 0.203125 C 5.335938 0.203125 4.457031 0.0820312 3.6875 -0.15625 C 2.914062 -0.40625 2.269531 -0.726562 1.75 -1.125 C 1.238281 -1.519531 0.847656 -1.957031 0.578125 -2.4375 L 2.125 -4.328125 L 2.375 -4.328125 C 2.800781 -3.691406 3.34375 -3.179688 4 -2.796875 C 4.664062 -2.421875 5.441406 -2.234375 6.328125 -2.234375 C 7.085938 -2.234375 7.65625 -2.390625 8.03125 -2.703125 C 8.414062 -3.023438 8.609375 -3.46875 8.609375 -4.03125 C 8.609375 -4.375 8.546875 -4.65625 8.421875 -4.875 C 8.304688 -5.101562 8.101562 -5.300781 7.8125 -5.46875 C 7.53125 -5.632812 7.144531 -5.773438 6.65625 -5.890625 L 4.8125 -6.3125 C 3.53125 -6.601562 2.570312 -7.085938 1.9375 -7.765625 C 1.3125 -8.453125 1 -9.335938 1 -10.421875 C 1 -11.222656 1.203125 -11.929688 1.609375 -12.546875 C 2.015625 -13.160156 2.601562 -13.632812 3.375 -13.96875 C 4.144531 -14.3125 5.066406 -14.484375 6.140625 -14.484375 C 7.242188 -14.484375 8.1875 -14.335938 8.96875 -14.046875 C 9.75 -13.753906 10.410156 -13.3125 10.953125 -12.71875 L 9.5625 -10.796875 L 9.3125 -10.796875 C 8.914062 -11.222656 8.457031 -11.539062 7.9375 -11.75 C 7.414062 -11.96875 6.816406 -12.078125 6.140625 -12.078125 C 5.367188 -12.078125 4.78125 -11.9375 4.375 -11.65625 C 3.96875 -11.382812 3.765625 -11.007812 3.765625 -10.53125 C 3.765625 -10.082031 3.90625 -9.722656 4.1875 -9.453125 C 4.476562 -9.179688 4.972656 -8.972656 5.671875 -8.828125 L 7.546875 -8.4375 C 8.929688 -8.144531 9.9375 -7.648438 10.5625 -6.953125 C 11.1875 -6.253906 11.5 -5.335938 11.5 -4.203125 C 11.5 -3.316406 11.304688 -2.539062 10.921875 -1.875 C 10.535156 -1.21875 9.953125 -0.707031 9.171875 -0.34375 C 8.398438 0.0195312 7.453125 0.203125 6.328125 0.203125 Z M 6.328125 0.203125 "/></g></g></g><g fill="#dd0808" fill-opacity="1"><g transform="translate(191.317916, 286.364717)"><g><path d="M 4.671875 -6.265625 L 4.671875 -2.359375 L 11.5 -2.359375 L 11.5 0 L 1.859375 0 L 1.859375 -14.28125 L 11.34375 -14.28125 L 11.34375 -11.921875 L 4.671875 -11.921875 L 4.671875 -8.578125 L 10.5 -8.578125 L 10.5 -6.265625 Z M 4.671875 -6.265625 "/></g></g></g><g fill="#dd0808" fill-opacity="1"><g transform="translate(202.228469, 286.364717)"><g/></g></g><g fill="#dd0808" fill-opacity="1"><g transform="translate(205.5834, 286.364717)"><g><path d="M 7.796875 0.203125 C 6.484375 0.203125 5.328125 -0.0664062 4.328125 -0.609375 C 3.328125 -1.160156 2.539062 -1.984375 1.96875 -3.078125 C 1.40625 -4.179688 1.125 -5.535156 1.125 -7.140625 C 1.125 -8.742188 1.40625 -10.09375 1.96875 -11.1875 C 2.539062 -12.289062 3.328125 -13.113281 4.328125 -13.65625 C 5.328125 -14.207031 6.484375 -14.484375 7.796875 -14.484375 C 9.171875 -14.484375 10.335938 -14.210938 11.296875 -13.671875 C 12.265625 -13.140625 12.953125 -12.320312 13.359375 -11.21875 L 11.296875 -9.96875 L 11.0625 -9.96875 C 10.75 -10.707031 10.332031 -11.238281 9.8125 -11.5625 C 9.289062 -11.882812 8.617188 -12.046875 7.796875 -12.046875 C 6.617188 -12.046875 5.695312 -11.65625 5.03125 -10.875 C 4.363281 -10.09375 4.03125 -8.847656 4.03125 -7.140625 C 4.03125 -5.441406 4.363281 -4.195312 5.03125 -3.40625 C 5.695312 -2.625 6.617188 -2.234375 7.796875 -2.234375 C 9.660156 -2.234375 10.800781 -3.132812 11.21875 -4.9375 L 11.453125 -4.9375 L 13.53125 -3.859375 C 13.144531 -2.503906 12.476562 -1.488281 11.53125 -0.8125 C 10.59375 -0.132812 9.347656 0.203125 7.796875 0.203125 Z M 7.796875 0.203125 "/></g></g></g><g fill="#dd0808" fill-opacity="1"><g transform="translate(218.221792, 286.364717)"><g><path d="M 7.78125 0.203125 C 6.476562 0.203125 5.328125 -0.0625 4.328125 -0.59375 C 3.328125 -1.125 2.539062 -1.9375 1.96875 -3.03125 C 1.40625 -4.132812 1.125 -5.503906 1.125 -7.140625 C 1.125 -8.773438 1.40625 -10.140625 1.96875 -11.234375 C 2.539062 -12.328125 3.328125 -13.140625 4.328125 -13.671875 C 5.328125 -14.210938 6.476562 -14.484375 7.78125 -14.484375 C 9.09375 -14.484375 10.242188 -14.21875 11.234375 -13.6875 C 12.234375 -13.15625 13.015625 -12.335938 13.578125 -11.234375 C 14.140625 -10.140625 14.421875 -8.773438 14.421875 -7.140625 C 14.421875 -5.503906 14.140625 -4.132812 13.578125 -3.03125 C 13.015625 -1.9375 12.234375 -1.125 11.234375 -0.59375 C 10.242188 -0.0625 9.09375 0.203125 7.78125 0.203125 Z M 7.78125 -2.25 C 8.988281 -2.25 9.910156 -2.632812 10.546875 -3.40625 C 11.191406 -4.1875 11.515625 -5.429688 11.515625 -7.140625 C 11.515625 -8.847656 11.191406 -10.09375 10.546875 -10.875 C 9.910156 -11.65625 8.988281 -12.046875 7.78125 -12.046875 C 6.5625 -12.046875 5.628906 -11.65625 4.984375 -10.875 C 4.347656 -10.09375 4.03125 -8.847656 4.03125 -7.140625 C 4.03125 -5.429688 4.347656 -4.1875 4.984375 -3.40625 C 5.628906 -2.632812 6.5625 -2.25 7.78125 -2.25 Z M 7.78125 -2.25 "/></g></g></g><g fill="#dd0808" fill-opacity="1"><g transform="translate(232.412333, 286.364717)"><g><path d="M 7.78125 0.203125 C 6.476562 0.203125 5.328125 -0.0625 4.328125 -0.59375 C 3.328125 -1.125 2.539062 -1.9375 1.96875 -3.03125 C 1.40625 -4.132812 1.125 -5.503906 1.125 -7.140625 C 1.125 -8.773438 1.40625 -10.140625 1.96875 -11.234375 C 2.539062 -12.328125 3.328125 -13.140625 4.328125 -13.671875 C 5.328125 -14.210938 6.476562 -14.484375 7.78125 -14.484375 C 9.09375 -14.484375 10.242188 -14.21875 11.234375 -13.6875 C 12.234375 -13.15625 13.015625 -12.335938 13.578125 -11.234375 C 14.140625 -10.140625 14.421875 -8.773438 14.421875 -7.140625 C 14.421875 -5.503906 14.140625 -4.132812 13.578125 -3.03125 C 13.015625 -1.9375 12.234375 -1.125 11.234375 -0.59375 C 10.242188 -0.0625 9.09375 0.203125 7.78125 0.203125 Z M 7.78125 -2.25 C 8.988281 -2.25 9.910156 -2.632812 10.546875 -3.40625 C 11.191406 -4.1875 11.515625 -5.429688 11.515625 -7.140625 C 11.515625 -8.847656 11.191406 -10.09375 10.546875 -10.875 C 9.910156 -11.65625 8.988281 -12.046875 7.78125 -12.046875 C 6.5625 -12.046875 5.628906 -11.65625 4.984375 -10.875 C 4.347656 -10.09375 4.03125 -8.847656 4.03125 -7.140625 C 4.03125 -5.429688 4.347656 -4.1875 4.984375 -3.40625 C 5.628906 -2.632812 6.5625 -2.25 7.78125 -2.25 Z M 7.78125 -2.25 "/></g></g></g><g fill="#dd0808" fill-opacity="1"><g transform="translate(246.60286, 286.364717)"><g><path d="M 7.375 -14.28125 C 8.394531 -14.28125 9.265625 -14.09375 9.984375 -13.71875 C 10.710938 -13.34375 11.265625 -12.816406 11.640625 -12.140625 C 12.015625 -11.472656 12.203125 -10.691406 12.203125 -9.796875 C 12.203125 -8.898438 12.015625 -8.117188 11.640625 -7.453125 C 11.265625 -6.785156 10.710938 -6.265625 9.984375 -5.890625 C 9.265625 -5.515625 8.394531 -5.328125 7.375 -5.328125 L 4.671875 -5.328125 L 4.671875 0 L 1.859375 0 L 1.859375 -14.28125 Z M 7 -7.5625 C 8.570312 -7.5625 9.359375 -8.304688 9.359375 -9.796875 C 9.359375 -11.296875 8.570312 -12.046875 7 -12.046875 L 4.671875 -12.046875 L 4.671875 -7.5625 Z M 7 -7.5625 "/></g></g></g><g fill="#dd0808" fill-opacity="1"><g transform="translate(258.284607, 286.364717)"><g><path d="M 4.671875 -6.265625 L 4.671875 -2.359375 L 11.5 -2.359375 L 11.5 0 L 1.859375 0 L 1.859375 -14.28125 L 11.34375 -14.28125 L 11.34375 -11.921875 L 4.671875 -11.921875 L 4.671875 -8.578125 L 10.5 -8.578125 L 10.5 -6.265625 Z M 4.671875 -6.265625 "/></g></g></g><g fill="#dd0808" fill-opacity="1"><g transform="translate(269.195172, 286.364717)"><g><path d="M 1.859375 0 L 1.859375 -14.28125 L 7.59375 -14.28125 C 9.070312 -14.28125 10.1875 -13.9375 10.9375 -13.25 C 11.6875 -12.570312 12.0625 -11.632812 12.0625 -10.4375 C 12.0625 -9.570312 11.84375 -8.863281 11.40625 -8.3125 C 10.96875 -7.757812 10.3125 -7.335938 9.4375 -7.046875 L 9.4375 -6.84375 C 9.882812 -6.644531 10.242188 -6.351562 10.515625 -5.96875 C 10.796875 -5.582031 11.0625 -5.015625 11.3125 -4.265625 L 12.734375 0 L 9.828125 0 L 8.4375 -4.265625 C 8.289062 -4.691406 8.128906 -5.023438 7.953125 -5.265625 C 7.773438 -5.503906 7.546875 -5.675781 7.265625 -5.78125 C 6.992188 -5.894531 6.632812 -5.953125 6.1875 -5.953125 L 4.671875 -5.953125 L 4.671875 0 Z M 7.25 -8.1875 C 8.613281 -8.1875 9.296875 -8.820312 9.296875 -10.09375 C 9.296875 -11.394531 8.613281 -12.046875 7.25 -12.046875 L 4.671875 -12.046875 L 4.671875 -8.1875 Z M 7.25 -8.1875 "/></g></g></g><g fill="#dd0808" fill-opacity="1"><g transform="translate(281.179526, 286.364717)"><g><path d="M 13.703125 0 L 10.734375 0 L 9.65625 -3.296875 L 4.1875 -3.296875 L 3.109375 0 L 0.21875 0 L 5.140625 -14.28125 L 8.765625 -14.28125 Z M 6.78125 -11.296875 L 4.953125 -5.671875 L 8.875 -5.671875 L 7.03125 -11.296875 Z M 6.78125 -11.296875 "/></g></g></g><g fill="#dd0808" fill-opacity="1"><g transform="translate(293.730102, 286.364717)"><g><path d="M 11.453125 -14.28125 L 11.453125 -11.90625 L 7.328125 -11.90625 L 7.328125 0 L 4.515625 0 L 4.515625 -11.90625 L 0.390625 -11.90625 L 0.390625 -14.28125 Z M 11.453125 -14.28125 "/></g></g></g><g fill="#dd0808" fill-opacity="1"><g transform="translate(304.201361, 286.364717)"><g><path d="M 4.671875 0 L 1.859375 0 L 1.859375 -14.28125 L 4.671875 -14.28125 Z M 4.671875 0 "/></g></g></g><g fill="#dd0808" fill-opacity="1"><g transform="translate(309.381722, 286.364717)"><g><path d="M 8.484375 0 L 5.078125 0 L 0.25 -14.28125 L 3.25 -14.28125 L 6.71875 -3.640625 L 6.96875 -3.640625 L 10.375 -14.28125 L 13.296875 -14.28125 Z M 8.484375 0 "/></g></g></g><g fill="#dd0808" fill-opacity="1"><g transform="translate(321.571096, 286.364717)"><g><path d="M 4.671875 -6.265625 L 4.671875 -2.359375 L 11.5 -2.359375 L 11.5 0 L 1.859375 0 L 1.859375 -14.28125 L 11.34375 -14.28125 L 11.34375 -11.921875 L 4.671875 -11.921875 L 4.671875 -8.578125 L 10.5 -8.578125 L 10.5 -6.265625 Z M 4.671875 -6.265625 "/></g></g></g></svg>