<svg xmlns="http://www.w3.org/2000/svg" xmlns:xlink="http://www.w3.org/1999/xlink" width="600" zoomAndPan="magnify" viewBox="0 0 450 149.999998" height="200" preserveAspectRatio="xMidYMid meet" version="1.0"><defs><g/><clipPath id="2c14291246"><path d="M 59 113.167969 L 113.699219 113.167969 L 113.699219 129.410156 L 59 129.410156 Z M 59 113.167969 " clip-rule="nonzero"/></clipPath></defs><g fill="#ffffff" fill-opacity="1"><g transform="translate(184.076958, 78.226117)"><g><path d="M 20.859375 -9 C 20.859375 -10.34375 20.382812 -11.367188 19.4375 -12.078125 C 18.5 -12.796875 16.800781 -13.550781 14.34375 -14.34375 C 11.894531 -15.132812 9.957031 -15.914062 8.53125 -16.6875 C 4.632812 -18.789062 2.6875 -21.628906 2.6875 -25.203125 C 2.6875 -27.054688 3.207031 -28.707031 4.25 -30.15625 C 5.300781 -31.613281 6.800781 -32.75 8.75 -33.5625 C 10.707031 -34.382812 12.90625 -34.796875 15.34375 -34.796875 C 17.800781 -34.796875 19.988281 -34.347656 21.90625 -33.453125 C 23.820312 -32.566406 25.304688 -31.316406 26.359375 -29.703125 C 27.421875 -28.085938 27.953125 -26.25 27.953125 -24.1875 L 20.890625 -24.1875 C 20.890625 -25.757812 20.394531 -26.976562 19.40625 -27.84375 C 18.414062 -28.71875 17.023438 -29.15625 15.234375 -29.15625 C 13.503906 -29.15625 12.160156 -28.789062 11.203125 -28.0625 C 10.242188 -27.332031 9.765625 -26.367188 9.765625 -25.171875 C 9.765625 -24.054688 10.320312 -23.117188 11.4375 -22.359375 C 12.5625 -21.609375 14.21875 -20.90625 16.40625 -20.25 C 20.425781 -19.039062 23.351562 -17.539062 25.1875 -15.75 C 27.03125 -13.957031 27.953125 -11.722656 27.953125 -9.046875 C 27.953125 -6.078125 26.828125 -3.75 24.578125 -2.0625 C 22.335938 -0.375 19.316406 0.46875 15.515625 0.46875 C 12.867188 0.46875 10.460938 -0.0078125 8.296875 -0.96875 C 6.128906 -1.9375 4.472656 -3.257812 3.328125 -4.9375 C 2.191406 -6.625 1.625 -8.578125 1.625 -10.796875 L 8.71875 -10.796875 C 8.71875 -7.003906 10.984375 -5.109375 15.515625 -5.109375 C 17.191406 -5.109375 18.5 -5.453125 19.4375 -6.140625 C 20.382812 -6.828125 20.859375 -7.78125 20.859375 -9 Z M 20.859375 -9 "/></g></g></g><g fill="#ffffff" fill-opacity="1"><g transform="translate(213.756488, 78.226117)"><g><path d="M 10.78125 -31.78125 L 10.78125 -25.515625 L 15.140625 -25.515625 L 15.140625 -20.515625 L 10.78125 -20.515625 L 10.78125 -7.78125 C 10.78125 -6.832031 10.957031 -6.15625 11.3125 -5.75 C 11.675781 -5.34375 12.367188 -5.140625 13.390625 -5.140625 C 14.140625 -5.140625 14.804688 -5.191406 15.390625 -5.296875 L 15.390625 -0.140625 C 14.054688 0.265625 12.679688 0.46875 11.265625 0.46875 C 6.492188 0.46875 4.054688 -1.941406 3.953125 -6.765625 L 3.953125 -20.515625 L 0.234375 -20.515625 L 0.234375 -25.515625 L 3.953125 -25.515625 L 3.953125 -31.78125 Z M 10.78125 -31.78125 "/></g></g></g><g fill="#ffffff" fill-opacity="1"><g transform="translate(230.069621, 78.226117)"><g><path d="M 2.96875 -3.34375 C 2.96875 -4.425781 3.332031 -5.304688 4.0625 -5.984375 C 4.789062 -6.660156 5.707031 -7 6.8125 -7 C 7.925781 -7 8.847656 -6.660156 9.578125 -5.984375 C 10.304688 -5.304688 10.671875 -4.425781 10.671875 -3.34375 C 10.671875 -2.28125 10.3125 -1.410156 9.59375 -0.734375 C 8.875 -0.0664062 7.945312 0.265625 6.8125 0.265625 C 5.695312 0.265625 4.773438 -0.0664062 4.046875 -0.734375 C 3.328125 -1.410156 2.96875 -2.28125 2.96875 -3.34375 Z M 2.96875 -3.34375 "/></g></g></g><g fill="#ffffff" fill-opacity="1"><g transform="translate(244.096087, 78.226117)"><g/></g></g><g fill="#ffffff" fill-opacity="1"><g transform="translate(256.118771, 78.226117)"><g><path d="M 15.75 -8.515625 L 23.53125 -34.328125 L 31.40625 -34.328125 L 19.453125 0 L 12.078125 0 L 0.171875 -34.328125 L 8.015625 -34.328125 Z M 15.75 -8.515625 "/></g></g></g><g fill="#ffffff" fill-opacity="1"><g transform="translate(287.684213, 78.226117)"><g><path d="M 9.8125 0 L 2.96875 0 L 2.96875 -25.515625 L 9.8125 -25.515625 Z M 2.5625 -32.109375 C 2.5625 -33.128906 2.90625 -33.96875 3.59375 -34.625 C 4.28125 -35.289062 5.210938 -35.625 6.390625 -35.625 C 7.554688 -35.625 8.484375 -35.289062 9.171875 -34.625 C 9.859375 -33.96875 10.203125 -33.128906 10.203125 -32.109375 C 10.203125 -31.066406 9.851562 -30.21875 9.15625 -29.5625 C 8.457031 -28.90625 7.535156 -28.578125 6.390625 -28.578125 C 5.242188 -28.578125 4.316406 -28.90625 3.609375 -29.5625 C 2.910156 -30.21875 2.5625 -31.066406 2.5625 -32.109375 Z M 2.5625 -32.109375 "/></g></g></g><g fill="#ffffff" fill-opacity="1"><g transform="translate(300.484836, 78.226117)"><g><path d="M 8.890625 -25.515625 L 9.09375 -22.5625 C 10.914062 -24.84375 13.363281 -25.984375 16.4375 -25.984375 C 19.132812 -25.984375 21.144531 -25.1875 22.46875 -23.59375 C 23.789062 -22.007812 24.46875 -19.640625 24.5 -16.484375 L 24.5 0 L 17.6875 0 L 17.6875 -16.3125 C 17.6875 -17.757812 17.367188 -18.804688 16.734375 -19.453125 C 16.109375 -20.109375 15.066406 -20.4375 13.609375 -20.4375 C 11.679688 -20.4375 10.238281 -19.617188 9.28125 -17.984375 L 9.28125 0 L 2.46875 0 L 2.46875 -25.515625 Z M 8.890625 -25.515625 "/></g></g></g><g fill="#ffffff" fill-opacity="1"><g transform="translate(327.52409, 78.226117)"><g><path d="M 13.21875 -5.015625 C 14.476562 -5.015625 15.5 -5.359375 16.28125 -6.046875 C 17.070312 -6.742188 17.484375 -7.664062 17.515625 -8.8125 L 23.90625 -8.8125 C 23.882812 -7.082031 23.410156 -5.5 22.484375 -4.0625 C 21.554688 -2.625 20.285156 -1.507812 18.671875 -0.71875 C 17.066406 0.0703125 15.289062 0.46875 13.34375 0.46875 C 9.695312 0.46875 6.820312 -0.6875 4.71875 -3 C 2.613281 -5.320312 1.5625 -8.523438 1.5625 -12.609375 L 1.5625 -13.0625 C 1.5625 -16.988281 2.601562 -20.125 4.6875 -22.46875 C 6.78125 -24.8125 9.648438 -25.984375 13.296875 -25.984375 C 16.484375 -25.984375 19.039062 -25.070312 20.96875 -23.25 C 22.894531 -21.4375 23.875 -19.019531 23.90625 -16 L 17.515625 -16 C 17.484375 -17.320312 17.070312 -18.394531 16.28125 -19.21875 C 15.5 -20.050781 14.460938 -20.46875 13.171875 -20.46875 C 11.585938 -20.46875 10.390625 -19.890625 9.578125 -18.734375 C 8.773438 -17.578125 8.375 -15.703125 8.375 -13.109375 L 8.375 -12.40625 C 8.375 -9.78125 8.773438 -7.890625 9.578125 -6.734375 C 10.378906 -5.585938 11.59375 -5.015625 13.21875 -5.015625 Z M 13.21875 -5.015625 "/></g></g></g><g fill="#ffffff" fill-opacity="1"><g transform="translate(352.701006, 78.226117)"><g><path d="M 14.359375 0.46875 C 10.617188 0.46875 7.570312 -0.675781 5.21875 -2.96875 C 2.875 -5.257812 1.703125 -8.316406 1.703125 -12.140625 L 1.703125 -12.796875 C 1.703125 -15.359375 2.195312 -17.648438 3.1875 -19.671875 C 4.175781 -21.691406 5.578125 -23.25 7.390625 -24.34375 C 9.203125 -25.4375 11.273438 -25.984375 13.609375 -25.984375 C 17.097656 -25.984375 19.84375 -24.878906 21.84375 -22.671875 C 23.84375 -20.472656 24.84375 -17.351562 24.84375 -13.3125 L 24.84375 -10.53125 L 8.609375 -10.53125 C 8.828125 -8.863281 9.488281 -7.523438 10.59375 -6.515625 C 11.707031 -5.515625 13.113281 -5.015625 14.8125 -5.015625 C 17.425781 -5.015625 19.472656 -5.96875 20.953125 -7.875 L 24.3125 -4.125 C 23.28125 -2.675781 21.894531 -1.546875 20.15625 -0.734375 C 18.414062 0.0664062 16.484375 0.46875 14.359375 0.46875 Z M 13.578125 -20.46875 C 12.222656 -20.46875 11.125 -20.007812 10.28125 -19.09375 C 9.445312 -18.1875 8.910156 -16.882812 8.671875 -15.1875 L 18.15625 -15.1875 L 18.15625 -15.71875 C 18.125 -17.226562 17.710938 -18.394531 16.921875 -19.21875 C 16.140625 -20.050781 15.023438 -20.46875 13.578125 -20.46875 Z M 13.578125 -20.46875 "/></g></g></g><g fill="#ffffff" fill-opacity="1"><g transform="translate(378.797304, 78.226117)"><g><path d="M 8.890625 -25.515625 L 9.09375 -22.5625 C 10.914062 -24.84375 13.363281 -25.984375 16.4375 -25.984375 C 19.132812 -25.984375 21.144531 -25.1875 22.46875 -23.59375 C 23.789062 -22.007812 24.46875 -19.640625 24.5 -16.484375 L 24.5 0 L 17.6875 0 L 17.6875 -16.3125 C 17.6875 -17.757812 17.367188 -18.804688 16.734375 -19.453125 C 16.109375 -20.109375 15.066406 -20.4375 13.609375 -20.4375 C 11.679688 -20.4375 10.238281 -19.617188 9.28125 -17.984375 L 9.28125 0 L 2.46875 0 L 2.46875 -25.515625 Z M 8.890625 -25.515625 "/></g></g></g><g fill="#ffffff" fill-opacity="1"><g transform="translate(405.836558, 78.226117)"><g><path d="M 10.78125 -31.78125 L 10.78125 -25.515625 L 15.140625 -25.515625 L 15.140625 -20.515625 L 10.78125 -20.515625 L 10.78125 -7.78125 C 10.78125 -6.832031 10.957031 -6.15625 11.3125 -5.75 C 11.675781 -5.34375 12.367188 -5.140625 13.390625 -5.140625 C 14.140625 -5.140625 14.804688 -5.191406 15.390625 -5.296875 L 15.390625 -0.140625 C 14.054688 0.265625 12.679688 0.46875 11.265625 0.46875 C 6.492188 0.46875 4.054688 -1.941406 3.953125 -6.765625 L 3.953125 -20.515625 L 0.234375 -20.515625 L 0.234375 -25.515625 L 3.953125 -25.515625 L 3.953125 -31.78125 Z M 10.78125 -31.78125 "/></g></g></g><g fill="#ffffff" fill-opacity="1"><g transform="translate(201.100767, 103.753853)"><g><path d="M 5.171875 -18.046875 L 11.0625 -3.328125 L 16.96875 -18.046875 L 20.046875 -18.046875 L 20.046875 0 L 17.671875 0 L 17.671875 -7.03125 L 17.890625 -14.609375 L 11.96875 0 L 10.140625 0 L 4.234375 -14.578125 L 4.46875 -7.03125 L 4.46875 0 L 2.09375 0 L 2.09375 -18.046875 Z M 5.171875 -18.046875 "/></g></g></g><g fill="#ffffff" fill-opacity="1"><g transform="translate(226.827003, 103.753853)"><g><path d="M 10.015625 -1.328125 C 9.117188 -0.273438 7.804688 0.25 6.078125 0.25 C 4.648438 0.25 3.5625 -0.164062 2.8125 -1 C 2.070312 -1.832031 1.695312 -3.0625 1.6875 -4.6875 L 1.6875 -13.40625 L 3.984375 -13.40625 L 3.984375 -4.75 C 3.984375 -2.71875 4.804688 -1.703125 6.453125 -1.703125 C 8.203125 -1.703125 9.367188 -2.351562 9.953125 -3.65625 L 9.953125 -13.40625 L 12.234375 -13.40625 L 12.234375 0 L 10.0625 0 Z M 10.015625 -1.328125 "/></g></g></g><g fill="#ffffff" fill-opacity="1"><g transform="translate(244.390331, 103.753853)"><g><path d="M 4.21875 0 L 1.9375 0 L 1.9375 -19.03125 L 4.21875 -19.03125 Z M 4.21875 0 "/></g></g></g><g fill="#ffffff" fill-opacity="1"><g transform="translate(254.125196, 103.753853)"><g><path d="M 4.84375 -16.65625 L 4.84375 -13.40625 L 7.34375 -13.40625 L 7.34375 -11.640625 L 4.84375 -11.640625 L 4.84375 -3.328125 C 4.84375 -2.785156 4.953125 -2.378906 5.171875 -2.109375 C 5.398438 -1.835938 5.78125 -1.703125 6.3125 -1.703125 C 6.582031 -1.703125 6.945312 -1.753906 7.40625 -1.859375 L 7.40625 0 C 6.800781 0.164062 6.21875 0.25 5.65625 0.25 C 4.625 0.25 3.847656 -0.0546875 3.328125 -0.671875 C 2.804688 -1.296875 2.546875 -2.179688 2.546875 -3.328125 L 2.546875 -11.640625 L 0.109375 -11.640625 L 0.109375 -13.40625 L 2.546875 -13.40625 L 2.546875 -16.65625 Z M 4.84375 -16.65625 "/></g></g></g><g fill="#ffffff" fill-opacity="1"><g transform="translate(265.990591, 103.753853)"><g><path d="M 4.21875 0 L 1.9375 0 L 1.9375 -13.40625 L 4.21875 -13.40625 Z M 1.75 -16.96875 C 1.75 -17.332031 1.859375 -17.640625 2.078125 -17.890625 C 2.304688 -18.148438 2.644531 -18.28125 3.09375 -18.28125 C 3.539062 -18.28125 3.878906 -18.148438 4.109375 -17.890625 C 4.335938 -17.640625 4.453125 -17.328125 4.453125 -16.953125 C 4.453125 -16.585938 4.335938 -16.28125 4.109375 -16.03125 C 3.878906 -15.78125 3.539062 -15.65625 3.09375 -15.65625 C 2.644531 -15.65625 2.304688 -15.78125 2.078125 -16.03125 C 1.859375 -16.28125 1.75 -16.59375 1.75 -16.96875 Z M 1.75 -16.96875 "/></g></g></g><g fill="#ffffff" fill-opacity="1"><g transform="translate(275.725456, 103.753853)"><g><path d="M 6.5 -6.734375 L 0.453125 -6.734375 L 0.453125 -8.59375 L 6.5 -8.59375 Z M 6.5 -6.734375 "/></g></g></g><g fill="#ffffff" fill-opacity="1"><g transform="translate(286.302623, 103.753853)"><g><path d="M 4.46875 -7.0625 L 4.46875 0 L 2.09375 0 L 2.09375 -18.046875 L 8.75 -18.046875 C 10.71875 -18.046875 12.257812 -17.539062 13.375 -16.53125 C 14.5 -15.519531 15.0625 -14.1875 15.0625 -12.53125 C 15.0625 -10.78125 14.515625 -9.429688 13.421875 -8.484375 C 12.328125 -7.535156 10.757812 -7.0625 8.71875 -7.0625 Z M 4.46875 -9 L 8.75 -9 C 10.019531 -9 10.992188 -9.296875 11.671875 -9.890625 C 12.347656 -10.492188 12.6875 -11.363281 12.6875 -12.5 C 12.6875 -13.570312 12.347656 -14.429688 11.671875 -15.078125 C 10.992188 -15.722656 10.066406 -16.054688 8.890625 -16.078125 L 4.46875 -16.078125 Z M 4.46875 -9 "/></g></g></g><g fill="#ffffff" fill-opacity="1"><g transform="translate(305.885002, 103.753853)"><g><path d="M 10.015625 -1.328125 C 9.117188 -0.273438 7.804688 0.25 6.078125 0.25 C 4.648438 0.25 3.5625 -0.164062 2.8125 -1 C 2.070312 -1.832031 1.695312 -3.0625 1.6875 -4.6875 L 1.6875 -13.40625 L 3.984375 -13.40625 L 3.984375 -4.75 C 3.984375 -2.71875 4.804688 -1.703125 6.453125 -1.703125 C 8.203125 -1.703125 9.367188 -2.351562 9.953125 -3.65625 L 9.953125 -13.40625 L 12.234375 -13.40625 L 12.234375 0 L 10.0625 0 Z M 10.015625 -1.328125 "/></g></g></g><g fill="#ffffff" fill-opacity="1"><g transform="translate(323.44833, 103.753853)"><g><path d="M 8.21875 -11.34375 C 7.863281 -11.40625 7.488281 -11.4375 7.09375 -11.4375 C 5.582031 -11.4375 4.5625 -10.796875 4.03125 -9.515625 L 4.03125 0 L 1.734375 0 L 1.734375 -13.40625 L 3.96875 -13.40625 L 4 -11.859375 C 4.75 -13.054688 5.816406 -13.65625 7.203125 -13.65625 C 7.648438 -13.65625 7.988281 -13.597656 8.21875 -13.484375 Z M 8.21875 -11.34375 "/></g></g></g><g fill="#ffffff" fill-opacity="1"><g transform="translate(335.611009, 103.753853)"><g><path d="M 13.0625 -6.546875 C 13.0625 -4.515625 12.59375 -2.875 11.65625 -1.625 C 10.726562 -0.375 9.46875 0.25 7.875 0.25 C 6.238281 0.25 4.957031 -0.265625 4.03125 -1.296875 L 4.03125 5.15625 L 1.734375 5.15625 L 1.734375 -13.40625 L 3.828125 -13.40625 L 3.9375 -11.921875 C 4.875 -13.078125 6.171875 -13.65625 7.828125 -13.65625 C 9.441406 -13.65625 10.71875 -13.046875 11.65625 -11.828125 C 12.59375 -10.617188 13.0625 -8.929688 13.0625 -6.765625 Z M 10.765625 -6.8125 C 10.765625 -8.320312 10.441406 -9.515625 9.796875 -10.390625 C 9.148438 -11.265625 8.269531 -11.703125 7.15625 -11.703125 C 5.757812 -11.703125 4.71875 -11.085938 4.03125 -9.859375 L 4.03125 -3.453125 C 4.71875 -2.234375 5.765625 -1.625 7.171875 -1.625 C 8.273438 -1.625 9.148438 -2.054688 9.796875 -2.921875 C 10.441406 -3.796875 10.765625 -5.09375 10.765625 -6.8125 Z M 10.765625 -6.8125 "/></g></g></g><g fill="#ffffff" fill-opacity="1"><g transform="translate(353.422074, 103.753853)"><g><path d="M 1.125 -6.828125 C 1.125 -8.140625 1.378906 -9.316406 1.890625 -10.359375 C 2.410156 -11.410156 3.128906 -12.222656 4.046875 -12.796875 C 4.972656 -13.367188 6.03125 -13.65625 7.21875 -13.65625 C 9.039062 -13.65625 10.515625 -13.019531 11.640625 -11.75 C 12.765625 -10.488281 13.328125 -8.8125 13.328125 -6.71875 L 13.328125 -6.546875 C 13.328125 -5.242188 13.078125 -4.070312 12.578125 -3.03125 C 12.078125 -2 11.363281 -1.191406 10.4375 -0.609375 C 9.507812 -0.0351562 8.441406 0.25 7.234375 0.25 C 5.421875 0.25 3.945312 -0.378906 2.8125 -1.640625 C 1.6875 -2.910156 1.125 -4.585938 1.125 -6.671875 Z M 3.4375 -6.546875 C 3.4375 -5.066406 3.78125 -3.875 4.46875 -2.96875 C 5.15625 -2.070312 6.078125 -1.625 7.234375 -1.625 C 8.398438 -1.625 9.328125 -2.078125 10.015625 -2.984375 C 10.703125 -3.898438 11.046875 -5.179688 11.046875 -6.828125 C 11.046875 -8.296875 10.695312 -9.484375 10 -10.390625 C 9.300781 -11.304688 8.375 -11.765625 7.21875 -11.765625 C 6.082031 -11.765625 5.164062 -11.3125 4.46875 -10.40625 C 3.78125 -9.507812 3.4375 -8.222656 3.4375 -6.546875 Z M 3.4375 -6.546875 "/></g></g></g><g fill="#ffffff" fill-opacity="1"><g transform="translate(371.468488, 103.753853)"><g><path d="M 9.546875 -3.5625 C 9.546875 -4.175781 9.3125 -4.65625 8.84375 -5 C 8.375 -5.34375 7.554688 -5.632812 6.390625 -5.875 C 5.234375 -6.125 4.3125 -6.421875 3.625 -6.765625 C 2.945312 -7.117188 2.445312 -7.535156 2.125 -8.015625 C 1.800781 -8.492188 1.640625 -9.0625 1.640625 -9.71875 C 1.640625 -10.820312 2.101562 -11.753906 3.03125 -12.515625 C 3.957031 -13.273438 5.144531 -13.65625 6.59375 -13.65625 C 8.113281 -13.65625 9.34375 -13.257812 10.28125 -12.46875 C 11.226562 -11.6875 11.703125 -10.6875 11.703125 -9.46875 L 9.40625 -9.46875 C 9.40625 -10.09375 9.140625 -10.628906 8.609375 -11.078125 C 8.078125 -11.535156 7.40625 -11.765625 6.59375 -11.765625 C 5.757812 -11.765625 5.101562 -11.582031 4.625 -11.21875 C 4.15625 -10.863281 3.921875 -10.390625 3.921875 -9.796875 C 3.921875 -9.242188 4.140625 -8.828125 4.578125 -8.546875 C 5.015625 -8.265625 5.804688 -7.992188 6.953125 -7.734375 C 8.097656 -7.484375 9.023438 -7.179688 9.734375 -6.828125 C 10.441406 -6.472656 10.96875 -6.046875 11.3125 -5.546875 C 11.65625 -5.046875 11.828125 -4.4375 11.828125 -3.71875 C 11.828125 -2.519531 11.347656 -1.554688 10.390625 -0.828125 C 9.429688 -0.109375 8.191406 0.25 6.671875 0.25 C 5.597656 0.25 4.644531 0.0625 3.8125 -0.3125 C 2.988281 -0.695312 2.34375 -1.226562 1.875 -1.90625 C 1.40625 -2.59375 1.171875 -3.332031 1.171875 -4.125 L 3.46875 -4.125 C 3.507812 -3.351562 3.816406 -2.742188 4.390625 -2.296875 C 4.960938 -1.847656 5.722656 -1.625 6.671875 -1.625 C 7.535156 -1.625 8.226562 -1.796875 8.75 -2.140625 C 9.28125 -2.492188 9.546875 -2.96875 9.546875 -3.5625 Z M 9.546875 -3.5625 "/></g></g></g><g fill="#ffffff" fill-opacity="1"><g transform="translate(388.12758, 103.753853)"><g><path d="M 7.296875 0.25 C 5.484375 0.25 4.003906 -0.34375 2.859375 -1.53125 C 1.722656 -2.726562 1.15625 -4.328125 1.15625 -6.328125 L 1.15625 -6.75 C 1.15625 -8.082031 1.40625 -9.269531 1.90625 -10.3125 C 2.414062 -11.351562 3.128906 -12.171875 4.046875 -12.765625 C 4.960938 -13.359375 5.953125 -13.65625 7.015625 -13.65625 C 8.753906 -13.65625 10.109375 -13.078125 11.078125 -11.921875 C 12.046875 -10.773438 12.53125 -9.132812 12.53125 -7 L 12.53125 -6.046875 L 3.4375 -6.046875 C 3.476562 -4.722656 3.867188 -3.65625 4.609375 -2.84375 C 5.347656 -2.03125 6.285156 -1.625 7.421875 -1.625 C 8.234375 -1.625 8.921875 -1.785156 9.484375 -2.109375 C 10.046875 -2.441406 10.535156 -2.882812 10.953125 -3.4375 L 12.359375 -2.34375 C 11.234375 -0.613281 9.546875 0.25 7.296875 0.25 Z M 7.015625 -11.765625 C 6.085938 -11.765625 5.304688 -11.425781 4.671875 -10.75 C 4.046875 -10.082031 3.660156 -9.144531 3.515625 -7.9375 L 10.234375 -7.9375 L 10.234375 -8.109375 C 10.171875 -9.265625 9.859375 -10.160156 9.296875 -10.796875 C 8.734375 -11.441406 7.972656 -11.765625 7.015625 -11.765625 Z M 7.015625 -11.765625 "/></g></g></g><g fill="#ffffff" fill-opacity="1"><g transform="translate(215.603711, 124.176041)"><g><path d="M 15.359375 -5.71875 C 15.140625 -3.8125 14.4375 -2.335938 13.25 -1.296875 C 12.0625 -0.265625 10.488281 0.25 8.53125 0.25 C 6.394531 0.25 4.679688 -0.515625 3.390625 -2.046875 C 2.109375 -3.578125 1.46875 -5.617188 1.46875 -8.171875 L 1.46875 -9.90625 C 1.46875 -11.582031 1.765625 -13.054688 2.359375 -14.328125 C 2.960938 -15.609375 3.8125 -16.585938 4.90625 -17.265625 C 6.007812 -17.941406 7.285156 -18.28125 8.734375 -18.28125 C 10.648438 -18.28125 12.1875 -17.742188 13.34375 -16.671875 C 14.5 -15.609375 15.171875 -14.128906 15.359375 -12.234375 L 12.96875 -12.234375 C 12.757812 -13.671875 12.3125 -14.710938 11.625 -15.359375 C 10.9375 -16.003906 9.972656 -16.328125 8.734375 -16.328125 C 7.210938 -16.328125 6.019531 -15.765625 5.15625 -14.640625 C 4.289062 -13.515625 3.859375 -11.914062 3.859375 -9.84375 L 3.859375 -8.109375 C 3.859375 -6.148438 4.265625 -4.59375 5.078125 -3.4375 C 5.898438 -2.28125 7.050781 -1.703125 8.53125 -1.703125 C 9.84375 -1.703125 10.851562 -2 11.5625 -2.59375 C 12.269531 -3.195312 12.738281 -4.238281 12.96875 -5.71875 Z M 15.359375 -5.71875 "/></g></g></g><g fill="#ffffff" fill-opacity="1"><g transform="translate(235.693949, 124.176041)"><g><path d="M 1.125 -6.828125 C 1.125 -8.140625 1.378906 -9.316406 1.890625 -10.359375 C 2.410156 -11.410156 3.128906 -12.222656 4.046875 -12.796875 C 4.972656 -13.367188 6.03125 -13.65625 7.21875 -13.65625 C 9.039062 -13.65625 10.515625 -13.019531 11.640625 -11.75 C 12.765625 -10.488281 13.328125 -8.8125 13.328125 -6.71875 L 13.328125 -6.546875 C 13.328125 -5.242188 13.078125 -4.070312 12.578125 -3.03125 C 12.078125 -2 11.363281 -1.191406 10.4375 -0.609375 C 9.507812 -0.0351562 8.441406 0.25 7.234375 0.25 C 5.421875 0.25 3.945312 -0.378906 2.8125 -1.640625 C 1.6875 -2.910156 1.125 -4.585938 1.125 -6.671875 Z M 3.4375 -6.546875 C 3.4375 -5.066406 3.78125 -3.875 4.46875 -2.96875 C 5.15625 -2.070312 6.078125 -1.625 7.234375 -1.625 C 8.398438 -1.625 9.328125 -2.078125 10.015625 -2.984375 C 10.703125 -3.898438 11.046875 -5.179688 11.046875 -6.828125 C 11.046875 -8.296875 10.695312 -9.484375 10 -10.390625 C 9.300781 -11.304688 8.375 -11.765625 7.21875 -11.765625 C 6.082031 -11.765625 5.164062 -11.3125 4.46875 -10.40625 C 3.78125 -9.507812 3.4375 -8.222656 3.4375 -6.546875 Z M 3.4375 -6.546875 "/></g></g></g><g fill="#ffffff" fill-opacity="1"><g transform="translate(253.740363, 124.176041)"><g><path d="M 1.125 -6.828125 C 1.125 -8.140625 1.378906 -9.316406 1.890625 -10.359375 C 2.410156 -11.410156 3.128906 -12.222656 4.046875 -12.796875 C 4.972656 -13.367188 6.03125 -13.65625 7.21875 -13.65625 C 9.039062 -13.65625 10.515625 -13.019531 11.640625 -11.75 C 12.765625 -10.488281 13.328125 -8.8125 13.328125 -6.71875 L 13.328125 -6.546875 C 13.328125 -5.242188 13.078125 -4.070312 12.578125 -3.03125 C 12.078125 -2 11.363281 -1.191406 10.4375 -0.609375 C 9.507812 -0.0351562 8.441406 0.25 7.234375 0.25 C 5.421875 0.25 3.945312 -0.378906 2.8125 -1.640625 C 1.6875 -2.910156 1.125 -4.585938 1.125 -6.671875 Z M 3.4375 -6.546875 C 3.4375 -5.066406 3.78125 -3.875 4.46875 -2.96875 C 5.15625 -2.070312 6.078125 -1.625 7.234375 -1.625 C 8.398438 -1.625 9.328125 -2.078125 10.015625 -2.984375 C 10.703125 -3.898438 11.046875 -5.179688 11.046875 -6.828125 C 11.046875 -8.296875 10.695312 -9.484375 10 -10.390625 C 9.300781 -11.304688 8.375 -11.765625 7.21875 -11.765625 C 6.082031 -11.765625 5.164062 -11.3125 4.46875 -10.40625 C 3.78125 -9.507812 3.4375 -8.222656 3.4375 -6.546875 Z M 3.4375 -6.546875 "/></g></g></g><g fill="#ffffff" fill-opacity="1"><g transform="translate(271.786777, 124.176041)"><g><path d="M 13.0625 -6.546875 C 13.0625 -4.515625 12.59375 -2.875 11.65625 -1.625 C 10.726562 -0.375 9.46875 0.25 7.875 0.25 C 6.238281 0.25 4.957031 -0.265625 4.03125 -1.296875 L 4.03125 5.15625 L 1.734375 5.15625 L 1.734375 -13.40625 L 3.828125 -13.40625 L 3.9375 -11.921875 C 4.875 -13.078125 6.171875 -13.65625 7.828125 -13.65625 C 9.441406 -13.65625 10.71875 -13.046875 11.65625 -11.828125 C 12.59375 -10.617188 13.0625 -8.929688 13.0625 -6.765625 Z M 10.765625 -6.8125 C 10.765625 -8.320312 10.441406 -9.515625 9.796875 -10.390625 C 9.148438 -11.265625 8.269531 -11.703125 7.15625 -11.703125 C 5.757812 -11.703125 4.71875 -11.085938 4.03125 -9.859375 L 4.03125 -3.453125 C 4.71875 -2.234375 5.765625 -1.625 7.171875 -1.625 C 8.273438 -1.625 9.148438 -2.054688 9.796875 -2.921875 C 10.441406 -3.796875 10.765625 -5.09375 10.765625 -6.8125 Z M 10.765625 -6.8125 "/></g></g></g><g fill="#ffffff" fill-opacity="1"><g transform="translate(289.597842, 124.176041)"><g><path d="M 7.296875 0.25 C 5.484375 0.25 4.003906 -0.34375 2.859375 -1.53125 C 1.722656 -2.726562 1.15625 -4.328125 1.15625 -6.328125 L 1.15625 -6.75 C 1.15625 -8.082031 1.40625 -9.269531 1.90625 -10.3125 C 2.414062 -11.351562 3.128906 -12.171875 4.046875 -12.765625 C 4.960938 -13.359375 5.953125 -13.65625 7.015625 -13.65625 C 8.753906 -13.65625 10.109375 -13.078125 11.078125 -11.921875 C 12.046875 -10.773438 12.53125 -9.132812 12.53125 -7 L 12.53125 -6.046875 L 3.4375 -6.046875 C 3.476562 -4.722656 3.867188 -3.65625 4.609375 -2.84375 C 5.347656 -2.03125 6.285156 -1.625 7.421875 -1.625 C 8.234375 -1.625 8.921875 -1.785156 9.484375 -2.109375 C 10.046875 -2.441406 10.535156 -2.882812 10.953125 -3.4375 L 12.359375 -2.34375 C 11.234375 -0.613281 9.546875 0.25 7.296875 0.25 Z M 7.015625 -11.765625 C 6.085938 -11.765625 5.304688 -11.425781 4.671875 -10.75 C 4.046875 -10.082031 3.660156 -9.144531 3.515625 -7.9375 L 10.234375 -7.9375 L 10.234375 -8.109375 C 10.171875 -9.265625 9.859375 -10.160156 9.296875 -10.796875 C 8.734375 -11.441406 7.972656 -11.765625 7.015625 -11.765625 Z M 7.015625 -11.765625 "/></g></g></g><g fill="#ffffff" fill-opacity="1"><g transform="translate(306.616151, 124.176041)"><g><path d="M 8.21875 -11.34375 C 7.863281 -11.40625 7.488281 -11.4375 7.09375 -11.4375 C 5.582031 -11.4375 4.5625 -10.796875 4.03125 -9.515625 L 4.03125 0 L 1.734375 0 L 1.734375 -13.40625 L 3.96875 -13.40625 L 4 -11.859375 C 4.75 -13.054688 5.816406 -13.65625 7.203125 -13.65625 C 7.648438 -13.65625 7.988281 -13.597656 8.21875 -13.484375 Z M 8.21875 -11.34375 "/></g></g></g><g fill="#ffffff" fill-opacity="1"><g transform="translate(318.77883, 124.176041)"><g><path d="M 10.015625 0 C 9.878906 -0.257812 9.769531 -0.726562 9.6875 -1.40625 C 8.625 -0.300781 7.351562 0.25 5.875 0.25 C 4.550781 0.25 3.460938 -0.125 2.609375 -0.875 C 1.765625 -1.625 1.34375 -2.570312 1.34375 -3.71875 C 1.34375 -5.113281 1.875 -6.195312 2.9375 -6.96875 C 4 -7.738281 5.492188 -8.125 7.421875 -8.125 L 9.65625 -8.125 L 9.65625 -9.1875 C 9.65625 -9.988281 9.414062 -10.625 8.9375 -11.09375 C 8.457031 -11.570312 7.75 -11.8125 6.8125 -11.8125 C 6 -11.8125 5.3125 -11.601562 4.75 -11.1875 C 4.195312 -10.769531 3.921875 -10.269531 3.921875 -9.6875 L 1.625 -9.6875 C 1.625 -10.351562 1.859375 -11 2.328125 -11.625 C 2.804688 -12.25 3.453125 -12.742188 4.265625 -13.109375 C 5.078125 -13.472656 5.972656 -13.65625 6.953125 -13.65625 C 8.492188 -13.65625 9.703125 -13.269531 10.578125 -12.5 C 11.453125 -11.726562 11.90625 -10.664062 11.9375 -9.3125 L 11.9375 -3.140625 C 11.9375 -1.898438 12.097656 -0.921875 12.421875 -0.203125 L 12.421875 0 Z M 6.203125 -1.75 C 6.921875 -1.75 7.601562 -1.929688 8.25 -2.296875 C 8.894531 -2.671875 9.363281 -3.15625 9.65625 -3.75 L 9.65625 -6.5 L 7.859375 -6.5 C 5.046875 -6.5 3.640625 -5.679688 3.640625 -4.046875 C 3.640625 -3.328125 3.878906 -2.765625 4.359375 -2.359375 C 4.835938 -1.953125 5.453125 -1.75 6.203125 -1.75 Z M 6.203125 -1.75 "/></g></g></g><g fill="#ffffff" fill-opacity="1"><g transform="translate(336.156356, 124.176041)"><g><path d="M 4.84375 -16.65625 L 4.84375 -13.40625 L 7.34375 -13.40625 L 7.34375 -11.640625 L 4.84375 -11.640625 L 4.84375 -3.328125 C 4.84375 -2.785156 4.953125 -2.378906 5.171875 -2.109375 C 5.398438 -1.835938 5.78125 -1.703125 6.3125 -1.703125 C 6.582031 -1.703125 6.945312 -1.753906 7.40625 -1.859375 L 7.40625 0 C 6.800781 0.164062 6.21875 0.25 5.65625 0.25 C 4.625 0.25 3.847656 -0.0546875 3.328125 -0.671875 C 2.804688 -1.296875 2.546875 -2.179688 2.546875 -3.328125 L 2.546875 -11.640625 L 0.109375 -11.640625 L 0.109375 -13.40625 L 2.546875 -13.40625 L 2.546875 -16.65625 Z M 4.84375 -16.65625 "/></g></g></g><g fill="#ffffff" fill-opacity="1"><g transform="translate(348.021752, 124.176041)"><g><path d="M 4.21875 0 L 1.9375 0 L 1.9375 -13.40625 L 4.21875 -13.40625 Z M 1.75 -16.96875 C 1.75 -17.332031 1.859375 -17.640625 2.078125 -17.890625 C 2.304688 -18.148438 2.644531 -18.28125 3.09375 -18.28125 C 3.539062 -18.28125 3.878906 -18.148438 4.109375 -17.890625 C 4.335938 -17.640625 4.453125 -17.328125 4.453125 -16.953125 C 4.453125 -16.585938 4.335938 -16.28125 4.109375 -16.03125 C 3.878906 -15.78125 3.539062 -15.65625 3.09375 -15.65625 C 2.644531 -15.65625 2.304688 -15.78125 2.078125 -16.03125 C 1.859375 -16.28125 1.75 -16.59375 1.75 -16.96875 Z M 1.75 -16.96875 "/></g></g></g><g fill="#ffffff" fill-opacity="1"><g transform="translate(357.756616, 124.176041)"><g><path d="M 6.15625 -3.109375 L 9.484375 -13.40625 L 11.8125 -13.40625 L 7.015625 0 L 5.265625 0 L 0.40625 -13.40625 L 2.75 -13.40625 Z M 6.15625 -3.109375 "/></g></g></g><g fill="#ffffff" fill-opacity="1"><g transform="translate(373.622952, 124.176041)"><g><path d="M 7.296875 0.25 C 5.484375 0.25 4.003906 -0.34375 2.859375 -1.53125 C 1.722656 -2.726562 1.15625 -4.328125 1.15625 -6.328125 L 1.15625 -6.75 C 1.15625 -8.082031 1.40625 -9.269531 1.90625 -10.3125 C 2.414062 -11.351562 3.128906 -12.171875 4.046875 -12.765625 C 4.960938 -13.359375 5.953125 -13.65625 7.015625 -13.65625 C 8.753906 -13.65625 10.109375 -13.078125 11.078125 -11.921875 C 12.046875 -10.773438 12.53125 -9.132812 12.53125 -7 L 12.53125 -6.046875 L 3.4375 -6.046875 C 3.476562 -4.722656 3.867188 -3.65625 4.609375 -2.84375 C 5.347656 -2.03125 6.285156 -1.625 7.421875 -1.625 C 8.234375 -1.625 8.921875 -1.785156 9.484375 -2.109375 C 10.046875 -2.441406 10.535156 -2.882812 10.953125 -3.4375 L 12.359375 -2.34375 C 11.234375 -0.613281 9.546875 0.25 7.296875 0.25 Z M 7.015625 -11.765625 C 6.085938 -11.765625 5.304688 -11.425781 4.671875 -10.75 C 4.046875 -10.082031 3.660156 -9.144531 3.515625 -7.9375 L 10.234375 -7.9375 L 10.234375 -8.109375 C 10.171875 -9.265625 9.859375 -10.160156 9.296875 -10.796875 C 8.734375 -11.441406 7.972656 -11.765625 7.015625 -11.765625 Z M 7.015625 -11.765625 "/></g></g></g><path fill="#fdff00" d="M 75.945312 47.84375 L 83.5 24.160156 C 83.871094 22.996094 85.519531 23.011719 85.867188 24.179688 L 92.917969 47.867188 C 93.152344 48.660156 92.558594 49.460938 91.730469 49.460938 L 77.125 49.460938 C 76.289062 49.460938 75.691406 48.644531 75.945312 47.84375 Z M 75.945312 47.84375 " fill-opacity="1" fill-rule="nonzero"/><path fill="#fdff00" d="M 107.855469 54.820312 L 129.257812 42.199219 C 130.308594 41.582031 131.523438 42.691406 131.007812 43.796875 L 120.492188 66.15625 C 120.136719 66.90625 119.164062 67.105469 118.546875 66.554688 L 107.65625 56.816406 C 107.035156 56.253906 107.132812 55.25 107.855469 54.820312 Z M 107.855469 54.820312 " fill-opacity="1" fill-rule="nonzero"/><path fill="#fdff00" d="M 48.3125 67.351562 L 38.171875 44.65625 C 37.675781 43.542969 38.914062 42.453125 39.953125 43.09375 L 60.976562 56.050781 C 61.683594 56.488281 61.773438 57.480469 61.15625 58.03125 L 50.265625 67.769531 C 49.640625 68.332031 48.652344 68.117188 48.3125 67.351562 Z M 48.3125 67.351562 " fill-opacity="1" fill-rule="nonzero"/><path fill="#fdff00" d="M 44.710938 101.003906 L 21.046875 93.445312 C 19.886719 93.074219 19.902344 91.425781 21.070312 91.078125 L 44.734375 84.023438 C 45.53125 83.785156 46.328125 84.378906 46.328125 85.210938 L 46.328125 99.824219 C 46.328125 100.664062 45.511719 101.261719 44.710938 101.003906 Z M 44.710938 101.003906 " fill-opacity="1" fill-rule="nonzero"/><path fill="#fdff00" d="M 118.964844 89.964844 C 118.425781 107.5625 103.730469 121.386719 86.148438 120.84375 C 68.5625 120.304688 54.75 105.597656 55.292969 88 C 55.832031 70.402344 70.527344 56.574219 88.109375 57.117188 C 105.691406 57.660156 119.507812 72.363281 118.964844 89.964844 Z M 118.964844 89.964844 " fill-opacity="1" fill-rule="nonzero"/><path fill="#fdff00" d="M 124.109375 82.824219 L 147.773438 90.382812 C 148.9375 90.753906 148.917969 92.402344 147.75 92.75 L 124.085938 99.808594 C 123.292969 100.042969 122.492188 99.449219 122.492188 98.617188 L 122.492188 84.003906 C 122.492188 83.164062 123.3125 82.570312 124.109375 82.824219 Z M 124.109375 82.824219 " fill-opacity="1" fill-rule="nonzero"/><g clip-path="url(#2c14291246)"><path fill="#09a6f3" d="M 113.417969 115.128906 C 113.960938 114.339844 113.375 113.296875 112.414062 113.296875 L 60.265625 113.296875 C 59.308594 113.296875 58.71875 114.339844 59.261719 115.128906 C 65.179688 123.753906 75.101562 129.410156 86.339844 129.410156 C 97.582031 129.410156 107.503906 123.753906 113.417969 115.128906 Z M 113.417969 115.128906 " fill-opacity="1" fill-rule="evenodd"/></g><path fill="#09a6f3" d="M 37.039062 112.054688 L 136.117188 112.054688 C 136.28125 112.054688 136.441406 112.089844 136.589844 112.152344 C 136.742188 112.214844 136.878906 112.304688 136.992188 112.421875 C 137.109375 112.535156 137.199219 112.667969 137.261719 112.820312 C 137.324219 112.972656 137.355469 113.132812 137.355469 113.296875 C 137.355469 113.460938 137.324219 113.617188 137.261719 113.769531 C 137.199219 113.921875 137.109375 114.054688 136.992188 114.171875 C 136.878906 114.289062 136.742188 114.378906 136.589844 114.441406 C 136.441406 114.503906 136.28125 114.535156 136.117188 114.535156 L 37.039062 114.535156 C 36.875 114.535156 36.71875 114.503906 36.566406 114.441406 C 36.414062 114.378906 36.28125 114.289062 36.164062 114.171875 C 36.046875 114.054688 35.957031 113.921875 35.894531 113.769531 C 35.832031 113.617188 35.800781 113.460938 35.800781 113.296875 C 35.800781 113.132812 35.832031 112.972656 35.894531 112.820312 C 35.957031 112.667969 36.046875 112.535156 36.164062 112.421875 C 36.28125 112.304688 36.414062 112.214844 36.566406 112.152344 C 36.71875 112.089844 36.875 112.054688 37.039062 112.054688 Z M 37.039062 112.054688 " fill-opacity="1" fill-rule="nonzero"/><path stroke-linecap="butt" transform="matrix(0.173841, -0.206589, 0.206589, 0.173841, 50.222578, 62.623731)" fill="none" stroke-linejoin="miter" d="M 13.083692 39.419055 C 11.029411 39.427042 9.212861 39.178259 7.613656 38.670949 C 6.014451 38.16364 4.696043 37.495679 3.636292 36.685696 C 2.567225 35.864643 1.762621 34.953408 1.189269 33.979936 L 4.39181 30.056018 L 4.904941 30.059118 C 5.787445 31.377509 6.918748 32.429815 8.289537 33.204964 C 9.649256 33.989429 11.24792 34.383744 13.076212 34.37684 C 14.637746 34.367508 15.80508 34.047007 16.611422 33.387393 C 17.39738 32.726024 17.793187 31.825711 17.8006 30.666069 C 17.799107 29.967719 17.664777 29.381149 17.417993 28.908115 C 17.16014 28.444396 16.743259 28.038863 16.146964 27.689762 C 15.548914 27.361046 14.752822 27.066622 13.745861 26.836189 L 9.949813 25.965216 C 7.301664 25.357344 5.324052 24.355402 4.028045 22.950076 C 2.732039 21.544749 2.078624 19.712144 2.077114 17.463329 C 2.076556 15.799871 2.490043 14.336341 3.328643 13.063426 C 4.165489 11.810895 5.37966 10.827009 6.980472 10.122837 C 8.560898 9.416909 10.469106 9.078041 12.697536 9.074777 C 14.966736 9.075022 16.913155 9.365789 18.535041 9.967463 C 20.156926 10.569136 21.535817 11.488735 22.651327 12.724504 L 19.75456 16.674744 L 19.250744 16.682714 C 18.422245 15.810494 17.463204 15.142664 16.381182 14.710678 C 15.310229 14.269378 14.075526 14.060413 12.689895 14.054083 C 11.087591 14.059905 9.871927 14.345441 9.033589 14.899622 C 8.204566 15.464872 7.787832 16.250436 7.794458 17.246999 C 7.797033 18.171338 8.082159 18.914639 8.660906 19.467589 C 9.250723 20.011224 10.260521 20.44726 11.712439 20.757068 L 15.585976 21.562835 C 18.439728 22.16787 20.52858 23.189656 21.810007 24.645067 C 23.102504 26.091163 23.74134 27.973853 23.756215 30.305962 C 23.75205 32.143569 23.346665 33.751548 22.5622 35.111267 C 21.766665 36.480301 20.56586 37.547482 18.961539 38.292424 C 17.366533 39.048436 15.404731 39.413495 13.083692 39.419055 Z M 13.083692 39.419055 " stroke="#ffffff" stroke-width="3.1" stroke-opacity="1" stroke-miterlimit="4"/><path stroke-linecap="butt" transform="matrix(0.20925, -0.17063, 0.17063, 0.20925, 55.88287, 56.166774)" fill="none" stroke-linejoin="miter" d="M 23.656318 9.495262 L 23.651167 14.400713 L 15.137139 14.402526 L 15.128807 38.999987 L 9.328587 38.993257 L 9.316563 14.397865 L 0.802535 14.399679 L 0.807686 9.494228 Z M 23.656318 9.495262 " stroke="#ffffff" stroke-width="3.1" stroke-opacity="1" stroke-miterlimit="4"/><path stroke-linecap="butt" transform="matrix(0.230768, -0.140165, 0.140165, 0.230768, 62.225597, 51.278473)" fill="none" stroke-linejoin="miter" d="M 5.690871 39.185012 C 4.983761 39.178702 4.359267 39.036373 3.805024 38.750514 C 3.258292 38.45229 2.836127 38.060454 2.553551 37.550276 C 2.258609 37.032588 2.11782 36.456185 2.118819 35.813558 C 2.119817 35.17093 2.271856 34.586189 2.547548 34.076552 C 2.843117 33.562062 3.252173 33.167283 3.809613 32.862632 C 4.347177 32.562835 4.975697 32.419847 5.690318 32.413792 C 6.417304 32.415247 7.054163 32.565087 7.600895 32.863311 C 8.142772 33.14166 8.557427 33.545861 8.852368 34.063549 C 9.142455 34.561361 9.275734 35.150129 9.287101 35.800268 C 9.284275 36.780329 8.964804 37.584992 8.308813 38.219111 C 7.652822 38.853229 6.775167 39.18344 5.690871 39.185012 Z M 5.690871 39.185012 " stroke="#ffffff" stroke-width="3.1" stroke-opacity="1" stroke-miterlimit="4"/><path stroke-linecap="butt" transform="matrix(0.256778, -0.083457, 0.083457, 0.256778, 69.4321, 47.295342)" fill="none" stroke-linejoin="miter" d="M 17.544506 38.993296 L 10.498777 39.000416 L 0.523119 9.501289 L 6.717843 9.491405 L 13.882955 31.490021 L 14.386197 31.486244 L 21.454607 9.504347 L 27.484565 9.486549 Z M 17.544506 38.993296 " stroke="#ffffff" stroke-width="3.1" stroke-opacity="1" stroke-miterlimit="4"/><path stroke-linecap="butt" transform="matrix(0.266718, -0.041972, 0.041972, 0.266718, 78.163857, 44.745383)" fill="none" stroke-linejoin="miter" d="M 3.837378 9.496431 L 9.667169 9.49116 L 9.665881 39.001908 L 3.838339 38.992887 Z M 3.837378 9.496431 " stroke="#ffffff" stroke-width="3.1" stroke-opacity="1" stroke-miterlimit="4"/><path stroke-linecap="butt" transform="matrix(0.26996, 0.00466503, -0.00466503, 0.26996, 83.389885, 43.835167)" fill="none" stroke-linejoin="miter" d="M 9.488905 39.008502 L 3.831171 39.004982 L 3.827773 9.501216 L 10.512803 9.501454 L 22.359247 28.512572 L 22.893218 28.430996 L 22.884247 9.490246 L 28.498585 9.494515 L 28.501983 38.998282 L 22.526009 39.000261 L 9.991658 18.698752 L 9.486618 18.779828 Z M 9.488905 39.008502 " stroke="#ffffff" stroke-width="3.1" stroke-opacity="1" stroke-miterlimit="4"/><path stroke-linecap="butt" transform="matrix(0.261954, 0.0654241, -0.0654241, 0.261954, 94.15165, 44.314175)" fill="none" stroke-linejoin="miter" d="M 16.125829 39.419654 C 13.413443 39.426045 11.006462 38.864064 8.932961 37.726698 C 6.877002 36.599864 5.245752 34.904685 4.081321 32.630644 C 2.906359 30.374145 2.324529 27.566885 2.31477 24.243948 C 2.322554 20.931542 2.90568 18.131569 4.071159 15.872102 C 5.247169 13.595093 6.865169 11.893647 8.939194 10.764259 C 11.013219 9.63487 13.406424 9.06698 16.122317 9.074626 C 18.954006 9.068263 21.375023 9.626739 23.367825 10.739523 C 25.343085 11.841776 26.767307 13.543925 27.601903 15.810872 L 23.348504 18.424024 L 22.850245 18.399347 C 22.21198 16.858789 21.35606 15.760304 20.278981 15.089853 C 19.191371 14.436945 17.80894 14.096262 16.124664 14.099381 C 13.678956 14.098816 11.762906 14.905422 10.394057 16.529729 C 9.025208 18.154037 8.340377 20.725907 8.339563 24.245341 C 8.33875 27.764774 9.022395 30.322925 10.397511 31.947867 C 11.769121 33.558772 13.674268 34.380297 16.119976 34.380862 C 19.951703 34.378239 22.306609 32.522572 23.163645 28.789293 L 23.668929 28.782392 L 27.973838 31.032596 C 27.166143 33.829008 25.783147 35.934033 23.835381 37.330128 C 21.887615 38.726222 19.318933 39.42741 16.125829 39.419654 Z M 16.125829 39.419654 " stroke="#ffffff" stroke-width="3.1" stroke-opacity="1" stroke-miterlimit="4"/><path stroke-linecap="butt" transform="matrix(0.243389, 0.116884, -0.116884, 0.243389, 103.465104, 46.883927)" fill="none" stroke-linejoin="miter" d="M 9.663977 26.040929 L 9.671265 34.11029 L 23.751827 34.121153 L 23.75172 39.000229 L 3.834215 38.999878 L 3.838466 9.498993 L 23.432507 9.49419 L 23.4324 14.373266 L 9.66226 14.373822 L 9.662023 21.291238 L 21.697982 21.288928 L 21.686895 26.044883 Z M 9.663977 26.040929 " stroke="#ffffff" stroke-width="3.1" stroke-opacity="1" stroke-miterlimit="4"/><path stroke-linecap="butt" transform="matrix(0.212861, 0.166102, -0.166102, 0.212861, 111.343994, 50.786644)" fill="none" stroke-linejoin="miter" d="M 9.490806 38.997066 L 3.841698 39.000965 L 3.832901 9.499205 L 10.512355 9.498746 L 22.371173 28.505697 L 22.884963 28.435091 L 22.88153 9.499399 L 28.490025 9.49049 L 28.498823 38.99225 L 22.519804 38.996672 L 9.985155 18.70033 L 9.491671 18.773441 Z M 9.490806 38.997066 " stroke="#ffffff" stroke-width="3.1" stroke-opacity="1" stroke-miterlimit="4"/><path stroke-linecap="butt" transform="matrix(0.173195, 0.207132, -0.207132, 0.173195, 119.535722, 57.5786)" fill="none" stroke-linejoin="miter" d="M 23.645748 9.496305 L 23.652392 14.405144 L 15.136981 14.394666 L 15.134895 39.003638 L 9.331373 38.997677 L 9.324179 14.399804 L 0.799488 14.400425 L 0.813224 9.489768 Z M 23.645748 9.496305 " stroke="#ffffff" stroke-width="3.1" stroke-opacity="1" stroke-miterlimit="4"/><path fill="#dd0808" d="M 60.636719 66.769531 C 60.285156 67.195312 59.917969 67.527344 59.535156 67.773438 C 59.15625 68.015625 58.789062 68.175781 58.433594 68.25 C 58.074219 68.328125 57.75 68.335938 57.453125 68.285156 L 57.199219 66.945312 L 57.285156 66.839844 C 57.710938 66.882812 58.125 66.832031 58.523438 66.6875 C 58.917969 66.539062 59.277344 66.273438 59.597656 65.894531 C 59.867188 65.574219 60 65.277344 60 65 C 60.003906 64.722656 59.890625 64.480469 59.652344 64.28125 C 59.507812 64.160156 59.367188 64.085938 59.226562 64.054688 C 59.085938 64.019531 58.929688 64.039062 58.753906 64.105469 C 58.574219 64.167969 58.378906 64.285156 58.15625 64.449219 L 57.316406 65.078125 C 56.734375 65.519531 56.183594 65.757812 55.664062 65.78125 C 55.148438 65.804688 54.65625 65.617188 54.191406 65.222656 C 53.847656 64.9375 53.617188 64.597656 53.503906 64.207031 C 53.390625 63.816406 53.394531 63.394531 53.527344 62.945312 C 53.660156 62.492188 53.914062 62.039062 54.296875 61.578125 C 54.695312 61.109375 55.097656 60.761719 55.507812 60.53125 C 55.910156 60.300781 56.339844 60.175781 56.789062 60.15625 L 57.105469 61.445312 L 57.019531 61.546875 C 56.691406 61.566406 56.386719 61.652344 56.109375 61.796875 C 55.832031 61.945312 55.574219 62.160156 55.332031 62.445312 C 55.054688 62.777344 54.902344 63.074219 54.875 63.34375 C 54.847656 63.617188 54.9375 63.839844 55.140625 64.015625 C 55.332031 64.175781 55.539062 64.246094 55.753906 64.222656 C 55.96875 64.199219 56.234375 64.058594 56.546875 63.8125 L 57.390625 63.15625 C 58.011719 62.667969 58.578125 62.417969 59.101562 62.402344 C 59.625 62.386719 60.128906 62.582031 60.609375 62.984375 C 60.992188 63.308594 61.253906 63.671875 61.402344 64.070312 C 61.546875 64.46875 61.554688 64.902344 61.429688 65.363281 C 61.304688 65.828125 61.042969 66.296875 60.636719 66.769531 Z M 60.636719 66.769531 " fill-opacity="1" fill-rule="nonzero"/><path fill="#dd0808" d="M 62.453125 54.125 L 63.292969 55.148438 L 61.507812 56.597656 L 65.703125 61.746094 L 64.488281 62.734375 L 60.292969 57.589844 L 58.511719 59.039062 L 57.671875 58.015625 Z M 62.453125 54.125 " fill-opacity="1" fill-rule="nonzero"/><path fill="#dd0808" d="M 69.03125 59.523438 C 68.867188 59.625 68.703125 59.683594 68.535156 59.691406 C 68.367188 59.703125 68.210938 59.664062 68.074219 59.585938 C 67.933594 59.507812 67.820312 59.394531 67.734375 59.242188 C 67.644531 59.09375 67.59375 58.941406 67.589844 58.789062 C 67.582031 58.628906 67.621094 58.476562 67.707031 58.332031 C 67.792969 58.1875 67.917969 58.0625 68.078125 57.960938 C 68.25 57.859375 68.417969 57.804688 68.585938 57.796875 C 68.75 57.785156 68.902344 57.820312 69.042969 57.894531 C 69.179688 57.96875 69.292969 58.082031 69.382812 58.230469 C 69.523438 58.460938 69.5625 58.695312 69.503906 58.933594 C 69.441406 59.175781 69.285156 59.371094 69.03125 59.523438 Z M 69.03125 59.523438 " fill-opacity="1" fill-rule="nonzero"/><path fill="#dd0808" d="M 77.191406 55.847656 L 75.382812 56.433594 L 70.359375 49.6875 L 71.949219 49.171875 L 75.628906 54.226562 L 75.757812 54.183594 L 75.734375 47.945312 L 77.277344 47.4375 Z M 77.191406 55.847656 " fill-opacity="1" fill-rule="nonzero"/><path fill="#dd0808" d="M 82.378906 54.746094 L 80.828125 54.984375 L 79.589844 47.117188 L 81.144531 46.875 Z M 82.378906 54.746094 " fill-opacity="1" fill-rule="nonzero"/><path fill="#dd0808" d="M 85.785156 54.417969 L 84.261719 54.390625 L 84.394531 46.425781 L 86.203125 46.460938 L 89.3125 51.644531 L 89.457031 51.625 L 89.542969 46.515625 L 91.054688 46.542969 L 90.921875 54.507812 L 89.308594 54.480469 L 86.023438 48.933594 L 85.882812 48.957031 Z M 85.785156 54.417969 " fill-opacity="1" fill-rule="nonzero"/><path fill="#dd0808" d="M 95.796875 55.695312 C 95.082031 55.511719 94.492188 55.207031 94.023438 54.777344 C 93.554688 54.347656 93.242188 53.800781 93.085938 53.128906 C 92.925781 52.457031 92.957031 51.6875 93.175781 50.816406 C 93.386719 49.949219 93.722656 49.253906 94.179688 48.734375 C 94.636719 48.21875 95.171875 47.878906 95.789062 47.71875 C 96.402344 47.558594 97.066406 47.566406 97.78125 47.746094 C 98.523438 47.929688 99.117188 48.230469 99.5625 48.652344 C 100.011719 49.070312 100.269531 49.605469 100.347656 50.261719 L 99.0625 50.664062 L 98.933594 50.625 C 98.871094 50.183594 98.714844 49.839844 98.472656 49.597656 C 98.230469 49.351562 97.894531 49.175781 97.453125 49.066406 C 96.8125 48.90625 96.257812 48.992188 95.789062 49.324219 C 95.324219 49.660156 94.976562 50.289062 94.75 51.210938 C 94.515625 52.132812 94.527344 52.851562 94.78125 53.363281 C 95.039062 53.878906 95.484375 54.21875 96.128906 54.378906 C 97.132812 54.625 97.867188 54.289062 98.335938 53.371094 L 98.46875 53.402344 L 99.453125 54.265625 C 99.058594 54.945312 98.558594 55.40625 97.957031 55.644531 C 97.351562 55.882812 96.628906 55.898438 95.796875 55.695312 Z M 95.796875 55.695312 " fill-opacity="1" fill-rule="nonzero"/><path fill="#dd0808" d="M 102.769531 54.351562 L 101.824219 56.320312 L 105.257812 57.960938 L 104.6875 59.148438 L 99.839844 56.824219 L 103.289062 49.648438 L 108.058594 51.9375 L 107.488281 53.125 L 104.136719 51.515625 L 103.328125 53.191406 L 106.253906 54.597656 L 105.695312 55.757812 Z M 102.769531 54.351562 " fill-opacity="1" fill-rule="nonzero"/><path fill="#dd0808" d="M 106.886719 60.664062 L 105.683594 59.726562 L 110.582031 53.449219 L 112.003906 54.5625 L 111.371094 60.570312 L 111.5 60.640625 L 114.636719 56.613281 L 115.832031 57.546875 L 110.929688 63.824219 L 109.660156 62.828125 L 110.367188 56.421875 L 110.246094 56.359375 Z M 106.886719 60.664062 " fill-opacity="1" fill-rule="nonzero"/><path fill="#dd0808" d="M 121.660156 64.125 L 120.648438 64.96875 L 119.175781 63.207031 L 114.078125 67.472656 L 113.070312 66.269531 L 118.167969 62.003906 L 116.695312 60.238281 L 117.707031 59.394531 Z M 121.660156 64.125 " fill-opacity="1" fill-rule="nonzero"/><path fill="#09a6f3" d="M 69.746094 112.640625 C 69.648438 112.792969 69.644531 112.921875 69.695312 113.042969 C 69.746094 113.160156 69.855469 113.265625 69.988281 113.363281 C 70.082031 113.429688 70.148438 113.460938 70.199219 113.460938 C 70.257812 113.460938 70.292969 113.429688 70.328125 113.386719 C 70.351562 113.351562 70.375 113.308594 70.394531 113.261719 C 70.410156 113.21875 70.4375 113.175781 70.464844 113.132812 L 72.0625 110.957031 C 72.132812 110.859375 72.160156 110.746094 72.144531 110.636719 C 72.128906 110.523438 72.078125 110.417969 71.972656 110.339844 C 71.871094 110.269531 71.753906 110.246094 71.644531 110.261719 C 71.53125 110.28125 71.429688 110.347656 71.359375 110.441406 Z M 69.746094 112.640625 " fill-opacity="1" fill-rule="nonzero"/><path fill="#09a6f3" d="M 64.28125 107.222656 C 64.144531 107.34375 64.105469 107.46875 64.125 107.597656 C 64.144531 107.726562 64.21875 107.855469 64.324219 107.984375 C 64.394531 108.074219 64.453125 108.121094 64.503906 108.132812 C 64.558594 108.148438 64.601562 108.132812 64.644531 108.097656 C 64.679688 108.066406 64.710938 108.035156 64.742188 107.992188 C 64.773438 107.957031 64.808594 107.921875 64.84375 107.890625 L 66.953125 106.203125 C 67.046875 106.128906 67.105469 106.027344 67.117188 105.914062 C 67.132812 105.804688 67.109375 105.6875 67.027344 105.585938 C 66.949219 105.488281 66.839844 105.433594 66.730469 105.425781 C 66.621094 105.414062 66.503906 105.449219 66.410156 105.523438 Z M 64.28125 107.222656 " fill-opacity="1" fill-rule="nonzero"/><path fill="#09a6f3" d="M 60.414062 100.570312 C 60.253906 100.652344 60.183594 100.761719 60.164062 100.890625 C 60.152344 101.015625 60.195312 101.160156 60.261719 101.316406 C 60.304688 101.421875 60.347656 101.480469 60.394531 101.507812 C 60.441406 101.53125 60.488281 101.527344 60.539062 101.507812 C 60.582031 101.488281 60.621094 101.464844 60.660156 101.433594 C 60.699219 101.402344 60.742188 101.378906 60.785156 101.355469 L 63.261719 100.28125 C 63.371094 100.234375 63.453125 100.148438 63.496094 100.046875 C 63.539062 99.941406 63.546875 99.824219 63.496094 99.703125 C 63.445312 99.589844 63.355469 99.511719 63.25 99.472656 C 63.144531 99.433594 63.027344 99.4375 62.917969 99.484375 Z M 60.414062 100.570312 " fill-opacity="1" fill-rule="nonzero"/><path fill="#09a6f3" d="M 58.421875 93.136719 C 58.242188 93.171875 58.148438 93.261719 58.097656 93.378906 C 58.050781 93.5 58.054688 93.652344 58.078125 93.816406 C 58.09375 93.929688 58.121094 93.996094 58.15625 94.035156 C 58.195312 94.074219 58.242188 94.082031 58.296875 94.074219 C 58.339844 94.066406 58.386719 94.054688 58.429688 94.035156 C 58.476562 94.015625 58.523438 94.003906 58.570312 93.992188 L 61.246094 93.601562 C 61.363281 93.585938 61.464844 93.523438 61.535156 93.433594 C 61.601562 93.347656 61.640625 93.234375 61.617188 93.105469 C 61.601562 92.984375 61.535156 92.882812 61.445312 92.816406 C 61.351562 92.75 61.238281 92.722656 61.117188 92.742188 Z M 58.421875 93.136719 " fill-opacity="1" fill-rule="nonzero"/><path fill="#09a6f3" d="M 58.4375 85.441406 C 58.257812 85.429688 58.140625 85.488281 58.058594 85.589844 C 57.984375 85.691406 57.945312 85.839844 57.925781 86.007812 C 57.914062 86.121094 57.921875 86.195312 57.945312 86.238281 C 57.976562 86.285156 58.015625 86.304688 58.070312 86.3125 C 58.117188 86.316406 58.164062 86.316406 58.210938 86.308594 C 58.261719 86.304688 58.3125 86.304688 58.359375 86.304688 L 61.039062 86.625 C 61.160156 86.640625 61.273438 86.609375 61.363281 86.542969 C 61.449219 86.472656 61.515625 86.375 61.53125 86.246094 C 61.546875 86.121094 61.507812 86.007812 61.4375 85.921875 C 61.367188 85.832031 61.261719 85.777344 61.144531 85.761719 Z M 58.4375 85.441406 " fill-opacity="1" fill-rule="nonzero"/><path fill="#09a6f3" d="M 60.460938 78.015625 C 60.289062 77.957031 60.160156 77.984375 60.058594 78.0625 C 59.957031 78.140625 59.882812 78.273438 59.820312 78.429688 C 59.777344 78.535156 59.765625 78.605469 59.777344 78.65625 C 59.792969 78.710938 59.828125 78.742188 59.878906 78.761719 C 59.921875 78.777344 59.96875 78.789062 60.015625 78.796875 C 60.0625 78.804688 60.113281 78.816406 60.160156 78.832031 L 62.664062 79.839844 C 62.777344 79.882812 62.890625 79.882812 62.996094 79.84375 C 63.101562 79.800781 63.1875 79.722656 63.238281 79.601562 C 63.285156 79.484375 63.277344 79.367188 63.234375 79.261719 C 63.1875 79.160156 63.101562 79.078125 62.988281 79.035156 Z M 60.460938 78.015625 " fill-opacity="1" fill-rule="nonzero"/><path fill="#09a6f3" d="M 64.351562 71.375 C 64.199219 71.273438 64.070312 71.269531 63.949219 71.316406 C 63.832031 71.367188 63.726562 71.476562 63.625 71.609375 C 63.554688 71.699219 63.527344 71.765625 63.523438 71.816406 C 63.523438 71.875 63.550781 71.910156 63.597656 71.945312 C 63.632812 71.972656 63.671875 71.996094 63.71875 72.011719 C 63.765625 72.03125 63.808594 72.058594 63.847656 72.085938 L 66.003906 73.710938 C 66.097656 73.785156 66.210938 73.816406 66.320312 73.800781 C 66.433594 73.789062 66.539062 73.734375 66.617188 73.628906 C 66.691406 73.53125 66.71875 73.414062 66.703125 73.304688 C 66.683594 73.191406 66.621094 73.089844 66.527344 73.019531 Z M 64.351562 71.375 " fill-opacity="1" fill-rule="nonzero"/><path fill="#09a6f3" d="M 69.839844 65.980469 C 69.71875 65.84375 69.597656 65.804688 69.46875 65.820312 C 69.339844 65.835938 69.210938 65.914062 69.078125 66.015625 C 68.988281 66.085938 68.941406 66.144531 68.925781 66.195312 C 68.914062 66.246094 68.929688 66.289062 68.964844 66.335938 C 68.992188 66.371094 69.023438 66.402344 69.0625 66.433594 C 69.101562 66.460938 69.136719 66.5 69.167969 66.535156 L 70.824219 68.667969 C 70.898438 68.761719 71 68.820312 71.109375 68.835938 C 71.222656 68.851562 71.335938 68.832031 71.441406 68.75 C 71.539062 68.675781 71.59375 68.566406 71.605469 68.457031 C 71.617188 68.34375 71.585938 68.230469 71.511719 68.136719 Z M 69.839844 65.980469 " fill-opacity="1" fill-rule="nonzero"/><path fill="#09a6f3" d="M 76.546875 62.207031 C 76.464844 62.042969 76.359375 61.972656 76.230469 61.953125 C 76.101562 61.9375 75.957031 61.976562 75.804688 62.042969 C 75.699219 62.085938 75.636719 62.128906 75.609375 62.171875 C 75.582031 62.222656 75.585938 62.269531 75.609375 62.320312 C 75.625 62.359375 75.648438 62.402344 75.679688 62.441406 C 75.707031 62.480469 75.734375 62.523438 75.753906 62.566406 L 76.796875 65.058594 C 76.84375 65.167969 76.925781 65.25 77.027344 65.296875 C 77.128906 65.339844 77.25 65.347656 77.371094 65.296875 C 77.484375 65.25 77.566406 65.160156 77.605469 65.054688 C 77.648438 64.953125 77.644531 64.832031 77.597656 64.722656 Z M 76.546875 62.207031 " fill-opacity="1" fill-rule="nonzero"/><path fill="#09a6f3" d="M 84.007812 60.3125 C 83.972656 60.136719 83.886719 60.039062 83.765625 59.988281 C 83.648438 59.9375 83.496094 59.9375 83.332031 59.960938 C 83.21875 59.976562 83.148438 60 83.113281 60.039062 C 83.074219 60.078125 83.0625 60.121094 83.070312 60.175781 C 83.078125 60.222656 83.089844 60.269531 83.109375 60.3125 C 83.125 60.359375 83.136719 60.40625 83.148438 60.453125 L 83.503906 63.132812 C 83.519531 63.25 83.578125 63.351562 83.664062 63.421875 C 83.75 63.492188 83.863281 63.527344 83.992188 63.511719 C 84.117188 63.496094 84.21875 63.433594 84.285156 63.34375 C 84.351562 63.25 84.378906 63.136719 84.363281 63.015625 Z M 84.007812 60.3125 " fill-opacity="1" fill-rule="nonzero"/><path fill="#09a6f3" d="M 91.699219 60.433594 C 91.714844 60.253906 91.65625 60.136719 91.554688 60.054688 C 91.453125 59.976562 91.308594 59.9375 91.140625 59.914062 C 91.027344 59.902344 90.957031 59.90625 90.910156 59.933594 C 90.859375 59.960938 90.839844 60 90.835938 60.054688 C 90.828125 60.101562 90.828125 60.148438 90.835938 60.195312 C 90.839844 60.246094 90.839844 60.296875 90.835938 60.34375 L 90.480469 63.019531 C 90.464844 63.140625 90.492188 63.253906 90.558594 63.34375 C 90.628906 63.433594 90.726562 63.5 90.855469 63.515625 C 90.976562 63.535156 91.089844 63.496094 91.179688 63.429688 C 91.265625 63.359375 91.328125 63.253906 91.34375 63.136719 Z M 91.699219 60.433594 " fill-opacity="1" fill-rule="nonzero"/><path fill="#09a6f3" d="M 99.097656 62.558594 C 99.15625 62.386719 99.132812 62.257812 99.054688 62.152344 C 98.976562 62.050781 98.847656 61.976562 98.695312 61.910156 C 98.589844 61.867188 98.515625 61.855469 98.464844 61.867188 C 98.410156 61.882812 98.378906 61.917969 98.359375 61.96875 C 98.34375 62.007812 98.328125 62.054688 98.324219 62.101562 C 98.316406 62.152344 98.300781 62.199219 98.285156 62.242188 L 97.242188 64.738281 C 97.199219 64.847656 97.195312 64.964844 97.238281 65.070312 C 97.277344 65.171875 97.355469 65.261719 97.476562 65.3125 C 97.589844 65.363281 97.710938 65.355469 97.8125 65.3125 C 97.917969 65.269531 98 65.183594 98.046875 65.074219 Z M 99.097656 62.558594 " fill-opacity="1" fill-rule="nonzero"/><path fill="#09a6f3" d="M 105.683594 66.539062 C 105.789062 66.386719 105.796875 66.257812 105.75 66.136719 C 105.703125 66.019531 105.59375 65.910156 105.460938 65.808594 C 105.371094 65.738281 105.304688 65.707031 105.253906 65.707031 C 105.199219 65.707031 105.160156 65.730469 105.125 65.777344 C 105.097656 65.8125 105.074219 65.851562 105.054688 65.898438 C 105.035156 65.941406 105.007812 65.984375 104.984375 66.023438 L 103.324219 68.15625 C 103.25 68.25 103.222656 68.367188 103.234375 68.476562 C 103.246094 68.589844 103.296875 68.695312 103.398438 68.773438 C 103.496094 68.851562 103.613281 68.878906 103.726562 68.863281 C 103.835938 68.847656 103.9375 68.785156 104.011719 68.691406 Z M 105.683594 66.539062 " fill-opacity="1" fill-rule="nonzero"/><path fill="#09a6f3" d="M 111.003906 72.097656 C 111.140625 71.980469 111.183594 71.859375 111.171875 71.730469 C 111.15625 71.601562 111.082031 71.46875 110.980469 71.339844 C 110.910156 71.246094 110.855469 71.199219 110.804688 71.183594 C 110.75 71.167969 110.707031 71.183594 110.664062 71.21875 C 110.628906 71.246094 110.59375 71.277344 110.5625 71.316406 C 110.53125 71.355469 110.496094 71.386719 110.460938 71.417969 L 108.304688 73.046875 C 108.207031 73.121094 108.148438 73.222656 108.132812 73.332031 C 108.113281 73.441406 108.132812 73.558594 108.214844 73.664062 C 108.289062 73.761719 108.394531 73.820312 108.503906 73.832031 C 108.617188 73.84375 108.730469 73.8125 108.828125 73.742188 Z M 111.003906 72.097656 " fill-opacity="1" fill-rule="nonzero"/><path fill="#09a6f3" d="M 114.6875 78.855469 C 114.851562 78.777344 114.925781 78.671875 114.945312 78.542969 C 114.964844 78.417969 114.925781 78.269531 114.863281 78.117188 C 114.820312 78.011719 114.777344 77.949219 114.734375 77.921875 C 114.6875 77.890625 114.640625 77.894531 114.585938 77.917969 C 114.546875 77.933594 114.503906 77.957031 114.464844 77.988281 C 114.425781 78.015625 114.382812 78.039062 114.339844 78.058594 L 111.832031 79.066406 C 111.722656 79.113281 111.640625 79.195312 111.59375 79.296875 C 111.546875 79.398438 111.539062 79.515625 111.585938 79.636719 C 111.632812 79.753906 111.71875 79.835938 111.824219 79.878906 C 111.925781 79.917969 112.046875 79.917969 112.15625 79.875 Z M 114.6875 78.855469 " fill-opacity="1" fill-rule="nonzero"/><path fill="#09a6f3" d="M 116.480469 86.339844 C 116.65625 86.308594 116.757812 86.222656 116.808594 86.105469 C 116.859375 85.988281 116.863281 85.835938 116.84375 85.671875 C 116.828125 85.558594 116.804688 85.488281 116.769531 85.449219 C 116.730469 85.410156 116.683594 85.402344 116.628906 85.40625 C 116.585938 85.414062 116.539062 85.421875 116.492188 85.441406 C 116.445312 85.460938 116.398438 85.472656 116.351562 85.480469 L 113.667969 85.796875 C 113.550781 85.8125 113.445312 85.871094 113.375 85.957031 C 113.304688 86.042969 113.265625 86.15625 113.28125 86.285156 C 113.296875 86.410156 113.359375 86.511719 113.449219 86.578125 C 113.539062 86.648438 113.652344 86.675781 113.773438 86.664062 Z M 116.480469 86.339844 " fill-opacity="1" fill-rule="nonzero"/><path fill="#09a6f3" d="M 116.253906 94.035156 C 116.4375 94.046875 116.554688 93.992188 116.636719 93.890625 C 116.714844 93.792969 116.757812 93.644531 116.78125 93.480469 C 116.796875 93.367188 116.792969 93.292969 116.769531 93.25 C 116.742188 93.199219 116.699219 93.179688 116.644531 93.171875 C 116.601562 93.164062 116.550781 93.164062 116.503906 93.171875 C 116.457031 93.175781 116.40625 93.171875 116.355469 93.167969 L 113.683594 92.777344 C 113.566406 92.761719 113.453125 92.789062 113.363281 92.851562 C 113.269531 92.917969 113.203125 93.015625 113.183594 93.144531 C 113.164062 93.269531 113.199219 93.382812 113.265625 93.472656 C 113.335938 93.558594 113.441406 93.621094 113.558594 93.636719 Z M 116.253906 94.035156 " fill-opacity="1" fill-rule="nonzero"/><path fill="#09a6f3" d="M 114.03125 101.402344 C 114.203125 101.460938 114.332031 101.441406 114.4375 101.363281 C 114.539062 101.289062 114.617188 101.160156 114.683594 101.003906 C 114.730469 100.898438 114.742188 100.828125 114.730469 100.777344 C 114.71875 100.722656 114.683594 100.691406 114.632812 100.671875 C 114.589844 100.652344 114.546875 100.636719 114.496094 100.632812 C 114.449219 100.625 114.398438 100.609375 114.355469 100.59375 L 111.878906 99.519531 C 111.769531 99.46875 111.652344 99.46875 111.546875 99.507812 C 111.441406 99.546875 111.351562 99.621094 111.296875 99.742188 C 111.25 99.855469 111.25 99.976562 111.292969 100.078125 C 111.335938 100.183594 111.421875 100.265625 111.53125 100.316406 Z M 114.03125 101.402344 " fill-opacity="1" fill-rule="nonzero"/><path fill="#09a6f3" d="M 109.964844 107.933594 C 110.109375 108.035156 110.242188 108.046875 110.363281 108.003906 C 110.480469 107.957031 110.589844 107.851562 110.695312 107.71875 C 110.765625 107.632812 110.796875 107.5625 110.800781 107.511719 C 110.800781 107.457031 110.777344 107.417969 110.730469 107.382812 C 110.695312 107.355469 110.65625 107.332031 110.613281 107.3125 C 110.566406 107.292969 110.527344 107.265625 110.484375 107.238281 L 108.375 105.550781 C 108.28125 105.476562 108.167969 105.445312 108.058594 105.453125 C 107.945312 105.464844 107.839844 105.515625 107.757812 105.617188 C 107.679688 105.714844 107.652344 105.832031 107.664062 105.941406 C 107.679688 106.054688 107.738281 106.15625 107.832031 106.234375 Z M 109.964844 107.933594 " fill-opacity="1" fill-rule="nonzero"/><path fill="#09a6f3" d="M 104.328125 113.175781 C 104.445312 113.316406 104.566406 113.359375 104.699219 113.347656 C 104.824219 113.335938 104.957031 113.261719 105.089844 113.164062 C 105.183594 113.09375 105.230469 113.039062 105.246094 112.988281 C 105.261719 112.9375 105.25 112.894531 105.214844 112.847656 C 105.191406 112.8125 105.15625 112.777344 105.117188 112.746094 C 105.078125 112.714844 105.046875 112.679688 105.015625 112.640625 L 103.417969 110.464844 C 103.347656 110.367188 103.246094 110.304688 103.136719 110.285156 C 103.027344 110.269531 102.910156 110.289062 102.804688 110.367188 C 102.703125 110.441406 102.644531 110.542969 102.628906 110.65625 C 102.617188 110.765625 102.644531 110.882812 102.714844 110.980469 Z M 104.328125 113.175781 " fill-opacity="1" fill-rule="nonzero"/><path stroke-linecap="butt" transform="matrix(0.27, 0, 0, 0.27, 36.817879, 103.39742)" fill="none" stroke-linejoin="miter" d="M 5.448829 26.002034 L 2.005541 26.002034 L 2.005541 6.962681 L 6.924523 6.962681 L 11.742232 20.967312 L 12.017116 20.967312 L 16.805889 6.962681 L 21.60913 6.962681 L 21.60913 26.002034 L 18.050102 26.002034 L 18.050102 13.429695 L 17.717348 13.371825 L 13.319199 26.002034 L 10.179732 26.002034 L 5.781583 13.371825 L 5.448829 13.429695 Z M 5.448829 26.002034 " stroke="#ffffff" stroke-width="3.733" stroke-opacity="1" stroke-miterlimit="4"/><path stroke-linecap="butt" transform="matrix(0.27, 0, 0, 0.27, 42.95948, 103.39742)" fill="none" stroke-linejoin="miter" d="M 9.611879 26.276918 C 6.993244 26.276918 5.054587 25.654812 3.795906 24.410599 C 2.522758 23.166386 1.886184 21.314534 1.886184 18.86951 L 1.886184 6.962681 L 5.57542 6.962681 L 5.57542 18.840575 C 5.57542 20.229464 5.908175 21.271131 6.573684 21.965575 C 7.239193 22.66002 8.251925 23.007242 9.611879 23.007242 C 12.317319 23.007242 13.677272 21.618353 13.677272 18.840575 L 13.677272 6.962681 L 17.352041 6.962681 L 17.352041 18.86951 C 17.352041 21.314534 16.715467 23.166386 15.456786 24.410599 C 14.183638 25.654812 12.244981 26.276918 9.611879 26.276918 Z M 9.611879 26.276918 " stroke="#ffffff" stroke-width="3.733" stroke-opacity="1" stroke-miterlimit="4"/><path stroke-linecap="butt" transform="matrix(0.27, 0, 0, 0.27, 47.917035, 103.39742)" fill="none" stroke-linejoin="miter" d="M 5.761559 6.962681 L 5.761559 22.848099 L 14.326375 22.848099 L 14.326375 26.002034 L 1.999985 26.002034 L 1.999985 6.962681 Z M 5.761559 6.962681 " stroke="#ffffff" stroke-width="3.733" stroke-opacity="1" stroke-miterlimit="4"/><path stroke-linecap="butt" transform="matrix(0.27, 0, 0, 0.27, 51.588318, 103.39742)" fill="none" stroke-linejoin="miter" d="M 14.791533 6.962681 L 14.791533 10.131084 L 9.293848 10.131084 L 9.293848 26.002034 L 5.546741 26.002034 L 5.546741 10.131084 L 0.0490554 10.131084 L 0.0490554 6.962681 Z M 14.791533 6.962681 " stroke="#ffffff" stroke-width="3.733" stroke-opacity="1" stroke-miterlimit="4"/><path stroke-linecap="butt" transform="matrix(0.27, 0, 0, 0.27, 55.357875, 103.39742)" fill="none" stroke-linejoin="miter" d="M 2.002084 6.962681 L 5.763658 6.962681 L 5.763658 26.002034 L 2.002084 26.002034 Z M 2.002084 6.962681 " stroke="#ffffff" stroke-width="3.733" stroke-opacity="1" stroke-miterlimit="4"/><path stroke-linecap="butt" transform="matrix(0.27, 0, 0, 0.27, 57.222675, 103.39742)" fill="none" stroke-linejoin="miter" d="M 0.665441 15.165807 L 8.651552 15.165807 L 8.651552 18.348677 L 0.665441 18.348677 Z M 0.665441 15.165807 " stroke="#ffffff" stroke-width="3.733" stroke-opacity="1" stroke-miterlimit="4"/><path stroke-linecap="butt" transform="matrix(0.27, 0, 0, 0.27, 59.506157, 103.39742)" fill="none" stroke-linejoin="miter" d="M 9.366664 6.962681 C 10.726618 6.962681 11.884025 7.223098 12.853354 7.714996 C 13.822683 8.221362 14.56053 8.915806 15.052428 9.812797 C 15.544327 10.709788 15.790276 11.751455 15.790276 12.937797 C 15.790276 14.138607 15.544327 15.180274 15.052428 16.062797 C 14.56053 16.959788 13.822683 17.654233 12.853354 18.160598 C 11.884025 18.652497 10.726618 18.898446 9.366664 18.898446 L 5.764233 18.898446 L 5.764233 26.002034 L 2.002659 26.002034 L 2.002659 6.962681 Z M 8.860298 15.918121 C 10.958099 15.918121 11.999766 14.934325 11.999766 12.937797 C 11.999766 10.941269 10.958099 9.957473 8.860298 9.957473 L 5.764233 9.957473 L 5.764233 15.918121 Z M 8.860298 15.918121 " stroke="#ffffff" stroke-width="3.733" stroke-opacity="1" stroke-miterlimit="4"/><path stroke-linecap="butt" transform="matrix(0.27, 0, 0, 0.27, 63.711314, 103.39742)" fill="none" stroke-linejoin="miter" d="M 9.619554 26.276918 C 7.000919 26.276918 5.062262 25.654812 3.789113 24.410599 C 2.515965 23.166386 1.893859 21.314534 1.893859 18.86951 L 1.893859 6.962681 L 5.568627 6.962681 L 5.568627 18.840575 C 5.568627 20.229464 5.901382 21.271131 6.566891 21.965575 C 7.246868 22.66002 8.2596 23.007242 9.619554 23.007242 C 12.310526 23.007242 13.67048 21.618353 13.67048 18.840575 L 13.67048 6.962681 L 17.359716 6.962681 L 17.359716 18.86951 C 17.359716 21.314534 16.723142 23.166386 15.449994 24.410599 C 14.191313 25.654812 12.238188 26.276918 9.619554 26.276918 Z M 9.619554 26.276918 " stroke="#ffffff" stroke-width="3.733" stroke-opacity="1" stroke-miterlimit="4"/><path stroke-linecap="butt" transform="matrix(0.27, 0, 0, 0.27, 68.668879, 103.39742)" fill="none" stroke-linejoin="miter" d="M 2.007624 26.002034 L 2.007624 6.962681 L 9.646514 6.962681 C 11.614106 6.962681 13.104269 7.425644 14.102533 8.322635 C 15.100796 9.234093 15.607162 10.492774 15.607162 12.084209 C 15.607162 13.241617 15.31781 14.18201 14.724639 14.919857 C 14.145935 15.657705 13.263412 16.221941 12.106005 16.612566 L 12.106005 16.88745 C 12.699176 17.147867 13.191074 17.538492 13.567232 18.044858 C 13.928921 18.565691 14.276144 19.318006 14.608898 20.330737 L 16.504153 26.002034 L 12.641306 26.002034 L 10.774986 20.31627 C 10.586907 19.737566 10.369893 19.289071 10.138412 18.970784 C 9.892463 18.652497 9.588643 18.435483 9.226954 18.290807 C 8.850796 18.146131 8.373366 18.073793 7.780194 18.073793 L 5.769199 18.073793 L 5.769199 26.002034 Z M 9.183551 15.093469 C 11.006468 15.093469 11.917926 14.239881 11.917926 12.532705 C 11.917926 10.811061 11.006468 9.957473 9.183551 9.957473 L 5.769199 9.957473 L 5.769199 15.093469 Z M 9.183551 15.093469 " stroke="#ffffff" stroke-width="3.733" stroke-opacity="1" stroke-miterlimit="4"/><path stroke-linecap="butt" transform="matrix(0.27, 0, 0, 0.27, 72.983114, 103.39742)" fill="none" stroke-linejoin="miter" d="M 9.365204 6.962681 C 10.725158 6.962681 11.882565 7.223098 12.851894 7.714996 C 13.821223 8.221362 14.55907 8.915806 15.050968 9.812797 C 15.542866 10.709788 15.788815 11.751455 15.788815 12.937797 C 15.788815 14.138607 15.542866 15.180274 15.050968 16.062797 C 14.55907 16.959788 13.821223 17.654233 12.851894 18.160598 C 11.882565 18.652497 10.725158 18.898446 9.365204 18.898446 L 5.762773 18.898446 L 5.762773 26.002034 L 2.001199 26.002034 L 2.001199 6.962681 Z M 8.873306 15.918121 C 10.956639 15.918121 11.998306 14.934325 11.998306 12.937797 C 11.998306 10.941269 10.956639 9.957473 8.873306 9.957473 L 5.762773 9.957473 L 5.762773 15.918121 Z M 8.873306 15.918121 " stroke="#ffffff" stroke-width="3.733" stroke-opacity="1" stroke-miterlimit="4"/><path stroke-linecap="butt" transform="matrix(0.27, 0, 0, 0.27, 77.188636, 103.39742)" fill="none" stroke-linejoin="miter" d="M 9.906094 26.276918 C 8.155515 26.276918 6.62195 25.915228 5.290932 25.206316 C 3.959913 24.497404 2.918246 23.412335 2.165931 21.951108 C 1.399149 20.475413 1.022992 18.666964 1.022992 16.482358 C 1.022992 14.312219 1.399149 12.489302 2.165931 11.028075 C 2.918246 9.566848 3.959913 8.467311 5.290932 7.758399 C 6.62195 7.049487 8.155515 6.702264 9.906094 6.702264 C 11.656673 6.702264 13.190238 7.049487 14.521256 7.758399 C 15.837807 8.467311 16.879474 9.55238 17.631789 11.013607 C 18.384104 12.489302 18.760261 14.312219 18.760261 16.482358 C 18.760261 18.666964 18.384104 20.475413 17.631789 21.951108 C 16.879474 23.426802 15.837807 24.497404 14.521256 25.206316 C 13.190238 25.915228 11.656673 26.276918 9.906094 26.276918 Z M 9.906094 23.007242 C 11.526464 23.007242 12.75621 22.486409 13.609798 21.444742 C 14.448918 20.417543 14.882946 18.75377 14.882946 16.482358 C 14.882946 14.210945 14.448918 12.56164 13.609798 11.519973 C 12.75621 10.478306 11.526464 9.957473 9.906094 9.957473 C 8.285723 9.957473 7.04151 10.478306 6.187922 11.519973 C 5.334334 12.56164 4.900307 14.210945 4.900307 16.482358 C 4.900307 18.75377 5.334334 20.417543 6.187922 21.444742 C 7.04151 22.486409 8.285723 23.007242 9.906094 23.007242 Z M 9.906094 23.007242 " stroke="#ffffff" stroke-width="3.733" stroke-opacity="1" stroke-miterlimit="4"/><path stroke-linecap="butt" transform="matrix(0.27, 0, 0, 0.27, 82.297396, 103.39742)" fill="none" stroke-linejoin="miter" d="M 7.969715 26.276918 C 6.653164 26.276918 5.481289 26.117775 4.439622 25.78502 C 3.412423 25.466733 2.558835 25.032705 1.878858 24.497404 C 1.184414 23.976571 0.663581 23.397867 0.301891 22.761293 L 2.370757 20.229464 L 2.689044 20.229464 C 3.267747 21.083052 3.991127 21.763029 4.87365 22.269395 C 5.756173 22.775761 6.783373 23.02171 7.969715 23.02171 C 8.967979 23.02171 9.734762 22.804696 10.241127 22.385136 C 10.761961 21.951108 11.00791 21.372404 11.00791 20.620089 C 11.00791 20.171594 10.921104 19.795436 10.761961 19.491617 C 10.602817 19.187798 10.327933 18.927381 9.937308 18.710367 C 9.561151 18.493353 9.054785 18.305274 8.403743 18.146131 L 5.944252 17.596362 C 4.237076 17.205737 2.963928 16.554696 2.124808 15.643237 C 1.285687 14.731779 0.866127 13.559904 0.866127 12.113144 C 0.866127 11.028075 1.141011 10.087681 1.676312 9.277496 C 2.211613 8.452843 3.007331 7.816269 4.020062 7.367774 C 5.061729 6.919278 6.291474 6.702264 7.723766 6.702264 C 9.184993 6.702264 10.443674 6.890343 11.48534 7.280968 C 12.527007 7.657126 13.423998 8.250297 14.13291 9.046015 L 12.281058 11.606779 L 11.948303 11.606779 C 11.413003 11.042542 10.790896 10.622982 10.096452 10.33363 C 9.402007 10.044278 8.620757 9.91407 7.723766 9.91407 C 6.682099 9.91407 5.900849 10.087681 5.365548 10.449371 C 4.830248 10.825529 4.555363 11.331894 4.555363 11.968468 C 4.555363 12.56164 4.743442 13.03907 5.119599 13.40076 C 5.495757 13.747982 6.146799 14.037334 7.072724 14.225413 L 9.575618 14.746246 C 11.42747 15.136871 12.772956 15.802381 13.612077 16.742774 C 14.43673 17.6687 14.85629 18.883978 14.85629 20.388608 C 14.85629 21.57495 14.595873 22.616617 14.089507 23.49914 C 13.568674 24.367196 12.801891 25.06164 11.760225 25.539071 C 10.733026 26.030969 9.474345 26.276918 7.969715 26.276918 Z M 7.969715 26.276918 " stroke="#ffffff" stroke-width="3.733" stroke-opacity="1" stroke-miterlimit="4"/><path stroke-linecap="butt" transform="matrix(0.27, 0, 0, 0.27, 86.221756, 103.39742)" fill="none" stroke-linejoin="miter" d="M 5.775906 17.639765 L 5.775906 22.848099 L 14.847087 22.848099 L 14.847087 26.002034 L 1.999864 26.002034 L 1.999864 6.962681 L 14.644541 6.962681 L 14.644541 10.116616 L 5.775906 10.116616 L 5.775906 14.572635 L 13.530536 14.572635 L 13.530536 17.639765 Z M 5.775906 17.639765 " stroke="#ffffff" stroke-width="3.733" stroke-opacity="1" stroke-miterlimit="4"/><path stroke-linecap="butt" transform="matrix(0.27, 0, 0, 0.27, 91.357155, 103.39742)" fill="none" stroke-linejoin="miter" d="M 9.932991 26.276918 C 8.182412 26.276918 6.634379 25.915228 5.303361 25.177381 C 3.957874 24.454002 2.916208 23.354464 2.163893 21.893238 C 1.411578 20.432011 1.035421 18.623561 1.035421 16.482358 C 1.035421 14.341154 1.411578 12.532705 2.163893 11.071478 C 2.916208 9.610251 3.957874 8.525181 5.303361 7.787334 C 6.634379 7.063954 8.182412 6.702264 9.932991 6.702264 C 11.770375 6.702264 13.318407 7.049487 14.591556 7.772866 C 15.879171 8.481778 16.79063 9.581315 17.340398 11.042542 L 14.591556 12.720783 L 14.273269 12.706316 C 13.853708 11.722519 13.30394 11.013607 12.609495 10.579579 C 11.915051 10.145552 11.01806 9.928538 9.932991 9.928538 C 8.356023 9.928538 7.11181 10.463839 6.243754 11.505505 C 5.346763 12.547172 4.912736 14.210945 4.912736 16.482358 C 4.912736 18.75377 5.346763 20.403075 6.243754 21.444742 C 7.11181 22.500876 8.356023 23.02171 9.932991 23.02171 C 12.406949 23.02171 13.926046 21.8209 14.475815 19.419279 L 14.794102 19.419279 L 17.57188 20.851571 C 17.051046 22.66002 16.168523 24.019974 14.909843 24.916965 C 13.651162 25.813955 11.987389 26.276918 9.932991 26.276918 Z M 9.932991 26.276918 " stroke="#ffffff" stroke-width="3.733" stroke-opacity="1" stroke-miterlimit="4"/><path stroke-linecap="butt" transform="matrix(0.27, 0, 0, 0.27, 95.906835, 103.39742)" fill="none" stroke-linejoin="miter" d="M 9.908135 26.276918 C 8.157556 26.276918 6.623991 25.915228 5.292973 25.206316 C 3.961954 24.497404 2.920287 23.412335 2.167973 21.951108 C 1.40119 20.475413 1.025033 18.666964 1.025033 16.482358 C 1.025033 14.312219 1.40119 12.489302 2.167973 11.028075 C 2.920287 9.566848 3.961954 8.467311 5.292973 7.758399 C 6.623991 7.049487 8.157556 6.702264 9.908135 6.702264 C 11.658714 6.702264 13.192279 7.049487 14.523297 7.758399 C 15.839848 8.467311 16.881515 9.55238 17.63383 11.013607 C 18.386145 12.489302 18.762302 14.312219 18.762302 16.482358 C 18.762302 18.666964 18.386145 20.475413 17.63383 21.951108 C 16.881515 23.426802 15.839848 24.497404 14.523297 25.206316 C 13.192279 25.915228 11.658714 26.276918 9.908135 26.276918 Z M 9.908135 23.007242 C 11.528505 23.007242 12.758251 22.486409 13.611839 21.444742 C 14.450959 20.417543 14.884987 18.75377 14.884987 16.482358 C 14.884987 14.210945 14.450959 12.56164 13.611839 11.519973 C 12.758251 10.478306 11.528505 9.957473 9.908135 9.957473 C 8.287765 9.957473 7.043552 10.478306 6.189963 11.519973 C 5.336375 12.56164 4.902348 14.210945 4.902348 16.482358 C 4.902348 18.75377 5.336375 20.417543 6.189963 21.444742 C 7.043552 22.486409 8.287765 23.007242 9.908135 23.007242 Z M 9.908135 23.007242 " stroke="#ffffff" stroke-width="3.733" stroke-opacity="1" stroke-miterlimit="4"/><path stroke-linecap="butt" transform="matrix(0.27, 0, 0, 0.27, 101.015595, 103.39742)" fill="none" stroke-linejoin="miter" d="M 9.910414 26.276918 C 8.159835 26.276918 6.62627 25.915228 5.295252 25.206316 C 3.964233 24.497404 2.908099 23.412335 2.155784 21.951108 C 1.403469 20.475413 1.027312 18.666964 1.027312 16.482358 C 1.027312 14.312219 1.403469 12.489302 2.155784 11.028075 C 2.908099 9.566848 3.964233 8.467311 5.295252 7.758399 C 6.62627 7.049487 8.159835 6.702264 9.910414 6.702264 C 11.646525 6.702264 13.18009 7.049487 14.511109 7.758399 C 15.842127 8.467311 16.883794 9.55238 17.636109 11.013607 C 18.388424 12.489302 18.764581 14.312219 18.764581 16.482358 C 18.764581 18.666964 18.388424 20.475413 17.636109 21.951108 C 16.883794 23.426802 15.842127 24.497404 14.511109 25.206316 C 13.18009 25.915228 11.646525 26.276918 9.910414 26.276918 Z M 9.910414 23.007242 C 11.516317 23.007242 12.746062 22.486409 13.59965 21.444742 C 14.453238 20.417543 14.872798 18.75377 14.872798 16.482358 C 14.872798 14.210945 14.453238 12.56164 13.59965 11.519973 C 12.746062 10.478306 11.516317 9.957473 9.910414 9.957473 C 8.290043 9.957473 7.04583 10.478306 6.192242 11.519973 C 5.338654 12.56164 4.904627 14.210945 4.904627 16.482358 C 4.904627 18.75377 5.338654 20.417543 6.192242 21.444742 C 7.04583 22.486409 8.290043 23.007242 9.910414 23.007242 Z M 9.910414 23.007242 " stroke="#ffffff" stroke-width="3.733" stroke-opacity="1" stroke-miterlimit="4"/><path stroke-linecap="butt" transform="matrix(0.27, 0, 0, 0.27, 106.123994, 103.39742)" fill="none" stroke-linejoin="miter" d="M 9.364258 6.962681 C 10.724211 6.962681 11.896086 7.223098 12.850948 7.714996 C 13.820276 8.221362 14.558124 8.915806 15.050022 9.812797 C 15.54192 10.709788 15.787869 11.751455 15.787869 12.937797 C 15.787869 14.138607 15.54192 15.180274 15.050022 16.062797 C 14.558124 16.959788 13.820276 17.654233 12.850948 18.160598 C 11.896086 18.652497 10.724211 18.898446 9.364258 18.898446 L 5.776294 18.898446 L 5.776294 26.002034 L 2.000252 26.002034 L 2.000252 6.962681 Z M 8.857892 15.918121 C 10.955693 15.918121 11.99736 14.934325 11.99736 12.937797 C 11.99736 10.941269 10.955693 9.957473 8.857892 9.957473 L 5.776294 9.957473 L 5.776294 15.918121 Z M 8.857892 15.918121 " stroke="#ffffff" stroke-width="3.733" stroke-opacity="1" stroke-miterlimit="4"/><path stroke-linecap="butt" transform="matrix(0.27, 0, 0, 0.27, 110.329517, 103.39742)" fill="none" stroke-linejoin="miter" d="M 5.767416 17.639765 L 5.767416 22.848099 L 14.853065 22.848099 L 14.853065 26.002034 L 2.005842 26.002034 L 2.005842 6.962681 L 14.650518 6.962681 L 14.650518 10.116616 L 5.767416 10.116616 L 5.767416 14.572635 L 13.522046 14.572635 L 13.522046 17.639765 Z M 5.767416 17.639765 " stroke="#ffffff" stroke-width="3.733" stroke-opacity="1" stroke-miterlimit="4"/><path stroke-linecap="butt" transform="matrix(0.27, 0, 0, 0.27, 114.257464, 103.39742)" fill="none" stroke-linejoin="miter" d="M 2.012285 26.002034 L 2.012285 6.962681 L 9.651175 6.962681 C 11.618767 6.962681 13.108929 7.425644 14.107193 8.322635 C 15.105457 9.234093 15.611823 10.492774 15.611823 12.084209 C 15.611823 13.241617 15.308004 14.18201 14.7293 14.919857 C 14.150596 15.657705 13.268073 16.221941 12.110665 16.612566 L 12.110665 16.88745 C 12.703837 17.147867 13.181267 17.538492 13.557425 18.044858 C 13.933582 18.565691 14.280804 19.318006 14.599091 20.330737 L 16.508814 26.002034 L 12.645966 26.002034 L 10.779647 20.31627 C 10.591568 19.737566 10.374554 19.289071 10.128605 18.970784 C 9.897124 18.652497 9.593304 18.435483 9.217147 18.290807 C 8.855457 18.146131 8.378026 18.073793 7.784855 18.073793 L 5.759392 18.073793 L 5.759392 26.002034 Z M 9.188212 15.093469 C 11.011128 15.093469 11.922587 14.239881 11.922587 12.532705 C 11.922587 10.811061 11.011128 9.957473 9.188212 9.957473 L 5.759392 9.957473 L 5.759392 15.093469 Z M 9.188212 15.093469 " stroke="#ffffff" stroke-width="3.733" stroke-opacity="1" stroke-miterlimit="4"/><path stroke-linecap="butt" transform="matrix(0.27, 0, 0, 0.27, 118.571716, 103.39742)" fill="none" stroke-linejoin="miter" d="M 17.789942 26.002034 L 13.840289 26.002034 L 12.407997 21.618353 L 5.11633 21.618353 L 3.684038 26.002034 L -0.178809 26.002034 L 6.389478 6.962681 L 11.221654 6.962681 Z M 8.574085 10.941269 L 6.129061 18.44995 L 11.36633 18.44995 L 8.906839 10.941269 Z M 8.574085 10.941269 " stroke="#ffffff" stroke-width="3.733" stroke-opacity="1" stroke-miterlimit="4"/><path stroke-linecap="butt" transform="matrix(0.27, 0, 0, 0.27, 123.090085, 103.39742)" fill="none" stroke-linejoin="miter" d="M 14.784986 6.962681 L 14.784986 10.131084 L 9.2873 10.131084 L 9.2873 26.002034 L 5.540193 26.002034 L 5.540193 10.131084 L 0.0569755 10.131084 L 0.0569755 6.962681 Z M 14.784986 6.962681 " stroke="#ffffff" stroke-width="3.733" stroke-opacity="1" stroke-miterlimit="4"/><path stroke-linecap="butt" transform="matrix(0.27, 0, 0, 0.27, 126.859626, 103.39742)" fill="none" stroke-linejoin="miter" d="M 1.995598 6.962681 L 5.77164 6.962681 L 5.77164 26.002034 L 1.995598 26.002034 Z M 1.995598 6.962681 " stroke="#ffffff" stroke-width="3.733" stroke-opacity="1" stroke-miterlimit="4"/><path stroke-linecap="butt" transform="matrix(0.27, 0, 0, 0.27, 128.724431, 103.39742)" fill="none" stroke-linejoin="miter" d="M 10.844123 26.002034 L 6.301299 26.002034 L -0.122313 6.962681 L 3.870743 6.962681 L 8.485906 21.15539 L 8.81866 21.15539 L 13.375952 6.962681 L 17.267735 6.962681 Z M 10.844123 26.002034 " stroke="#ffffff" stroke-width="3.733" stroke-opacity="1" stroke-miterlimit="4"/><path stroke-linecap="butt" transform="matrix(0.27, 0, 0, 0.27, 133.112838, 103.39742)" fill="none" stroke-linejoin="miter" d="M 5.759745 17.639765 L 5.759745 22.848099 L 14.859862 22.848099 L 14.859862 26.002034 L 1.998171 26.002034 L 1.998171 6.962681 L 14.642848 6.962681 L 14.642848 10.116616 L 5.759745 10.116616 L 5.759745 14.572635 L 13.528843 14.572635 L 13.528843 17.639765 Z M 5.759745 17.639765 " stroke="#ffffff" stroke-width="3.733" stroke-opacity="1" stroke-miterlimit="4"/><path fill="#dd0808" d="M 38.289062 110.417969 L 37.359375 110.417969 L 37.359375 105.277344 L 38.6875 105.277344 L 39.988281 109.054688 L 40.058594 109.054688 L 41.355469 105.277344 L 42.652344 105.277344 L 42.652344 110.417969 L 41.691406 110.417969 L 41.691406 107.019531 L 41.601562 107.007812 L 40.414062 110.417969 L 39.566406 110.417969 L 38.378906 107.007812 L 38.289062 107.019531 Z M 38.289062 110.417969 " fill-opacity="1" fill-rule="nonzero"/><path fill="#dd0808" d="M 45.554688 110.492188 C 44.851562 110.492188 44.324219 110.324219 43.980469 109.988281 C 43.640625 109.652344 43.46875 109.152344 43.46875 108.488281 L 43.46875 105.277344 L 44.464844 105.277344 L 44.464844 108.480469 C 44.464844 108.859375 44.554688 109.140625 44.734375 109.324219 C 44.914062 109.515625 45.1875 109.605469 45.554688 109.605469 C 46.285156 109.605469 46.652344 109.234375 46.652344 108.480469 L 46.652344 105.277344 L 47.648438 105.277344 L 47.648438 108.488281 C 47.648438 109.152344 47.476562 109.652344 47.128906 109.988281 C 46.789062 110.324219 46.265625 110.492188 45.554688 110.492188 Z M 45.554688 110.492188 " fill-opacity="1" fill-rule="nonzero"/><path fill="#dd0808" d="M 49.472656 105.277344 L 49.472656 109.566406 L 51.785156 109.566406 L 51.785156 110.417969 L 48.460938 110.417969 L 48.460938 105.277344 Z M 49.472656 105.277344 " fill-opacity="1" fill-rule="nonzero"/><path fill="#dd0808" d="M 55.585938 105.277344 L 55.585938 106.132812 L 54.101562 106.132812 L 54.101562 110.417969 L 53.085938 110.417969 L 53.085938 106.132812 L 51.601562 106.132812 L 51.601562 105.277344 Z M 55.585938 105.277344 " fill-opacity="1" fill-rule="nonzero"/><path fill="#dd0808" d="M 55.902344 105.277344 L 56.914062 105.277344 L 56.914062 110.417969 L 55.902344 110.417969 Z M 55.902344 105.277344 " fill-opacity="1" fill-rule="nonzero"/><path fill="#dd0808" d="M 57.398438 107.492188 L 59.558594 107.492188 L 59.558594 108.347656 L 57.398438 108.347656 Z M 57.398438 107.492188 " fill-opacity="1" fill-rule="nonzero"/><path fill="#dd0808" d="M 62.035156 105.277344 C 62.402344 105.277344 62.714844 105.34375 62.972656 105.480469 C 63.234375 105.613281 63.433594 105.804688 63.570312 106.046875 C 63.703125 106.289062 63.773438 106.570312 63.773438 106.890625 C 63.773438 107.214844 63.703125 107.496094 63.570312 107.734375 C 63.433594 107.976562 63.234375 108.160156 62.972656 108.296875 C 62.714844 108.433594 62.402344 108.5 62.035156 108.5 L 61.0625 108.5 L 61.0625 110.417969 L 60.046875 110.417969 L 60.046875 105.277344 Z M 61.898438 107.695312 C 62.464844 107.695312 62.75 107.425781 62.75 106.890625 C 62.75 106.351562 62.464844 106.082031 61.898438 106.082031 L 61.0625 106.082031 L 61.0625 107.695312 Z M 61.898438 107.695312 " fill-opacity="1" fill-rule="nonzero"/><path fill="#dd0808" d="M 66.308594 110.492188 C 65.601562 110.492188 65.078125 110.324219 64.734375 109.988281 C 64.390625 109.652344 64.21875 109.152344 64.21875 108.488281 L 64.21875 105.277344 L 65.214844 105.277344 L 65.214844 108.480469 C 65.214844 108.859375 65.304688 109.140625 65.484375 109.324219 C 65.667969 109.515625 65.9375 109.605469 66.308594 109.605469 C 67.039062 109.605469 67.40625 109.234375 67.40625 108.480469 L 67.40625 105.277344 L 68.398438 105.277344 L 68.398438 108.488281 C 68.398438 109.152344 68.226562 109.652344 67.882812 109.988281 C 67.539062 110.324219 67.015625 110.492188 66.308594 110.492188 Z M 66.308594 110.492188 " fill-opacity="1" fill-rule="nonzero"/><path fill="#dd0808" d="M 69.210938 110.417969 L 69.210938 105.277344 L 71.277344 105.277344 C 71.808594 105.277344 72.210938 105.398438 72.480469 105.648438 C 72.75 105.890625 72.882812 106.230469 72.882812 106.660156 C 72.882812 106.972656 72.804688 107.226562 72.648438 107.425781 C 72.492188 107.625 72.253906 107.777344 71.941406 107.878906 L 71.941406 107.953125 C 72.101562 108.023438 72.230469 108.128906 72.328125 108.269531 C 72.429688 108.40625 72.523438 108.613281 72.613281 108.882812 L 73.125 110.417969 L 72.082031 110.417969 L 71.578125 108.882812 C 71.527344 108.726562 71.46875 108.609375 71.40625 108.523438 C 71.339844 108.4375 71.257812 108.375 71.15625 108.335938 C 71.058594 108.296875 70.929688 108.273438 70.769531 108.273438 L 70.222656 108.273438 L 70.222656 110.417969 Z M 71.152344 107.46875 C 71.644531 107.46875 71.890625 107.242188 71.890625 106.785156 C 71.890625 106.316406 71.644531 106.082031 71.152344 106.082031 L 70.222656 106.082031 L 70.222656 107.46875 Z M 71.152344 107.46875 " fill-opacity="1" fill-rule="nonzero"/><path fill="#dd0808" d="M 75.511719 105.277344 C 75.878906 105.277344 76.191406 105.34375 76.449219 105.480469 C 76.710938 105.613281 76.914062 105.804688 77.046875 106.046875 C 77.183594 106.289062 77.25 106.570312 77.25 106.890625 C 77.25 107.214844 77.183594 107.496094 77.046875 107.734375 C 76.914062 107.976562 76.710938 108.160156 76.449219 108.296875 C 76.191406 108.433594 75.878906 108.5 75.511719 108.5 L 74.539062 108.5 L 74.539062 110.417969 L 73.527344 110.417969 L 73.527344 105.277344 Z M 75.375 107.695312 C 75.941406 107.695312 76.226562 107.425781 76.226562 106.890625 C 76.226562 106.351562 75.941406 106.082031 75.375 106.082031 L 74.539062 106.082031 L 74.539062 107.695312 Z M 75.375 107.695312 " fill-opacity="1" fill-rule="nonzero"/><path fill="#dd0808" d="M 79.863281 110.492188 C 79.394531 110.492188 78.980469 110.394531 78.621094 110.203125 C 78.261719 110.011719 77.976562 109.71875 77.769531 109.324219 C 77.570312 108.929688 77.46875 108.4375 77.46875 107.847656 C 77.46875 107.257812 77.570312 106.765625 77.769531 106.371094 C 77.976562 105.980469 78.261719 105.6875 78.621094 105.496094 C 78.980469 105.300781 79.394531 105.203125 79.863281 105.203125 C 80.335938 105.203125 80.75 105.296875 81.105469 105.488281 C 81.464844 105.679688 81.746094 105.976562 81.949219 106.371094 C 82.152344 106.765625 82.253906 107.257812 82.253906 107.847656 C 82.253906 108.4375 82.152344 108.929688 81.949219 109.324219 C 81.746094 109.71875 81.464844 110.011719 81.105469 110.203125 C 80.75 110.394531 80.335938 110.492188 79.863281 110.492188 Z M 79.863281 109.605469 C 80.296875 109.605469 80.628906 109.46875 80.859375 109.191406 C 81.089844 108.910156 81.207031 108.460938 81.207031 107.847656 C 81.207031 107.230469 81.089844 106.785156 80.859375 106.503906 C 80.628906 106.222656 80.296875 106.082031 79.863281 106.082031 C 79.425781 106.082031 79.089844 106.222656 78.855469 106.503906 C 78.628906 106.785156 78.511719 107.230469 78.511719 107.847656 C 78.511719 108.460938 78.628906 108.910156 78.855469 109.191406 C 79.089844 109.46875 79.425781 109.605469 79.863281 109.605469 Z M 79.863281 109.605469 " fill-opacity="1" fill-rule="nonzero"/><path fill="#dd0808" d="M 84.449219 110.492188 C 84.089844 110.492188 83.773438 110.445312 83.5 110.359375 C 83.21875 110.269531 82.988281 110.15625 82.800781 110.011719 C 82.617188 109.871094 82.476562 109.710938 82.378906 109.539062 L 82.9375 108.859375 L 83.027344 108.859375 C 83.179688 109.089844 83.375 109.273438 83.609375 109.410156 C 83.851562 109.546875 84.128906 109.613281 84.449219 109.613281 C 84.722656 109.613281 84.925781 109.558594 85.0625 109.445312 C 85.199219 109.328125 85.269531 109.167969 85.269531 108.964844 C 85.269531 108.84375 85.246094 108.742188 85.203125 108.664062 C 85.160156 108.582031 85.085938 108.507812 84.984375 108.449219 C 84.882812 108.390625 84.742188 108.339844 84.566406 108.296875 L 83.902344 108.144531 C 83.441406 108.039062 83.097656 107.867188 82.867188 107.621094 C 82.644531 107.375 82.53125 107.054688 82.53125 106.664062 C 82.53125 106.378906 82.605469 106.121094 82.75 105.902344 C 82.894531 105.679688 83.105469 105.507812 83.386719 105.386719 C 83.664062 105.265625 83.996094 105.203125 84.382812 105.203125 C 84.777344 105.203125 85.117188 105.257812 85.398438 105.359375 C 85.679688 105.464844 85.917969 105.625 86.113281 105.839844 L 85.613281 106.53125 L 85.523438 106.53125 C 85.378906 106.378906 85.214844 106.261719 85.027344 106.1875 C 84.839844 106.109375 84.625 106.070312 84.382812 106.070312 C 84.101562 106.070312 83.890625 106.121094 83.746094 106.222656 C 83.597656 106.320312 83.527344 106.453125 83.527344 106.625 C 83.527344 106.789062 83.578125 106.917969 83.679688 107.015625 C 83.78125 107.113281 83.960938 107.1875 84.210938 107.238281 L 84.886719 107.378906 C 85.386719 107.484375 85.75 107.664062 85.972656 107.914062 C 86.199219 108.164062 86.3125 108.496094 86.3125 108.902344 C 86.3125 109.222656 86.242188 109.503906 86.101562 109.742188 C 85.964844 109.980469 85.753906 110.164062 85.472656 110.292969 C 85.195312 110.425781 84.855469 110.492188 84.449219 110.492188 Z M 84.449219 110.492188 " fill-opacity="1" fill-rule="nonzero"/><path fill="#dd0808" d="M 87.777344 108.160156 L 87.777344 109.566406 L 90.234375 109.566406 L 90.234375 110.417969 L 86.765625 110.417969 L 86.765625 105.277344 L 90.179688 105.277344 L 90.179688 106.125 L 87.777344 106.125 L 87.777344 107.328125 L 89.875 107.328125 L 89.875 108.160156 Z M 87.777344 108.160156 " fill-opacity="1" fill-rule="nonzero"/><path fill="#dd0808" d="M 94.039062 110.492188 C 93.566406 110.492188 93.148438 110.394531 92.789062 110.199219 C 92.429688 110 92.144531 109.703125 91.9375 109.308594 C 91.738281 108.914062 91.636719 108.425781 91.636719 107.847656 C 91.636719 107.269531 91.738281 106.785156 91.9375 106.390625 C 92.144531 105.992188 92.429688 105.695312 92.789062 105.5 C 93.148438 105.304688 93.566406 105.203125 94.039062 105.203125 C 94.53125 105.203125 94.953125 105.300781 95.296875 105.496094 C 95.644531 105.6875 95.894531 105.980469 96.039062 106.378906 L 95.296875 106.828125 L 95.214844 106.828125 C 95.101562 106.5625 94.949219 106.371094 94.761719 106.253906 C 94.574219 106.140625 94.332031 106.082031 94.039062 106.082031 C 93.613281 106.082031 93.28125 106.222656 93.042969 106.503906 C 92.800781 106.785156 92.683594 107.230469 92.683594 107.847656 C 92.683594 108.457031 92.800781 108.90625 93.042969 109.191406 C 93.28125 109.472656 93.613281 109.613281 94.039062 109.613281 C 94.707031 109.613281 95.117188 109.289062 95.269531 108.640625 L 95.355469 108.640625 L 96.101562 109.027344 C 95.960938 109.515625 95.722656 109.882812 95.382812 110.125 C 95.042969 110.371094 94.59375 110.492188 94.039062 110.492188 Z M 94.039062 110.492188 " fill-opacity="1" fill-rule="nonzero"/><path fill="#dd0808" d="M 98.582031 110.492188 C 98.113281 110.492188 97.699219 110.394531 97.339844 110.203125 C 96.980469 110.011719 96.695312 109.71875 96.488281 109.324219 C 96.285156 108.929688 96.183594 108.4375 96.183594 107.847656 C 96.183594 107.257812 96.285156 106.765625 96.488281 106.371094 C 96.695312 105.980469 96.980469 105.6875 97.339844 105.496094 C 97.699219 105.300781 98.113281 105.203125 98.582031 105.203125 C 99.054688 105.203125 99.46875 105.296875 99.824219 105.488281 C 100.183594 105.679688 100.464844 105.976562 100.667969 106.371094 C 100.871094 106.765625 100.972656 107.257812 100.972656 107.847656 C 100.972656 108.4375 100.871094 108.929688 100.667969 109.324219 C 100.464844 109.71875 100.183594 110.011719 99.824219 110.203125 C 99.46875 110.394531 99.054688 110.492188 98.582031 110.492188 Z M 98.582031 109.605469 C 99.015625 109.605469 99.347656 109.46875 99.578125 109.191406 C 99.808594 108.910156 99.925781 108.460938 99.925781 107.847656 C 99.925781 107.230469 99.808594 106.785156 99.578125 106.503906 C 99.347656 106.222656 99.015625 106.082031 98.582031 106.082031 C 98.144531 106.082031 97.808594 106.222656 97.574219 106.503906 C 97.34375 106.785156 97.230469 107.230469 97.230469 107.847656 C 97.230469 108.460938 97.34375 108.910156 97.574219 109.191406 C 97.808594 109.46875 98.144531 109.605469 98.582031 109.605469 Z M 98.582031 109.605469 " fill-opacity="1" fill-rule="nonzero"/><path fill="#dd0808" d="M 103.691406 110.492188 C 103.21875 110.492188 102.808594 110.394531 102.445312 110.203125 C 102.085938 110.011719 101.804688 109.71875 101.597656 109.324219 C 101.394531 108.929688 101.292969 108.4375 101.292969 107.847656 C 101.292969 107.257812 101.394531 106.765625 101.597656 106.371094 C 101.804688 105.980469 102.085938 105.6875 102.445312 105.496094 C 102.808594 105.300781 103.21875 105.203125 103.691406 105.203125 C 104.164062 105.203125 104.574219 105.296875 104.933594 105.488281 C 105.292969 105.679688 105.574219 105.976562 105.777344 106.371094 C 105.980469 106.765625 106.082031 107.257812 106.082031 107.847656 C 106.082031 108.4375 105.980469 108.929688 105.777344 109.324219 C 105.574219 109.71875 105.292969 110.011719 104.933594 110.203125 C 104.574219 110.394531 104.164062 110.492188 103.691406 110.492188 Z M 103.691406 109.605469 C 104.125 109.605469 104.457031 109.46875 104.6875 109.191406 C 104.917969 108.910156 105.035156 108.460938 105.035156 107.847656 C 105.035156 107.230469 104.917969 106.785156 104.6875 106.503906 C 104.457031 106.222656 104.125 106.082031 103.691406 106.082031 C 103.25 106.082031 102.914062 106.222656 102.683594 106.503906 C 102.453125 106.785156 102.339844 107.230469 102.339844 107.847656 C 102.339844 108.460938 102.453125 108.910156 102.683594 109.191406 C 102.914062 109.46875 103.25 109.605469 103.691406 109.605469 Z M 103.691406 109.605469 " fill-opacity="1" fill-rule="nonzero"/><path fill="#dd0808" d="M 108.652344 105.277344 C 109.019531 105.277344 109.332031 105.34375 109.59375 105.480469 C 109.855469 105.613281 110.054688 105.804688 110.1875 106.046875 C 110.324219 106.289062 110.390625 106.570312 110.390625 106.890625 C 110.390625 107.214844 110.324219 107.496094 110.1875 107.734375 C 110.054688 107.976562 109.855469 108.160156 109.59375 108.296875 C 109.332031 108.433594 109.019531 108.5 108.652344 108.5 L 107.679688 108.5 L 107.679688 110.417969 L 106.667969 110.417969 L 106.667969 105.277344 Z M 108.519531 107.695312 C 109.082031 107.695312 109.367188 107.425781 109.367188 106.890625 C 109.367188 106.351562 109.082031 106.082031 108.519531 106.082031 L 107.679688 106.082031 L 107.679688 107.695312 Z M 108.519531 107.695312 " fill-opacity="1" fill-rule="nonzero"/><path fill="#dd0808" d="M 111.886719 108.160156 L 111.886719 109.566406 L 114.34375 109.566406 L 114.34375 110.417969 L 110.871094 110.417969 L 110.871094 105.277344 L 114.285156 105.277344 L 114.285156 106.125 L 111.886719 106.125 L 111.886719 107.328125 L 113.984375 107.328125 L 113.984375 108.160156 Z M 111.886719 108.160156 " fill-opacity="1" fill-rule="nonzero"/><path fill="#dd0808" d="M 114.800781 110.417969 L 114.800781 105.277344 L 116.863281 105.277344 C 117.394531 105.277344 117.796875 105.398438 118.066406 105.648438 C 118.339844 105.890625 118.472656 106.230469 118.472656 106.660156 C 118.472656 106.972656 118.394531 107.226562 118.238281 107.425781 C 118.078125 107.625 117.84375 107.777344 117.527344 107.878906 L 117.527344 107.953125 C 117.6875 108.023438 117.816406 108.128906 117.917969 108.269531 C 118.019531 108.40625 118.113281 108.613281 118.203125 108.882812 L 118.714844 110.417969 L 117.667969 110.417969 L 117.167969 108.882812 C 117.113281 108.726562 117.058594 108.609375 116.992188 108.523438 C 116.929688 108.4375 116.847656 108.375 116.746094 108.335938 C 116.648438 108.296875 116.519531 108.273438 116.359375 108.273438 L 115.8125 108.273438 L 115.8125 110.417969 Z M 116.742188 107.46875 C 117.230469 107.46875 117.476562 107.242188 117.476562 106.785156 C 117.476562 106.316406 117.230469 106.082031 116.742188 106.082031 L 115.8125 106.082031 L 115.8125 107.46875 Z M 116.742188 107.46875 " fill-opacity="1" fill-rule="nonzero"/><path fill="#dd0808" d="M 123.378906 110.417969 L 122.308594 110.417969 L 121.921875 109.230469 L 119.953125 109.230469 L 119.566406 110.417969 L 118.523438 110.417969 L 120.296875 105.277344 L 121.601562 105.277344 Z M 120.886719 106.351562 L 120.226562 108.375 L 121.640625 108.375 L 120.976562 106.351562 Z M 120.886719 106.351562 " fill-opacity="1" fill-rule="nonzero"/><path fill="#dd0808" d="M 127.085938 105.277344 L 127.085938 106.132812 L 125.601562 106.132812 L 125.601562 110.417969 L 124.589844 110.417969 L 124.589844 106.132812 L 123.105469 106.132812 L 123.105469 105.277344 Z M 127.085938 105.277344 " fill-opacity="1" fill-rule="nonzero"/><path fill="#dd0808" d="M 127.402344 105.277344 L 128.414062 105.277344 L 128.414062 110.417969 L 127.402344 110.417969 Z M 127.402344 105.277344 " fill-opacity="1" fill-rule="nonzero"/><path fill="#dd0808" d="M 131.652344 110.417969 L 130.425781 110.417969 L 128.6875 105.277344 L 129.769531 105.277344 L 131.015625 109.105469 L 131.105469 109.105469 L 132.332031 105.277344 L 133.386719 105.277344 Z M 131.652344 110.417969 " fill-opacity="1" fill-rule="nonzero"/><path fill="#dd0808" d="M 134.667969 108.160156 L 134.667969 109.566406 L 137.125 109.566406 L 137.125 110.417969 L 133.65625 110.417969 L 133.65625 105.277344 L 137.070312 105.277344 L 137.070312 106.125 L 134.667969 106.125 L 134.667969 107.328125 L 136.765625 107.328125 L 136.765625 108.160156 Z M 134.667969 108.160156 " fill-opacity="1" fill-rule="nonzero"/></svg>